G04*
G04 #@! TF.GenerationSoftware,Altium Limited,Altium Designer,20.2.6 (244)*
G04*
G04 Layer_Physical_Order=2*
G04 Layer_Color=16711680*
%FSAX24Y24*%
%MOIN*%
G70*
G04*
G04 #@! TF.SameCoordinates,F670C94F-DB3F-48BB-9EAE-642EF2030223*
G04*
G04*
G04 #@! TF.FilePolarity,Positive*
G04*
G01*
G75*
%ADD15C,0.0080*%
%ADD27C,0.0200*%
%ADD28R,0.0591X0.0591*%
%ADD29C,0.0591*%
%ADD30R,0.0531X0.0531*%
%ADD31C,0.0531*%
%ADD32R,0.0512X0.0512*%
%ADD33C,0.0512*%
%ADD34C,0.0500*%
%ADD35C,0.0520*%
%ADD36R,0.0520X0.0520*%
%ADD37R,0.0645X0.0645*%
%ADD38C,0.0645*%
%ADD39C,0.0300*%
G36*
X281537Y126017D02*
X235741Y126017D01*
X235741Y145813D01*
X281537Y145813D01*
X281537Y126017D01*
D02*
G37*
%LPC*%
G36*
X238989Y145190D02*
Y144877D01*
X239301D01*
X239295Y144923D01*
X239259Y145012D01*
X239200Y145088D01*
X239124Y145147D01*
X239035Y145184D01*
X238989Y145190D01*
D02*
G37*
G36*
X238889Y145190D02*
X238844Y145184D01*
X238755Y145147D01*
X238678Y145088D01*
X238620Y145012D01*
X238583Y144923D01*
X238577Y144877D01*
X238889D01*
Y145190D01*
D02*
G37*
G36*
X269439Y145337D02*
X255111D01*
X255064Y145328D01*
X255024Y145301D01*
X254331Y144608D01*
X254285Y144627D01*
Y145173D01*
X253593D01*
Y144537D01*
X253203D01*
X253191Y144587D01*
X253241Y144653D01*
X253276Y144737D01*
X253288Y144827D01*
X253276Y144918D01*
X253241Y145002D01*
X253186Y145074D01*
X253113Y145129D01*
X253029Y145164D01*
X252939Y145176D01*
X252849Y145164D01*
X252765Y145129D01*
X252692Y145074D01*
X252637Y145002D01*
X252602Y144918D01*
X252590Y144827D01*
X252602Y144737D01*
X252637Y144653D01*
X252688Y144587D01*
X252676Y144537D01*
X252203D01*
X252191Y144587D01*
X252241Y144653D01*
X252276Y144737D01*
X252288Y144827D01*
X252276Y144918D01*
X252241Y145002D01*
X252186Y145074D01*
X252113Y145129D01*
X252029Y145164D01*
X251939Y145176D01*
X251849Y145164D01*
X251765Y145129D01*
X251692Y145074D01*
X251637Y145002D01*
X251602Y144918D01*
X251590Y144827D01*
X251602Y144737D01*
X251637Y144653D01*
X251688Y144587D01*
X251676Y144537D01*
X251203D01*
X251191Y144587D01*
X251241Y144653D01*
X251276Y144737D01*
X251288Y144827D01*
X251276Y144918D01*
X251241Y145002D01*
X251186Y145074D01*
X251113Y145129D01*
X251029Y145164D01*
X250939Y145176D01*
X250849Y145164D01*
X250765Y145129D01*
X250692Y145074D01*
X250637Y145002D01*
X250602Y144918D01*
X250590Y144827D01*
X250602Y144737D01*
X250637Y144653D01*
X250688Y144587D01*
X250676Y144537D01*
X250402D01*
X250254Y144685D01*
X250276Y144737D01*
X250288Y144827D01*
X250276Y144918D01*
X250241Y145002D01*
X250186Y145074D01*
X250113Y145129D01*
X250029Y145164D01*
X249939Y145176D01*
X249849Y145164D01*
X249765Y145129D01*
X249692Y145074D01*
X249637Y145002D01*
X249602Y144918D01*
X249590Y144827D01*
X249602Y144737D01*
X249637Y144653D01*
X249692Y144581D01*
X249765Y144525D01*
X249849Y144491D01*
X249939Y144479D01*
X250029Y144491D01*
X250081Y144512D01*
X250210Y144383D01*
X250191Y144337D01*
X249602D01*
X249254Y144685D01*
X249276Y144737D01*
X249288Y144827D01*
X249276Y144918D01*
X249241Y145002D01*
X249186Y145074D01*
X249113Y145129D01*
X249029Y145164D01*
X248939Y145176D01*
X248849Y145164D01*
X248765Y145129D01*
X248692Y145074D01*
X248637Y145002D01*
X248602Y144918D01*
X248590Y144827D01*
X248602Y144737D01*
X248637Y144653D01*
X248692Y144581D01*
X248765Y144525D01*
X248849Y144491D01*
X248939Y144479D01*
X249029Y144491D01*
X249081Y144512D01*
X249410Y144184D01*
X249391Y144137D01*
X248802D01*
X248254Y144685D01*
X248276Y144737D01*
X248288Y144827D01*
X248276Y144918D01*
X248241Y145002D01*
X248186Y145074D01*
X248113Y145129D01*
X248029Y145164D01*
X247939Y145176D01*
X247849Y145164D01*
X247765Y145129D01*
X247692Y145074D01*
X247637Y145002D01*
X247602Y144918D01*
X247590Y144827D01*
X247602Y144737D01*
X247637Y144653D01*
X247692Y144581D01*
X247765Y144525D01*
X247849Y144491D01*
X247939Y144479D01*
X248029Y144491D01*
X248081Y144512D01*
X248610Y143983D01*
X248591Y143937D01*
X248002D01*
X247254Y144685D01*
X247276Y144737D01*
X247288Y144827D01*
X247276Y144918D01*
X247241Y145002D01*
X247186Y145074D01*
X247113Y145129D01*
X247029Y145164D01*
X246939Y145176D01*
X246849Y145164D01*
X246765Y145129D01*
X246692Y145074D01*
X246637Y145002D01*
X246602Y144918D01*
X246590Y144827D01*
X246602Y144737D01*
X246637Y144653D01*
X246692Y144581D01*
X246765Y144525D01*
X246849Y144491D01*
X246939Y144479D01*
X247029Y144491D01*
X247081Y144512D01*
X247810Y143784D01*
X247791Y143737D01*
X247202D01*
X246254Y144685D01*
X246276Y144737D01*
X246288Y144827D01*
X246276Y144918D01*
X246241Y145002D01*
X246186Y145074D01*
X246113Y145129D01*
X246029Y145164D01*
X245939Y145176D01*
X245849Y145164D01*
X245765Y145129D01*
X245692Y145074D01*
X245637Y145002D01*
X245602Y144918D01*
X245590Y144827D01*
X245602Y144737D01*
X245637Y144653D01*
X245692Y144581D01*
X245765Y144525D01*
X245849Y144491D01*
X245939Y144479D01*
X246029Y144491D01*
X246081Y144512D01*
X247010Y143583D01*
X246991Y143537D01*
X246402D01*
X245254Y144685D01*
X245276Y144737D01*
X245288Y144827D01*
X245276Y144918D01*
X245241Y145002D01*
X245186Y145074D01*
X245113Y145129D01*
X245029Y145164D01*
X244939Y145176D01*
X244849Y145164D01*
X244765Y145129D01*
X244692Y145074D01*
X244637Y145002D01*
X244602Y144918D01*
X244590Y144827D01*
X244602Y144737D01*
X244637Y144653D01*
X244692Y144581D01*
X244765Y144525D01*
X244849Y144491D01*
X244939Y144479D01*
X245029Y144491D01*
X245081Y144512D01*
X246210Y143384D01*
X246191Y143337D01*
X245602D01*
X244254Y144685D01*
X244276Y144737D01*
X244288Y144827D01*
X244276Y144918D01*
X244241Y145002D01*
X244186Y145074D01*
X244113Y145129D01*
X244029Y145164D01*
X243939Y145176D01*
X243849Y145164D01*
X243765Y145129D01*
X243692Y145074D01*
X243637Y145002D01*
X243602Y144918D01*
X243590Y144827D01*
X243602Y144737D01*
X243637Y144653D01*
X243692Y144581D01*
X243765Y144525D01*
X243849Y144491D01*
X243939Y144479D01*
X244029Y144491D01*
X244081Y144512D01*
X245410Y143183D01*
X245391Y143137D01*
X244802D01*
X243254Y144685D01*
X243276Y144737D01*
X243288Y144827D01*
X243276Y144918D01*
X243241Y145002D01*
X243186Y145074D01*
X243113Y145129D01*
X243029Y145164D01*
X242939Y145176D01*
X242849Y145164D01*
X242765Y145129D01*
X242692Y145074D01*
X242637Y145002D01*
X242602Y144918D01*
X242590Y144827D01*
X242602Y144737D01*
X242637Y144653D01*
X242692Y144581D01*
X242765Y144525D01*
X242849Y144491D01*
X242939Y144479D01*
X243029Y144491D01*
X243081Y144512D01*
X244610Y142984D01*
X244591Y142937D01*
X244002D01*
X242254Y144685D01*
X242276Y144737D01*
X242288Y144827D01*
X242276Y144918D01*
X242241Y145002D01*
X242186Y145074D01*
X242113Y145129D01*
X242029Y145164D01*
X241939Y145176D01*
X241849Y145164D01*
X241765Y145129D01*
X241692Y145074D01*
X241637Y145002D01*
X241602Y144918D01*
X241590Y144827D01*
X241602Y144737D01*
X241637Y144653D01*
X241692Y144581D01*
X241765Y144525D01*
X241849Y144491D01*
X241939Y144479D01*
X242029Y144491D01*
X242081Y144512D01*
X243810Y142783D01*
X243791Y142737D01*
X243202D01*
X241254Y144685D01*
X241276Y144737D01*
X241288Y144827D01*
X241276Y144918D01*
X241241Y145002D01*
X241186Y145074D01*
X241113Y145129D01*
X241029Y145164D01*
X240939Y145176D01*
X240849Y145164D01*
X240765Y145129D01*
X240692Y145074D01*
X240637Y145002D01*
X240602Y144918D01*
X240590Y144827D01*
X240602Y144737D01*
X240637Y144653D01*
X240692Y144581D01*
X240765Y144525D01*
X240849Y144491D01*
X240939Y144479D01*
X241029Y144491D01*
X241081Y144512D01*
X243010Y142584D01*
X242991Y142537D01*
X242402D01*
X240254Y144685D01*
X240276Y144737D01*
X240288Y144827D01*
X240276Y144918D01*
X240241Y145002D01*
X240186Y145074D01*
X240113Y145129D01*
X240029Y145164D01*
X239939Y145176D01*
X239849Y145164D01*
X239765Y145129D01*
X239692Y145074D01*
X239637Y145002D01*
X239602Y144918D01*
X239590Y144827D01*
X239602Y144737D01*
X239637Y144653D01*
X239692Y144581D01*
X239765Y144525D01*
X239849Y144491D01*
X239939Y144479D01*
X240029Y144491D01*
X240081Y144512D01*
X242265Y142328D01*
X242305Y142302D01*
X242352Y142293D01*
X255139D01*
X255186Y142302D01*
X255226Y142328D01*
X255402Y142505D01*
X255448Y142486D01*
Y142326D01*
X255754D01*
Y142632D01*
X255594D01*
X255575Y142678D01*
X255990Y143093D01*
X259588D01*
X260353Y142328D01*
X260392Y142302D01*
X260439Y142293D01*
X261139D01*
X261186Y142302D01*
X261226Y142328D01*
X261551Y142654D01*
X261600Y142634D01*
X261689Y142622D01*
X261778Y142634D01*
X261861Y142668D01*
X261932Y142722D01*
X261986Y142793D01*
X262020Y142876D01*
X262032Y142965D01*
X262020Y143054D01*
X261986Y143136D01*
X261932Y143207D01*
X261886Y143243D01*
X261903Y143293D01*
X262188D01*
X262378Y143103D01*
X262358Y143054D01*
X262346Y142965D01*
X262358Y142876D01*
X262392Y142793D01*
X262447Y142722D01*
X262518Y142668D01*
X262600Y142634D01*
X262689Y142622D01*
X262778Y142634D01*
X262861Y142668D01*
X262932Y142722D01*
X262986Y142793D01*
X263020Y142876D01*
X263032Y142965D01*
X263020Y143054D01*
X262986Y143136D01*
X262932Y143207D01*
X262861Y143262D01*
X262778Y143296D01*
X262689Y143308D01*
X262600Y143296D01*
X262551Y143276D01*
X262381Y143446D01*
X262400Y143493D01*
X262988D01*
X263378Y143103D01*
X263358Y143054D01*
X263346Y142965D01*
X263358Y142876D01*
X263392Y142793D01*
X263447Y142722D01*
X263518Y142668D01*
X263600Y142634D01*
X263689Y142622D01*
X263778Y142634D01*
X263861Y142668D01*
X263932Y142722D01*
X263986Y142793D01*
X264020Y142876D01*
X264032Y142965D01*
X264020Y143054D01*
X263986Y143136D01*
X263932Y143207D01*
X263861Y143262D01*
X263778Y143296D01*
X263689Y143308D01*
X263600Y143296D01*
X263551Y143276D01*
X263181Y143646D01*
X263200Y143693D01*
X263788D01*
X264378Y143103D01*
X264358Y143054D01*
X264346Y142965D01*
X264358Y142876D01*
X264392Y142793D01*
X264447Y142722D01*
X264518Y142668D01*
X264600Y142634D01*
X264689Y142622D01*
X264778Y142634D01*
X264861Y142668D01*
X264932Y142722D01*
X264986Y142793D01*
X265020Y142876D01*
X265032Y142965D01*
X265020Y143054D01*
X264986Y143136D01*
X264932Y143207D01*
X264861Y143262D01*
X264778Y143296D01*
X264689Y143308D01*
X264600Y143296D01*
X264551Y143276D01*
X263981Y143846D01*
X264000Y143893D01*
X264588D01*
X265378Y143103D01*
X265358Y143054D01*
X265346Y142965D01*
X265358Y142876D01*
X265392Y142793D01*
X265447Y142722D01*
X265518Y142668D01*
X265600Y142634D01*
X265689Y142622D01*
X265778Y142634D01*
X265861Y142668D01*
X265932Y142722D01*
X265986Y142793D01*
X266020Y142876D01*
X266032Y142965D01*
X266020Y143054D01*
X265986Y143136D01*
X265932Y143207D01*
X265861Y143262D01*
X265778Y143296D01*
X265689Y143308D01*
X265600Y143296D01*
X265551Y143276D01*
X264781Y144046D01*
X264800Y144093D01*
X265388D01*
X266378Y143103D01*
X266358Y143054D01*
X266346Y142965D01*
X266358Y142876D01*
X266392Y142793D01*
X266447Y142722D01*
X266518Y142668D01*
X266600Y142634D01*
X266689Y142622D01*
X266778Y142634D01*
X266827Y142654D01*
X267553Y141928D01*
X267592Y141902D01*
X267639Y141893D01*
X270435D01*
X270679Y141648D01*
X270663Y141594D01*
X270599Y141582D01*
X270523Y141531D01*
X270472Y141455D01*
X270455Y141365D01*
X270472Y141275D01*
X270523Y141199D01*
X270599Y141148D01*
X270689Y141130D01*
X270740Y141141D01*
X271741Y140140D01*
X271716Y140094D01*
X271689Y140099D01*
X271599Y140082D01*
X271523Y140031D01*
X271472Y139955D01*
X271455Y139865D01*
X271472Y139775D01*
X271433Y139744D01*
X269926Y141251D01*
X269886Y141278D01*
X269839Y141287D01*
X269090D01*
X268913Y141464D01*
X268924Y141515D01*
X268906Y141605D01*
X268855Y141681D01*
X268779Y141732D01*
X268689Y141749D01*
X268599Y141732D01*
X268523Y141681D01*
X268472Y141605D01*
X268455Y141515D01*
X268472Y141425D01*
X268523Y141349D01*
X268599Y141298D01*
X268689Y141280D01*
X268740Y141291D01*
X268953Y141078D01*
X268992Y141052D01*
X269039Y141043D01*
X269526D01*
X269541Y140993D01*
X269523Y140981D01*
X269472Y140905D01*
X269455Y140815D01*
X269472Y140725D01*
X269523Y140649D01*
X269599Y140598D01*
X269689Y140580D01*
X269740Y140591D01*
X272767Y137564D01*
Y131766D01*
X271638Y130637D01*
X270289D01*
X270242Y130628D01*
X270203Y130601D01*
X268825Y129224D01*
X268744Y129257D01*
X268639Y129271D01*
X268534Y129257D01*
X268436Y129217D01*
X268352Y129152D01*
X268311Y129099D01*
X268261Y129116D01*
Y130404D01*
X268426Y130568D01*
X268452Y130608D01*
X268461Y130655D01*
Y130742D01*
X268482Y130752D01*
X268511Y130756D01*
X268566Y130685D01*
X268644Y130625D01*
X268735Y130587D01*
X268833Y130574D01*
X268931Y130587D01*
X269023Y130625D01*
X269101Y130685D01*
X269161Y130763D01*
X269199Y130855D01*
X269212Y130952D01*
X269199Y131050D01*
X269161Y131142D01*
X269101Y131220D01*
X269023Y131280D01*
X268931Y131318D01*
X268833Y131331D01*
X268735Y131318D01*
X268644Y131280D01*
X268566Y131220D01*
X268511Y131149D01*
X268482Y131153D01*
X268461Y131163D01*
Y131364D01*
X271126Y134028D01*
X271152Y134068D01*
X271161Y134115D01*
Y136615D01*
X271152Y136662D01*
X271126Y136701D01*
X271000Y136827D01*
X271020Y136876D01*
X271032Y136965D01*
X271020Y137054D01*
X270986Y137136D01*
X270932Y137207D01*
X270861Y137262D01*
X270778Y137296D01*
X270689Y137308D01*
X270600Y137296D01*
X270518Y137262D01*
X270447Y137207D01*
X270392Y137136D01*
X270358Y137054D01*
X270346Y136965D01*
X270358Y136876D01*
X270378Y136827D01*
X268838Y135287D01*
X268250D01*
X268231Y135333D01*
X269551Y136654D01*
X269600Y136634D01*
X269689Y136622D01*
X269778Y136634D01*
X269861Y136668D01*
X269932Y136722D01*
X269986Y136793D01*
X270020Y136876D01*
X270032Y136965D01*
X270020Y137054D01*
X269986Y137136D01*
X269932Y137207D01*
X269861Y137262D01*
X269778Y137296D01*
X269689Y137308D01*
X269600Y137296D01*
X269518Y137262D01*
X269447Y137207D01*
X269392Y137136D01*
X269358Y137054D01*
X269346Y136965D01*
X269358Y136876D01*
X269378Y136827D01*
X268038Y135487D01*
X266450D01*
X266431Y135534D01*
X267551Y136654D01*
X267600Y136634D01*
X267689Y136622D01*
X267778Y136634D01*
X267861Y136668D01*
X267932Y136722D01*
X267986Y136793D01*
X268020Y136876D01*
X268032Y136965D01*
X268020Y137054D01*
X267986Y137136D01*
X267932Y137207D01*
X267861Y137262D01*
X267778Y137296D01*
X267689Y137308D01*
X267600Y137296D01*
X267518Y137262D01*
X267447Y137207D01*
X267392Y137136D01*
X267358Y137054D01*
X267346Y136965D01*
X267358Y136876D01*
X267378Y136827D01*
X266238Y135687D01*
X265650D01*
X265631Y135733D01*
X266551Y136654D01*
X266600Y136634D01*
X266689Y136622D01*
X266778Y136634D01*
X266861Y136668D01*
X266932Y136722D01*
X266986Y136793D01*
X267020Y136876D01*
X267032Y136965D01*
X267020Y137054D01*
X266986Y137136D01*
X266932Y137207D01*
X266861Y137262D01*
X266778Y137296D01*
X266689Y137308D01*
X266600Y137296D01*
X266518Y137262D01*
X266447Y137207D01*
X266392Y137136D01*
X266358Y137054D01*
X266346Y136965D01*
X266358Y136876D01*
X266378Y136827D01*
X265438Y135887D01*
X263850D01*
X263831Y135934D01*
X264551Y136654D01*
X264600Y136634D01*
X264689Y136622D01*
X264778Y136634D01*
X264861Y136668D01*
X264932Y136722D01*
X264986Y136793D01*
X265020Y136876D01*
X265032Y136965D01*
X265020Y137054D01*
X264986Y137136D01*
X264932Y137207D01*
X264861Y137262D01*
X264778Y137296D01*
X264689Y137308D01*
X264600Y137296D01*
X264518Y137262D01*
X264447Y137207D01*
X264392Y137136D01*
X264358Y137054D01*
X264346Y136965D01*
X264358Y136876D01*
X264378Y136827D01*
X263638Y136087D01*
X263050D01*
X263031Y136133D01*
X263551Y136654D01*
X263600Y136634D01*
X263689Y136622D01*
X263778Y136634D01*
X263861Y136668D01*
X263932Y136722D01*
X263986Y136793D01*
X264020Y136876D01*
X264032Y136965D01*
X264020Y137054D01*
X263986Y137136D01*
X263932Y137207D01*
X263861Y137262D01*
X263778Y137296D01*
X263689Y137308D01*
X263600Y137296D01*
X263518Y137262D01*
X263447Y137207D01*
X263392Y137136D01*
X263358Y137054D01*
X263346Y136965D01*
X263358Y136876D01*
X263378Y136827D01*
X262838Y136287D01*
X262250D01*
X262231Y136334D01*
X262551Y136654D01*
X262600Y136634D01*
X262689Y136622D01*
X262778Y136634D01*
X262861Y136668D01*
X262932Y136722D01*
X262986Y136793D01*
X263020Y136876D01*
X263032Y136965D01*
X263020Y137054D01*
X262986Y137136D01*
X262932Y137207D01*
X262861Y137262D01*
X262778Y137296D01*
X262689Y137308D01*
X262600Y137296D01*
X262518Y137262D01*
X262447Y137207D01*
X262392Y137136D01*
X262358Y137054D01*
X262346Y136965D01*
X262358Y136876D01*
X262378Y136827D01*
X262038Y136487D01*
X261450D01*
X261431Y136533D01*
X261551Y136654D01*
X261600Y136634D01*
X261689Y136622D01*
X261778Y136634D01*
X261861Y136668D01*
X261932Y136722D01*
X261986Y136793D01*
X262020Y136876D01*
X262032Y136965D01*
X262020Y137054D01*
X261986Y137136D01*
X261932Y137207D01*
X261861Y137262D01*
X261778Y137296D01*
X261689Y137308D01*
X261600Y137296D01*
X261518Y137262D01*
X261447Y137207D01*
X261392Y137136D01*
X261358Y137054D01*
X261346Y136965D01*
X261358Y136876D01*
X261378Y136827D01*
X261238Y136687D01*
X260963D01*
X260943Y136737D01*
X260986Y136793D01*
X261020Y136876D01*
X261032Y136965D01*
X261020Y137054D01*
X260986Y137136D01*
X260932Y137207D01*
X260861Y137262D01*
X260778Y137296D01*
X260689Y137308D01*
X260600Y137296D01*
X260518Y137262D01*
X260447Y137207D01*
X260392Y137136D01*
X260372Y137087D01*
X259052D01*
X255338Y140801D01*
X255299Y140828D01*
X255252Y140837D01*
X240952D01*
X240905Y140828D01*
X240865Y140801D01*
X239081Y139018D01*
X239029Y139039D01*
X238939Y139051D01*
X238849Y139039D01*
X238765Y139004D01*
X238692Y138949D01*
X238637Y138877D01*
X238602Y138793D01*
X238590Y138702D01*
X238602Y138612D01*
X238637Y138528D01*
X238684Y138467D01*
X238667Y138417D01*
X237819D01*
X237772Y138408D01*
X237733Y138381D01*
X236203Y136851D01*
X236176Y136812D01*
X236167Y136765D01*
Y128305D01*
X236176Y128258D01*
X236203Y128218D01*
X237280Y127141D01*
X237247Y127060D01*
X237233Y126955D01*
X237247Y126850D01*
X237287Y126752D01*
X237352Y126668D01*
X237436Y126603D01*
X237534Y126563D01*
X237639Y126549D01*
X237744Y126563D01*
X237842Y126603D01*
X237926Y126668D01*
X237991Y126752D01*
X238031Y126850D01*
X238045Y126955D01*
X238031Y127060D01*
X237991Y127158D01*
X237926Y127242D01*
X237842Y127307D01*
X237744Y127347D01*
X237639Y127361D01*
X237534Y127347D01*
X237453Y127314D01*
X236411Y128356D01*
Y136714D01*
X236468Y136771D01*
X236523Y136760D01*
X236525Y136757D01*
X236517Y136715D01*
Y128615D01*
X236526Y128568D01*
X236553Y128528D01*
X237553Y127528D01*
X237592Y127502D01*
X237639Y127493D01*
X237928D01*
X238280Y127141D01*
X238247Y127060D01*
X238233Y126955D01*
X238247Y126850D01*
X238287Y126752D01*
X238352Y126668D01*
X238436Y126603D01*
X238534Y126563D01*
X238639Y126549D01*
X238744Y126563D01*
X238842Y126603D01*
X238926Y126668D01*
X238991Y126752D01*
X239031Y126850D01*
X239045Y126955D01*
X239031Y127060D01*
X238991Y127158D01*
X238926Y127242D01*
X238842Y127307D01*
X238744Y127347D01*
X238639Y127361D01*
X238534Y127347D01*
X238453Y127314D01*
X238066Y127701D01*
X238026Y127728D01*
X237979Y127737D01*
X237690D01*
X236761Y128666D01*
Y136664D01*
X238062Y137965D01*
X238092Y137961D01*
X238111Y137910D01*
X236903Y136701D01*
X236876Y136662D01*
X236867Y136615D01*
Y128765D01*
X236876Y128718D01*
X236903Y128678D01*
X237553Y128028D01*
X237592Y128002D01*
X237639Y127993D01*
X237938D01*
X238403Y127528D01*
X238442Y127502D01*
X238489Y127493D01*
X238928D01*
X239280Y127141D01*
X239247Y127060D01*
X239233Y126955D01*
X239247Y126850D01*
X239287Y126752D01*
X239352Y126668D01*
X239436Y126603D01*
X239534Y126563D01*
X239639Y126549D01*
X239744Y126563D01*
X239842Y126603D01*
X239926Y126668D01*
X239991Y126752D01*
X240031Y126850D01*
X240045Y126955D01*
X240031Y127060D01*
X239991Y127158D01*
X239926Y127242D01*
X239842Y127307D01*
X239744Y127347D01*
X239639Y127361D01*
X239534Y127347D01*
X239453Y127314D01*
X239066Y127701D01*
X239026Y127728D01*
X238979Y127737D01*
X238540D01*
X238076Y128201D01*
X238036Y128228D01*
X237989Y128237D01*
X237690D01*
X237523Y128404D01*
X237547Y128451D01*
X237589Y128445D01*
Y128815D01*
X237219D01*
X237225Y128773D01*
X237178Y128749D01*
X237111Y128816D01*
Y136564D01*
X237568Y137021D01*
X237623Y137010D01*
X237625Y137007D01*
X237617Y136965D01*
Y129615D01*
X237626Y129568D01*
X237653Y129528D01*
X237989Y129192D01*
X237987Y129187D01*
X237964Y129177D01*
X237933Y129172D01*
X237852Y129234D01*
X237749Y129277D01*
X237689Y129285D01*
Y128865D01*
Y128445D01*
X237749Y128453D01*
X237852Y128496D01*
X237940Y128564D01*
X237967Y128598D01*
X238017Y128581D01*
Y128465D01*
X238026Y128418D01*
X238053Y128378D01*
X238403Y128028D01*
X238442Y128002D01*
X238489Y127993D01*
X238888D01*
X239353Y127528D01*
X239392Y127502D01*
X239439Y127493D01*
X239928D01*
X240280Y127141D01*
X240247Y127060D01*
X240233Y126955D01*
X240247Y126850D01*
X240287Y126752D01*
X240352Y126668D01*
X240436Y126603D01*
X240534Y126563D01*
X240639Y126549D01*
X240744Y126563D01*
X240842Y126603D01*
X240926Y126668D01*
X240991Y126752D01*
X241031Y126850D01*
X241045Y126955D01*
X241031Y127060D01*
X240991Y127158D01*
X240926Y127242D01*
X240842Y127307D01*
X240744Y127347D01*
X240639Y127361D01*
X240534Y127347D01*
X240453Y127314D01*
X240066Y127701D01*
X240026Y127728D01*
X239979Y127737D01*
X239490D01*
X239026Y128201D01*
X238986Y128228D01*
X238939Y128237D01*
X238540D01*
X238261Y128516D01*
Y128614D01*
X238311Y128631D01*
X238352Y128578D01*
X238436Y128513D01*
X238534Y128473D01*
X238639Y128459D01*
X238744Y128473D01*
X238842Y128513D01*
X238926Y128578D01*
X238967Y128631D01*
X239017Y128614D01*
Y128415D01*
X239026Y128368D01*
X239053Y128328D01*
X239353Y128028D01*
X239392Y128002D01*
X239439Y127993D01*
X239901D01*
X240365Y127528D01*
X240405Y127502D01*
X240452Y127493D01*
X240928D01*
X241280Y127141D01*
X241247Y127060D01*
X241233Y126955D01*
X241247Y126850D01*
X241287Y126752D01*
X241352Y126668D01*
X241436Y126603D01*
X241534Y126563D01*
X241639Y126549D01*
X241744Y126563D01*
X241842Y126603D01*
X241926Y126668D01*
X241991Y126752D01*
X242031Y126850D01*
X242045Y126955D01*
X242031Y127060D01*
X241991Y127158D01*
X241926Y127242D01*
X241842Y127307D01*
X241744Y127347D01*
X241639Y127361D01*
X241534Y127347D01*
X241453Y127314D01*
X241066Y127701D01*
X241026Y127728D01*
X240979Y127737D01*
X240502D01*
X240038Y128201D01*
X239998Y128228D01*
X239952Y128237D01*
X239490D01*
X239261Y128466D01*
Y128614D01*
X239311Y128631D01*
X239352Y128578D01*
X239436Y128513D01*
X239534Y128473D01*
X239639Y128459D01*
X239744Y128473D01*
X239842Y128513D01*
X239926Y128578D01*
X239967Y128631D01*
X240017Y128614D01*
Y128512D01*
X240026Y128465D01*
X240053Y128425D01*
X240449Y128028D01*
X240489Y128002D01*
X240536Y127993D01*
X241428D01*
X242280Y127141D01*
X242247Y127060D01*
X242233Y126955D01*
X242247Y126850D01*
X242287Y126752D01*
X242352Y126668D01*
X242436Y126603D01*
X242534Y126563D01*
X242639Y126549D01*
X242744Y126563D01*
X242842Y126603D01*
X242926Y126668D01*
X242991Y126752D01*
X243031Y126850D01*
X243045Y126955D01*
X243031Y127060D01*
X242991Y127158D01*
X242926Y127242D01*
X242842Y127307D01*
X242744Y127347D01*
X242639Y127361D01*
X242534Y127347D01*
X242453Y127314D01*
X241566Y128201D01*
X241526Y128228D01*
X241479Y128237D01*
X240587D01*
X240261Y128562D01*
Y128614D01*
X240311Y128631D01*
X240352Y128578D01*
X240436Y128513D01*
X240534Y128473D01*
X240639Y128459D01*
X240744Y128473D01*
X240842Y128513D01*
X240926Y128578D01*
X240991Y128662D01*
X241031Y128760D01*
X241045Y128865D01*
X241031Y128970D01*
X240991Y129068D01*
X240926Y129152D01*
X240842Y129217D01*
X240744Y129257D01*
X240639Y129271D01*
X240534Y129257D01*
X240436Y129217D01*
X240352Y129152D01*
X240311Y129099D01*
X240264Y129114D01*
X240261Y129116D01*
X240252Y129162D01*
X240226Y129201D01*
X238864Y130563D01*
X238887Y130611D01*
X238939Y130604D01*
X239029Y130616D01*
X239081Y130637D01*
X240240Y129478D01*
X240280Y129452D01*
X240327Y129443D01*
X243888D01*
X244280Y129051D01*
X244247Y128970D01*
X244233Y128865D01*
X244247Y128760D01*
X244287Y128662D01*
X244352Y128578D01*
X244436Y128513D01*
X244534Y128473D01*
X244639Y128459D01*
X244744Y128473D01*
X244842Y128513D01*
X244926Y128578D01*
X244991Y128662D01*
X245031Y128760D01*
X245045Y128865D01*
X245031Y128970D01*
X244991Y129068D01*
X244926Y129152D01*
X244842Y129217D01*
X244744Y129257D01*
X244639Y129271D01*
X244534Y129257D01*
X244453Y129224D01*
X244081Y129596D01*
X244100Y129643D01*
X244688D01*
X245280Y129051D01*
X245247Y128970D01*
X245233Y128865D01*
X245247Y128760D01*
X245287Y128662D01*
X245352Y128578D01*
X245436Y128513D01*
X245534Y128473D01*
X245639Y128459D01*
X245744Y128473D01*
X245842Y128513D01*
X245926Y128578D01*
X245991Y128662D01*
X246031Y128760D01*
X246045Y128865D01*
X246031Y128970D01*
X245991Y129068D01*
X245926Y129152D01*
X245842Y129217D01*
X245744Y129257D01*
X245639Y129271D01*
X245534Y129257D01*
X245453Y129224D01*
X244881Y129796D01*
X244900Y129843D01*
X245438D01*
X246266Y129015D01*
X246247Y128970D01*
X246233Y128865D01*
X246247Y128760D01*
X246287Y128662D01*
X246352Y128578D01*
X246436Y128513D01*
X246534Y128473D01*
X246639Y128459D01*
X246744Y128473D01*
X246842Y128513D01*
X246926Y128578D01*
X246991Y128662D01*
X247031Y128760D01*
X247045Y128865D01*
X247031Y128970D01*
X246991Y129068D01*
X246926Y129152D01*
X246842Y129217D01*
X246744Y129257D01*
X246639Y129271D01*
X246534Y129257D01*
X246436Y129217D01*
X246422Y129205D01*
X245631Y129996D01*
X245650Y130043D01*
X246288D01*
X247280Y129051D01*
X247247Y128970D01*
X247233Y128865D01*
X247247Y128760D01*
X247287Y128662D01*
X247352Y128578D01*
X247436Y128513D01*
X247534Y128473D01*
X247639Y128459D01*
X247744Y128473D01*
X247842Y128513D01*
X247926Y128578D01*
X247991Y128662D01*
X248031Y128760D01*
X248045Y128865D01*
X248031Y128970D01*
X247991Y129068D01*
X247926Y129152D01*
X247842Y129217D01*
X247744Y129257D01*
X247639Y129271D01*
X247534Y129257D01*
X247453Y129224D01*
X246481Y130196D01*
X246500Y130243D01*
X247088D01*
X248280Y129051D01*
X248247Y128970D01*
X248233Y128865D01*
X248247Y128760D01*
X248287Y128662D01*
X248352Y128578D01*
X248436Y128513D01*
X248534Y128473D01*
X248639Y128459D01*
X248744Y128473D01*
X248842Y128513D01*
X248926Y128578D01*
X248967Y128631D01*
X249014Y128616D01*
X249017Y128614D01*
X249026Y128568D01*
X249053Y128528D01*
X250103Y127478D01*
X250142Y127452D01*
X250189Y127443D01*
X260978D01*
X261280Y127141D01*
X261247Y127060D01*
X261233Y126955D01*
X261247Y126850D01*
X261287Y126752D01*
X261352Y126668D01*
X261436Y126603D01*
X261534Y126563D01*
X261639Y126549D01*
X261744Y126563D01*
X261842Y126603D01*
X261926Y126668D01*
X261991Y126752D01*
X262031Y126850D01*
X262045Y126955D01*
X262031Y127060D01*
X261991Y127158D01*
X261926Y127242D01*
X261842Y127307D01*
X261744Y127347D01*
X261639Y127361D01*
X261534Y127347D01*
X261453Y127314D01*
X261116Y127651D01*
X261076Y127678D01*
X261029Y127687D01*
X258700D01*
X258681Y127733D01*
X259453Y128506D01*
X259534Y128473D01*
X259639Y128459D01*
X259744Y128473D01*
X259842Y128513D01*
X259926Y128578D01*
X259991Y128662D01*
X260031Y128760D01*
X260045Y128865D01*
X260031Y128970D01*
X259991Y129068D01*
X259926Y129152D01*
X259842Y129217D01*
X259744Y129257D01*
X259639Y129271D01*
X259534Y129257D01*
X259436Y129217D01*
X259352Y129152D01*
X259287Y129068D01*
X259247Y128970D01*
X259233Y128865D01*
X259247Y128760D01*
X259280Y128679D01*
X258488Y127887D01*
X257900D01*
X257881Y127934D01*
X258453Y128506D01*
X258534Y128473D01*
X258639Y128459D01*
X258744Y128473D01*
X258842Y128513D01*
X258926Y128578D01*
X258991Y128662D01*
X259031Y128760D01*
X259045Y128865D01*
X259031Y128970D01*
X258991Y129068D01*
X258926Y129152D01*
X258842Y129217D01*
X258744Y129257D01*
X258639Y129271D01*
X258534Y129257D01*
X258436Y129217D01*
X258352Y129152D01*
X258287Y129068D01*
X258247Y128970D01*
X258233Y128865D01*
X258247Y128760D01*
X258280Y128679D01*
X257688Y128087D01*
X252246D01*
X252245Y128092D01*
X252238Y128137D01*
X252305Y128182D01*
X252356Y128258D01*
X252374Y128348D01*
X252356Y128438D01*
X252305Y128514D01*
X252261Y128543D01*
Y128614D01*
X252311Y128631D01*
X252352Y128578D01*
X252436Y128513D01*
X252534Y128473D01*
X252639Y128459D01*
X252744Y128473D01*
X252842Y128513D01*
X252926Y128578D01*
X252991Y128662D01*
X253031Y128760D01*
X253045Y128865D01*
X253031Y128970D01*
X252991Y129068D01*
X252926Y129152D01*
X252842Y129217D01*
X252744Y129257D01*
X252639Y129271D01*
X252534Y129257D01*
X252436Y129217D01*
X252352Y129152D01*
X252311Y129099D01*
X252261Y129116D01*
Y130165D01*
X252252Y130212D01*
X252226Y130251D01*
X252061Y130416D01*
Y130629D01*
X252113Y130650D01*
X252186Y130706D01*
X252241Y130778D01*
X252276Y130862D01*
X252288Y130952D01*
X252276Y131043D01*
X252241Y131127D01*
X252186Y131199D01*
X252113Y131254D01*
X252029Y131289D01*
X251939Y131301D01*
X251849Y131289D01*
X251765Y131254D01*
X251692Y131199D01*
X251637Y131127D01*
X251602Y131043D01*
X251590Y130952D01*
X251602Y130862D01*
X251637Y130778D01*
X251692Y130706D01*
X251765Y130650D01*
X251817Y130629D01*
Y130365D01*
X251826Y130318D01*
X251853Y130278D01*
X252017Y130114D01*
Y129116D01*
X251967Y129099D01*
X251926Y129152D01*
X251842Y129217D01*
X251744Y129257D01*
X251639Y129271D01*
X251534Y129257D01*
X251436Y129217D01*
X251352Y129152D01*
X251311Y129099D01*
X251261Y129116D01*
Y130680D01*
X251252Y130727D01*
X251229Y130762D01*
X251241Y130778D01*
X251276Y130862D01*
X251288Y130952D01*
X251276Y131043D01*
X251241Y131127D01*
X251186Y131199D01*
X251113Y131254D01*
X251029Y131289D01*
X250939Y131301D01*
X250849Y131289D01*
X250765Y131254D01*
X250692Y131199D01*
X250637Y131127D01*
X250602Y131043D01*
X250590Y130952D01*
X250602Y130862D01*
X250637Y130778D01*
X250692Y130706D01*
X250765Y130650D01*
X250849Y130616D01*
X250939Y130604D01*
X250979Y130609D01*
X251017Y130576D01*
Y129116D01*
X250967Y129099D01*
X250926Y129152D01*
X250842Y129217D01*
X250744Y129257D01*
X250639Y129271D01*
X250534Y129257D01*
X250436Y129217D01*
X250352Y129152D01*
X250311Y129099D01*
X250261Y129116D01*
Y130680D01*
X250252Y130727D01*
X250229Y130762D01*
X250241Y130778D01*
X250276Y130862D01*
X250288Y130952D01*
X250276Y131043D01*
X250241Y131127D01*
X250186Y131199D01*
X250113Y131254D01*
X250029Y131289D01*
X249939Y131301D01*
X249849Y131289D01*
X249765Y131254D01*
X249692Y131199D01*
X249637Y131127D01*
X249602Y131043D01*
X249590Y130952D01*
X249602Y130862D01*
X249637Y130778D01*
X249692Y130706D01*
X249765Y130650D01*
X249849Y130616D01*
X249939Y130604D01*
X249979Y130609D01*
X250017Y130576D01*
Y129149D01*
X249967Y129132D01*
X249940Y129166D01*
X249852Y129234D01*
X249749Y129277D01*
X249689Y129285D01*
Y128865D01*
Y128445D01*
X249749Y128453D01*
X249852Y128496D01*
X249940Y128564D01*
X249977Y128611D01*
X249990Y128613D01*
X250035Y128605D01*
X250053Y128578D01*
X250897Y127733D01*
X250878Y127687D01*
X250240D01*
X249523Y128404D01*
X249547Y128451D01*
X249589Y128445D01*
Y128865D01*
Y129285D01*
X249529Y129277D01*
X249426Y129234D01*
X249338Y129166D01*
X249311Y129132D01*
X249261Y129149D01*
Y129165D01*
X249252Y129212D01*
X249226Y129251D01*
X248026Y130451D01*
X247986Y130478D01*
X247939Y130487D01*
X247577D01*
X247254Y130810D01*
X247276Y130862D01*
X247288Y130952D01*
X247276Y131043D01*
X247241Y131127D01*
X247186Y131199D01*
X247113Y131254D01*
X247029Y131289D01*
X246939Y131301D01*
X246849Y131289D01*
X246765Y131254D01*
X246692Y131199D01*
X246637Y131127D01*
X246602Y131043D01*
X246590Y130952D01*
X246602Y130862D01*
X246637Y130778D01*
X246692Y130706D01*
X246765Y130650D01*
X246849Y130616D01*
X246939Y130604D01*
X247029Y130616D01*
X247081Y130637D01*
X247190Y130528D01*
X247166Y130482D01*
X247139Y130487D01*
X243577D01*
X243254Y130810D01*
X243276Y130862D01*
X243288Y130952D01*
X243276Y131043D01*
X243241Y131127D01*
X243186Y131199D01*
X243113Y131254D01*
X243029Y131289D01*
X242939Y131301D01*
X242849Y131289D01*
X242765Y131254D01*
X242692Y131199D01*
X242637Y131127D01*
X242602Y131043D01*
X242590Y130952D01*
X242602Y130862D01*
X242637Y130778D01*
X242692Y130706D01*
X242765Y130650D01*
X242849Y130616D01*
X242939Y130604D01*
X243029Y130616D01*
X243081Y130637D01*
X243385Y130333D01*
X243366Y130287D01*
X242777D01*
X242254Y130810D01*
X242276Y130862D01*
X242288Y130952D01*
X242276Y131043D01*
X242241Y131127D01*
X242186Y131199D01*
X242113Y131254D01*
X242029Y131289D01*
X241939Y131301D01*
X241849Y131289D01*
X241765Y131254D01*
X241692Y131199D01*
X241637Y131127D01*
X241602Y131043D01*
X241590Y130952D01*
X241602Y130862D01*
X241637Y130778D01*
X241692Y130706D01*
X241765Y130650D01*
X241849Y130616D01*
X241939Y130604D01*
X242029Y130616D01*
X242081Y130637D01*
X242585Y130133D01*
X242566Y130087D01*
X241977D01*
X241254Y130810D01*
X241276Y130862D01*
X241288Y130952D01*
X241276Y131043D01*
X241241Y131127D01*
X241186Y131199D01*
X241113Y131254D01*
X241029Y131289D01*
X240939Y131301D01*
X240849Y131289D01*
X240765Y131254D01*
X240692Y131199D01*
X240637Y131127D01*
X240602Y131043D01*
X240590Y130952D01*
X240602Y130862D01*
X240637Y130778D01*
X240692Y130706D01*
X240765Y130650D01*
X240849Y130616D01*
X240939Y130604D01*
X241029Y130616D01*
X241081Y130637D01*
X241785Y129934D01*
X241766Y129887D01*
X241177D01*
X240254Y130810D01*
X240276Y130862D01*
X240288Y130952D01*
X240276Y131043D01*
X240241Y131127D01*
X240186Y131199D01*
X240113Y131254D01*
X240029Y131289D01*
X239939Y131301D01*
X239849Y131289D01*
X239765Y131254D01*
X239692Y131199D01*
X239637Y131127D01*
X239602Y131043D01*
X239590Y130952D01*
X239602Y130862D01*
X239637Y130778D01*
X239692Y130706D01*
X239765Y130650D01*
X239849Y130616D01*
X239939Y130604D01*
X240029Y130616D01*
X240081Y130637D01*
X240985Y129733D01*
X240966Y129687D01*
X240377D01*
X239254Y130810D01*
X239276Y130862D01*
X239288Y130952D01*
X239276Y131043D01*
X239241Y131127D01*
X239186Y131199D01*
X239113Y131254D01*
X239029Y131289D01*
X238939Y131301D01*
X238849Y131289D01*
X238765Y131254D01*
X238692Y131199D01*
X238637Y131127D01*
X238602Y131043D01*
X238590Y130952D01*
X238597Y130901D01*
X238550Y130877D01*
X238411Y131016D01*
Y135377D01*
X239797Y136762D01*
X239849Y136741D01*
X239939Y136729D01*
X240029Y136741D01*
X240113Y136775D01*
X240186Y136831D01*
X240241Y136903D01*
X240276Y136987D01*
X240288Y137077D01*
X240276Y137168D01*
X240241Y137252D01*
X240187Y137323D01*
X240189Y137341D01*
X240200Y137373D01*
X240471D01*
X240624Y137220D01*
X240602Y137168D01*
X240590Y137077D01*
X240602Y136987D01*
X240637Y136903D01*
X240692Y136831D01*
X240765Y136775D01*
X240849Y136741D01*
X240939Y136729D01*
X241029Y136741D01*
X241113Y136775D01*
X241186Y136831D01*
X241241Y136903D01*
X241276Y136987D01*
X241288Y137077D01*
X241276Y137168D01*
X241241Y137252D01*
X241186Y137324D01*
X241113Y137379D01*
X241029Y137414D01*
X240939Y137426D01*
X240849Y137414D01*
X240797Y137393D01*
X240663Y137526D01*
X240682Y137573D01*
X241271D01*
X241624Y137220D01*
X241602Y137168D01*
X241590Y137077D01*
X241602Y136987D01*
X241637Y136903D01*
X241692Y136831D01*
X241765Y136775D01*
X241849Y136741D01*
X241939Y136729D01*
X242029Y136741D01*
X242113Y136775D01*
X242186Y136831D01*
X242241Y136903D01*
X242276Y136987D01*
X242288Y137077D01*
X242276Y137168D01*
X242241Y137252D01*
X242186Y137324D01*
X242113Y137379D01*
X242029Y137414D01*
X241939Y137426D01*
X241849Y137414D01*
X241797Y137393D01*
X241463Y137726D01*
X241482Y137773D01*
X242132D01*
X242178Y137782D01*
X242218Y137808D01*
X242797Y138387D01*
X242849Y138366D01*
X242939Y138354D01*
X243029Y138366D01*
X243113Y138400D01*
X243186Y138456D01*
X243241Y138528D01*
X243276Y138612D01*
X243288Y138702D01*
X243276Y138793D01*
X243254Y138845D01*
X244202Y139793D01*
X245791D01*
X245810Y139746D01*
X245081Y139018D01*
X245029Y139039D01*
X244939Y139051D01*
X244849Y139039D01*
X244765Y139004D01*
X244692Y138949D01*
X244637Y138877D01*
X244602Y138793D01*
X244590Y138702D01*
X244602Y138612D01*
X244637Y138528D01*
X244692Y138456D01*
X244765Y138400D01*
X244849Y138366D01*
X244939Y138354D01*
X245029Y138366D01*
X245113Y138400D01*
X245186Y138456D01*
X245241Y138528D01*
X245276Y138612D01*
X245288Y138702D01*
X245276Y138793D01*
X245254Y138845D01*
X246002Y139593D01*
X246591D01*
X246610Y139546D01*
X246081Y139018D01*
X246029Y139039D01*
X245939Y139051D01*
X245849Y139039D01*
X245765Y139004D01*
X245692Y138949D01*
X245637Y138877D01*
X245602Y138793D01*
X245590Y138702D01*
X245602Y138612D01*
X245637Y138528D01*
X245692Y138456D01*
X245765Y138400D01*
X245849Y138366D01*
X245939Y138354D01*
X246029Y138366D01*
X246113Y138400D01*
X246186Y138456D01*
X246241Y138528D01*
X246276Y138612D01*
X246288Y138702D01*
X246276Y138793D01*
X246254Y138845D01*
X246802Y139393D01*
X248391D01*
X248410Y139346D01*
X248081Y139018D01*
X248029Y139039D01*
X247939Y139051D01*
X247849Y139039D01*
X247765Y139004D01*
X247692Y138949D01*
X247637Y138877D01*
X247602Y138793D01*
X247590Y138702D01*
X247602Y138612D01*
X247637Y138528D01*
X247692Y138456D01*
X247765Y138400D01*
X247849Y138366D01*
X247939Y138354D01*
X248029Y138366D01*
X248113Y138400D01*
X248186Y138456D01*
X248241Y138528D01*
X248276Y138612D01*
X248288Y138702D01*
X248276Y138793D01*
X248254Y138845D01*
X248602Y139193D01*
X249191D01*
X249210Y139146D01*
X249081Y139018D01*
X249029Y139039D01*
X248939Y139051D01*
X248849Y139039D01*
X248765Y139004D01*
X248692Y138949D01*
X248637Y138877D01*
X248602Y138793D01*
X248590Y138702D01*
X248602Y138612D01*
X248637Y138528D01*
X248692Y138456D01*
X248765Y138400D01*
X248849Y138366D01*
X248939Y138354D01*
X249029Y138366D01*
X249113Y138400D01*
X249186Y138456D01*
X249241Y138528D01*
X249276Y138612D01*
X249288Y138702D01*
X249276Y138793D01*
X249254Y138845D01*
X249402Y138993D01*
X249676D01*
X249688Y138943D01*
X249637Y138877D01*
X249602Y138793D01*
X249590Y138702D01*
X249602Y138612D01*
X249637Y138528D01*
X249692Y138456D01*
X249765Y138400D01*
X249849Y138366D01*
X249939Y138354D01*
X250029Y138366D01*
X250113Y138400D01*
X250186Y138456D01*
X250241Y138528D01*
X250276Y138612D01*
X250288Y138702D01*
X250276Y138793D01*
X250241Y138877D01*
X250191Y138943D01*
X250203Y138993D01*
X250676D01*
X250688Y138943D01*
X250637Y138877D01*
X250602Y138793D01*
X250590Y138702D01*
X250602Y138612D01*
X250637Y138528D01*
X250692Y138456D01*
X250765Y138400D01*
X250849Y138366D01*
X250939Y138354D01*
X251029Y138366D01*
X251113Y138400D01*
X251186Y138456D01*
X251241Y138528D01*
X251276Y138612D01*
X251288Y138702D01*
X251276Y138793D01*
X251241Y138877D01*
X251191Y138943D01*
X251203Y138993D01*
X251676D01*
X251688Y138943D01*
X251637Y138877D01*
X251602Y138793D01*
X251590Y138702D01*
X251602Y138612D01*
X251637Y138528D01*
X251692Y138456D01*
X251765Y138400D01*
X251849Y138366D01*
X251939Y138354D01*
X252029Y138366D01*
X252081Y138387D01*
X252317Y138152D01*
Y137200D01*
X252267Y137190D01*
X252241Y137252D01*
X252186Y137324D01*
X252113Y137379D01*
X252029Y137414D01*
X251939Y137426D01*
X251849Y137414D01*
X251797Y137393D01*
X251538Y137651D01*
X251498Y137678D01*
X251452Y137687D01*
X250689D01*
X250642Y137678D01*
X250603Y137651D01*
X250353Y137401D01*
X250326Y137362D01*
X250317Y137315D01*
Y137200D01*
X250267Y137190D01*
X250241Y137252D01*
X250186Y137324D01*
X250113Y137379D01*
X250029Y137414D01*
X249939Y137426D01*
X249849Y137414D01*
X249765Y137379D01*
X249692Y137324D01*
X249637Y137252D01*
X249602Y137168D01*
X249590Y137077D01*
X249602Y136987D01*
X249637Y136903D01*
X249692Y136831D01*
X249765Y136775D01*
X249849Y136741D01*
X249939Y136729D01*
X250029Y136741D01*
X250113Y136775D01*
X250186Y136831D01*
X250241Y136903D01*
X250267Y136965D01*
X250317Y136955D01*
Y136715D01*
X250326Y136668D01*
X250353Y136628D01*
X251603Y135378D01*
X251642Y135352D01*
X251689Y135343D01*
X255496D01*
X255910Y134928D01*
X255891Y134882D01*
X255854D01*
Y134576D01*
X256160D01*
Y134613D01*
X256206Y134632D01*
X257517Y133322D01*
Y129250D01*
X257436Y129217D01*
X257352Y129152D01*
X257287Y129068D01*
X257247Y128970D01*
X257233Y128865D01*
X257247Y128760D01*
X257287Y128662D01*
X257352Y128578D01*
X257436Y128513D01*
X257534Y128473D01*
X257639Y128459D01*
X257744Y128473D01*
X257842Y128513D01*
X257926Y128578D01*
X257991Y128662D01*
X258031Y128760D01*
X258045Y128865D01*
X258031Y128970D01*
X257991Y129068D01*
X257926Y129152D01*
X257842Y129217D01*
X257761Y129250D01*
Y131500D01*
X257777Y131511D01*
X257811Y131520D01*
X260280Y129051D01*
X260247Y128970D01*
X260233Y128865D01*
X260247Y128760D01*
X260287Y128662D01*
X260352Y128578D01*
X260436Y128513D01*
X260534Y128473D01*
X260639Y128459D01*
X260744Y128473D01*
X260842Y128513D01*
X260926Y128578D01*
X260991Y128662D01*
X261031Y128760D01*
X261045Y128865D01*
X261031Y128970D01*
X260991Y129068D01*
X260926Y129152D01*
X260842Y129217D01*
X260744Y129257D01*
X260639Y129271D01*
X260534Y129257D01*
X260453Y129224D01*
X258011Y131666D01*
Y133515D01*
X258002Y133562D01*
X257976Y133601D01*
X255881Y135696D01*
X255900Y135743D01*
X257188D01*
X258253Y134678D01*
X258292Y134652D01*
X258339Y134643D01*
X267970D01*
X268495Y134117D01*
X268468Y134050D01*
X268455Y133952D01*
X268468Y133855D01*
X268506Y133763D01*
X268566Y133685D01*
X268644Y133625D01*
X268735Y133587D01*
X268833Y133574D01*
X268931Y133587D01*
X269023Y133625D01*
X269101Y133685D01*
X269161Y133763D01*
X269199Y133855D01*
X269212Y133952D01*
X269199Y134050D01*
X269161Y134142D01*
X269101Y134220D01*
X269023Y134280D01*
X268931Y134318D01*
X268833Y134331D01*
X268735Y134318D01*
X268668Y134290D01*
X268162Y134796D01*
X268182Y134843D01*
X268770D01*
X269458Y134155D01*
Y133577D01*
X270209D01*
Y134328D01*
X269631D01*
X268951Y135008D01*
X268961Y135069D01*
X268976Y135078D01*
X270551Y136654D01*
X270600Y136634D01*
X270689Y136622D01*
X270778Y136634D01*
X270827Y136654D01*
X270917Y136564D01*
Y134166D01*
X268253Y131501D01*
X268226Y131462D01*
X268217Y131415D01*
Y131138D01*
X268167Y131128D01*
X268161Y131142D01*
X268101Y131220D01*
X268023Y131280D01*
X267931Y131318D01*
X267833Y131331D01*
X267735Y131318D01*
X267644Y131280D01*
X267566Y131220D01*
X267506Y131142D01*
X267468Y131050D01*
X267455Y130952D01*
X267468Y130855D01*
X267506Y130763D01*
X267566Y130685D01*
X267644Y130625D01*
X267735Y130587D01*
X267833Y130574D01*
X267931Y130587D01*
X268023Y130625D01*
X268101Y130685D01*
X268161Y130763D01*
X268167Y130777D01*
X268217Y130767D01*
Y130706D01*
X268053Y130541D01*
X268026Y130502D01*
X268017Y130455D01*
Y129149D01*
X267967Y129132D01*
X267940Y129166D01*
X267852Y129234D01*
X267749Y129277D01*
X267689Y129285D01*
Y128865D01*
Y128445D01*
X267749Y128453D01*
X267852Y128496D01*
X267933Y128558D01*
X267964Y128553D01*
X267988Y128543D01*
X267989Y128538D01*
X267788Y128337D01*
X265899D01*
X265852Y128328D01*
X265813Y128301D01*
X264825Y127314D01*
X264744Y127347D01*
X264639Y127361D01*
X264534Y127347D01*
X264436Y127307D01*
X264352Y127242D01*
X264287Y127158D01*
X264247Y127060D01*
X264233Y126955D01*
X264247Y126850D01*
X264287Y126752D01*
X264352Y126668D01*
X264436Y126603D01*
X264534Y126563D01*
X264639Y126549D01*
X264744Y126563D01*
X264842Y126603D01*
X264926Y126668D01*
X264991Y126752D01*
X265031Y126850D01*
X265045Y126955D01*
X265031Y127060D01*
X264998Y127141D01*
X265950Y128093D01*
X266538D01*
X266557Y128046D01*
X265825Y127314D01*
X265744Y127347D01*
X265639Y127361D01*
X265534Y127347D01*
X265436Y127307D01*
X265352Y127242D01*
X265287Y127158D01*
X265247Y127060D01*
X265233Y126955D01*
X265247Y126850D01*
X265287Y126752D01*
X265352Y126668D01*
X265436Y126603D01*
X265534Y126563D01*
X265639Y126549D01*
X265744Y126563D01*
X265842Y126603D01*
X265926Y126668D01*
X265991Y126752D01*
X266031Y126850D01*
X266045Y126955D01*
X266031Y127060D01*
X265998Y127141D01*
X266750Y127893D01*
X267338D01*
X267357Y127846D01*
X266825Y127314D01*
X266744Y127347D01*
X266639Y127361D01*
X266534Y127347D01*
X266436Y127307D01*
X266352Y127242D01*
X266287Y127158D01*
X266247Y127060D01*
X266233Y126955D01*
X266247Y126850D01*
X266287Y126752D01*
X266352Y126668D01*
X266436Y126603D01*
X266534Y126563D01*
X266639Y126549D01*
X266744Y126563D01*
X266842Y126603D01*
X266926Y126668D01*
X266991Y126752D01*
X267031Y126850D01*
X267045Y126955D01*
X267031Y127060D01*
X266998Y127141D01*
X267550Y127693D01*
X268138D01*
X268157Y127646D01*
X267825Y127314D01*
X267744Y127347D01*
X267639Y127361D01*
X267534Y127347D01*
X267436Y127307D01*
X267352Y127242D01*
X267287Y127158D01*
X267247Y127060D01*
X267233Y126955D01*
X267247Y126850D01*
X267287Y126752D01*
X267352Y126668D01*
X267436Y126603D01*
X267534Y126563D01*
X267639Y126549D01*
X267744Y126563D01*
X267842Y126603D01*
X267926Y126668D01*
X267991Y126752D01*
X268031Y126850D01*
X268045Y126955D01*
X268031Y127060D01*
X267998Y127141D01*
X268350Y127493D01*
X268938D01*
X268957Y127446D01*
X268825Y127314D01*
X268744Y127347D01*
X268639Y127361D01*
X268534Y127347D01*
X268436Y127307D01*
X268352Y127242D01*
X268287Y127158D01*
X268247Y127060D01*
X268233Y126955D01*
X268247Y126850D01*
X268287Y126752D01*
X268352Y126668D01*
X268436Y126603D01*
X268534Y126563D01*
X268639Y126549D01*
X268744Y126563D01*
X268842Y126603D01*
X268926Y126668D01*
X268991Y126752D01*
X269031Y126850D01*
X269045Y126955D01*
X269031Y127060D01*
X268998Y127141D01*
X269150Y127293D01*
X269340D01*
X269356Y127245D01*
X269352Y127242D01*
X269287Y127158D01*
X269247Y127060D01*
X269233Y126955D01*
X269247Y126850D01*
X269287Y126752D01*
X269352Y126668D01*
X269436Y126603D01*
X269534Y126563D01*
X269639Y126549D01*
X269744Y126563D01*
X269842Y126603D01*
X269926Y126668D01*
X269991Y126752D01*
X270031Y126850D01*
X270045Y126955D01*
X270031Y127060D01*
X269991Y127158D01*
X269926Y127242D01*
X269922Y127245D01*
X269938Y127293D01*
X270340D01*
X270356Y127245D01*
X270352Y127242D01*
X270287Y127158D01*
X270247Y127060D01*
X270233Y126955D01*
X270247Y126850D01*
X270287Y126752D01*
X270352Y126668D01*
X270436Y126603D01*
X270534Y126563D01*
X270639Y126549D01*
X270744Y126563D01*
X270842Y126603D01*
X270926Y126668D01*
X270991Y126752D01*
X271031Y126850D01*
X271045Y126955D01*
X271031Y127060D01*
X270991Y127158D01*
X270926Y127242D01*
X270922Y127245D01*
X270938Y127293D01*
X271340D01*
X271356Y127245D01*
X271352Y127242D01*
X271287Y127158D01*
X271247Y127060D01*
X271233Y126955D01*
X271247Y126850D01*
X271287Y126752D01*
X271352Y126668D01*
X271436Y126603D01*
X271534Y126563D01*
X271639Y126549D01*
X271744Y126563D01*
X271842Y126603D01*
X271926Y126668D01*
X271991Y126752D01*
X272031Y126850D01*
X272045Y126955D01*
X272031Y127060D01*
X271991Y127158D01*
X271926Y127242D01*
X271922Y127245D01*
X271938Y127293D01*
X272340D01*
X272356Y127245D01*
X272352Y127242D01*
X272287Y127158D01*
X272247Y127060D01*
X272233Y126955D01*
X272247Y126850D01*
X272287Y126752D01*
X272352Y126668D01*
X272436Y126603D01*
X272534Y126563D01*
X272639Y126549D01*
X272744Y126563D01*
X272842Y126603D01*
X272926Y126668D01*
X272991Y126752D01*
X273031Y126850D01*
X273045Y126955D01*
X273031Y127060D01*
X272991Y127158D01*
X272926Y127242D01*
X272922Y127245D01*
X272934Y127280D01*
X272942Y127293D01*
X272986Y127302D01*
X273026Y127328D01*
X274226Y128528D01*
X274252Y128568D01*
X274261Y128614D01*
X274264Y128616D01*
X274311Y128631D01*
X274352Y128578D01*
X274436Y128513D01*
X274534Y128473D01*
X274639Y128459D01*
X274744Y128473D01*
X274842Y128513D01*
X274926Y128578D01*
X274991Y128662D01*
X275031Y128760D01*
X275045Y128865D01*
X275031Y128970D01*
X274991Y129068D01*
X274926Y129152D01*
X274842Y129217D01*
X274744Y129257D01*
X274639Y129271D01*
X274534Y129257D01*
X274436Y129217D01*
X274352Y129152D01*
X274311Y129099D01*
X274261Y129116D01*
Y138715D01*
X274252Y138762D01*
X274226Y138801D01*
X270676Y142351D01*
X270636Y142378D01*
X270589Y142387D01*
X268440D01*
X268000Y142827D01*
X268020Y142876D01*
X268032Y142965D01*
X268020Y143054D01*
X267986Y143136D01*
X267932Y143207D01*
X267861Y143262D01*
X267778Y143296D01*
X267689Y143308D01*
X267600Y143296D01*
X267551Y143276D01*
X266381Y144446D01*
X266400Y144493D01*
X266988D01*
X268378Y143103D01*
X268358Y143054D01*
X268346Y142965D01*
X268358Y142876D01*
X268392Y142793D01*
X268447Y142722D01*
X268518Y142668D01*
X268600Y142634D01*
X268689Y142622D01*
X268778Y142634D01*
X268861Y142668D01*
X268932Y142722D01*
X268986Y142793D01*
X269020Y142876D01*
X269032Y142965D01*
X269020Y143054D01*
X268986Y143136D01*
X268932Y143207D01*
X268861Y143262D01*
X268778Y143296D01*
X268689Y143308D01*
X268600Y143296D01*
X268551Y143276D01*
X267181Y144646D01*
X267200Y144693D01*
X267788D01*
X269378Y143103D01*
X269358Y143054D01*
X269346Y142965D01*
X269358Y142876D01*
X269392Y142793D01*
X269447Y142722D01*
X269518Y142668D01*
X269600Y142634D01*
X269689Y142622D01*
X269778Y142634D01*
X269861Y142668D01*
X269932Y142722D01*
X269986Y142793D01*
X270020Y142876D01*
X270032Y142965D01*
X270020Y143054D01*
X269986Y143136D01*
X269932Y143207D01*
X269861Y143262D01*
X269778Y143296D01*
X269689Y143308D01*
X269600Y143296D01*
X269551Y143276D01*
X267981Y144846D01*
X268000Y144893D01*
X268588D01*
X270378Y143103D01*
X270358Y143054D01*
X270346Y142965D01*
X270358Y142876D01*
X270392Y142793D01*
X270447Y142722D01*
X270518Y142668D01*
X270600Y142634D01*
X270689Y142622D01*
X270778Y142634D01*
X270861Y142668D01*
X270932Y142722D01*
X270986Y142793D01*
X271020Y142876D01*
X271032Y142965D01*
X271020Y143054D01*
X270986Y143136D01*
X270932Y143207D01*
X270861Y143262D01*
X270778Y143296D01*
X270689Y143308D01*
X270600Y143296D01*
X270551Y143276D01*
X268781Y145046D01*
X268800Y145093D01*
X269388D01*
X271349Y143132D01*
Y142625D01*
X272029D01*
Y143305D01*
X271522D01*
X269526Y145301D01*
X269486Y145328D01*
X269439Y145337D01*
D02*
G37*
G36*
X238889Y144777D02*
X238577D01*
X238583Y144732D01*
X238620Y144643D01*
X238678Y144567D01*
X238755Y144508D01*
X238844Y144471D01*
X238889Y144465D01*
Y144777D01*
D02*
G37*
G36*
X239301D02*
X238989D01*
Y144465D01*
X239035Y144471D01*
X239124Y144508D01*
X239200Y144567D01*
X239259Y144643D01*
X239295Y144732D01*
X239301Y144777D01*
D02*
G37*
G36*
X256160Y142632D02*
X255854D01*
Y142326D01*
X256160D01*
Y142632D01*
D02*
G37*
G36*
Y142226D02*
X255854D01*
Y141920D01*
X256160D01*
Y142226D01*
D02*
G37*
G36*
X255754D02*
X255448D01*
Y141920D01*
X255754D01*
Y142226D01*
D02*
G37*
G36*
X275036Y140832D02*
X274730D01*
Y140526D01*
X275036D01*
Y140832D01*
D02*
G37*
G36*
X274630D02*
X274324D01*
Y140526D01*
X274630D01*
Y140832D01*
D02*
G37*
G36*
X275036Y140426D02*
X274730D01*
Y140120D01*
X275036D01*
Y140426D01*
D02*
G37*
G36*
X274630D02*
X274324D01*
Y140120D01*
X274630D01*
Y140426D01*
D02*
G37*
G36*
X274680Y139815D02*
X274592Y139803D01*
X274510Y139769D01*
X274440Y139715D01*
X274386Y139645D01*
X274353Y139564D01*
X274341Y139476D01*
X274353Y139388D01*
X274386Y139306D01*
X274440Y139236D01*
X274510Y139182D01*
X274592Y139149D01*
X274680Y139137D01*
X274767Y139149D01*
X274849Y139182D01*
X274919Y139236D01*
X274973Y139306D01*
X275007Y139388D01*
X275019Y139476D01*
X275007Y139564D01*
X274973Y139645D01*
X274919Y139715D01*
X274849Y139769D01*
X274767Y139803D01*
X274680Y139815D01*
D02*
G37*
G36*
X246939Y139051D02*
X246849Y139039D01*
X246765Y139004D01*
X246692Y138949D01*
X246637Y138877D01*
X246602Y138793D01*
X246590Y138702D01*
X246602Y138612D01*
X246637Y138528D01*
X246692Y138456D01*
X246765Y138400D01*
X246849Y138366D01*
X246939Y138354D01*
X247029Y138366D01*
X247113Y138400D01*
X247186Y138456D01*
X247241Y138528D01*
X247276Y138612D01*
X247288Y138702D01*
X247276Y138793D01*
X247241Y138877D01*
X247186Y138949D01*
X247113Y139004D01*
X247029Y139039D01*
X246939Y139051D01*
D02*
G37*
G36*
X243939D02*
X243849Y139039D01*
X243765Y139004D01*
X243692Y138949D01*
X243637Y138877D01*
X243602Y138793D01*
X243590Y138702D01*
X243602Y138612D01*
X243637Y138528D01*
X243692Y138456D01*
X243765Y138400D01*
X243849Y138366D01*
X243939Y138354D01*
X244029Y138366D01*
X244113Y138400D01*
X244186Y138456D01*
X244241Y138528D01*
X244276Y138612D01*
X244288Y138702D01*
X244276Y138793D01*
X244241Y138877D01*
X244186Y138949D01*
X244113Y139004D01*
X244029Y139039D01*
X243939Y139051D01*
D02*
G37*
G36*
X248939Y137426D02*
X248849Y137414D01*
X248765Y137379D01*
X248692Y137324D01*
X248637Y137252D01*
X248602Y137168D01*
X248590Y137077D01*
X248602Y136987D01*
X248637Y136903D01*
X248692Y136831D01*
X248765Y136775D01*
X248849Y136741D01*
X248939Y136729D01*
X249029Y136741D01*
X249113Y136775D01*
X249186Y136831D01*
X249241Y136903D01*
X249276Y136987D01*
X249288Y137077D01*
X249276Y137168D01*
X249241Y137252D01*
X249186Y137324D01*
X249113Y137379D01*
X249029Y137414D01*
X248939Y137426D01*
D02*
G37*
G36*
X247939D02*
X247849Y137414D01*
X247765Y137379D01*
X247692Y137324D01*
X247637Y137252D01*
X247602Y137168D01*
X247590Y137077D01*
X247602Y136987D01*
X247637Y136903D01*
X247692Y136831D01*
X247765Y136775D01*
X247849Y136741D01*
X247939Y136729D01*
X248029Y136741D01*
X248113Y136775D01*
X248186Y136831D01*
X248241Y136903D01*
X248276Y136987D01*
X248288Y137077D01*
X248276Y137168D01*
X248241Y137252D01*
X248186Y137324D01*
X248113Y137379D01*
X248029Y137414D01*
X247939Y137426D01*
D02*
G37*
G36*
X246939D02*
X246849Y137414D01*
X246765Y137379D01*
X246692Y137324D01*
X246637Y137252D01*
X246602Y137168D01*
X246590Y137077D01*
X246602Y136987D01*
X246637Y136903D01*
X246692Y136831D01*
X246765Y136775D01*
X246849Y136741D01*
X246939Y136729D01*
X247029Y136741D01*
X247113Y136775D01*
X247186Y136831D01*
X247241Y136903D01*
X247276Y136987D01*
X247288Y137077D01*
X247276Y137168D01*
X247241Y137252D01*
X247186Y137324D01*
X247113Y137379D01*
X247029Y137414D01*
X246939Y137426D01*
D02*
G37*
G36*
X245939D02*
X245849Y137414D01*
X245765Y137379D01*
X245692Y137324D01*
X245637Y137252D01*
X245602Y137168D01*
X245590Y137077D01*
X245602Y136987D01*
X245637Y136903D01*
X245692Y136831D01*
X245765Y136775D01*
X245849Y136741D01*
X245939Y136729D01*
X246029Y136741D01*
X246113Y136775D01*
X246186Y136831D01*
X246241Y136903D01*
X246276Y136987D01*
X246288Y137077D01*
X246276Y137168D01*
X246241Y137252D01*
X246186Y137324D01*
X246113Y137379D01*
X246029Y137414D01*
X245939Y137426D01*
D02*
G37*
G36*
X244939D02*
X244849Y137414D01*
X244765Y137379D01*
X244692Y137324D01*
X244637Y137252D01*
X244602Y137168D01*
X244590Y137077D01*
X244602Y136987D01*
X244637Y136903D01*
X244692Y136831D01*
X244765Y136775D01*
X244849Y136741D01*
X244939Y136729D01*
X245029Y136741D01*
X245113Y136775D01*
X245186Y136831D01*
X245241Y136903D01*
X245276Y136987D01*
X245288Y137077D01*
X245276Y137168D01*
X245241Y137252D01*
X245186Y137324D01*
X245113Y137379D01*
X245029Y137414D01*
X244939Y137426D01*
D02*
G37*
G36*
X243939D02*
X243849Y137414D01*
X243765Y137379D01*
X243692Y137324D01*
X243637Y137252D01*
X243602Y137168D01*
X243590Y137077D01*
X243602Y136987D01*
X243637Y136903D01*
X243692Y136831D01*
X243765Y136775D01*
X243849Y136741D01*
X243939Y136729D01*
X244029Y136741D01*
X244113Y136775D01*
X244186Y136831D01*
X244241Y136903D01*
X244276Y136987D01*
X244288Y137077D01*
X244276Y137168D01*
X244241Y137252D01*
X244186Y137324D01*
X244113Y137379D01*
X244029Y137414D01*
X243939Y137426D01*
D02*
G37*
G36*
X242939D02*
X242849Y137414D01*
X242765Y137379D01*
X242692Y137324D01*
X242637Y137252D01*
X242602Y137168D01*
X242590Y137077D01*
X242602Y136987D01*
X242637Y136903D01*
X242692Y136831D01*
X242765Y136775D01*
X242849Y136741D01*
X242939Y136729D01*
X243029Y136741D01*
X243113Y136775D01*
X243186Y136831D01*
X243241Y136903D01*
X243276Y136987D01*
X243288Y137077D01*
X243276Y137168D01*
X243241Y137252D01*
X243186Y137324D01*
X243113Y137379D01*
X243029Y137414D01*
X242939Y137426D01*
D02*
G37*
G36*
X255804Y141615D02*
X255716Y141603D01*
X255635Y141569D01*
X255564Y141515D01*
X255511Y141445D01*
X255477Y141364D01*
X255465Y141276D01*
X255477Y141188D01*
X255511Y141106D01*
X255564Y141036D01*
X255635Y140982D01*
X255716Y140949D01*
X255804Y140937D01*
X255892Y140949D01*
X255973Y140982D01*
X256044Y141036D01*
X256087Y141092D01*
X256802D01*
X258548Y139346D01*
X258608Y139306D01*
X258678Y139292D01*
X269102D01*
X271356Y137039D01*
X271346Y136965D01*
X271358Y136876D01*
X271392Y136793D01*
X271447Y136722D01*
X271518Y136668D01*
X271600Y136634D01*
X271689Y136622D01*
X271778Y136634D01*
X271861Y136668D01*
X271932Y136722D01*
X271986Y136793D01*
X272020Y136876D01*
X272032Y136965D01*
X272020Y137054D01*
X271986Y137136D01*
X271932Y137207D01*
X271861Y137262D01*
X271778Y137296D01*
X271689Y137308D01*
X271615Y137298D01*
X269308Y139606D01*
X269248Y139645D01*
X269178Y139659D01*
X258754D01*
X257008Y141406D01*
X256948Y141445D01*
X256878Y141459D01*
X256087D01*
X256044Y141515D01*
X255973Y141569D01*
X255892Y141603D01*
X255804Y141615D01*
D02*
G37*
G36*
X268689Y137308D02*
X268600Y137296D01*
X268518Y137262D01*
X268447Y137207D01*
X268392Y137136D01*
X268358Y137054D01*
X268346Y136965D01*
X268358Y136876D01*
X268392Y136793D01*
X268447Y136722D01*
X268518Y136668D01*
X268600Y136634D01*
X268689Y136622D01*
X268778Y136634D01*
X268861Y136668D01*
X268932Y136722D01*
X268986Y136793D01*
X269020Y136876D01*
X269032Y136965D01*
X269020Y137054D01*
X268986Y137136D01*
X268932Y137207D01*
X268861Y137262D01*
X268778Y137296D01*
X268689Y137308D01*
D02*
G37*
G36*
X265689D02*
X265600Y137296D01*
X265518Y137262D01*
X265447Y137207D01*
X265392Y137136D01*
X265358Y137054D01*
X265346Y136965D01*
X265358Y136876D01*
X265392Y136793D01*
X265447Y136722D01*
X265518Y136668D01*
X265600Y136634D01*
X265689Y136622D01*
X265778Y136634D01*
X265861Y136668D01*
X265932Y136722D01*
X265986Y136793D01*
X266020Y136876D01*
X266032Y136965D01*
X266020Y137054D01*
X265986Y137136D01*
X265932Y137207D01*
X265861Y137262D01*
X265778Y137296D01*
X265689Y137308D01*
D02*
G37*
G36*
X255754Y134882D02*
X255448D01*
Y134576D01*
X255754D01*
Y134882D01*
D02*
G37*
G36*
X256160Y134476D02*
X255854D01*
Y134170D01*
X256160D01*
Y134476D01*
D02*
G37*
G36*
X255754D02*
X255448D01*
Y134170D01*
X255754D01*
Y134476D01*
D02*
G37*
G36*
X260883Y134345D02*
Y134002D01*
X261225D01*
X261218Y134056D01*
X261179Y134152D01*
X261115Y134234D01*
X261033Y134298D01*
X260937Y134338D01*
X260883Y134345D01*
D02*
G37*
G36*
X260783Y134345D02*
X260730Y134338D01*
X260634Y134298D01*
X260551Y134234D01*
X260488Y134152D01*
X260448Y134056D01*
X260441Y134002D01*
X260783D01*
Y134345D01*
D02*
G37*
G36*
X267833Y134331D02*
X267735Y134318D01*
X267644Y134280D01*
X267566Y134220D01*
X267506Y134142D01*
X267468Y134050D01*
X267455Y133952D01*
X267468Y133855D01*
X267506Y133763D01*
X267566Y133685D01*
X267644Y133625D01*
X267735Y133587D01*
X267833Y133574D01*
X267931Y133587D01*
X268023Y133625D01*
X268101Y133685D01*
X268161Y133763D01*
X268199Y133855D01*
X268212Y133952D01*
X268199Y134050D01*
X268161Y134142D01*
X268101Y134220D01*
X268023Y134280D01*
X267931Y134318D01*
X267833Y134331D01*
D02*
G37*
G36*
X266833D02*
X266735Y134318D01*
X266644Y134280D01*
X266566Y134220D01*
X266506Y134142D01*
X266468Y134050D01*
X266455Y133952D01*
X266468Y133855D01*
X266495Y133788D01*
X264253Y131545D01*
X264226Y131505D01*
X264217Y131458D01*
Y131138D01*
X264167Y131128D01*
X264161Y131142D01*
X264101Y131220D01*
X264023Y131280D01*
X263931Y131318D01*
X263833Y131331D01*
X263735Y131318D01*
X263644Y131280D01*
X263566Y131220D01*
X263506Y131142D01*
X263468Y131050D01*
X263455Y130952D01*
X263468Y130855D01*
X263506Y130763D01*
X263566Y130685D01*
X263644Y130625D01*
X263735Y130587D01*
X263833Y130574D01*
X263931Y130587D01*
X264023Y130625D01*
X264101Y130685D01*
X264161Y130763D01*
X264167Y130777D01*
X264217Y130767D01*
Y130616D01*
X263688Y130087D01*
X262834D01*
X262805Y130131D01*
X262729Y130182D01*
X262639Y130199D01*
X262549Y130182D01*
X262473Y130131D01*
X262422Y130055D01*
X262405Y129965D01*
X262422Y129875D01*
X262473Y129799D01*
X262549Y129748D01*
X262639Y129730D01*
X262729Y129748D01*
X262805Y129799D01*
X262834Y129843D01*
X263739D01*
X263786Y129852D01*
X263826Y129878D01*
X264426Y130478D01*
X264452Y130518D01*
X264461Y130565D01*
Y130742D01*
X264482Y130752D01*
X264511Y130756D01*
X264566Y130685D01*
X264644Y130625D01*
X264735Y130587D01*
X264833Y130574D01*
X264931Y130587D01*
X265023Y130625D01*
X265101Y130685D01*
X265161Y130763D01*
X265199Y130855D01*
X265212Y130952D01*
X265199Y131050D01*
X265161Y131142D01*
X265101Y131220D01*
X265023Y131280D01*
X264931Y131318D01*
X264833Y131331D01*
X264735Y131318D01*
X264644Y131280D01*
X264566Y131220D01*
X264511Y131149D01*
X264482Y131153D01*
X264461Y131163D01*
Y131408D01*
X266668Y133615D01*
X266735Y133587D01*
X266833Y133574D01*
X266931Y133587D01*
X267023Y133625D01*
X267101Y133685D01*
X267161Y133763D01*
X267199Y133855D01*
X267212Y133952D01*
X267199Y134050D01*
X267161Y134142D01*
X267101Y134220D01*
X267023Y134280D01*
X266931Y134318D01*
X266833Y134331D01*
D02*
G37*
G36*
X265321Y134587D02*
X264689D01*
X264642Y134578D01*
X264603Y134551D01*
X264253Y134201D01*
X264226Y134162D01*
X264220Y134131D01*
X264168Y134126D01*
X264161Y134142D01*
X264101Y134220D01*
X264023Y134280D01*
X263931Y134318D01*
X263833Y134331D01*
X263735Y134318D01*
X263644Y134280D01*
X263566Y134220D01*
X263506Y134142D01*
X263468Y134050D01*
X263455Y133952D01*
X263468Y133855D01*
X263495Y133788D01*
X262045Y132337D01*
X261460D01*
X261450Y132353D01*
X261441Y132387D01*
X262668Y133615D01*
X262735Y133587D01*
X262833Y133574D01*
X262931Y133587D01*
X263023Y133625D01*
X263101Y133685D01*
X263161Y133763D01*
X263199Y133855D01*
X263212Y133952D01*
X263199Y134050D01*
X263161Y134142D01*
X263101Y134220D01*
X263023Y134280D01*
X262931Y134318D01*
X262833Y134331D01*
X262735Y134318D01*
X262644Y134280D01*
X262566Y134220D01*
X262506Y134142D01*
X262468Y134050D01*
X262455Y133952D01*
X262468Y133855D01*
X262495Y133788D01*
X261295Y132587D01*
X260707D01*
X260687Y132633D01*
X261668Y133615D01*
X261735Y133587D01*
X261833Y133574D01*
X261931Y133587D01*
X262023Y133625D01*
X262101Y133685D01*
X262161Y133763D01*
X262199Y133855D01*
X262212Y133952D01*
X262199Y134050D01*
X262161Y134142D01*
X262101Y134220D01*
X262023Y134280D01*
X261931Y134318D01*
X261833Y134331D01*
X261735Y134318D01*
X261644Y134280D01*
X261566Y134220D01*
X261506Y134142D01*
X261468Y134050D01*
X261455Y133952D01*
X261468Y133855D01*
X261495Y133788D01*
X260495Y132787D01*
X259302D01*
X259255Y132778D01*
X259215Y132751D01*
X258553Y132089D01*
X258502Y132099D01*
X258412Y132082D01*
X258336Y132031D01*
X258285Y131955D01*
X258267Y131865D01*
X258285Y131775D01*
X258336Y131699D01*
X258412Y131648D01*
X258502Y131630D01*
X258592Y131648D01*
X258668Y131699D01*
X258718Y131775D01*
X258736Y131865D01*
X258726Y131916D01*
X259352Y132543D01*
X259778D01*
X259797Y132496D01*
X259090Y131789D01*
X259039Y131799D01*
X258949Y131782D01*
X258873Y131731D01*
X258822Y131655D01*
X258805Y131565D01*
X258822Y131475D01*
X258873Y131399D01*
X258949Y131348D01*
X259039Y131330D01*
X259129Y131348D01*
X259205Y131399D01*
X259256Y131475D01*
X259274Y131565D01*
X259263Y131616D01*
X259990Y132343D01*
X260406D01*
X260416Y132327D01*
X260425Y132293D01*
X259540Y131408D01*
X259489Y131418D01*
X259399Y131401D01*
X259323Y131350D01*
X259272Y131274D01*
X259255Y131184D01*
X259272Y131094D01*
X259323Y131018D01*
X259399Y130967D01*
X259489Y130949D01*
X259579Y130967D01*
X259655Y131018D01*
X259706Y131094D01*
X259724Y131184D01*
X259713Y131235D01*
X260571Y132093D01*
X262096D01*
X262143Y132102D01*
X262182Y132128D01*
X263668Y133615D01*
X263735Y133587D01*
X263833Y133574D01*
X263915Y133585D01*
X263939Y133538D01*
X261982Y131581D01*
X260532D01*
X260485Y131571D01*
X260446Y131545D01*
X259990Y131089D01*
X259939Y131099D01*
X259849Y131082D01*
X259773Y131031D01*
X259722Y130955D01*
X259705Y130865D01*
X259722Y130775D01*
X259773Y130699D01*
X259849Y130648D01*
X259939Y130630D01*
X260029Y130648D01*
X260105Y130699D01*
X260156Y130775D01*
X260174Y130865D01*
X260163Y130916D01*
X260296Y131049D01*
X260343Y131026D01*
X260334Y130952D01*
X260351Y130823D01*
X260401Y130703D01*
X260480Y130599D01*
X260584Y130520D01*
X260704Y130470D01*
X260833Y130453D01*
X260963Y130470D01*
X261083Y130520D01*
X261187Y130599D01*
X261266Y130703D01*
X261316Y130823D01*
X261333Y130952D01*
X261316Y131082D01*
X261266Y131202D01*
X261202Y131286D01*
X261226Y131336D01*
X261648D01*
X261658Y131286D01*
X261644Y131280D01*
X261566Y131220D01*
X261506Y131142D01*
X261468Y131050D01*
X261455Y130952D01*
X261468Y130855D01*
X261506Y130763D01*
X261566Y130685D01*
X261644Y130625D01*
X261735Y130587D01*
X261833Y130574D01*
X261931Y130587D01*
X262023Y130625D01*
X262101Y130685D01*
X262161Y130763D01*
X262167Y130777D01*
X262217Y130767D01*
Y130521D01*
X261783Y130087D01*
X261334D01*
X261305Y130131D01*
X261229Y130182D01*
X261139Y130199D01*
X261049Y130182D01*
X260973Y130131D01*
X260922Y130055D01*
X260905Y129965D01*
X260922Y129875D01*
X260973Y129799D01*
X261049Y129748D01*
X261139Y129730D01*
X261229Y129748D01*
X261305Y129799D01*
X261334Y129843D01*
X261833D01*
X261880Y129852D01*
X261920Y129878D01*
X262426Y130384D01*
X262452Y130424D01*
X262461Y130471D01*
Y130742D01*
X262482Y130752D01*
X262511Y130756D01*
X262566Y130685D01*
X262644Y130625D01*
X262735Y130587D01*
X262833Y130574D01*
X262931Y130587D01*
X263023Y130625D01*
X263101Y130685D01*
X263161Y130763D01*
X263199Y130855D01*
X263212Y130952D01*
X263199Y131050D01*
X263161Y131142D01*
X263101Y131220D01*
X263023Y131280D01*
X262931Y131318D01*
X262833Y131331D01*
X262735Y131318D01*
X262644Y131280D01*
X262566Y131220D01*
X262511Y131149D01*
X262482Y131153D01*
X262461Y131163D01*
Y131408D01*
X264668Y133615D01*
X264735Y133587D01*
X264833Y133574D01*
X264931Y133587D01*
X265023Y133625D01*
X265101Y133685D01*
X265161Y133763D01*
X265199Y133855D01*
X265212Y133952D01*
X265199Y134050D01*
X265161Y134142D01*
X265101Y134220D01*
X265023Y134280D01*
X264993Y134293D01*
X265003Y134343D01*
X265270D01*
X265495Y134117D01*
X265468Y134050D01*
X265455Y133952D01*
X265468Y133855D01*
X265506Y133763D01*
X265566Y133685D01*
X265644Y133625D01*
X265735Y133587D01*
X265833Y133574D01*
X265931Y133587D01*
X266023Y133625D01*
X266101Y133685D01*
X266161Y133763D01*
X266199Y133855D01*
X266212Y133952D01*
X266199Y134050D01*
X266161Y134142D01*
X266101Y134220D01*
X266023Y134280D01*
X265931Y134318D01*
X265833Y134331D01*
X265735Y134318D01*
X265668Y134290D01*
X265407Y134551D01*
X265368Y134578D01*
X265321Y134587D01*
D02*
G37*
G36*
X260783Y133902D02*
X260441D01*
X260448Y133849D01*
X260488Y133753D01*
X260551Y133671D01*
X260634Y133607D01*
X260730Y133567D01*
X260783Y133560D01*
Y133902D01*
D02*
G37*
G36*
X261225D02*
X260883D01*
Y133560D01*
X260937Y133567D01*
X261033Y133607D01*
X261115Y133671D01*
X261179Y133753D01*
X261218Y133849D01*
X261225Y133902D01*
D02*
G37*
G36*
X255804Y133865D02*
X255716Y133853D01*
X255635Y133819D01*
X255564Y133765D01*
X255511Y133695D01*
X255477Y133614D01*
X255465Y133526D01*
X255477Y133438D01*
X255511Y133356D01*
X255564Y133286D01*
X255635Y133232D01*
X255716Y133199D01*
X255804Y133187D01*
X255892Y133199D01*
X255973Y133232D01*
X256044Y133286D01*
X256097Y133356D01*
X256131Y133438D01*
X256143Y133526D01*
X256131Y133614D01*
X256097Y133695D01*
X256044Y133765D01*
X255973Y133819D01*
X255892Y133853D01*
X255804Y133865D01*
D02*
G37*
G36*
X271995Y133319D02*
X271689D01*
Y133013D01*
X271995D01*
Y133319D01*
D02*
G37*
G36*
X271589D02*
X271283D01*
Y133013D01*
X271589D01*
Y133319D01*
D02*
G37*
G36*
X271995Y132913D02*
X271689D01*
Y132607D01*
X271995D01*
Y132913D01*
D02*
G37*
G36*
X271589D02*
X271283D01*
Y132607D01*
X271589D01*
Y132913D01*
D02*
G37*
G36*
X278689Y131961D02*
Y131665D01*
X278985D01*
X278980Y131706D01*
X278945Y131791D01*
X278889Y131865D01*
X278816Y131921D01*
X278730Y131956D01*
X278689Y131961D01*
D02*
G37*
G36*
X278589D02*
X278548Y131956D01*
X278463Y131921D01*
X278389Y131865D01*
X278333Y131791D01*
X278298Y131706D01*
X278293Y131665D01*
X278589D01*
Y131961D01*
D02*
G37*
G36*
X271639Y132302D02*
X271551Y132291D01*
X271470Y132257D01*
X271399Y132203D01*
X271346Y132133D01*
X271312Y132051D01*
X271300Y131963D01*
X271312Y131876D01*
X271346Y131794D01*
X271399Y131724D01*
X271470Y131670D01*
X271551Y131636D01*
X271639Y131625D01*
X271727Y131636D01*
X271808Y131670D01*
X271879Y131724D01*
X271932Y131794D01*
X271966Y131876D01*
X271978Y131963D01*
X271966Y132051D01*
X271932Y132133D01*
X271879Y132203D01*
X271808Y132257D01*
X271727Y132291D01*
X271639Y132302D01*
D02*
G37*
G36*
X277639Y131948D02*
X277553Y131936D01*
X277473Y131903D01*
X277404Y131850D01*
X277351Y131781D01*
X277318Y131701D01*
X277306Y131615D01*
X277318Y131529D01*
X277351Y131449D01*
X277404Y131380D01*
X277473Y131327D01*
X277553Y131293D01*
X277639Y131282D01*
X277725Y131293D01*
X277805Y131327D01*
X277874Y131380D01*
X277927Y131449D01*
X277961Y131529D01*
X277972Y131615D01*
X277961Y131701D01*
X277927Y131781D01*
X277874Y131850D01*
X277805Y131903D01*
X277725Y131936D01*
X277639Y131948D01*
D02*
G37*
G36*
X278985Y131565D02*
X278689D01*
Y131269D01*
X278730Y131274D01*
X278816Y131309D01*
X278889Y131365D01*
X278945Y131438D01*
X278980Y131524D01*
X278985Y131565D01*
D02*
G37*
G36*
X278589D02*
X278293D01*
X278298Y131524D01*
X278333Y131438D01*
X278389Y131365D01*
X278463Y131309D01*
X278548Y131274D01*
X278589Y131269D01*
Y131565D01*
D02*
G37*
G36*
X253939Y131301D02*
X253849Y131289D01*
X253765Y131254D01*
X253692Y131199D01*
X253637Y131127D01*
X253602Y131043D01*
X253590Y130952D01*
X253602Y130862D01*
X253637Y130778D01*
X253692Y130706D01*
X253765Y130650D01*
X253849Y130616D01*
X253939Y130604D01*
X254029Y130616D01*
X254113Y130650D01*
X254186Y130706D01*
X254241Y130778D01*
X254276Y130862D01*
X254288Y130952D01*
X254276Y131043D01*
X254241Y131127D01*
X254186Y131199D01*
X254113Y131254D01*
X254029Y131289D01*
X253939Y131301D01*
D02*
G37*
G36*
X252939D02*
X252849Y131289D01*
X252765Y131254D01*
X252692Y131199D01*
X252637Y131127D01*
X252602Y131043D01*
X252590Y130952D01*
X252602Y130862D01*
X252637Y130778D01*
X252692Y130706D01*
X252765Y130650D01*
X252849Y130616D01*
X252939Y130604D01*
X253029Y130616D01*
X253113Y130650D01*
X253186Y130706D01*
X253241Y130778D01*
X253276Y130862D01*
X253288Y130952D01*
X253276Y131043D01*
X253241Y131127D01*
X253186Y131199D01*
X253113Y131254D01*
X253029Y131289D01*
X252939Y131301D01*
D02*
G37*
G36*
X248939D02*
X248849Y131289D01*
X248765Y131254D01*
X248692Y131199D01*
X248637Y131127D01*
X248602Y131043D01*
X248590Y130952D01*
X248602Y130862D01*
X248637Y130778D01*
X248692Y130706D01*
X248765Y130650D01*
X248849Y130616D01*
X248939Y130604D01*
X249029Y130616D01*
X249113Y130650D01*
X249186Y130706D01*
X249241Y130778D01*
X249276Y130862D01*
X249288Y130952D01*
X249276Y131043D01*
X249241Y131127D01*
X249186Y131199D01*
X249113Y131254D01*
X249029Y131289D01*
X248939Y131301D01*
D02*
G37*
G36*
X247939D02*
X247849Y131289D01*
X247765Y131254D01*
X247692Y131199D01*
X247637Y131127D01*
X247602Y131043D01*
X247590Y130952D01*
X247602Y130862D01*
X247637Y130778D01*
X247692Y130706D01*
X247765Y130650D01*
X247849Y130616D01*
X247939Y130604D01*
X248029Y130616D01*
X248113Y130650D01*
X248186Y130706D01*
X248241Y130778D01*
X248276Y130862D01*
X248288Y130952D01*
X248276Y131043D01*
X248241Y131127D01*
X248186Y131199D01*
X248113Y131254D01*
X248029Y131289D01*
X247939Y131301D01*
D02*
G37*
G36*
X245939D02*
X245849Y131289D01*
X245765Y131254D01*
X245692Y131199D01*
X245637Y131127D01*
X245602Y131043D01*
X245590Y130952D01*
X245602Y130862D01*
X245637Y130778D01*
X245692Y130706D01*
X245765Y130650D01*
X245849Y130616D01*
X245939Y130604D01*
X246029Y130616D01*
X246113Y130650D01*
X246186Y130706D01*
X246241Y130778D01*
X246276Y130862D01*
X246288Y130952D01*
X246276Y131043D01*
X246241Y131127D01*
X246186Y131199D01*
X246113Y131254D01*
X246029Y131289D01*
X245939Y131301D01*
D02*
G37*
G36*
X244939D02*
X244849Y131289D01*
X244765Y131254D01*
X244692Y131199D01*
X244637Y131127D01*
X244602Y131043D01*
X244590Y130952D01*
X244602Y130862D01*
X244637Y130778D01*
X244692Y130706D01*
X244765Y130650D01*
X244849Y130616D01*
X244939Y130604D01*
X245029Y130616D01*
X245113Y130650D01*
X245186Y130706D01*
X245241Y130778D01*
X245276Y130862D01*
X245288Y130952D01*
X245276Y131043D01*
X245241Y131127D01*
X245186Y131199D01*
X245113Y131254D01*
X245029Y131289D01*
X244939Y131301D01*
D02*
G37*
G36*
X243939D02*
X243849Y131289D01*
X243765Y131254D01*
X243692Y131199D01*
X243637Y131127D01*
X243602Y131043D01*
X243590Y130952D01*
X243602Y130862D01*
X243637Y130778D01*
X243692Y130706D01*
X243765Y130650D01*
X243849Y130616D01*
X243939Y130604D01*
X244029Y130616D01*
X244113Y130650D01*
X244186Y130706D01*
X244241Y130778D01*
X244276Y130862D01*
X244288Y130952D01*
X244276Y131043D01*
X244241Y131127D01*
X244186Y131199D01*
X244113Y131254D01*
X244029Y131289D01*
X243939Y131301D01*
D02*
G37*
G36*
X269833Y131331D02*
X269735Y131318D01*
X269644Y131280D01*
X269566Y131220D01*
X269506Y131142D01*
X269468Y131050D01*
X269455Y130952D01*
X269468Y130855D01*
X269506Y130763D01*
X269566Y130685D01*
X269644Y130625D01*
X269735Y130587D01*
X269833Y130574D01*
X269931Y130587D01*
X270023Y130625D01*
X270101Y130685D01*
X270161Y130763D01*
X270199Y130855D01*
X270212Y130952D01*
X270199Y131050D01*
X270161Y131142D01*
X270101Y131220D01*
X270023Y131280D01*
X269931Y131318D01*
X269833Y131331D01*
D02*
G37*
G36*
X266833D02*
X266735Y131318D01*
X266644Y131280D01*
X266566Y131220D01*
X266506Y131142D01*
X266468Y131050D01*
X266455Y130952D01*
X266468Y130855D01*
X266506Y130763D01*
X266566Y130685D01*
X266644Y130625D01*
X266735Y130587D01*
X266833Y130574D01*
X266931Y130587D01*
X267023Y130625D01*
X267101Y130685D01*
X267161Y130763D01*
X267199Y130855D01*
X267212Y130952D01*
X267199Y131050D01*
X267161Y131142D01*
X267101Y131220D01*
X267023Y131280D01*
X266931Y131318D01*
X266833Y131331D01*
D02*
G37*
G36*
X265833D02*
X265735Y131318D01*
X265644Y131280D01*
X265566Y131220D01*
X265506Y131142D01*
X265468Y131050D01*
X265455Y130952D01*
X265468Y130855D01*
X265506Y130763D01*
X265566Y130685D01*
X265644Y130625D01*
X265735Y130587D01*
X265833Y130574D01*
X265931Y130587D01*
X266023Y130625D01*
X266101Y130685D01*
X266161Y130763D01*
X266199Y130855D01*
X266212Y130952D01*
X266199Y131050D01*
X266161Y131142D01*
X266101Y131220D01*
X266023Y131280D01*
X265931Y131318D01*
X265833Y131331D01*
D02*
G37*
G36*
X261689Y129285D02*
Y128915D01*
X262059D01*
X262051Y128975D01*
X262008Y129078D01*
X261940Y129166D01*
X261852Y129234D01*
X261749Y129277D01*
X261689Y129285D01*
D02*
G37*
G36*
X255689D02*
Y128915D01*
X256059D01*
X256051Y128975D01*
X256008Y129078D01*
X255940Y129166D01*
X255852Y129234D01*
X255749Y129277D01*
X255689Y129285D01*
D02*
G37*
G36*
X243689D02*
Y128915D01*
X244059D01*
X244051Y128975D01*
X244008Y129078D01*
X243940Y129166D01*
X243852Y129234D01*
X243749Y129277D01*
X243689Y129285D01*
D02*
G37*
G36*
X280062Y129287D02*
X279689D01*
Y128915D01*
X280062D01*
Y129287D01*
D02*
G37*
G36*
X278689Y129285D02*
Y128915D01*
X279059D01*
X279051Y128975D01*
X279008Y129078D01*
X278940Y129166D01*
X278852Y129234D01*
X278749Y129277D01*
X278689Y129285D01*
D02*
G37*
G36*
X278589Y129285D02*
X278529Y129277D01*
X278426Y129234D01*
X278338Y129166D01*
X278270Y129078D01*
X278227Y128975D01*
X278219Y128915D01*
X278589D01*
Y129285D01*
D02*
G37*
G36*
X267589Y129285D02*
X267529Y129277D01*
X267426Y129234D01*
X267338Y129166D01*
X267270Y129078D01*
X267227Y128975D01*
X267219Y128915D01*
X267589D01*
Y129285D01*
D02*
G37*
G36*
X261589D02*
X261529Y129277D01*
X261426Y129234D01*
X261338Y129166D01*
X261270Y129078D01*
X261227Y128975D01*
X261219Y128915D01*
X261589D01*
Y129285D01*
D02*
G37*
G36*
X255589D02*
X255529Y129277D01*
X255426Y129234D01*
X255338Y129166D01*
X255270Y129078D01*
X255227Y128975D01*
X255219Y128915D01*
X255589D01*
Y129285D01*
D02*
G37*
G36*
X243589D02*
X243529Y129277D01*
X243426Y129234D01*
X243338Y129166D01*
X243270Y129078D01*
X243227Y128975D01*
X243219Y128915D01*
X243589D01*
Y129285D01*
D02*
G37*
G36*
X237589D02*
X237529Y129277D01*
X237426Y129234D01*
X237338Y129166D01*
X237270Y129078D01*
X237227Y128975D01*
X237219Y128915D01*
X237589D01*
Y129285D01*
D02*
G37*
G36*
X279589Y129287D02*
X279217D01*
Y128915D01*
X279589D01*
Y129287D01*
D02*
G37*
G36*
X277639Y129271D02*
X277534Y129257D01*
X277436Y129217D01*
X277352Y129152D01*
X277287Y129068D01*
X277247Y128970D01*
X277233Y128865D01*
X277247Y128760D01*
X277287Y128662D01*
X277352Y128578D01*
X277436Y128513D01*
X277534Y128473D01*
X277639Y128459D01*
X277744Y128473D01*
X277842Y128513D01*
X277926Y128578D01*
X277991Y128662D01*
X278031Y128760D01*
X278045Y128865D01*
X278031Y128970D01*
X277991Y129068D01*
X277926Y129152D01*
X277842Y129217D01*
X277744Y129257D01*
X277639Y129271D01*
D02*
G37*
G36*
X276639D02*
X276534Y129257D01*
X276436Y129217D01*
X276352Y129152D01*
X276287Y129068D01*
X276247Y128970D01*
X276233Y128865D01*
X276247Y128760D01*
X276287Y128662D01*
X276352Y128578D01*
X276436Y128513D01*
X276534Y128473D01*
X276639Y128459D01*
X276744Y128473D01*
X276842Y128513D01*
X276926Y128578D01*
X276991Y128662D01*
X277031Y128760D01*
X277045Y128865D01*
X277031Y128970D01*
X276991Y129068D01*
X276926Y129152D01*
X276842Y129217D01*
X276744Y129257D01*
X276639Y129271D01*
D02*
G37*
G36*
X275639D02*
X275534Y129257D01*
X275436Y129217D01*
X275352Y129152D01*
X275287Y129068D01*
X275247Y128970D01*
X275233Y128865D01*
X275247Y128760D01*
X275287Y128662D01*
X275352Y128578D01*
X275436Y128513D01*
X275534Y128473D01*
X275639Y128459D01*
X275744Y128473D01*
X275842Y128513D01*
X275926Y128578D01*
X275991Y128662D01*
X276031Y128760D01*
X276045Y128865D01*
X276031Y128970D01*
X275991Y129068D01*
X275926Y129152D01*
X275842Y129217D01*
X275744Y129257D01*
X275639Y129271D01*
D02*
G37*
G36*
X266639D02*
X266534Y129257D01*
X266436Y129217D01*
X266352Y129152D01*
X266287Y129068D01*
X266247Y128970D01*
X266233Y128865D01*
X266247Y128760D01*
X266287Y128662D01*
X266352Y128578D01*
X266436Y128513D01*
X266534Y128473D01*
X266639Y128459D01*
X266744Y128473D01*
X266842Y128513D01*
X266926Y128578D01*
X266991Y128662D01*
X267031Y128760D01*
X267045Y128865D01*
X267031Y128970D01*
X266991Y129068D01*
X266926Y129152D01*
X266842Y129217D01*
X266744Y129257D01*
X266639Y129271D01*
D02*
G37*
G36*
X265639D02*
X265534Y129257D01*
X265436Y129217D01*
X265352Y129152D01*
X265287Y129068D01*
X265247Y128970D01*
X265233Y128865D01*
X265247Y128760D01*
X265287Y128662D01*
X265352Y128578D01*
X265436Y128513D01*
X265534Y128473D01*
X265639Y128459D01*
X265744Y128473D01*
X265842Y128513D01*
X265926Y128578D01*
X265991Y128662D01*
X266031Y128760D01*
X266045Y128865D01*
X266031Y128970D01*
X265991Y129068D01*
X265926Y129152D01*
X265842Y129217D01*
X265744Y129257D01*
X265639Y129271D01*
D02*
G37*
G36*
X264639D02*
X264534Y129257D01*
X264436Y129217D01*
X264352Y129152D01*
X264287Y129068D01*
X264247Y128970D01*
X264233Y128865D01*
X264247Y128760D01*
X264287Y128662D01*
X264352Y128578D01*
X264436Y128513D01*
X264534Y128473D01*
X264639Y128459D01*
X264744Y128473D01*
X264842Y128513D01*
X264926Y128578D01*
X264991Y128662D01*
X265031Y128760D01*
X265045Y128865D01*
X265031Y128970D01*
X264991Y129068D01*
X264926Y129152D01*
X264842Y129217D01*
X264744Y129257D01*
X264639Y129271D01*
D02*
G37*
G36*
X263639D02*
X263534Y129257D01*
X263436Y129217D01*
X263352Y129152D01*
X263287Y129068D01*
X263247Y128970D01*
X263233Y128865D01*
X263247Y128760D01*
X263287Y128662D01*
X263352Y128578D01*
X263436Y128513D01*
X263534Y128473D01*
X263639Y128459D01*
X263744Y128473D01*
X263842Y128513D01*
X263926Y128578D01*
X263991Y128662D01*
X264031Y128760D01*
X264045Y128865D01*
X264031Y128970D01*
X263991Y129068D01*
X263926Y129152D01*
X263842Y129217D01*
X263744Y129257D01*
X263639Y129271D01*
D02*
G37*
G36*
X262639D02*
X262534Y129257D01*
X262436Y129217D01*
X262352Y129152D01*
X262287Y129068D01*
X262247Y128970D01*
X262233Y128865D01*
X262247Y128760D01*
X262287Y128662D01*
X262352Y128578D01*
X262436Y128513D01*
X262534Y128473D01*
X262639Y128459D01*
X262744Y128473D01*
X262842Y128513D01*
X262926Y128578D01*
X262991Y128662D01*
X263031Y128760D01*
X263045Y128865D01*
X263031Y128970D01*
X262991Y129068D01*
X262926Y129152D01*
X262842Y129217D01*
X262744Y129257D01*
X262639Y129271D01*
D02*
G37*
G36*
X252439Y130799D02*
X252349Y130782D01*
X252273Y130731D01*
X252222Y130655D01*
X252205Y130565D01*
X252222Y130475D01*
X252273Y130399D01*
X252349Y130348D01*
X252439Y130330D01*
X252490Y130341D01*
X252953Y129878D01*
X252992Y129852D01*
X253039Y129843D01*
X255488D01*
X256280Y129051D01*
X256247Y128970D01*
X256233Y128865D01*
X256247Y128760D01*
X256287Y128662D01*
X256352Y128578D01*
X256436Y128513D01*
X256534Y128473D01*
X256639Y128459D01*
X256744Y128473D01*
X256842Y128513D01*
X256926Y128578D01*
X256991Y128662D01*
X257031Y128760D01*
X257045Y128865D01*
X257031Y128970D01*
X256991Y129068D01*
X256926Y129152D01*
X256842Y129217D01*
X256744Y129257D01*
X256639Y129271D01*
X256534Y129257D01*
X256453Y129224D01*
X255626Y130051D01*
X255586Y130078D01*
X255539Y130087D01*
X253090D01*
X252663Y130514D01*
X252674Y130565D01*
X252656Y130655D01*
X252605Y130731D01*
X252529Y130782D01*
X252439Y130799D01*
D02*
G37*
G36*
X254639Y129271D02*
X254534Y129257D01*
X254436Y129217D01*
X254352Y129152D01*
X254287Y129068D01*
X254247Y128970D01*
X254233Y128865D01*
X254247Y128760D01*
X254287Y128662D01*
X254352Y128578D01*
X254436Y128513D01*
X254534Y128473D01*
X254639Y128459D01*
X254744Y128473D01*
X254842Y128513D01*
X254926Y128578D01*
X254991Y128662D01*
X255031Y128760D01*
X255045Y128865D01*
X255031Y128970D01*
X254991Y129068D01*
X254926Y129152D01*
X254842Y129217D01*
X254744Y129257D01*
X254639Y129271D01*
D02*
G37*
G36*
X253639D02*
X253534Y129257D01*
X253436Y129217D01*
X253352Y129152D01*
X253287Y129068D01*
X253247Y128970D01*
X253233Y128865D01*
X253247Y128760D01*
X253287Y128662D01*
X253352Y128578D01*
X253436Y128513D01*
X253534Y128473D01*
X253639Y128459D01*
X253744Y128473D01*
X253842Y128513D01*
X253926Y128578D01*
X253991Y128662D01*
X254031Y128760D01*
X254045Y128865D01*
X254031Y128970D01*
X253991Y129068D01*
X253926Y129152D01*
X253842Y129217D01*
X253744Y129257D01*
X253639Y129271D01*
D02*
G37*
G36*
X242639D02*
X242534Y129257D01*
X242436Y129217D01*
X242352Y129152D01*
X242287Y129068D01*
X242247Y128970D01*
X242233Y128865D01*
X242247Y128760D01*
X242287Y128662D01*
X242352Y128578D01*
X242436Y128513D01*
X242534Y128473D01*
X242639Y128459D01*
X242744Y128473D01*
X242842Y128513D01*
X242926Y128578D01*
X242991Y128662D01*
X243031Y128760D01*
X243045Y128865D01*
X243031Y128970D01*
X242991Y129068D01*
X242926Y129152D01*
X242842Y129217D01*
X242744Y129257D01*
X242639Y129271D01*
D02*
G37*
G36*
X241639D02*
X241534Y129257D01*
X241436Y129217D01*
X241352Y129152D01*
X241287Y129068D01*
X241247Y128970D01*
X241233Y128865D01*
X241247Y128760D01*
X241287Y128662D01*
X241352Y128578D01*
X241436Y128513D01*
X241534Y128473D01*
X241639Y128459D01*
X241744Y128473D01*
X241842Y128513D01*
X241926Y128578D01*
X241991Y128662D01*
X242031Y128760D01*
X242045Y128865D01*
X242031Y128970D01*
X241991Y129068D01*
X241926Y129152D01*
X241842Y129217D01*
X241744Y129257D01*
X241639Y129271D01*
D02*
G37*
G36*
X278589Y128815D02*
X278219D01*
X278227Y128755D01*
X278270Y128652D01*
X278338Y128564D01*
X278426Y128496D01*
X278529Y128453D01*
X278589Y128445D01*
Y128815D01*
D02*
G37*
G36*
X262059D02*
X261689D01*
Y128445D01*
X261749Y128453D01*
X261852Y128496D01*
X261940Y128564D01*
X262008Y128652D01*
X262051Y128755D01*
X262059Y128815D01*
D02*
G37*
G36*
X256059D02*
X255689D01*
Y128445D01*
X255749Y128453D01*
X255852Y128496D01*
X255940Y128564D01*
X256008Y128652D01*
X256051Y128755D01*
X256059Y128815D01*
D02*
G37*
G36*
X244059D02*
X243689D01*
Y128445D01*
X243749Y128453D01*
X243852Y128496D01*
X243940Y128564D01*
X244008Y128652D01*
X244051Y128755D01*
X244059Y128815D01*
D02*
G37*
G36*
X267589D02*
X267219D01*
X267227Y128755D01*
X267270Y128652D01*
X267338Y128564D01*
X267426Y128496D01*
X267529Y128453D01*
X267589Y128445D01*
Y128815D01*
D02*
G37*
G36*
X261589D02*
X261219D01*
X261227Y128755D01*
X261270Y128652D01*
X261338Y128564D01*
X261426Y128496D01*
X261529Y128453D01*
X261589Y128445D01*
Y128815D01*
D02*
G37*
G36*
X255589D02*
X255219D01*
X255227Y128755D01*
X255270Y128652D01*
X255338Y128564D01*
X255426Y128496D01*
X255529Y128453D01*
X255589Y128445D01*
Y128815D01*
D02*
G37*
G36*
X243589D02*
X243219D01*
X243227Y128755D01*
X243270Y128652D01*
X243338Y128564D01*
X243426Y128496D01*
X243529Y128453D01*
X243589Y128445D01*
Y128815D01*
D02*
G37*
G36*
X279059D02*
X278689D01*
Y128445D01*
X278749Y128453D01*
X278852Y128496D01*
X278940Y128564D01*
X279008Y128652D01*
X279051Y128755D01*
X279059Y128815D01*
D02*
G37*
G36*
X280062D02*
X279689D01*
Y128442D01*
X280062D01*
Y128815D01*
D02*
G37*
G36*
X279589D02*
X279217D01*
Y128442D01*
X279589D01*
Y128815D01*
D02*
G37*
G36*
X279689Y127375D02*
Y127005D01*
X280059D01*
X280051Y127065D01*
X280008Y127168D01*
X279940Y127256D01*
X279852Y127324D01*
X279749Y127367D01*
X279689Y127375D01*
D02*
G37*
G36*
X274689D02*
Y127005D01*
X275059D01*
X275051Y127065D01*
X275008Y127168D01*
X274940Y127256D01*
X274852Y127324D01*
X274749Y127367D01*
X274689Y127375D01*
D02*
G37*
G36*
X278689D02*
Y127005D01*
X279059D01*
X279051Y127065D01*
X279008Y127168D01*
X278940Y127256D01*
X278852Y127324D01*
X278749Y127367D01*
X278689Y127375D01*
D02*
G37*
G36*
X279589Y127375D02*
X279529Y127367D01*
X279426Y127324D01*
X279338Y127256D01*
X279270Y127168D01*
X279227Y127065D01*
X279219Y127005D01*
X279589D01*
Y127375D01*
D02*
G37*
G36*
X278589D02*
X278529Y127367D01*
X278426Y127324D01*
X278338Y127256D01*
X278270Y127168D01*
X278227Y127065D01*
X278219Y127005D01*
X278589D01*
Y127375D01*
D02*
G37*
G36*
X274589D02*
X274529Y127367D01*
X274426Y127324D01*
X274338Y127256D01*
X274270Y127168D01*
X274227Y127065D01*
X274219Y127005D01*
X274589D01*
Y127375D01*
D02*
G37*
G36*
X263639Y127361D02*
X263534Y127347D01*
X263436Y127307D01*
X263352Y127242D01*
X263287Y127158D01*
X263247Y127060D01*
X263233Y126955D01*
X263247Y126850D01*
X263287Y126752D01*
X263352Y126668D01*
X263436Y126603D01*
X263534Y126563D01*
X263639Y126549D01*
X263744Y126563D01*
X263842Y126603D01*
X263926Y126668D01*
X263991Y126752D01*
X264031Y126850D01*
X264045Y126955D01*
X264031Y127060D01*
X263991Y127158D01*
X263926Y127242D01*
X263842Y127307D01*
X263744Y127347D01*
X263639Y127361D01*
D02*
G37*
G36*
X254639D02*
X254534Y127347D01*
X254436Y127307D01*
X254352Y127242D01*
X254287Y127158D01*
X254247Y127060D01*
X254233Y126955D01*
X254247Y126850D01*
X254287Y126752D01*
X254352Y126668D01*
X254436Y126603D01*
X254534Y126563D01*
X254639Y126549D01*
X254744Y126563D01*
X254842Y126603D01*
X254926Y126668D01*
X254991Y126752D01*
X255031Y126850D01*
X255045Y126955D01*
X255031Y127060D01*
X254991Y127158D01*
X254926Y127242D01*
X254842Y127307D01*
X254744Y127347D01*
X254639Y127361D01*
D02*
G37*
G36*
X277639Y127361D02*
X277534Y127347D01*
X277436Y127307D01*
X277352Y127242D01*
X277287Y127158D01*
X277247Y127060D01*
X277233Y126955D01*
X277247Y126850D01*
X277287Y126752D01*
X277352Y126668D01*
X277436Y126603D01*
X277534Y126563D01*
X277639Y126549D01*
X277744Y126563D01*
X277842Y126603D01*
X277926Y126668D01*
X277991Y126752D01*
X278031Y126850D01*
X278045Y126955D01*
X278031Y127060D01*
X277991Y127158D01*
X277926Y127242D01*
X277842Y127307D01*
X277744Y127347D01*
X277639Y127361D01*
D02*
G37*
G36*
X276639D02*
X276534Y127347D01*
X276436Y127307D01*
X276352Y127242D01*
X276287Y127158D01*
X276247Y127060D01*
X276233Y126955D01*
X276247Y126850D01*
X276287Y126752D01*
X276352Y126668D01*
X276436Y126603D01*
X276534Y126563D01*
X276639Y126549D01*
X276744Y126563D01*
X276842Y126603D01*
X276926Y126668D01*
X276991Y126752D01*
X277031Y126850D01*
X277045Y126955D01*
X277031Y127060D01*
X276991Y127158D01*
X276926Y127242D01*
X276842Y127307D01*
X276744Y127347D01*
X276639Y127361D01*
D02*
G37*
G36*
X275639D02*
X275534Y127347D01*
X275436Y127307D01*
X275352Y127242D01*
X275287Y127158D01*
X275247Y127060D01*
X275233Y126955D01*
X275247Y126850D01*
X275287Y126752D01*
X275352Y126668D01*
X275436Y126603D01*
X275534Y126563D01*
X275639Y126549D01*
X275744Y126563D01*
X275842Y126603D01*
X275926Y126668D01*
X275991Y126752D01*
X276031Y126850D01*
X276045Y126955D01*
X276031Y127060D01*
X275991Y127158D01*
X275926Y127242D01*
X275842Y127307D01*
X275744Y127347D01*
X275639Y127361D01*
D02*
G37*
G36*
X273639D02*
X273534Y127347D01*
X273436Y127307D01*
X273352Y127242D01*
X273287Y127158D01*
X273247Y127060D01*
X273233Y126955D01*
X273247Y126850D01*
X273287Y126752D01*
X273352Y126668D01*
X273436Y126603D01*
X273534Y126563D01*
X273639Y126549D01*
X273744Y126563D01*
X273842Y126603D01*
X273926Y126668D01*
X273991Y126752D01*
X274031Y126850D01*
X274045Y126955D01*
X274031Y127060D01*
X273991Y127158D01*
X273926Y127242D01*
X273842Y127307D01*
X273744Y127347D01*
X273639Y127361D01*
D02*
G37*
G36*
X262639D02*
X262534Y127347D01*
X262436Y127307D01*
X262352Y127242D01*
X262287Y127158D01*
X262247Y127060D01*
X262233Y126955D01*
X262247Y126850D01*
X262287Y126752D01*
X262352Y126668D01*
X262436Y126603D01*
X262534Y126563D01*
X262639Y126549D01*
X262744Y126563D01*
X262842Y126603D01*
X262926Y126668D01*
X262991Y126752D01*
X263031Y126850D01*
X263045Y126955D01*
X263031Y127060D01*
X262991Y127158D01*
X262926Y127242D01*
X262842Y127307D01*
X262744Y127347D01*
X262639Y127361D01*
D02*
G37*
G36*
X260639D02*
X260534Y127347D01*
X260436Y127307D01*
X260352Y127242D01*
X260287Y127158D01*
X260247Y127060D01*
X260233Y126955D01*
X260247Y126850D01*
X260287Y126752D01*
X260352Y126668D01*
X260436Y126603D01*
X260534Y126563D01*
X260639Y126549D01*
X260744Y126563D01*
X260842Y126603D01*
X260926Y126668D01*
X260991Y126752D01*
X261031Y126850D01*
X261045Y126955D01*
X261031Y127060D01*
X260991Y127158D01*
X260926Y127242D01*
X260842Y127307D01*
X260744Y127347D01*
X260639Y127361D01*
D02*
G37*
G36*
X259639D02*
X259534Y127347D01*
X259436Y127307D01*
X259352Y127242D01*
X259287Y127158D01*
X259247Y127060D01*
X259233Y126955D01*
X259247Y126850D01*
X259287Y126752D01*
X259352Y126668D01*
X259436Y126603D01*
X259534Y126563D01*
X259639Y126549D01*
X259744Y126563D01*
X259842Y126603D01*
X259926Y126668D01*
X259991Y126752D01*
X260031Y126850D01*
X260045Y126955D01*
X260031Y127060D01*
X259991Y127158D01*
X259926Y127242D01*
X259842Y127307D01*
X259744Y127347D01*
X259639Y127361D01*
D02*
G37*
G36*
X258639D02*
X258534Y127347D01*
X258436Y127307D01*
X258352Y127242D01*
X258287Y127158D01*
X258247Y127060D01*
X258233Y126955D01*
X258247Y126850D01*
X258287Y126752D01*
X258352Y126668D01*
X258436Y126603D01*
X258534Y126563D01*
X258639Y126549D01*
X258744Y126563D01*
X258842Y126603D01*
X258926Y126668D01*
X258991Y126752D01*
X259031Y126850D01*
X259045Y126955D01*
X259031Y127060D01*
X258991Y127158D01*
X258926Y127242D01*
X258842Y127307D01*
X258744Y127347D01*
X258639Y127361D01*
D02*
G37*
G36*
X257639D02*
X257534Y127347D01*
X257436Y127307D01*
X257352Y127242D01*
X257287Y127158D01*
X257247Y127060D01*
X257233Y126955D01*
X257247Y126850D01*
X257287Y126752D01*
X257352Y126668D01*
X257436Y126603D01*
X257534Y126563D01*
X257639Y126549D01*
X257744Y126563D01*
X257842Y126603D01*
X257926Y126668D01*
X257991Y126752D01*
X258031Y126850D01*
X258045Y126955D01*
X258031Y127060D01*
X257991Y127158D01*
X257926Y127242D01*
X257842Y127307D01*
X257744Y127347D01*
X257639Y127361D01*
D02*
G37*
G36*
X256639D02*
X256534Y127347D01*
X256436Y127307D01*
X256352Y127242D01*
X256287Y127158D01*
X256247Y127060D01*
X256233Y126955D01*
X256247Y126850D01*
X256287Y126752D01*
X256352Y126668D01*
X256436Y126603D01*
X256534Y126563D01*
X256639Y126549D01*
X256744Y126563D01*
X256842Y126603D01*
X256926Y126668D01*
X256991Y126752D01*
X257031Y126850D01*
X257045Y126955D01*
X257031Y127060D01*
X256991Y127158D01*
X256926Y127242D01*
X256842Y127307D01*
X256744Y127347D01*
X256639Y127361D01*
D02*
G37*
G36*
X255639D02*
X255534Y127347D01*
X255436Y127307D01*
X255352Y127242D01*
X255287Y127158D01*
X255247Y127060D01*
X255233Y126955D01*
X255247Y126850D01*
X255287Y126752D01*
X255352Y126668D01*
X255436Y126603D01*
X255534Y126563D01*
X255639Y126549D01*
X255744Y126563D01*
X255842Y126603D01*
X255926Y126668D01*
X255991Y126752D01*
X256031Y126850D01*
X256045Y126955D01*
X256031Y127060D01*
X255991Y127158D01*
X255926Y127242D01*
X255842Y127307D01*
X255744Y127347D01*
X255639Y127361D01*
D02*
G37*
G36*
X253639D02*
X253534Y127347D01*
X253436Y127307D01*
X253352Y127242D01*
X253287Y127158D01*
X253247Y127060D01*
X253233Y126955D01*
X253247Y126850D01*
X253287Y126752D01*
X253352Y126668D01*
X253436Y126603D01*
X253534Y126563D01*
X253639Y126549D01*
X253744Y126563D01*
X253842Y126603D01*
X253926Y126668D01*
X253991Y126752D01*
X254031Y126850D01*
X254045Y126955D01*
X254031Y127060D01*
X253991Y127158D01*
X253926Y127242D01*
X253842Y127307D01*
X253744Y127347D01*
X253639Y127361D01*
D02*
G37*
G36*
X252639D02*
X252534Y127347D01*
X252436Y127307D01*
X252352Y127242D01*
X252287Y127158D01*
X252247Y127060D01*
X252233Y126955D01*
X252247Y126850D01*
X252287Y126752D01*
X252352Y126668D01*
X252436Y126603D01*
X252534Y126563D01*
X252639Y126549D01*
X252744Y126563D01*
X252842Y126603D01*
X252926Y126668D01*
X252991Y126752D01*
X253031Y126850D01*
X253045Y126955D01*
X253031Y127060D01*
X252991Y127158D01*
X252926Y127242D01*
X252842Y127307D01*
X252744Y127347D01*
X252639Y127361D01*
D02*
G37*
G36*
X251639D02*
X251534Y127347D01*
X251436Y127307D01*
X251352Y127242D01*
X251287Y127158D01*
X251247Y127060D01*
X251233Y126955D01*
X251247Y126850D01*
X251287Y126752D01*
X251352Y126668D01*
X251436Y126603D01*
X251534Y126563D01*
X251639Y126549D01*
X251744Y126563D01*
X251842Y126603D01*
X251926Y126668D01*
X251991Y126752D01*
X252031Y126850D01*
X252045Y126955D01*
X252031Y127060D01*
X251991Y127158D01*
X251926Y127242D01*
X251842Y127307D01*
X251744Y127347D01*
X251639Y127361D01*
D02*
G37*
G36*
X250639D02*
X250534Y127347D01*
X250436Y127307D01*
X250352Y127242D01*
X250287Y127158D01*
X250247Y127060D01*
X250233Y126955D01*
X250247Y126850D01*
X250287Y126752D01*
X250352Y126668D01*
X250436Y126603D01*
X250534Y126563D01*
X250639Y126549D01*
X250744Y126563D01*
X250842Y126603D01*
X250926Y126668D01*
X250991Y126752D01*
X251031Y126850D01*
X251045Y126955D01*
X251031Y127060D01*
X250991Y127158D01*
X250926Y127242D01*
X250842Y127307D01*
X250744Y127347D01*
X250639Y127361D01*
D02*
G37*
G36*
X249639D02*
X249534Y127347D01*
X249436Y127307D01*
X249352Y127242D01*
X249287Y127158D01*
X249247Y127060D01*
X249233Y126955D01*
X249247Y126850D01*
X249287Y126752D01*
X249352Y126668D01*
X249436Y126603D01*
X249534Y126563D01*
X249639Y126549D01*
X249744Y126563D01*
X249842Y126603D01*
X249926Y126668D01*
X249991Y126752D01*
X250031Y126850D01*
X250045Y126955D01*
X250031Y127060D01*
X249991Y127158D01*
X249926Y127242D01*
X249842Y127307D01*
X249744Y127347D01*
X249639Y127361D01*
D02*
G37*
G36*
X248639D02*
X248534Y127347D01*
X248436Y127307D01*
X248352Y127242D01*
X248287Y127158D01*
X248247Y127060D01*
X248233Y126955D01*
X248247Y126850D01*
X248287Y126752D01*
X248352Y126668D01*
X248436Y126603D01*
X248534Y126563D01*
X248639Y126549D01*
X248744Y126563D01*
X248842Y126603D01*
X248926Y126668D01*
X248991Y126752D01*
X249031Y126850D01*
X249045Y126955D01*
X249031Y127060D01*
X248991Y127158D01*
X248926Y127242D01*
X248842Y127307D01*
X248744Y127347D01*
X248639Y127361D01*
D02*
G37*
G36*
X247639D02*
X247534Y127347D01*
X247436Y127307D01*
X247352Y127242D01*
X247287Y127158D01*
X247247Y127060D01*
X247233Y126955D01*
X247247Y126850D01*
X247287Y126752D01*
X247352Y126668D01*
X247436Y126603D01*
X247534Y126563D01*
X247639Y126549D01*
X247744Y126563D01*
X247842Y126603D01*
X247926Y126668D01*
X247991Y126752D01*
X248031Y126850D01*
X248045Y126955D01*
X248031Y127060D01*
X247991Y127158D01*
X247926Y127242D01*
X247842Y127307D01*
X247744Y127347D01*
X247639Y127361D01*
D02*
G37*
G36*
X246639D02*
X246534Y127347D01*
X246436Y127307D01*
X246352Y127242D01*
X246287Y127158D01*
X246247Y127060D01*
X246233Y126955D01*
X246247Y126850D01*
X246287Y126752D01*
X246352Y126668D01*
X246436Y126603D01*
X246534Y126563D01*
X246639Y126549D01*
X246744Y126563D01*
X246842Y126603D01*
X246926Y126668D01*
X246991Y126752D01*
X247031Y126850D01*
X247045Y126955D01*
X247031Y127060D01*
X246991Y127158D01*
X246926Y127242D01*
X246842Y127307D01*
X246744Y127347D01*
X246639Y127361D01*
D02*
G37*
G36*
X245639D02*
X245534Y127347D01*
X245436Y127307D01*
X245352Y127242D01*
X245287Y127158D01*
X245247Y127060D01*
X245233Y126955D01*
X245247Y126850D01*
X245287Y126752D01*
X245352Y126668D01*
X245436Y126603D01*
X245534Y126563D01*
X245639Y126549D01*
X245744Y126563D01*
X245842Y126603D01*
X245926Y126668D01*
X245991Y126752D01*
X246031Y126850D01*
X246045Y126955D01*
X246031Y127060D01*
X245991Y127158D01*
X245926Y127242D01*
X245842Y127307D01*
X245744Y127347D01*
X245639Y127361D01*
D02*
G37*
G36*
X244639D02*
X244534Y127347D01*
X244436Y127307D01*
X244352Y127242D01*
X244287Y127158D01*
X244247Y127060D01*
X244233Y126955D01*
X244247Y126850D01*
X244287Y126752D01*
X244352Y126668D01*
X244436Y126603D01*
X244534Y126563D01*
X244639Y126549D01*
X244744Y126563D01*
X244842Y126603D01*
X244926Y126668D01*
X244991Y126752D01*
X245031Y126850D01*
X245045Y126955D01*
X245031Y127060D01*
X244991Y127158D01*
X244926Y127242D01*
X244842Y127307D01*
X244744Y127347D01*
X244639Y127361D01*
D02*
G37*
G36*
X243639D02*
X243534Y127347D01*
X243436Y127307D01*
X243352Y127242D01*
X243287Y127158D01*
X243247Y127060D01*
X243233Y126955D01*
X243247Y126850D01*
X243287Y126752D01*
X243352Y126668D01*
X243436Y126603D01*
X243534Y126563D01*
X243639Y126549D01*
X243744Y126563D01*
X243842Y126603D01*
X243926Y126668D01*
X243991Y126752D01*
X244031Y126850D01*
X244045Y126955D01*
X244031Y127060D01*
X243991Y127158D01*
X243926Y127242D01*
X243842Y127307D01*
X243744Y127347D01*
X243639Y127361D01*
D02*
G37*
G36*
X279589Y126905D02*
X279219D01*
X279227Y126845D01*
X279270Y126742D01*
X279338Y126654D01*
X279426Y126586D01*
X279529Y126543D01*
X279589Y126535D01*
Y126905D01*
D02*
G37*
G36*
X278589D02*
X278219D01*
X278227Y126845D01*
X278270Y126742D01*
X278338Y126654D01*
X278426Y126586D01*
X278529Y126543D01*
X278589Y126535D01*
Y126905D01*
D02*
G37*
G36*
X274589D02*
X274219D01*
X274227Y126845D01*
X274270Y126742D01*
X274338Y126654D01*
X274426Y126586D01*
X274529Y126543D01*
X274589Y126535D01*
Y126905D01*
D02*
G37*
G36*
X280059D02*
X279689D01*
Y126535D01*
X279749Y126543D01*
X279852Y126586D01*
X279940Y126654D01*
X280008Y126742D01*
X280051Y126845D01*
X280059Y126905D01*
D02*
G37*
G36*
X279059D02*
X278689D01*
Y126535D01*
X278749Y126543D01*
X278852Y126586D01*
X278940Y126654D01*
X279008Y126742D01*
X279051Y126845D01*
X279059Y126905D01*
D02*
G37*
G36*
X275059D02*
X274689D01*
Y126535D01*
X274749Y126543D01*
X274852Y126586D01*
X274940Y126654D01*
X275008Y126742D01*
X275051Y126845D01*
X275059Y126905D01*
D02*
G37*
%LPD*%
G36*
X261492Y143243D02*
X261447Y143207D01*
X261392Y143136D01*
X261358Y143054D01*
X261346Y142965D01*
X261358Y142876D01*
X261378Y142827D01*
X261088Y142537D01*
X260490D01*
X259781Y143246D01*
X259800Y143293D01*
X260443D01*
X260460Y143243D01*
X260432Y143222D01*
X260375Y143146D01*
X260338Y143059D01*
X260333Y143015D01*
X260689D01*
X261046D01*
X261040Y143059D01*
X261004Y143146D01*
X260946Y143222D01*
X260919Y143243D01*
X260936Y143293D01*
X261475D01*
X261492Y143243D01*
D02*
G37*
G36*
X257294Y136237D02*
X257273Y136187D01*
X254002D01*
X253254Y136935D01*
X253276Y136987D01*
X253288Y137077D01*
X253276Y137168D01*
X253241Y137252D01*
X253186Y137324D01*
X253113Y137379D01*
X253029Y137414D01*
X252939Y137426D01*
X252849Y137414D01*
X252765Y137379D01*
X252692Y137324D01*
X252637Y137252D01*
X252611Y137190D01*
X252561Y137200D01*
Y138202D01*
X252552Y138249D01*
X252526Y138289D01*
X252254Y138560D01*
X252276Y138612D01*
X252288Y138702D01*
X252276Y138793D01*
X252241Y138877D01*
X252191Y138943D01*
X252203Y138993D01*
X252676D01*
X252688Y138943D01*
X252637Y138877D01*
X252602Y138793D01*
X252590Y138702D01*
X252602Y138612D01*
X252637Y138528D01*
X252692Y138456D01*
X252765Y138400D01*
X252849Y138366D01*
X252939Y138354D01*
X253029Y138366D01*
X253113Y138400D01*
X253186Y138456D01*
X253241Y138528D01*
X253276Y138612D01*
X253288Y138702D01*
X253276Y138793D01*
X253241Y138877D01*
X253191Y138943D01*
X253203Y138993D01*
X253676D01*
X253688Y138943D01*
X253637Y138877D01*
X253602Y138793D01*
X253590Y138702D01*
X253602Y138612D01*
X253637Y138528D01*
X253692Y138456D01*
X253765Y138400D01*
X253849Y138366D01*
X253939Y138354D01*
X254029Y138366D01*
X254113Y138400D01*
X254186Y138456D01*
X254241Y138528D01*
X254276Y138612D01*
X254288Y138702D01*
X254276Y138793D01*
X254241Y138877D01*
X254191Y138943D01*
X254203Y138993D01*
X254538D01*
X257294Y136237D01*
D02*
G37*
G36*
X239689Y137341D02*
X239691Y137323D01*
X239637Y137252D01*
X239602Y137168D01*
X239590Y137077D01*
X239602Y136987D01*
X239624Y136935D01*
X238211Y135523D01*
X238177Y135532D01*
X238161Y135542D01*
Y136864D01*
X238570Y137273D01*
X238612Y137245D01*
X238583Y137173D01*
X238577Y137127D01*
X238939D01*
X239301D01*
X239295Y137173D01*
X239259Y137262D01*
X239212Y137323D01*
X239233Y137373D01*
X239678D01*
X239689Y137341D01*
D02*
G37*
G36*
X274001Y131211D02*
X274017Y131200D01*
Y129149D01*
X273967Y129132D01*
X273940Y129166D01*
X273852Y129234D01*
X273749Y129277D01*
X273689Y129285D01*
Y128865D01*
Y128445D01*
X273731Y128451D01*
X273755Y128404D01*
X272888Y127537D01*
X272500D01*
X272481Y127584D01*
X273226Y128328D01*
X273252Y128368D01*
X273261Y128415D01*
Y128581D01*
X273311Y128598D01*
X273338Y128564D01*
X273426Y128496D01*
X273529Y128453D01*
X273589Y128445D01*
Y128865D01*
Y129285D01*
X273529Y129277D01*
X273426Y129234D01*
X273338Y129166D01*
X273311Y129132D01*
X273261Y129149D01*
Y130514D01*
X273967Y131220D01*
X274001Y131211D01*
D02*
G37*
G36*
X271695Y130351D02*
X271695Y130344D01*
X271588Y130237D01*
X270889D01*
X270842Y130228D01*
X270803Y130201D01*
X269825Y129224D01*
X269744Y129257D01*
X269639Y129271D01*
X269534Y129257D01*
X269436Y129217D01*
X269352Y129152D01*
X269287Y129068D01*
X269247Y128970D01*
X269233Y128865D01*
X269247Y128760D01*
X269287Y128662D01*
X269352Y128578D01*
X269436Y128513D01*
X269534Y128473D01*
X269639Y128459D01*
X269744Y128473D01*
X269842Y128513D01*
X269926Y128578D01*
X269991Y128662D01*
X270031Y128760D01*
X270045Y128865D01*
X270031Y128970D01*
X269998Y129051D01*
X270940Y129993D01*
X271623D01*
X271645Y129951D01*
X271645Y129944D01*
X271053Y129351D01*
X271026Y129312D01*
X271017Y129265D01*
Y129116D01*
X270967Y129099D01*
X270926Y129152D01*
X270842Y129217D01*
X270744Y129257D01*
X270639Y129271D01*
X270534Y129257D01*
X270436Y129217D01*
X270352Y129152D01*
X270287Y129068D01*
X270247Y128970D01*
X270233Y128865D01*
X270247Y128760D01*
X270287Y128662D01*
X270352Y128578D01*
X270436Y128513D01*
X270534Y128473D01*
X270639Y128459D01*
X270744Y128473D01*
X270842Y128513D01*
X270926Y128578D01*
X270967Y128631D01*
X271017Y128614D01*
Y128458D01*
X270696Y128137D01*
X268000D01*
X267981Y128183D01*
X268226Y128428D01*
X268252Y128468D01*
X268261Y128515D01*
Y128614D01*
X268311Y128631D01*
X268352Y128578D01*
X268436Y128513D01*
X268534Y128473D01*
X268639Y128459D01*
X268744Y128473D01*
X268842Y128513D01*
X268926Y128578D01*
X268991Y128662D01*
X269031Y128760D01*
X269045Y128865D01*
X269031Y128970D01*
X268998Y129051D01*
X270340Y130393D01*
X271673D01*
X271695Y130351D01*
D02*
G37*
%LPC*%
G36*
X260639Y142915D02*
X260333D01*
X260338Y142871D01*
X260375Y142783D01*
X260432Y142708D01*
X260508Y142650D01*
X260595Y142614D01*
X260639Y142608D01*
Y142915D01*
D02*
G37*
G36*
X261046D02*
X260739D01*
Y142608D01*
X260783Y142614D01*
X260871Y142650D01*
X260946Y142708D01*
X261004Y142783D01*
X261040Y142871D01*
X261046Y142915D01*
D02*
G37*
G36*
X254285Y137423D02*
X253593D01*
Y136732D01*
X254285D01*
Y137423D01*
D02*
G37*
G36*
X238889Y137027D02*
X238577D01*
X238583Y136982D01*
X238620Y136893D01*
X238678Y136817D01*
X238755Y136758D01*
X238844Y136721D01*
X238889Y136715D01*
Y137027D01*
D02*
G37*
G36*
X239301D02*
X238989D01*
Y136715D01*
X239035Y136721D01*
X239124Y136758D01*
X239200Y136817D01*
X239259Y136893D01*
X239295Y136982D01*
X239301Y137027D01*
D02*
G37*
%LPD*%
D15*
X270486Y142015D02*
X273889Y138611D01*
X266689Y142965D02*
X267639Y142015D01*
X270486D01*
X267689Y142965D02*
X268389Y142265D01*
X270589D02*
X274139Y138715D01*
X268389Y142265D02*
X270589D01*
X262339Y130471D02*
Y131458D01*
X264833Y133952D01*
X261139Y129965D02*
X261833D01*
X262339Y130471D01*
X262032Y131458D02*
X264339Y133765D01*
Y134115D01*
X260532Y131458D02*
X262032D01*
X262639Y129965D02*
X263739D01*
X259489Y131184D02*
X260520Y132215D01*
X262096D01*
X259939Y132465D02*
X261346D01*
X259039Y131565D02*
X259939Y132465D01*
X259302Y132665D02*
X260546D01*
X258502Y131865D02*
X259302Y132665D01*
X259939Y130865D02*
X260532Y131458D01*
X260546Y132665D02*
X261833Y133952D01*
X261346Y132465D02*
X262833Y133952D01*
X262096Y132215D02*
X263833Y133952D01*
X264339Y134115D02*
X264689Y134465D01*
X265321D02*
X265833Y133952D01*
X264689Y134465D02*
X265321D01*
X263739Y129965D02*
X264339Y130565D01*
Y131458D02*
X266833Y133952D01*
X264339Y130565D02*
Y131458D01*
X251452Y137565D02*
X251939Y137077D01*
X250689Y137565D02*
X251452D01*
X250439Y137315D02*
X250689Y137565D01*
X250439Y136715D02*
Y137315D01*
Y136715D02*
X251689Y135465D01*
X255546D01*
X255739Y135665D02*
X257889Y133515D01*
X250939Y137077D02*
X252352Y135665D01*
X255739D01*
X257639Y128865D02*
Y133372D01*
X255546Y135465D02*
X257639Y133372D01*
X257889Y131615D02*
X260639Y128865D01*
X257889Y131615D02*
Y133515D01*
X251939Y130365D02*
Y130952D01*
X252139Y128348D02*
Y130165D01*
X251939Y130365D02*
X252139Y130165D01*
X251139Y128665D02*
X251839Y127965D01*
X251039Y127765D02*
X258539D01*
X251839Y127965D02*
X257739D01*
X250139Y128665D02*
X251039Y127765D01*
X261029Y127565D02*
X261639Y126955D01*
X249139Y128615D02*
X250189Y127565D01*
X261029D01*
X257739Y127965D02*
X258639Y128865D01*
X258539Y127765D02*
X259639Y128865D01*
X252439Y130565D02*
X253039Y129965D01*
X255539D02*
X256639Y128865D01*
X253039Y129965D02*
X255539D01*
X247527Y130365D02*
X247939D01*
X246939Y130952D02*
X247527Y130365D01*
X247939D02*
X249139Y129165D01*
Y128615D02*
Y129165D01*
X246939Y130952D02*
X246939D01*
X250139Y128665D02*
Y130680D01*
X249939Y130880D02*
Y130952D01*
Y130880D02*
X250139Y130680D01*
X250939Y130880D02*
Y130952D01*
Y130880D02*
X251139Y130680D01*
Y128665D02*
Y130680D01*
X272889Y131715D02*
Y137615D01*
X270689Y141365D02*
X273637Y138417D01*
X272139Y129915D02*
X273637Y131412D01*
X271689Y139865D02*
X273389Y138165D01*
X271689Y130515D02*
X272889Y131715D01*
X273139Y131615D02*
Y137865D01*
X269839Y141165D02*
X273139Y137865D01*
X273389Y131515D02*
Y138165D01*
X271639Y130115D02*
X273139Y131615D01*
X271139Y129265D02*
X273389Y131515D01*
X269689Y140815D02*
X272889Y137615D01*
X273139Y130565D02*
X273889Y131315D01*
Y138611D01*
X273637Y131412D02*
Y138417D01*
X274139Y128615D02*
Y138715D01*
X272939Y127415D02*
X274139Y128615D01*
X268689Y141515D02*
X269039Y141165D01*
X269839D01*
X269689Y140815D02*
X269689D01*
X271689Y139965D02*
Y139965D01*
X266689Y142965D02*
X266689D01*
X273139Y128415D02*
Y130565D01*
X272139Y128315D02*
Y129915D01*
X271139Y128407D02*
Y129265D01*
X269099Y127415D02*
X272939D01*
X272339Y127615D02*
X273139Y128415D01*
X268299Y127615D02*
X272339D01*
X271639Y127815D02*
X272139Y128315D01*
X267499Y127815D02*
X271639D01*
X270289Y130515D02*
X271689D01*
X270889Y130115D02*
X271639D01*
X270747Y128015D02*
X271139Y128407D01*
X266699Y128015D02*
X270747D01*
X269639Y128865D02*
X270889Y130115D01*
X268639Y128865D02*
X270289Y130515D01*
X268339Y131415D02*
X271039Y134115D01*
X270689Y136965D02*
X271039Y136615D01*
Y134115D02*
Y136615D01*
X268339Y130655D02*
Y131415D01*
X268139Y130455D02*
X268339Y130655D01*
X268139Y128515D02*
Y130455D01*
X267839Y128215D02*
X268139Y128515D01*
X265899Y128215D02*
X267839D01*
X264639Y126955D02*
X265899Y128215D01*
X265639Y126955D02*
X266699Y128015D01*
X266639Y126955D02*
X267499Y127815D01*
X267639Y126955D02*
X268299Y127615D01*
X268639Y126955D02*
X269099Y127415D01*
X251939Y138702D02*
X252439Y138202D01*
Y136915D02*
Y138202D01*
Y136915D02*
X253489Y135865D01*
X257239D02*
X258339Y134765D01*
X253489Y135865D02*
X257239D01*
X257339Y136065D02*
X258439Y134965D01*
X253952Y136065D02*
X257339D01*
X252939Y137077D02*
X253952Y136065D01*
X268021Y134765D02*
X268833Y133952D01*
X258339Y134765D02*
X268021D01*
X268821Y134965D02*
X269833Y133952D01*
X266289Y135565D02*
X267689Y136965D01*
X258705Y135565D02*
X266289D01*
X254755Y139515D02*
X258705Y135565D01*
X258539Y135165D02*
X268889D01*
X270689Y136965D01*
X258622Y135365D02*
X268089D01*
X254589Y139115D02*
X258539Y135165D01*
X268089Y135365D02*
X269689Y136965D01*
X258439Y134965D02*
X268821D01*
X254672Y139315D02*
X258622Y135365D01*
X255139Y142415D02*
X255939Y143215D01*
X259639D02*
X260439Y142415D01*
X255939Y143215D02*
X259639D01*
X255856Y143415D02*
X262239D01*
X262689Y142965D01*
X255056Y142615D02*
X255856Y143415D01*
X254973Y142815D02*
X255773Y143615D01*
X263039D02*
X263689Y142965D01*
X255773Y143615D02*
X263039D01*
X267039Y144615D02*
X268689Y142965D01*
X254311Y144415D02*
X255111Y145215D01*
X255691Y143815D02*
X263839D01*
X264689Y142965D01*
X254891Y143015D02*
X255691Y143815D01*
X267839Y144815D02*
X269689Y142965D01*
X255525Y144215D02*
X265439D01*
X255359Y144615D02*
X267039D01*
X254476Y144015D02*
X255276Y144815D01*
X267839D01*
X254808Y143215D02*
X255608Y144015D01*
X264639D01*
X266239Y144415D02*
X267689Y142965D01*
X268639Y145015D02*
X270689Y142965D01*
X254725Y143415D02*
X255525Y144215D01*
X254642Y143615D02*
X255442Y144415D01*
X255193Y145015D02*
X268639D01*
X254393Y144215D02*
X255193Y145015D01*
X265439Y144215D02*
X266689Y142965D01*
X254559Y143815D02*
X255359Y144615D01*
X269439Y145215D02*
X271689Y142965D01*
X255111Y145215D02*
X269439D01*
X264639Y144015D02*
X265689Y142965D01*
X255442Y144415D02*
X266239D01*
X261139Y142415D02*
X261689Y142965D01*
X260439Y142415D02*
X261139D01*
X265489Y135765D02*
X266689Y136965D01*
X263689Y135965D02*
X264689Y136965D01*
X262889Y136165D02*
X263689Y136965D01*
X262089Y136365D02*
X262689Y136965D01*
X261289Y136565D02*
X261689Y136965D01*
X259036Y136365D02*
X262089D01*
X258953Y136165D02*
X262889D01*
X258788Y135765D02*
X265489D01*
X255003Y140115D02*
X258953Y136165D01*
X259119Y136565D02*
X261289D01*
X254920Y139915D02*
X258870Y135965D01*
X254838Y139715D02*
X258788Y135765D01*
X255086Y140315D02*
X259036Y136365D01*
X258870Y135965D02*
X263689D01*
X255169Y140515D02*
X259119Y136565D01*
X259002Y136965D02*
X260689D01*
X255252Y140715D02*
X259002Y136965D01*
X238939Y138702D02*
X240952Y140715D01*
X255252D01*
X239939Y138702D02*
X241752Y140515D01*
X255169D01*
X240532Y138295D02*
X240939Y138702D01*
X242552Y140315D02*
X255086D01*
X240939Y138702D02*
X242552Y140315D01*
X243352Y140115D02*
X255003D01*
X241939Y138702D02*
X243352Y140115D01*
X241332Y138095D02*
X241939Y138702D01*
X242132Y137895D02*
X242939Y138702D01*
X244152Y139915D02*
X254920D01*
X242939Y138702D02*
X244152Y139915D01*
X244939Y138702D02*
X245952Y139715D01*
X254838D01*
X245939Y138702D02*
X246752Y139515D01*
X254755D01*
X248552Y139315D02*
X254672D01*
X247939Y138702D02*
X248552Y139315D01*
X248939Y138702D02*
X249352Y139115D01*
X254589D01*
X247952Y143815D02*
X254559D01*
X248752Y144015D02*
X254476D01*
X243952Y142815D02*
X254973D01*
X245552Y143215D02*
X254808D01*
X243152Y142615D02*
X255056D01*
X242352Y142415D02*
X255139D01*
X249552Y144215D02*
X254393D01*
X246352Y143415D02*
X254725D01*
X250352Y144415D02*
X254311D01*
X244752Y143015D02*
X254891D01*
X247152Y143615D02*
X254642D01*
X243939Y144827D02*
X245552Y143215D01*
X244939Y144827D02*
X246352Y143415D01*
X239939Y144827D02*
X242352Y142415D01*
X240939Y144827D02*
X243152Y142615D01*
X241939Y144827D02*
X243952Y142815D01*
X242939Y144827D02*
X244752Y143015D01*
X247939Y144827D02*
X248752Y144015D01*
X245939Y144827D02*
X247152Y143615D01*
X249939Y144827D02*
X250352Y144415D01*
X248939Y144827D02*
X249552Y144215D01*
X246939Y144827D02*
X247952Y143815D01*
X238039Y136915D02*
X238619Y137495D01*
X240522D01*
X241322Y137695D02*
X241939Y137077D01*
X238269Y137895D02*
X242132D01*
X240522Y137495D02*
X240939Y137077D01*
X238469Y137695D02*
X241322D01*
X237739Y136965D02*
X238469Y137695D01*
X236289Y136765D02*
X237819Y138295D01*
X240532D01*
X236989Y136615D02*
X238269Y137895D01*
X236639Y136715D02*
X238019Y138095D01*
X241332D01*
X241479Y128115D02*
X242639Y126955D01*
X240139Y128512D02*
X240536Y128115D01*
X241479D01*
X239952D02*
X240452Y127615D01*
X239139Y128415D02*
X239439Y128115D01*
X239952D01*
X236989Y128765D02*
X237639Y128115D01*
X237989D02*
X238489Y127615D01*
X237639Y128115D02*
X237989D01*
X239979Y127615D02*
X240639Y126955D01*
X239439Y127615D02*
X239979D01*
X238939Y128115D02*
X239439Y127615D01*
X238979D02*
X239639Y126955D01*
X238489Y127615D02*
X238979D01*
X237979D02*
X238639Y126955D01*
X236639Y128615D02*
X237639Y127615D01*
X237979D01*
X240139Y128512D02*
Y129115D01*
X238039Y130315D02*
X239139Y129215D01*
X238039Y130315D02*
Y136915D01*
X237739Y129615D02*
X238139Y129215D01*
X237739Y129615D02*
Y136965D01*
X236989Y128765D02*
Y136615D01*
X236639Y128615D02*
Y136715D01*
X240979Y127615D02*
X241639Y126955D01*
X240452Y127615D02*
X240979D01*
X238139Y128465D02*
X238489Y128115D01*
X238939D01*
X236289Y128305D02*
Y136765D01*
Y128305D02*
X237639Y126955D01*
X238139Y128465D02*
Y129215D01*
X238289Y135427D02*
X239939Y137077D01*
X238289Y130965D02*
X240139Y129115D01*
X238289Y130965D02*
Y135427D01*
X239139Y128415D02*
Y129215D01*
X238939Y130952D02*
X240327Y129565D01*
X243939D02*
X244639Y128865D01*
X240327Y129565D02*
X243939D01*
X244739Y129765D02*
X245639Y128865D01*
X239939Y130952D02*
X241127Y129765D01*
X244739D01*
X240939Y130952D02*
X241927Y129965D01*
X245489D01*
X246589Y128865D01*
X242727Y130165D02*
X246339D01*
X241939Y130952D02*
X242727Y130165D01*
X246339D02*
X247639Y128865D01*
X242939Y130952D02*
X243527Y130365D01*
X247139D01*
X248639Y128865D01*
X246589D02*
X246639D01*
D27*
X258678Y139476D02*
X258678Y139476D01*
X256878Y141276D02*
X258678Y139476D01*
X269178D01*
X271689Y136965D01*
X255804Y141276D02*
X256878D01*
D28*
X269833Y133952D02*
D03*
D29*
X268833D02*
D03*
X267833D02*
D03*
X266833D02*
D03*
X265833D02*
D03*
X264833D02*
D03*
X263833D02*
D03*
X262833D02*
D03*
X264833Y130952D02*
D03*
X265833D02*
D03*
X260833D02*
D03*
X261833D02*
D03*
X262833D02*
D03*
X263833D02*
D03*
X266833D02*
D03*
X267833D02*
D03*
X268833D02*
D03*
X269833D02*
D03*
X260833Y133952D02*
D03*
X261833D02*
D03*
D30*
X253939Y144827D02*
D03*
Y137077D02*
D03*
D31*
X252939Y144827D02*
D03*
X251939D02*
D03*
X250939D02*
D03*
X249939D02*
D03*
X248939D02*
D03*
X247939D02*
D03*
X246939D02*
D03*
X245939D02*
D03*
X244939D02*
D03*
X243939D02*
D03*
X242939D02*
D03*
X241939D02*
D03*
X240939D02*
D03*
X239939D02*
D03*
X238939D02*
D03*
Y138702D02*
D03*
X239939D02*
D03*
X240939D02*
D03*
X241939D02*
D03*
X242939D02*
D03*
X243939D02*
D03*
X244939D02*
D03*
X245939D02*
D03*
X246939D02*
D03*
X247939D02*
D03*
X248939D02*
D03*
X249939D02*
D03*
X250939D02*
D03*
X251939D02*
D03*
X252939D02*
D03*
X253939D02*
D03*
X252939Y137077D02*
D03*
X251939D02*
D03*
X250939D02*
D03*
X249939D02*
D03*
X248939D02*
D03*
X247939D02*
D03*
X246939D02*
D03*
X245939D02*
D03*
X244939D02*
D03*
X243939D02*
D03*
X242939D02*
D03*
X241939D02*
D03*
X240939D02*
D03*
X239939D02*
D03*
X238939D02*
D03*
Y130952D02*
D03*
X239939D02*
D03*
X240939D02*
D03*
X241939D02*
D03*
X242939D02*
D03*
X243939D02*
D03*
X244939D02*
D03*
X245939D02*
D03*
X246939D02*
D03*
X247939D02*
D03*
X248939D02*
D03*
X249939D02*
D03*
X250939D02*
D03*
X251939D02*
D03*
X252939D02*
D03*
X253939D02*
D03*
D32*
X255804Y142276D02*
D03*
X271639Y132963D02*
D03*
X255804Y134526D02*
D03*
X274680Y140476D02*
D03*
D33*
X255804Y141276D02*
D03*
X271639Y131963D02*
D03*
X255804Y133526D02*
D03*
X274680Y139476D02*
D03*
D34*
X278639Y131615D02*
D03*
X277639D02*
D03*
D35*
X260689Y136965D02*
D03*
X261689D02*
D03*
X262689D02*
D03*
X263689D02*
D03*
X264689D02*
D03*
X265689D02*
D03*
X266689D02*
D03*
X267689D02*
D03*
X268689D02*
D03*
X269689D02*
D03*
X270689D02*
D03*
X271689D02*
D03*
X260689Y142965D02*
D03*
X261689D02*
D03*
X262689D02*
D03*
X263689D02*
D03*
X264689D02*
D03*
X265689D02*
D03*
X266689D02*
D03*
X267689D02*
D03*
X268689D02*
D03*
X269689D02*
D03*
X270689D02*
D03*
D36*
X271689D02*
D03*
D37*
X279639Y128865D02*
D03*
D38*
Y126955D02*
D03*
X278639Y128865D02*
D03*
Y126955D02*
D03*
X277639Y128865D02*
D03*
Y126955D02*
D03*
X276639Y128865D02*
D03*
Y126955D02*
D03*
X275639Y128865D02*
D03*
Y126955D02*
D03*
X274639Y128865D02*
D03*
Y126955D02*
D03*
X273639Y128865D02*
D03*
Y126955D02*
D03*
X272639Y128865D02*
D03*
X272639Y126955D02*
D03*
X271639Y128865D02*
D03*
Y126955D02*
D03*
X270639Y128865D02*
D03*
Y126955D02*
D03*
X269639Y128865D02*
D03*
Y126955D02*
D03*
X268639Y128865D02*
D03*
Y126955D02*
D03*
X267639Y128865D02*
D03*
Y126955D02*
D03*
X266639Y128865D02*
D03*
Y126955D02*
D03*
X265639Y128865D02*
D03*
Y126955D02*
D03*
X264639Y128865D02*
D03*
Y126955D02*
D03*
X263639Y128865D02*
D03*
X263639Y126955D02*
D03*
X262639Y128865D02*
D03*
Y126955D02*
D03*
X261639Y128865D02*
D03*
Y126955D02*
D03*
X260639Y128865D02*
D03*
Y126955D02*
D03*
X259639Y128865D02*
D03*
Y126955D02*
D03*
X258639Y128865D02*
D03*
Y126955D02*
D03*
X257639Y128865D02*
D03*
Y126955D02*
D03*
X256639Y128865D02*
D03*
Y126955D02*
D03*
X255639Y128865D02*
D03*
Y126955D02*
D03*
X254639Y128865D02*
D03*
X254639Y126955D02*
D03*
X253639Y128865D02*
D03*
Y126955D02*
D03*
X252639Y128865D02*
D03*
Y126955D02*
D03*
X251639Y128865D02*
D03*
Y126955D02*
D03*
X250639Y128865D02*
D03*
Y126955D02*
D03*
X249639Y128865D02*
D03*
Y126955D02*
D03*
X248639Y128865D02*
D03*
Y126955D02*
D03*
X247639Y128865D02*
D03*
Y126955D02*
D03*
X246639Y128865D02*
D03*
Y126955D02*
D03*
X245639Y128865D02*
D03*
Y126955D02*
D03*
X244639Y128865D02*
D03*
Y126955D02*
D03*
X243639Y128865D02*
D03*
Y126955D02*
D03*
X242639Y128865D02*
D03*
Y126955D02*
D03*
X241639Y128865D02*
D03*
Y126955D02*
D03*
X240639Y128865D02*
D03*
X240639Y126955D02*
D03*
X239639Y128865D02*
D03*
Y126955D02*
D03*
X238639Y128865D02*
D03*
Y126955D02*
D03*
X237639Y128865D02*
D03*
Y126955D02*
D03*
D39*
X253139Y128365D02*
D03*
X263339Y134415D02*
D03*
X248139Y128415D02*
D03*
X271589Y131265D02*
D03*
X277089Y131015D02*
D03*
X266989Y129715D02*
D03*
X271189Y140315D02*
D03*
X250489Y130515D02*
D03*
X251489Y135115D02*
D03*
X240039Y143065D02*
D03*
X237089Y143015D02*
D03*
X266939Y144215D02*
D03*
X268089Y141565D02*
D03*
X265839Y140015D02*
D03*
X262839Y142065D02*
D03*
X259039Y139915D02*
D03*
X263889Y139015D02*
D03*
X261139Y137415D02*
D03*
X269189Y137465D02*
D03*
X268989Y139115D02*
D03*
X256589Y140415D02*
D03*
X253789Y135115D02*
D03*
X258289Y133215D02*
D03*
X254439Y131415D02*
D03*
X262839Y127765D02*
D03*
X275139Y128215D02*
D03*
X278239Y142365D02*
D03*
X277139Y137915D02*
D03*
X274439Y134615D02*
D03*
X267339Y134365D02*
D03*
X268639Y134565D02*
D03*
X269989Y135165D02*
D03*
X267339Y135815D02*
D03*
X265039Y136115D02*
D03*
X271139Y142365D02*
D03*
X271939Y137615D02*
D03*
X271589Y136149D02*
D03*
X277233Y136315D02*
D03*
X274639Y138815D02*
D03*
X276991Y132203D02*
D03*
X270436Y130199D02*
D03*
X270150Y128365D02*
D03*
X268825Y129565D02*
D03*
X263534Y130315D02*
D03*
X264511Y132665D02*
D03*
X261450Y131865D02*
D03*
X258002Y130952D02*
D03*
X242637Y127565D02*
D03*
X239489Y139746D02*
D03*
X240939Y141065D02*
D03*
X241889Y142065D02*
D03*
X246489Y143784D02*
D03*
X245439D02*
D03*
X243439Y143815D02*
D03*
X242049Y144165D02*
D03*
X242637Y141065D02*
D03*
X254439D02*
D03*
X253439Y142065D02*
D03*
X252439Y141065D02*
D03*
X251439Y142065D02*
D03*
X250439Y141065D02*
D03*
X249439Y142065D02*
D03*
X248439Y141065D02*
D03*
X247139Y139215D02*
D03*
X246439Y141065D02*
D03*
X245439Y142065D02*
D03*
X244439Y139615D02*
D03*
X243439Y142065D02*
D03*
X281289Y131065D02*
D03*
Y135915D02*
D03*
Y140765D02*
D03*
X235889D02*
D03*
Y135915D02*
D03*
Y131065D02*
D03*
X241127Y129257D02*
D03*
X257139Y129396D02*
D03*
X260139Y128297D02*
D03*
X235939Y145615D02*
D03*
X281339D02*
D03*
X241618D02*
D03*
X247296D02*
D03*
X252975D02*
D03*
X258654D02*
D03*
X264332D02*
D03*
X270011D02*
D03*
X275689D02*
D03*
X275660Y126215D02*
D03*
X269982D02*
D03*
X264303D02*
D03*
X258625D02*
D03*
X247267D02*
D03*
X241589D02*
D03*
X245639Y127615D02*
D03*
X237352Y135815D02*
D03*
X255842Y131065D02*
D03*
X258189Y132165D02*
D03*
X256744Y135365D02*
D03*
X255856Y136741D02*
D03*
X249317Y129843D02*
D03*
X243389Y136165D02*
D03*
Y131865D02*
D03*
X241939D02*
D03*
X240939D02*
D03*
X239939D02*
D03*
X238939D02*
D03*
X241939Y136165D02*
D03*
X240939D02*
D03*
X239939D02*
D03*
X253789Y132031D02*
D03*
X255238Y133560D02*
D03*
X254031Y138015D02*
D03*
X250489Y136165D02*
D03*
X248489D02*
D03*
X246489D02*
D03*
X251439Y131465D02*
D03*
X249439D02*
D03*
X247439D02*
D03*
X245439D02*
D03*
X244489Y136165D02*
D03*
X281339Y126215D02*
D03*
X258502Y131865D02*
D03*
X259039Y131565D02*
D03*
X259489Y131184D02*
D03*
X259939Y130865D02*
D03*
X261139Y129965D02*
D03*
X262639D02*
D03*
X252139Y128348D02*
D03*
X252439Y130565D02*
D03*
X268689Y141515D02*
D03*
X269689Y140815D02*
D03*
X271689Y139865D02*
D03*
X270689Y141365D02*
D03*
X235910Y126215D02*
D03*
M02*
