G04*
G04 #@! TF.GenerationSoftware,Altium Limited,Altium Designer,20.2.6 (244)*
G04*
G04 Layer_Physical_Order=1*
G04 Layer_Color=255*
%FSAX24Y24*%
%MOIN*%
G70*
G04*
G04 #@! TF.SameCoordinates,F670C94F-DB3F-48BB-9EAE-642EF2030223*
G04*
G04*
G04 #@! TF.FilePolarity,Positive*
G04*
G01*
G75*
%ADD12C,0.0100*%
%ADD15C,0.0080*%
%ADD27C,0.0200*%
%ADD28R,0.0591X0.0591*%
%ADD29C,0.0591*%
%ADD30R,0.0531X0.0531*%
%ADD31C,0.0531*%
%ADD32R,0.0512X0.0512*%
%ADD33C,0.0512*%
%ADD34C,0.0500*%
%ADD35C,0.0520*%
%ADD36R,0.0520X0.0520*%
%ADD37R,0.0645X0.0645*%
%ADD38C,0.0645*%
%ADD39C,0.0300*%
G36*
X281537Y126017D02*
X235741Y126017D01*
X235741Y145813D01*
X281537Y145813D01*
X281537Y126017D01*
D02*
G37*
%LPC*%
G36*
X238989Y145190D02*
Y144877D01*
X239301D01*
X239295Y144923D01*
X239259Y145012D01*
X239200Y145088D01*
X239124Y145147D01*
X239035Y145184D01*
X238989Y145190D01*
D02*
G37*
G36*
X238889Y145190D02*
X238844Y145184D01*
X238755Y145147D01*
X238678Y145088D01*
X238620Y145012D01*
X238583Y144923D01*
X238577Y144877D01*
X238889D01*
Y145190D01*
D02*
G37*
G36*
Y144777D02*
X238577D01*
X238583Y144732D01*
X238620Y144643D01*
X238678Y144567D01*
X238755Y144508D01*
X238844Y144471D01*
X238889Y144465D01*
Y144777D01*
D02*
G37*
G36*
X239301D02*
X238989D01*
Y144465D01*
X239035Y144471D01*
X239124Y144508D01*
X239200Y144567D01*
X239259Y144643D01*
X239295Y144732D01*
X239301Y144777D01*
D02*
G37*
G36*
X260739Y143321D02*
Y143015D01*
X261046D01*
X261040Y143059D01*
X261004Y143146D01*
X260946Y143222D01*
X260871Y143279D01*
X260783Y143316D01*
X260739Y143321D01*
D02*
G37*
G36*
X260639D02*
X260595Y143316D01*
X260508Y143279D01*
X260432Y143222D01*
X260375Y143146D01*
X260338Y143059D01*
X260333Y143015D01*
X260639D01*
Y143321D01*
D02*
G37*
G36*
X267689Y143308D02*
X267600Y143296D01*
X267518Y143262D01*
X267447Y143207D01*
X267392Y143136D01*
X267358Y143054D01*
X267346Y142965D01*
X267358Y142876D01*
X267392Y142793D01*
X267447Y142722D01*
X267518Y142668D01*
X267600Y142634D01*
X267689Y142622D01*
X267778Y142634D01*
X267861Y142668D01*
X267932Y142722D01*
X267986Y142793D01*
X268020Y142876D01*
X268032Y142965D01*
X268020Y143054D01*
X267986Y143136D01*
X267932Y143207D01*
X267861Y143262D01*
X267778Y143296D01*
X267689Y143308D01*
D02*
G37*
G36*
X266689D02*
X266600Y143296D01*
X266518Y143262D01*
X266447Y143207D01*
X266392Y143136D01*
X266358Y143054D01*
X266346Y142965D01*
X266358Y142876D01*
X266392Y142793D01*
X266447Y142722D01*
X266518Y142668D01*
X266600Y142634D01*
X266689Y142622D01*
X266778Y142634D01*
X266861Y142668D01*
X266932Y142722D01*
X266986Y142793D01*
X267020Y142876D01*
X267032Y142965D01*
X267020Y143054D01*
X266986Y143136D01*
X266932Y143207D01*
X266861Y143262D01*
X266778Y143296D01*
X266689Y143308D01*
D02*
G37*
G36*
X263689D02*
X263600Y143296D01*
X263518Y143262D01*
X263447Y143207D01*
X263392Y143136D01*
X263358Y143054D01*
X263346Y142965D01*
X263358Y142876D01*
X263392Y142793D01*
X263447Y142722D01*
X263518Y142668D01*
X263600Y142634D01*
X263689Y142622D01*
X263778Y142634D01*
X263861Y142668D01*
X263932Y142722D01*
X263986Y142793D01*
X264020Y142876D01*
X264032Y142965D01*
X264020Y143054D01*
X263986Y143136D01*
X263932Y143207D01*
X263861Y143262D01*
X263778Y143296D01*
X263689Y143308D01*
D02*
G37*
G36*
X262689D02*
X262600Y143296D01*
X262518Y143262D01*
X262447Y143207D01*
X262392Y143136D01*
X262358Y143054D01*
X262346Y142965D01*
X262358Y142876D01*
X262392Y142793D01*
X262447Y142722D01*
X262518Y142668D01*
X262600Y142634D01*
X262689Y142622D01*
X262778Y142634D01*
X262861Y142668D01*
X262932Y142722D01*
X262986Y142793D01*
X263020Y142876D01*
X263032Y142965D01*
X263020Y143054D01*
X262986Y143136D01*
X262932Y143207D01*
X262861Y143262D01*
X262778Y143296D01*
X262689Y143308D01*
D02*
G37*
G36*
X261689D02*
X261600Y143296D01*
X261518Y143262D01*
X261447Y143207D01*
X261392Y143136D01*
X261358Y143054D01*
X261346Y142965D01*
X261358Y142876D01*
X261392Y142793D01*
X261447Y142722D01*
X261518Y142668D01*
X261600Y142634D01*
X261689Y142622D01*
X261778Y142634D01*
X261861Y142668D01*
X261932Y142722D01*
X261986Y142793D01*
X262020Y142876D01*
X262032Y142965D01*
X262020Y143054D01*
X261986Y143136D01*
X261932Y143207D01*
X261861Y143262D01*
X261778Y143296D01*
X261689Y143308D01*
D02*
G37*
G36*
X260639Y142915D02*
X260333D01*
X260338Y142871D01*
X260375Y142783D01*
X260432Y142708D01*
X260508Y142650D01*
X260595Y142614D01*
X260639Y142608D01*
Y142915D01*
D02*
G37*
G36*
X261046D02*
X260739D01*
Y142608D01*
X260783Y142614D01*
X260871Y142650D01*
X260946Y142708D01*
X261004Y142783D01*
X261040Y142871D01*
X261046Y142915D01*
D02*
G37*
G36*
X256160Y142632D02*
X255854D01*
Y142326D01*
X256160D01*
Y142632D01*
D02*
G37*
G36*
X255754D02*
X255448D01*
Y142326D01*
X255754D01*
Y142632D01*
D02*
G37*
G36*
X256160Y142226D02*
X255854D01*
Y141920D01*
X256160D01*
Y142226D01*
D02*
G37*
G36*
X255754D02*
X255448D01*
Y141920D01*
X255754D01*
Y142226D01*
D02*
G37*
G36*
X268689Y143308D02*
X268600Y143296D01*
X268518Y143262D01*
X268447Y143207D01*
X268392Y143136D01*
X268358Y143054D01*
X268346Y142965D01*
X268358Y142876D01*
X268392Y142793D01*
X268447Y142722D01*
X268518Y142668D01*
X268567Y142648D01*
Y141710D01*
X268523Y141681D01*
X268472Y141605D01*
X268455Y141515D01*
X268472Y141425D01*
X268523Y141349D01*
X268599Y141298D01*
X268689Y141280D01*
X268779Y141298D01*
X268855Y141349D01*
X268906Y141425D01*
X268924Y141515D01*
X268906Y141605D01*
X268855Y141681D01*
X268811Y141710D01*
Y142648D01*
X268861Y142668D01*
X268932Y142722D01*
X268986Y142793D01*
X269020Y142876D01*
X269032Y142965D01*
X269020Y143054D01*
X268986Y143136D01*
X268932Y143207D01*
X268861Y143262D01*
X268778Y143296D01*
X268689Y143308D01*
D02*
G37*
G36*
X270689D02*
X270600Y143296D01*
X270518Y143262D01*
X270447Y143207D01*
X270392Y143136D01*
X270358Y143054D01*
X270346Y142965D01*
X270358Y142876D01*
X270392Y142793D01*
X270447Y142722D01*
X270518Y142668D01*
X270567Y142648D01*
Y141560D01*
X270523Y141531D01*
X270472Y141455D01*
X270455Y141365D01*
X270472Y141275D01*
X270523Y141199D01*
X270599Y141148D01*
X270689Y141130D01*
X270779Y141148D01*
X270855Y141199D01*
X270906Y141275D01*
X270924Y141365D01*
X270906Y141455D01*
X270855Y141531D01*
X270811Y141560D01*
Y142648D01*
X270861Y142668D01*
X270932Y142722D01*
X270986Y142793D01*
X271020Y142876D01*
X271032Y142965D01*
X271020Y143054D01*
X270986Y143136D01*
X270932Y143207D01*
X270861Y143262D01*
X270778Y143296D01*
X270689Y143308D01*
D02*
G37*
G36*
X269689D02*
X269600Y143296D01*
X269518Y143262D01*
X269447Y143207D01*
X269392Y143136D01*
X269358Y143054D01*
X269346Y142965D01*
X269358Y142876D01*
X269392Y142793D01*
X269447Y142722D01*
X269518Y142668D01*
X269567Y142648D01*
Y141010D01*
X269523Y140981D01*
X269472Y140905D01*
X269455Y140815D01*
X269472Y140725D01*
X269523Y140649D01*
X269599Y140598D01*
X269689Y140580D01*
X269779Y140598D01*
X269855Y140649D01*
X269906Y140725D01*
X269924Y140815D01*
X269906Y140905D01*
X269855Y140981D01*
X269811Y141010D01*
Y142648D01*
X269861Y142668D01*
X269932Y142722D01*
X269986Y142793D01*
X270020Y142876D01*
X270032Y142965D01*
X270020Y143054D01*
X269986Y143136D01*
X269932Y143207D01*
X269861Y143262D01*
X269778Y143296D01*
X269689Y143308D01*
D02*
G37*
G36*
X275036Y140832D02*
X274730D01*
Y140526D01*
X275036D01*
Y140832D01*
D02*
G37*
G36*
X274630D02*
X274324D01*
Y140526D01*
X274630D01*
Y140832D01*
D02*
G37*
G36*
X275036Y140426D02*
X274730D01*
Y140120D01*
X275036D01*
Y140426D01*
D02*
G37*
G36*
X274630D02*
X274324D01*
Y140120D01*
X274630D01*
Y140426D01*
D02*
G37*
G36*
X272029Y143305D02*
X271349D01*
Y142625D01*
X271567D01*
Y140060D01*
X271523Y140031D01*
X271472Y139955D01*
X271455Y139865D01*
X271472Y139775D01*
X271523Y139699D01*
X271599Y139648D01*
X271689Y139630D01*
X271779Y139648D01*
X271855Y139699D01*
X271906Y139775D01*
X271924Y139865D01*
X271906Y139955D01*
X271855Y140031D01*
X271811Y140060D01*
Y142625D01*
X272029D01*
Y143305D01*
D02*
G37*
G36*
X252939Y145176D02*
X252849Y145164D01*
X252765Y145129D01*
X252692Y145074D01*
X252637Y145002D01*
X252602Y144918D01*
X252590Y144827D01*
X252602Y144737D01*
X252637Y144653D01*
X252692Y144581D01*
X252765Y144525D01*
X252817Y144504D01*
Y139616D01*
X252353Y139151D01*
X252326Y139112D01*
X252317Y139065D01*
Y138825D01*
X252267Y138815D01*
X252241Y138877D01*
X252186Y138949D01*
X252113Y139004D01*
X252029Y139039D01*
X251939Y139051D01*
X251849Y139039D01*
X251765Y139004D01*
X251692Y138949D01*
X251637Y138877D01*
X251611Y138815D01*
X251561Y138825D01*
Y139014D01*
X252026Y139478D01*
X252052Y139518D01*
X252061Y139565D01*
Y144504D01*
X252113Y144525D01*
X252186Y144581D01*
X252241Y144653D01*
X252276Y144737D01*
X252288Y144827D01*
X252276Y144918D01*
X252241Y145002D01*
X252186Y145074D01*
X252113Y145129D01*
X252029Y145164D01*
X251939Y145176D01*
X251849Y145164D01*
X251765Y145129D01*
X251692Y145074D01*
X251637Y145002D01*
X251602Y144918D01*
X251590Y144827D01*
X251602Y144737D01*
X251637Y144653D01*
X251692Y144581D01*
X251765Y144525D01*
X251817Y144504D01*
Y139616D01*
X251353Y139151D01*
X251326Y139112D01*
X251317Y139065D01*
Y138825D01*
X251267Y138815D01*
X251241Y138877D01*
X251186Y138949D01*
X251113Y139004D01*
X251029Y139039D01*
X250939Y139051D01*
X250849Y139039D01*
X250765Y139004D01*
X250692Y138949D01*
X250637Y138877D01*
X250611Y138815D01*
X250561Y138825D01*
Y139014D01*
X251026Y139478D01*
X251052Y139518D01*
X251061Y139565D01*
Y144504D01*
X251113Y144525D01*
X251186Y144581D01*
X251241Y144653D01*
X251276Y144737D01*
X251288Y144827D01*
X251276Y144918D01*
X251241Y145002D01*
X251186Y145074D01*
X251113Y145129D01*
X251029Y145164D01*
X250939Y145176D01*
X250849Y145164D01*
X250765Y145129D01*
X250692Y145074D01*
X250637Y145002D01*
X250602Y144918D01*
X250590Y144827D01*
X250602Y144737D01*
X250637Y144653D01*
X250692Y144581D01*
X250765Y144525D01*
X250817Y144504D01*
Y139616D01*
X250353Y139151D01*
X250326Y139112D01*
X250317Y139065D01*
Y138825D01*
X250267Y138815D01*
X250241Y138877D01*
X250186Y138949D01*
X250113Y139004D01*
X250029Y139039D01*
X249939Y139051D01*
X249849Y139039D01*
X249765Y139004D01*
X249692Y138949D01*
X249637Y138877D01*
X249611Y138815D01*
X249561Y138825D01*
Y139014D01*
X250026Y139478D01*
X250052Y139518D01*
X250061Y139565D01*
Y144504D01*
X250113Y144525D01*
X250186Y144581D01*
X250241Y144653D01*
X250276Y144737D01*
X250288Y144827D01*
X250276Y144918D01*
X250241Y145002D01*
X250186Y145074D01*
X250113Y145129D01*
X250029Y145164D01*
X249939Y145176D01*
X249849Y145164D01*
X249765Y145129D01*
X249692Y145074D01*
X249637Y145002D01*
X249602Y144918D01*
X249590Y144827D01*
X249602Y144737D01*
X249637Y144653D01*
X249692Y144581D01*
X249765Y144525D01*
X249817Y144504D01*
Y139616D01*
X249353Y139151D01*
X249326Y139112D01*
X249317Y139065D01*
Y138825D01*
X249267Y138815D01*
X249241Y138877D01*
X249186Y138949D01*
X249113Y139004D01*
X249029Y139039D01*
X248939Y139051D01*
X248849Y139039D01*
X248765Y139004D01*
X248692Y138949D01*
X248637Y138877D01*
X248611Y138815D01*
X248561Y138825D01*
Y139014D01*
X249026Y139478D01*
X249052Y139518D01*
X249061Y139565D01*
Y144504D01*
X249113Y144525D01*
X249186Y144581D01*
X249241Y144653D01*
X249276Y144737D01*
X249288Y144827D01*
X249276Y144918D01*
X249241Y145002D01*
X249186Y145074D01*
X249113Y145129D01*
X249029Y145164D01*
X248939Y145176D01*
X248849Y145164D01*
X248765Y145129D01*
X248692Y145074D01*
X248637Y145002D01*
X248602Y144918D01*
X248590Y144827D01*
X248602Y144737D01*
X248637Y144653D01*
X248692Y144581D01*
X248765Y144525D01*
X248817Y144504D01*
Y139616D01*
X248353Y139151D01*
X248326Y139112D01*
X248317Y139065D01*
Y138825D01*
X248267Y138815D01*
X248241Y138877D01*
X248186Y138949D01*
X248113Y139004D01*
X248029Y139039D01*
X247939Y139051D01*
X247849Y139039D01*
X247765Y139004D01*
X247692Y138949D01*
X247637Y138877D01*
X247611Y138815D01*
X247561Y138825D01*
Y139014D01*
X248026Y139478D01*
X248052Y139518D01*
X248061Y139565D01*
Y144504D01*
X248113Y144525D01*
X248186Y144581D01*
X248241Y144653D01*
X248276Y144737D01*
X248288Y144827D01*
X248276Y144918D01*
X248241Y145002D01*
X248186Y145074D01*
X248113Y145129D01*
X248029Y145164D01*
X247939Y145176D01*
X247849Y145164D01*
X247765Y145129D01*
X247692Y145074D01*
X247637Y145002D01*
X247602Y144918D01*
X247590Y144827D01*
X247602Y144737D01*
X247637Y144653D01*
X247692Y144581D01*
X247765Y144525D01*
X247817Y144504D01*
Y139616D01*
X247353Y139151D01*
X247326Y139112D01*
X247317Y139065D01*
Y138825D01*
X247267Y138815D01*
X247241Y138877D01*
X247186Y138949D01*
X247113Y139004D01*
X247029Y139039D01*
X246939Y139051D01*
X246849Y139039D01*
X246765Y139004D01*
X246692Y138949D01*
X246637Y138877D01*
X246611Y138815D01*
X246561Y138825D01*
Y139014D01*
X247026Y139478D01*
X247052Y139518D01*
X247061Y139565D01*
Y144504D01*
X247113Y144525D01*
X247186Y144581D01*
X247241Y144653D01*
X247276Y144737D01*
X247288Y144827D01*
X247276Y144918D01*
X247241Y145002D01*
X247186Y145074D01*
X247113Y145129D01*
X247029Y145164D01*
X246939Y145176D01*
X246849Y145164D01*
X246765Y145129D01*
X246692Y145074D01*
X246637Y145002D01*
X246602Y144918D01*
X246590Y144827D01*
X246602Y144737D01*
X246637Y144653D01*
X246692Y144581D01*
X246765Y144525D01*
X246817Y144504D01*
Y139616D01*
X246353Y139151D01*
X246326Y139112D01*
X246317Y139065D01*
Y138825D01*
X246267Y138815D01*
X246241Y138877D01*
X246186Y138949D01*
X246113Y139004D01*
X246029Y139039D01*
X245939Y139051D01*
X245849Y139039D01*
X245765Y139004D01*
X245692Y138949D01*
X245637Y138877D01*
X245611Y138815D01*
X245561Y138825D01*
Y139014D01*
X246026Y139478D01*
X246052Y139518D01*
X246061Y139565D01*
Y144504D01*
X246113Y144525D01*
X246186Y144581D01*
X246241Y144653D01*
X246276Y144737D01*
X246288Y144827D01*
X246276Y144918D01*
X246241Y145002D01*
X246186Y145074D01*
X246113Y145129D01*
X246029Y145164D01*
X245939Y145176D01*
X245849Y145164D01*
X245765Y145129D01*
X245692Y145074D01*
X245637Y145002D01*
X245602Y144918D01*
X245590Y144827D01*
X245602Y144737D01*
X245637Y144653D01*
X245692Y144581D01*
X245765Y144525D01*
X245817Y144504D01*
Y139616D01*
X245353Y139151D01*
X245326Y139112D01*
X245317Y139065D01*
Y138825D01*
X245267Y138815D01*
X245241Y138877D01*
X245186Y138949D01*
X245113Y139004D01*
X245029Y139039D01*
X244939Y139051D01*
X244849Y139039D01*
X244765Y139004D01*
X244692Y138949D01*
X244637Y138877D01*
X244611Y138815D01*
X244561Y138825D01*
Y139014D01*
X245026Y139478D01*
X245052Y139518D01*
X245061Y139565D01*
Y144504D01*
X245113Y144525D01*
X245186Y144581D01*
X245241Y144653D01*
X245276Y144737D01*
X245288Y144827D01*
X245276Y144918D01*
X245241Y145002D01*
X245186Y145074D01*
X245113Y145129D01*
X245029Y145164D01*
X244939Y145176D01*
X244849Y145164D01*
X244765Y145129D01*
X244692Y145074D01*
X244637Y145002D01*
X244602Y144918D01*
X244590Y144827D01*
X244602Y144737D01*
X244637Y144653D01*
X244692Y144581D01*
X244765Y144525D01*
X244817Y144504D01*
Y139616D01*
X244353Y139151D01*
X244326Y139112D01*
X244317Y139065D01*
Y138825D01*
X244267Y138815D01*
X244241Y138877D01*
X244186Y138949D01*
X244113Y139004D01*
X244029Y139039D01*
X243939Y139051D01*
X243849Y139039D01*
X243765Y139004D01*
X243692Y138949D01*
X243637Y138877D01*
X243611Y138815D01*
X243561Y138825D01*
Y139014D01*
X244026Y139478D01*
X244052Y139518D01*
X244061Y139565D01*
Y144504D01*
X244113Y144525D01*
X244186Y144581D01*
X244241Y144653D01*
X244276Y144737D01*
X244288Y144827D01*
X244276Y144918D01*
X244241Y145002D01*
X244186Y145074D01*
X244113Y145129D01*
X244029Y145164D01*
X243939Y145176D01*
X243849Y145164D01*
X243765Y145129D01*
X243692Y145074D01*
X243637Y145002D01*
X243602Y144918D01*
X243590Y144827D01*
X243602Y144737D01*
X243637Y144653D01*
X243692Y144581D01*
X243765Y144525D01*
X243817Y144504D01*
Y139616D01*
X243353Y139151D01*
X243326Y139112D01*
X243317Y139065D01*
Y138825D01*
X243267Y138815D01*
X243241Y138877D01*
X243186Y138949D01*
X243113Y139004D01*
X243029Y139039D01*
X242939Y139051D01*
X242849Y139039D01*
X242765Y139004D01*
X242711Y138964D01*
X242661Y138988D01*
Y139114D01*
X243026Y139478D01*
X243052Y139518D01*
X243061Y139565D01*
Y144504D01*
X243113Y144525D01*
X243186Y144581D01*
X243241Y144653D01*
X243276Y144737D01*
X243288Y144827D01*
X243276Y144918D01*
X243241Y145002D01*
X243186Y145074D01*
X243113Y145129D01*
X243029Y145164D01*
X242939Y145176D01*
X242849Y145164D01*
X242765Y145129D01*
X242692Y145074D01*
X242637Y145002D01*
X242602Y144918D01*
X242590Y144827D01*
X242602Y144737D01*
X242637Y144653D01*
X242692Y144581D01*
X242765Y144525D01*
X242817Y144504D01*
Y139616D01*
X242508Y139307D01*
X242461Y139326D01*
Y144427D01*
X242452Y144474D01*
X242426Y144514D01*
X242254Y144685D01*
X242276Y144737D01*
X242288Y144827D01*
X242276Y144918D01*
X242241Y145002D01*
X242186Y145074D01*
X242113Y145129D01*
X242029Y145164D01*
X241939Y145176D01*
X241849Y145164D01*
X241765Y145129D01*
X241692Y145074D01*
X241637Y145002D01*
X241602Y144918D01*
X241590Y144827D01*
X241602Y144737D01*
X241637Y144653D01*
X241692Y144581D01*
X241765Y144525D01*
X241849Y144491D01*
X241939Y144479D01*
X242029Y144491D01*
X242081Y144512D01*
X242217Y144377D01*
Y138988D01*
X242167Y138964D01*
X242113Y139004D01*
X242029Y139039D01*
X241939Y139051D01*
X241849Y139039D01*
X241765Y139004D01*
X241692Y138949D01*
X241637Y138877D01*
X241611Y138815D01*
X241561Y138825D01*
Y144327D01*
X241552Y144374D01*
X241526Y144414D01*
X241254Y144685D01*
X241276Y144737D01*
X241288Y144827D01*
X241276Y144918D01*
X241241Y145002D01*
X241186Y145074D01*
X241113Y145129D01*
X241029Y145164D01*
X240939Y145176D01*
X240849Y145164D01*
X240765Y145129D01*
X240692Y145074D01*
X240637Y145002D01*
X240602Y144918D01*
X240590Y144827D01*
X240602Y144737D01*
X240637Y144653D01*
X240692Y144581D01*
X240765Y144525D01*
X240849Y144491D01*
X240939Y144479D01*
X241029Y144491D01*
X241081Y144512D01*
X241317Y144277D01*
Y138825D01*
X241267Y138815D01*
X241241Y138877D01*
X241186Y138949D01*
X241113Y139004D01*
X241029Y139039D01*
X240939Y139051D01*
X240849Y139039D01*
X240765Y139004D01*
X240692Y138949D01*
X240637Y138877D01*
X240611Y138815D01*
X240561Y138825D01*
Y144327D01*
X240552Y144374D01*
X240526Y144414D01*
X240254Y144685D01*
X240276Y144737D01*
X240288Y144827D01*
X240276Y144918D01*
X240241Y145002D01*
X240186Y145074D01*
X240113Y145129D01*
X240029Y145164D01*
X239939Y145176D01*
X239849Y145164D01*
X239765Y145129D01*
X239692Y145074D01*
X239637Y145002D01*
X239602Y144918D01*
X239590Y144827D01*
X239602Y144737D01*
X239637Y144653D01*
X239692Y144581D01*
X239765Y144525D01*
X239849Y144491D01*
X239939Y144479D01*
X240029Y144491D01*
X240081Y144512D01*
X240317Y144277D01*
Y138825D01*
X240267Y138815D01*
X240241Y138877D01*
X240186Y138949D01*
X240113Y139004D01*
X240029Y139039D01*
X239939Y139051D01*
X239849Y139039D01*
X239797Y139018D01*
X239341Y139474D01*
X239301Y139500D01*
X239254Y139510D01*
X238623D01*
X238576Y139500D01*
X238537Y139474D01*
X238230Y139167D01*
X238204Y139128D01*
X238194Y139081D01*
Y130337D01*
X238204Y130290D01*
X238230Y130251D01*
X238517Y129964D01*
Y129250D01*
X238436Y129217D01*
X238352Y129152D01*
X238287Y129068D01*
X238247Y128970D01*
X238233Y128865D01*
X238247Y128760D01*
X238287Y128662D01*
X238352Y128578D01*
X238436Y128513D01*
X238534Y128473D01*
X238639Y128459D01*
X238744Y128473D01*
X238842Y128513D01*
X238926Y128578D01*
X238991Y128662D01*
X239031Y128760D01*
X239045Y128865D01*
X239031Y128970D01*
X238991Y129068D01*
X238926Y129152D01*
X238842Y129217D01*
X238761Y129250D01*
Y130015D01*
X238752Y130062D01*
X238726Y130101D01*
X238439Y130388D01*
Y139030D01*
X238674Y139265D01*
X239204D01*
X239624Y138845D01*
X239602Y138793D01*
X239590Y138702D01*
X239602Y138612D01*
X239637Y138528D01*
X239692Y138456D01*
X239765Y138400D01*
X239849Y138366D01*
X239939Y138354D01*
X240029Y138366D01*
X240113Y138400D01*
X240186Y138456D01*
X240241Y138528D01*
X240267Y138590D01*
X240317Y138580D01*
Y137200D01*
X240267Y137190D01*
X240241Y137252D01*
X240186Y137324D01*
X240113Y137379D01*
X240029Y137414D01*
X239939Y137426D01*
X239849Y137414D01*
X239765Y137379D01*
X239692Y137324D01*
X239637Y137252D01*
X239611Y137190D01*
X239561Y137200D01*
Y138202D01*
X239552Y138249D01*
X239526Y138289D01*
X239254Y138560D01*
X239276Y138612D01*
X239288Y138702D01*
X239276Y138793D01*
X239241Y138877D01*
X239186Y138949D01*
X239113Y139004D01*
X239029Y139039D01*
X238939Y139051D01*
X238849Y139039D01*
X238765Y139004D01*
X238692Y138949D01*
X238637Y138877D01*
X238602Y138793D01*
X238590Y138702D01*
X238602Y138612D01*
X238637Y138528D01*
X238692Y138456D01*
X238765Y138400D01*
X238849Y138366D01*
X238939Y138354D01*
X239029Y138366D01*
X239081Y138387D01*
X239317Y138152D01*
Y137252D01*
X239267Y137242D01*
X239259Y137262D01*
X239200Y137338D01*
X239124Y137397D01*
X239035Y137434D01*
X238989Y137440D01*
Y137077D01*
Y136715D01*
X239035Y136721D01*
X239124Y136758D01*
X239200Y136817D01*
X239259Y136893D01*
X239267Y136913D01*
X239317Y136903D01*
Y131075D01*
X239267Y131065D01*
X239241Y131127D01*
X239186Y131199D01*
X239113Y131254D01*
X239029Y131289D01*
X238939Y131301D01*
X238849Y131289D01*
X238765Y131254D01*
X238692Y131199D01*
X238637Y131127D01*
X238602Y131043D01*
X238590Y130952D01*
X238602Y130862D01*
X238637Y130778D01*
X238692Y130706D01*
X238765Y130650D01*
X238849Y130616D01*
X238939Y130604D01*
X239029Y130616D01*
X239113Y130650D01*
X239186Y130706D01*
X239241Y130778D01*
X239267Y130840D01*
X239317Y130830D01*
Y130215D01*
X239326Y130168D01*
X239353Y130128D01*
X239517Y129964D01*
Y129250D01*
X239436Y129217D01*
X239352Y129152D01*
X239287Y129068D01*
X239247Y128970D01*
X239233Y128865D01*
X239247Y128760D01*
X239287Y128662D01*
X239352Y128578D01*
X239436Y128513D01*
X239534Y128473D01*
X239639Y128459D01*
X239744Y128473D01*
X239842Y128513D01*
X239926Y128578D01*
X239991Y128662D01*
X240031Y128760D01*
X240045Y128865D01*
X240031Y128970D01*
X239991Y129068D01*
X239926Y129152D01*
X239842Y129217D01*
X239761Y129250D01*
Y130015D01*
X239752Y130062D01*
X239726Y130101D01*
X239561Y130266D01*
Y130830D01*
X239611Y130840D01*
X239637Y130778D01*
X239692Y130706D01*
X239765Y130650D01*
X239849Y130616D01*
X239939Y130604D01*
X240029Y130616D01*
X240113Y130650D01*
X240186Y130706D01*
X240241Y130778D01*
X240267Y130840D01*
X240317Y130830D01*
Y130215D01*
X240326Y130168D01*
X240353Y130128D01*
X240517Y129964D01*
Y129250D01*
X240436Y129217D01*
X240352Y129152D01*
X240287Y129068D01*
X240247Y128970D01*
X240233Y128865D01*
X240247Y128760D01*
X240287Y128662D01*
X240352Y128578D01*
X240436Y128513D01*
X240534Y128473D01*
X240639Y128459D01*
X240744Y128473D01*
X240842Y128513D01*
X240926Y128578D01*
X240991Y128662D01*
X241031Y128760D01*
X241045Y128865D01*
X241031Y128970D01*
X240991Y129068D01*
X240926Y129152D01*
X240842Y129217D01*
X240761Y129250D01*
Y130015D01*
X240752Y130062D01*
X240726Y130101D01*
X240726Y130101D01*
X240561Y130266D01*
Y130830D01*
X240611Y130840D01*
X240637Y130778D01*
X240692Y130706D01*
X240765Y130650D01*
X240849Y130616D01*
X240939Y130604D01*
X241029Y130616D01*
X241113Y130650D01*
X241186Y130706D01*
X241241Y130778D01*
X241267Y130840D01*
X241317Y130830D01*
Y130215D01*
X241326Y130168D01*
X241353Y130128D01*
X241517Y129964D01*
Y129250D01*
X241436Y129217D01*
X241352Y129152D01*
X241287Y129068D01*
X241247Y128970D01*
X241233Y128865D01*
X241247Y128760D01*
X241287Y128662D01*
X241352Y128578D01*
X241436Y128513D01*
X241534Y128473D01*
X241639Y128459D01*
X241744Y128473D01*
X241842Y128513D01*
X241926Y128578D01*
X241991Y128662D01*
X242031Y128760D01*
X242045Y128865D01*
X242031Y128970D01*
X241991Y129068D01*
X241926Y129152D01*
X241842Y129217D01*
X241761Y129250D01*
Y130015D01*
X241752Y130062D01*
X241726Y130101D01*
X241726Y130101D01*
X241561Y130266D01*
Y130830D01*
X241611Y130840D01*
X241637Y130778D01*
X241692Y130706D01*
X241765Y130650D01*
X241849Y130616D01*
X241939Y130604D01*
X242029Y130616D01*
X242113Y130650D01*
X242186Y130706D01*
X242241Y130778D01*
X242267Y130840D01*
X242317Y130830D01*
Y130215D01*
X242326Y130168D01*
X242353Y130128D01*
X242517Y129964D01*
Y129250D01*
X242436Y129217D01*
X242352Y129152D01*
X242287Y129068D01*
X242247Y128970D01*
X242233Y128865D01*
X242247Y128760D01*
X242287Y128662D01*
X242352Y128578D01*
X242436Y128513D01*
X242534Y128473D01*
X242639Y128459D01*
X242744Y128473D01*
X242842Y128513D01*
X242926Y128578D01*
X242991Y128662D01*
X243031Y128760D01*
X243045Y128865D01*
X243031Y128970D01*
X242991Y129068D01*
X242926Y129152D01*
X242842Y129217D01*
X242761Y129250D01*
Y130015D01*
X242752Y130062D01*
X242726Y130101D01*
X242561Y130266D01*
Y130830D01*
X242611Y130840D01*
X242637Y130778D01*
X242692Y130706D01*
X242765Y130650D01*
X242849Y130616D01*
X242939Y130604D01*
X243029Y130616D01*
X243113Y130650D01*
X243186Y130706D01*
X243241Y130778D01*
X243276Y130862D01*
X243288Y130952D01*
X243276Y131043D01*
X243241Y131127D01*
X243186Y131199D01*
X243113Y131254D01*
X243029Y131289D01*
X242939Y131301D01*
X242849Y131289D01*
X242765Y131254D01*
X242692Y131199D01*
X242637Y131127D01*
X242611Y131065D01*
X242561Y131075D01*
Y136955D01*
X242611Y136965D01*
X242637Y136903D01*
X242692Y136831D01*
X242765Y136775D01*
X242849Y136741D01*
X242939Y136729D01*
X243029Y136741D01*
X243113Y136775D01*
X243186Y136831D01*
X243241Y136903D01*
X243276Y136987D01*
X243288Y137077D01*
X243276Y137168D01*
X243241Y137252D01*
X243186Y137324D01*
X243113Y137379D01*
X243029Y137414D01*
X242939Y137426D01*
X242849Y137414D01*
X242797Y137393D01*
X242661Y137528D01*
Y138417D01*
X242711Y138441D01*
X242765Y138400D01*
X242849Y138366D01*
X242939Y138354D01*
X243029Y138366D01*
X243113Y138400D01*
X243186Y138456D01*
X243241Y138528D01*
X243267Y138590D01*
X243317Y138580D01*
Y137577D01*
X243326Y137531D01*
X243353Y137491D01*
X243624Y137220D01*
X243602Y137168D01*
X243590Y137077D01*
X243602Y136987D01*
X243637Y136903D01*
X243692Y136831D01*
X243765Y136775D01*
X243849Y136741D01*
X243939Y136729D01*
X244029Y136741D01*
X244113Y136775D01*
X244186Y136831D01*
X244241Y136903D01*
X244267Y136965D01*
X244317Y136955D01*
Y136766D01*
X243853Y136301D01*
X243826Y136262D01*
X243817Y136215D01*
Y131276D01*
X243765Y131254D01*
X243692Y131199D01*
X243637Y131127D01*
X243602Y131043D01*
X243590Y130952D01*
X243602Y130862D01*
X243637Y130778D01*
X243692Y130706D01*
X243765Y130650D01*
X243849Y130616D01*
X243939Y130604D01*
X244029Y130616D01*
X244081Y130637D01*
X244640Y130078D01*
X244680Y130052D01*
X244727Y130043D01*
X249778D01*
X249797Y129996D01*
X249053Y129251D01*
X249026Y129212D01*
X249017Y129165D01*
Y129116D01*
X248967Y129099D01*
X248926Y129152D01*
X248842Y129217D01*
X248744Y129257D01*
X248639Y129271D01*
X248534Y129257D01*
X248436Y129217D01*
X248352Y129152D01*
X248287Y129068D01*
X248247Y128970D01*
X248233Y128865D01*
X248247Y128760D01*
X248287Y128662D01*
X248352Y128578D01*
X248436Y128513D01*
X248534Y128473D01*
X248639Y128459D01*
X248744Y128473D01*
X248842Y128513D01*
X248926Y128578D01*
X248967Y128631D01*
X249017Y128614D01*
Y128562D01*
X248592Y128137D01*
X244699D01*
X244652Y128128D01*
X244613Y128101D01*
X243825Y127314D01*
X243744Y127347D01*
X243639Y127361D01*
X243534Y127347D01*
X243436Y127307D01*
X243352Y127242D01*
X243287Y127158D01*
X243247Y127060D01*
X243233Y126955D01*
X243247Y126850D01*
X243287Y126752D01*
X243352Y126668D01*
X243436Y126603D01*
X243534Y126563D01*
X243639Y126549D01*
X243744Y126563D01*
X243842Y126603D01*
X243926Y126668D01*
X243991Y126752D01*
X244031Y126850D01*
X244045Y126955D01*
X244031Y127060D01*
X243998Y127141D01*
X244750Y127893D01*
X247333D01*
X247354Y127843D01*
X246825Y127314D01*
X246744Y127347D01*
X246639Y127361D01*
X246534Y127347D01*
X246436Y127307D01*
X246352Y127242D01*
X246287Y127158D01*
X246247Y127060D01*
X246233Y126955D01*
X246247Y126850D01*
X246287Y126752D01*
X246352Y126668D01*
X246436Y126603D01*
X246534Y126563D01*
X246639Y126549D01*
X246744Y126563D01*
X246842Y126603D01*
X246926Y126668D01*
X246991Y126752D01*
X247031Y126850D01*
X247045Y126955D01*
X247031Y127060D01*
X246998Y127141D01*
X247540Y127683D01*
X249429D01*
X249476Y127692D01*
X249516Y127718D01*
X250226Y128428D01*
X250252Y128468D01*
X250261Y128515D01*
Y128614D01*
X250311Y128631D01*
X250352Y128578D01*
X250436Y128513D01*
X250534Y128473D01*
X250639Y128459D01*
X250744Y128473D01*
X250842Y128513D01*
X250926Y128578D01*
X250991Y128662D01*
X251031Y128760D01*
X251045Y128865D01*
X251031Y128970D01*
X250998Y129051D01*
X251390Y129443D01*
X251978D01*
X251997Y129396D01*
X251825Y129224D01*
X251744Y129257D01*
X251639Y129271D01*
X251534Y129257D01*
X251436Y129217D01*
X251352Y129152D01*
X251287Y129068D01*
X251247Y128970D01*
X251233Y128865D01*
X251247Y128760D01*
X251287Y128662D01*
X251352Y128578D01*
X251436Y128513D01*
X251534Y128473D01*
X251639Y128459D01*
X251744Y128473D01*
X251842Y128513D01*
X251926Y128578D01*
X251991Y128662D01*
X252031Y128760D01*
X252045Y128865D01*
X252031Y128970D01*
X251998Y129051D01*
X252190Y129243D01*
X252388D01*
X252405Y129193D01*
X252352Y129152D01*
X252287Y129068D01*
X252247Y128970D01*
X252233Y128865D01*
X252247Y128760D01*
X252287Y128662D01*
X252352Y128578D01*
X252436Y128513D01*
X252534Y128473D01*
X252639Y128459D01*
X252744Y128473D01*
X252842Y128513D01*
X252926Y128578D01*
X252991Y128662D01*
X253031Y128760D01*
X253045Y128865D01*
X253031Y128970D01*
X252991Y129068D01*
X252926Y129152D01*
X252873Y129193D01*
X252890Y129243D01*
X253388D01*
X253405Y129193D01*
X253352Y129152D01*
X253287Y129068D01*
X253247Y128970D01*
X253233Y128865D01*
X253247Y128760D01*
X253287Y128662D01*
X253352Y128578D01*
X253436Y128513D01*
X253534Y128473D01*
X253639Y128459D01*
X253744Y128473D01*
X253842Y128513D01*
X253926Y128578D01*
X253991Y128662D01*
X254031Y128760D01*
X254045Y128865D01*
X254031Y128970D01*
X253991Y129068D01*
X253926Y129152D01*
X253873Y129193D01*
X253890Y129243D01*
X254388D01*
X254405Y129193D01*
X254352Y129152D01*
X254287Y129068D01*
X254247Y128970D01*
X254233Y128865D01*
X254247Y128760D01*
X254287Y128662D01*
X254352Y128578D01*
X254436Y128513D01*
X254534Y128473D01*
X254639Y128459D01*
X254744Y128473D01*
X254842Y128513D01*
X254926Y128578D01*
X254991Y128662D01*
X255031Y128760D01*
X255045Y128865D01*
X255031Y128970D01*
X254991Y129068D01*
X254926Y129152D01*
X254873Y129193D01*
X254890Y129243D01*
X255238D01*
X255285Y129252D01*
X255325Y129278D01*
X256089Y130043D01*
X259239D01*
X259286Y130052D01*
X259326Y130078D01*
X259888Y130641D01*
X259939Y130630D01*
X260029Y130648D01*
X260105Y130699D01*
X260156Y130775D01*
X260174Y130865D01*
X260156Y130955D01*
X260105Y131031D01*
X260029Y131082D01*
X259939Y131099D01*
X259849Y131082D01*
X259773Y131031D01*
X259722Y130955D01*
X259705Y130865D01*
X259715Y130814D01*
X259188Y130287D01*
X258831D01*
X258812Y130333D01*
X259438Y130960D01*
X259489Y130949D01*
X259579Y130967D01*
X259655Y131018D01*
X259706Y131094D01*
X259724Y131184D01*
X259706Y131274D01*
X259655Y131350D01*
X259579Y131401D01*
X259489Y131418D01*
X259399Y131401D01*
X259323Y131350D01*
X259272Y131274D01*
X259255Y131184D01*
X259265Y131133D01*
X258619Y130487D01*
X258200D01*
X258181Y130534D01*
X258988Y131341D01*
X259039Y131330D01*
X259129Y131348D01*
X259205Y131399D01*
X259256Y131475D01*
X259274Y131565D01*
X259256Y131655D01*
X259205Y131731D01*
X259129Y131782D01*
X259039Y131799D01*
X258949Y131782D01*
X258873Y131731D01*
X258822Y131655D01*
X258805Y131565D01*
X258815Y131514D01*
X257988Y130687D01*
X257563D01*
X257543Y130733D01*
X258451Y131641D01*
X258502Y131630D01*
X258592Y131648D01*
X258668Y131699D01*
X258718Y131775D01*
X258736Y131865D01*
X258718Y131955D01*
X258668Y132031D01*
X258592Y132082D01*
X258502Y132099D01*
X258412Y132082D01*
X258336Y132031D01*
X258285Y131955D01*
X258267Y131865D01*
X258277Y131814D01*
X257351Y130887D01*
X255790D01*
X255743Y130878D01*
X255703Y130851D01*
X254939Y130087D01*
X254640D01*
X254621Y130133D01*
X256830Y132343D01*
X260270D01*
X261495Y131117D01*
X261468Y131050D01*
X261455Y130952D01*
X261468Y130855D01*
X261506Y130763D01*
X261566Y130685D01*
X261644Y130625D01*
X261735Y130587D01*
X261833Y130574D01*
X261931Y130587D01*
X262023Y130625D01*
X262101Y130685D01*
X262161Y130763D01*
X262199Y130855D01*
X262212Y130952D01*
X262199Y131050D01*
X262161Y131142D01*
X262101Y131220D01*
X262023Y131280D01*
X261931Y131318D01*
X261833Y131331D01*
X261735Y131318D01*
X261668Y131290D01*
X260462Y132496D01*
X260482Y132543D01*
X261070D01*
X262495Y131117D01*
X262468Y131050D01*
X262455Y130952D01*
X262468Y130855D01*
X262506Y130763D01*
X262566Y130685D01*
X262644Y130625D01*
X262735Y130587D01*
X262833Y130574D01*
X262931Y130587D01*
X263023Y130625D01*
X263101Y130685D01*
X263161Y130763D01*
X263199Y130855D01*
X263212Y130952D01*
X263199Y131050D01*
X263161Y131142D01*
X263101Y131220D01*
X263023Y131280D01*
X262931Y131318D01*
X262833Y131331D01*
X262735Y131318D01*
X262668Y131290D01*
X261262Y132696D01*
X261282Y132743D01*
X261870D01*
X263495Y131117D01*
X263468Y131050D01*
X263455Y130952D01*
X263468Y130855D01*
X263506Y130763D01*
X263566Y130685D01*
X263644Y130625D01*
X263735Y130587D01*
X263833Y130574D01*
X263931Y130587D01*
X264023Y130625D01*
X264101Y130685D01*
X264161Y130763D01*
X264167Y130777D01*
X264217Y130767D01*
Y130616D01*
X263053Y129451D01*
X263026Y129412D01*
X263017Y129365D01*
Y129116D01*
X262967Y129099D01*
X262926Y129152D01*
X262842Y129217D01*
X262744Y129257D01*
X262639Y129271D01*
X262534Y129257D01*
X262436Y129217D01*
X262352Y129152D01*
X262311Y129099D01*
X262261Y129116D01*
Y129414D01*
X262588Y129741D01*
X262639Y129730D01*
X262729Y129748D01*
X262805Y129799D01*
X262856Y129875D01*
X262874Y129965D01*
X262856Y130055D01*
X262805Y130131D01*
X262729Y130182D01*
X262639Y130199D01*
X262549Y130182D01*
X262473Y130131D01*
X262422Y130055D01*
X262405Y129965D01*
X262415Y129914D01*
X262053Y129551D01*
X262026Y129512D01*
X262017Y129465D01*
Y129149D01*
X261967Y129132D01*
X261940Y129166D01*
X261852Y129234D01*
X261749Y129277D01*
X261689Y129285D01*
Y128865D01*
Y128445D01*
X261749Y128453D01*
X261852Y128496D01*
X261940Y128564D01*
X261967Y128598D01*
X262017Y128581D01*
Y128498D01*
X261306Y127787D01*
X260600D01*
X260581Y127833D01*
X261226Y128478D01*
X261252Y128518D01*
X261261Y128565D01*
Y128581D01*
X261311Y128598D01*
X261338Y128564D01*
X261426Y128496D01*
X261529Y128453D01*
X261589Y128445D01*
Y128865D01*
Y129285D01*
X261529Y129277D01*
X261426Y129234D01*
X261338Y129166D01*
X261311Y129132D01*
X261261Y129149D01*
Y129770D01*
X261305Y129799D01*
X261356Y129875D01*
X261374Y129965D01*
X261356Y130055D01*
X261305Y130131D01*
X261229Y130182D01*
X261139Y130199D01*
X261049Y130182D01*
X260973Y130131D01*
X260922Y130055D01*
X260905Y129965D01*
X260922Y129875D01*
X260973Y129799D01*
X261017Y129770D01*
Y129116D01*
X260967Y129099D01*
X260926Y129152D01*
X260842Y129217D01*
X260744Y129257D01*
X260639Y129271D01*
X260534Y129257D01*
X260436Y129217D01*
X260352Y129152D01*
X260287Y129068D01*
X260247Y128970D01*
X260233Y128865D01*
X260247Y128760D01*
X260287Y128662D01*
X260352Y128578D01*
X260436Y128513D01*
X260534Y128473D01*
X260639Y128459D01*
X260744Y128473D01*
X260842Y128513D01*
X260849Y128519D01*
X260882Y128481D01*
X260388Y127987D01*
X252549D01*
X252502Y127978D01*
X252463Y127951D01*
X251825Y127314D01*
X251744Y127347D01*
X251639Y127361D01*
X251534Y127347D01*
X251436Y127307D01*
X251352Y127242D01*
X251311Y127189D01*
X251261Y127206D01*
Y127297D01*
X252088Y128123D01*
X252139Y128113D01*
X252229Y128131D01*
X252305Y128182D01*
X252356Y128258D01*
X252374Y128348D01*
X252356Y128438D01*
X252305Y128514D01*
X252229Y128564D01*
X252139Y128582D01*
X252049Y128564D01*
X251973Y128514D01*
X251922Y128438D01*
X251905Y128348D01*
X251915Y128297D01*
X251053Y127434D01*
X251026Y127395D01*
X251017Y127348D01*
Y127206D01*
X250967Y127189D01*
X250926Y127242D01*
X250842Y127307D01*
X250744Y127347D01*
X250639Y127361D01*
X250534Y127347D01*
X250436Y127307D01*
X250352Y127242D01*
X250287Y127158D01*
X250247Y127060D01*
X250233Y126955D01*
X250247Y126850D01*
X250287Y126752D01*
X250352Y126668D01*
X250436Y126603D01*
X250534Y126563D01*
X250639Y126549D01*
X250744Y126563D01*
X250842Y126603D01*
X250926Y126668D01*
X250967Y126721D01*
X250994Y126718D01*
X251018Y126706D01*
X251026Y126668D01*
X251053Y126628D01*
X251353Y126328D01*
X251392Y126302D01*
X251439Y126293D01*
X254099D01*
X254146Y126302D01*
X254186Y126328D01*
X254453Y126596D01*
X254534Y126563D01*
X254639Y126549D01*
X254744Y126563D01*
X254842Y126603D01*
X254926Y126668D01*
X254991Y126752D01*
X255031Y126850D01*
X255045Y126955D01*
X255031Y127060D01*
X254991Y127158D01*
X254926Y127242D01*
X254860Y127293D01*
X254877Y127343D01*
X255401D01*
X255418Y127293D01*
X255352Y127242D01*
X255287Y127158D01*
X255247Y127060D01*
X255233Y126955D01*
X255247Y126850D01*
X255287Y126752D01*
X255352Y126668D01*
X255436Y126603D01*
X255534Y126563D01*
X255639Y126549D01*
X255744Y126563D01*
X255842Y126603D01*
X255926Y126668D01*
X255991Y126752D01*
X256031Y126850D01*
X256045Y126955D01*
X256031Y127060D01*
X255991Y127158D01*
X255926Y127242D01*
X255860Y127293D01*
X255877Y127343D01*
X256401D01*
X256418Y127293D01*
X256352Y127242D01*
X256287Y127158D01*
X256247Y127060D01*
X256233Y126955D01*
X256247Y126850D01*
X256287Y126752D01*
X256352Y126668D01*
X256436Y126603D01*
X256534Y126563D01*
X256639Y126549D01*
X256744Y126563D01*
X256842Y126603D01*
X256926Y126668D01*
X256991Y126752D01*
X257031Y126850D01*
X257045Y126955D01*
X257031Y127060D01*
X256991Y127158D01*
X256926Y127242D01*
X256860Y127293D01*
X256877Y127343D01*
X257401D01*
X257418Y127293D01*
X257352Y127242D01*
X257287Y127158D01*
X257247Y127060D01*
X257233Y126955D01*
X257247Y126850D01*
X257287Y126752D01*
X257352Y126668D01*
X257436Y126603D01*
X257534Y126563D01*
X257639Y126549D01*
X257744Y126563D01*
X257842Y126603D01*
X257926Y126668D01*
X257991Y126752D01*
X258031Y126850D01*
X258045Y126955D01*
X258031Y127060D01*
X257991Y127158D01*
X257926Y127242D01*
X257860Y127293D01*
X257877Y127343D01*
X258401D01*
X258418Y127293D01*
X258352Y127242D01*
X258287Y127158D01*
X258247Y127060D01*
X258233Y126955D01*
X258247Y126850D01*
X258287Y126752D01*
X258352Y126668D01*
X258436Y126603D01*
X258534Y126563D01*
X258639Y126549D01*
X258744Y126563D01*
X258842Y126603D01*
X258926Y126668D01*
X258991Y126752D01*
X259031Y126850D01*
X259045Y126955D01*
X259031Y127060D01*
X258991Y127158D01*
X258926Y127242D01*
X258860Y127293D01*
X258877Y127343D01*
X259401D01*
X259418Y127293D01*
X259352Y127242D01*
X259287Y127158D01*
X259247Y127060D01*
X259233Y126955D01*
X259247Y126850D01*
X259287Y126752D01*
X259352Y126668D01*
X259436Y126603D01*
X259534Y126563D01*
X259639Y126549D01*
X259744Y126563D01*
X259842Y126603D01*
X259926Y126668D01*
X259991Y126752D01*
X260031Y126850D01*
X260045Y126955D01*
X260031Y127060D01*
X259991Y127158D01*
X259926Y127242D01*
X259860Y127293D01*
X259877Y127343D01*
X260401D01*
X260418Y127293D01*
X260352Y127242D01*
X260287Y127158D01*
X260247Y127060D01*
X260233Y126955D01*
X260247Y126850D01*
X260287Y126752D01*
X260352Y126668D01*
X260436Y126603D01*
X260534Y126563D01*
X260639Y126549D01*
X260744Y126563D01*
X260842Y126603D01*
X260926Y126668D01*
X260991Y126752D01*
X261031Y126850D01*
X261045Y126955D01*
X261031Y127060D01*
X260991Y127158D01*
X260926Y127242D01*
X260860Y127293D01*
X260877Y127343D01*
X261401D01*
X261418Y127293D01*
X261352Y127242D01*
X261287Y127158D01*
X261247Y127060D01*
X261233Y126955D01*
X261247Y126850D01*
X261287Y126752D01*
X261352Y126668D01*
X261436Y126603D01*
X261534Y126563D01*
X261639Y126549D01*
X261744Y126563D01*
X261842Y126603D01*
X261926Y126668D01*
X261991Y126752D01*
X262031Y126850D01*
X262045Y126955D01*
X262031Y127060D01*
X261991Y127158D01*
X261926Y127242D01*
X261860Y127293D01*
X261877Y127343D01*
X262039D01*
X262086Y127352D01*
X262126Y127378D01*
X263226Y128478D01*
X263252Y128518D01*
X263261Y128565D01*
Y128614D01*
X263311Y128631D01*
X263352Y128578D01*
X263436Y128513D01*
X263534Y128473D01*
X263639Y128459D01*
X263744Y128473D01*
X263842Y128513D01*
X263926Y128578D01*
X263967Y128631D01*
X264017Y128614D01*
Y128506D01*
X262825Y127314D01*
X262744Y127347D01*
X262639Y127361D01*
X262534Y127347D01*
X262436Y127307D01*
X262352Y127242D01*
X262287Y127158D01*
X262247Y127060D01*
X262233Y126955D01*
X262247Y126850D01*
X262287Y126752D01*
X262352Y126668D01*
X262436Y126603D01*
X262534Y126563D01*
X262639Y126549D01*
X262744Y126563D01*
X262842Y126603D01*
X262926Y126668D01*
X262991Y126752D01*
X263031Y126850D01*
X263045Y126955D01*
X263031Y127060D01*
X262998Y127141D01*
X264226Y128368D01*
X264252Y128408D01*
X264261Y128455D01*
Y128614D01*
X264311Y128631D01*
X264352Y128578D01*
X264436Y128513D01*
X264534Y128473D01*
X264639Y128459D01*
X264744Y128473D01*
X264842Y128513D01*
X264926Y128578D01*
X264967Y128631D01*
X265017Y128614D01*
Y128506D01*
X263825Y127314D01*
X263744Y127347D01*
X263639Y127361D01*
X263534Y127347D01*
X263436Y127307D01*
X263352Y127242D01*
X263287Y127158D01*
X263247Y127060D01*
X263233Y126955D01*
X263247Y126850D01*
X263287Y126752D01*
X263352Y126668D01*
X263436Y126603D01*
X263534Y126563D01*
X263639Y126549D01*
X263744Y126563D01*
X263842Y126603D01*
X263926Y126668D01*
X263991Y126752D01*
X264031Y126850D01*
X264045Y126955D01*
X264031Y127060D01*
X263998Y127141D01*
X265226Y128368D01*
X265252Y128408D01*
X265261Y128455D01*
Y128614D01*
X265311Y128631D01*
X265352Y128578D01*
X265436Y128513D01*
X265534Y128473D01*
X265639Y128459D01*
X265744Y128473D01*
X265842Y128513D01*
X265926Y128578D01*
X265991Y128662D01*
X266031Y128760D01*
X266045Y128865D01*
X266031Y128970D01*
X265998Y129051D01*
X266890Y129943D01*
X267474D01*
X267485Y129927D01*
X267494Y129893D01*
X266825Y129224D01*
X266744Y129257D01*
X266639Y129271D01*
X266534Y129257D01*
X266436Y129217D01*
X266352Y129152D01*
X266287Y129068D01*
X266247Y128970D01*
X266233Y128865D01*
X266247Y128760D01*
X266287Y128662D01*
X266352Y128578D01*
X266436Y128513D01*
X266534Y128473D01*
X266639Y128459D01*
X266744Y128473D01*
X266842Y128513D01*
X266926Y128578D01*
X266991Y128662D01*
X267031Y128760D01*
X267045Y128865D01*
X267031Y128970D01*
X266998Y129051D01*
X267640Y129693D01*
X268489D01*
X268536Y129702D01*
X268576Y129728D01*
X269426Y130578D01*
X269452Y130618D01*
X269461Y130665D01*
Y130742D01*
X269482Y130752D01*
X269511Y130756D01*
X269566Y130685D01*
X269644Y130625D01*
X269735Y130587D01*
X269833Y130574D01*
X269931Y130587D01*
X270023Y130625D01*
X270101Y130685D01*
X270161Y130763D01*
X270163Y130769D01*
X270628D01*
X270698Y130783D01*
X270758Y130823D01*
X271569Y131634D01*
X271639Y131625D01*
X271709Y131634D01*
X271858Y131485D01*
X271917Y131445D01*
X271987Y131431D01*
X277364D01*
X277404Y131380D01*
X277456Y131340D01*
Y129225D01*
X277436Y129217D01*
X277352Y129152D01*
X277287Y129068D01*
X277247Y128970D01*
X277233Y128865D01*
X277247Y128760D01*
X277287Y128662D01*
X277352Y128578D01*
X277436Y128513D01*
X277456Y128505D01*
Y127315D01*
X277436Y127307D01*
X277352Y127242D01*
X277287Y127158D01*
X277247Y127060D01*
X277233Y126955D01*
X277247Y126850D01*
X277287Y126752D01*
X277352Y126668D01*
X277436Y126603D01*
X277534Y126563D01*
X277639Y126549D01*
X277744Y126563D01*
X277842Y126603D01*
X277926Y126668D01*
X277991Y126752D01*
X278031Y126850D01*
X278045Y126955D01*
X278031Y127060D01*
X277991Y127158D01*
X277926Y127242D01*
X277842Y127307D01*
X277823Y127315D01*
Y128505D01*
X277842Y128513D01*
X277926Y128578D01*
X277991Y128662D01*
X278031Y128760D01*
X278045Y128865D01*
X278031Y128970D01*
X277991Y129068D01*
X277926Y129152D01*
X277842Y129217D01*
X277823Y129225D01*
Y131340D01*
X277874Y131380D01*
X277927Y131449D01*
X277961Y131529D01*
X277972Y131615D01*
X277961Y131701D01*
X277927Y131781D01*
X277874Y131850D01*
X277823Y131890D01*
Y136517D01*
X277809Y136587D01*
X277769Y136646D01*
X275009Y139406D01*
X275019Y139476D01*
X275007Y139564D01*
X274973Y139645D01*
X274919Y139715D01*
X274849Y139769D01*
X274767Y139803D01*
X274680Y139815D01*
X274592Y139803D01*
X274510Y139769D01*
X274440Y139715D01*
X274386Y139645D01*
X274353Y139564D01*
X274341Y139476D01*
X274350Y139406D01*
X272093Y137148D01*
X271977D01*
X271932Y137207D01*
X271861Y137262D01*
X271778Y137296D01*
X271689Y137308D01*
X271600Y137296D01*
X271518Y137262D01*
X271447Y137207D01*
X271392Y137136D01*
X271358Y137054D01*
X271311Y137066D01*
Y137465D01*
X271302Y137512D01*
X271276Y137551D01*
X266000Y142827D01*
X266020Y142876D01*
X266032Y142965D01*
X266020Y143054D01*
X265986Y143136D01*
X265932Y143207D01*
X265861Y143262D01*
X265778Y143296D01*
X265689Y143308D01*
X265600Y143296D01*
X265518Y143262D01*
X265447Y143207D01*
X265392Y143136D01*
X265358Y143054D01*
X265346Y142965D01*
X265358Y142876D01*
X265392Y142793D01*
X265447Y142722D01*
X265518Y142668D01*
X265600Y142634D01*
X265689Y142622D01*
X265778Y142634D01*
X265827Y142654D01*
X271067Y137414D01*
Y137066D01*
X271020Y137054D01*
X270986Y137136D01*
X270932Y137207D01*
X270861Y137262D01*
X270778Y137296D01*
X270689Y137308D01*
X270600Y137296D01*
X270518Y137262D01*
X270447Y137207D01*
X270392Y137136D01*
X270358Y137054D01*
X270311Y137066D01*
Y137465D01*
X270302Y137512D01*
X270276Y137551D01*
X265000Y142827D01*
X265020Y142876D01*
X265032Y142965D01*
X265020Y143054D01*
X264986Y143136D01*
X264932Y143207D01*
X264861Y143262D01*
X264778Y143296D01*
X264689Y143308D01*
X264600Y143296D01*
X264518Y143262D01*
X264447Y143207D01*
X264392Y143136D01*
X264358Y143054D01*
X264346Y142965D01*
X264358Y142876D01*
X264392Y142793D01*
X264447Y142722D01*
X264518Y142668D01*
X264600Y142634D01*
X264689Y142622D01*
X264778Y142634D01*
X264827Y142654D01*
X270067Y137414D01*
Y137066D01*
X270020Y137054D01*
X269986Y137136D01*
X269932Y137207D01*
X269861Y137262D01*
X269778Y137296D01*
X269689Y137308D01*
X269600Y137296D01*
X269518Y137262D01*
X269447Y137207D01*
X269392Y137136D01*
X269358Y137054D01*
X269346Y136965D01*
X269358Y136876D01*
X269392Y136793D01*
X269447Y136722D01*
X269518Y136668D01*
X269600Y136634D01*
X269689Y136622D01*
X269778Y136634D01*
X269827Y136654D01*
X270667Y135814D01*
Y135230D01*
X270651Y135219D01*
X270617Y135210D01*
X269000Y136827D01*
X269020Y136876D01*
X269032Y136965D01*
X269020Y137054D01*
X268986Y137136D01*
X268932Y137207D01*
X268861Y137262D01*
X268778Y137296D01*
X268689Y137308D01*
X268600Y137296D01*
X268518Y137262D01*
X268447Y137207D01*
X268392Y137136D01*
X268358Y137054D01*
X268346Y136965D01*
X268358Y136876D01*
X268392Y136793D01*
X268447Y136722D01*
X268518Y136668D01*
X268600Y136634D01*
X268689Y136622D01*
X268778Y136634D01*
X268827Y136654D01*
X270417Y135064D01*
Y134480D01*
X270401Y134469D01*
X270367Y134460D01*
X268000Y136827D01*
X268020Y136876D01*
X268032Y136965D01*
X268020Y137054D01*
X267986Y137136D01*
X267932Y137207D01*
X267861Y137262D01*
X267778Y137296D01*
X267689Y137308D01*
X267600Y137296D01*
X267518Y137262D01*
X267447Y137207D01*
X267392Y137136D01*
X267358Y137054D01*
X267346Y136965D01*
X267358Y136876D01*
X267392Y136793D01*
X267447Y136722D01*
X267518Y136668D01*
X267600Y136634D01*
X267689Y136622D01*
X267778Y136634D01*
X267827Y136654D01*
X270107Y134374D01*
X270088Y134328D01*
X269459D01*
X269452Y134362D01*
X269426Y134401D01*
X267000Y136827D01*
X267020Y136876D01*
X267032Y136965D01*
X267020Y137054D01*
X266986Y137136D01*
X266932Y137207D01*
X266861Y137262D01*
X266778Y137296D01*
X266689Y137308D01*
X266600Y137296D01*
X266518Y137262D01*
X266447Y137207D01*
X266392Y137136D01*
X266358Y137054D01*
X266346Y136965D01*
X266358Y136876D01*
X266392Y136793D01*
X266447Y136722D01*
X266518Y136668D01*
X266600Y136634D01*
X266689Y136622D01*
X266778Y136634D01*
X266827Y136654D01*
X269217Y134264D01*
Y134138D01*
X269167Y134128D01*
X269161Y134142D01*
X269101Y134220D01*
X269023Y134280D01*
X268931Y134318D01*
X268833Y134331D01*
X268735Y134318D01*
X268644Y134280D01*
X268566Y134220D01*
X268511Y134149D01*
X268482Y134153D01*
X268461Y134163D01*
Y134315D01*
X268452Y134362D01*
X268426Y134401D01*
X266000Y136827D01*
X266020Y136876D01*
X266032Y136965D01*
X266020Y137054D01*
X265986Y137136D01*
X265932Y137207D01*
X265861Y137262D01*
X265778Y137296D01*
X265689Y137308D01*
X265600Y137296D01*
X265518Y137262D01*
X265447Y137207D01*
X265392Y137136D01*
X265358Y137054D01*
X265346Y136965D01*
X265358Y136876D01*
X265392Y136793D01*
X265447Y136722D01*
X265518Y136668D01*
X265600Y136634D01*
X265689Y136622D01*
X265778Y136634D01*
X265827Y136654D01*
X268217Y134264D01*
Y134138D01*
X268167Y134128D01*
X268161Y134142D01*
X268101Y134220D01*
X268023Y134280D01*
X267931Y134318D01*
X267833Y134331D01*
X267735Y134318D01*
X267644Y134280D01*
X267566Y134220D01*
X267506Y134142D01*
X267468Y134050D01*
X267455Y133952D01*
X267468Y133855D01*
X267495Y133788D01*
X267145Y133437D01*
X266339D01*
X266292Y133428D01*
X266253Y133401D01*
X264253Y131401D01*
X264226Y131362D01*
X264217Y131315D01*
Y131138D01*
X264167Y131128D01*
X264161Y131142D01*
X264101Y131220D01*
X264023Y131280D01*
X263931Y131318D01*
X263833Y131331D01*
X263735Y131318D01*
X263668Y131290D01*
X262007Y132951D01*
X261968Y132978D01*
X261921Y132987D01*
X256589D01*
X256542Y132978D01*
X256503Y132951D01*
X254220Y130669D01*
X254218Y130670D01*
X254216Y130673D01*
X254201Y130725D01*
X254241Y130778D01*
X254276Y130862D01*
X254288Y130952D01*
X254276Y131043D01*
X254241Y131127D01*
X254186Y131199D01*
X254123Y131247D01*
Y131585D01*
X255734Y133196D01*
X255804Y133187D01*
X255892Y133199D01*
X255973Y133232D01*
X256044Y133286D01*
X256097Y133356D01*
X256131Y133438D01*
X256143Y133526D01*
X256131Y133614D01*
X256097Y133695D01*
X256044Y133765D01*
X255973Y133819D01*
X255892Y133853D01*
X255804Y133865D01*
X255734Y133855D01*
X255469Y134120D01*
X255490Y134170D01*
X255754D01*
Y134476D01*
X255448D01*
Y134212D01*
X255398Y134191D01*
X255173Y134417D01*
Y137652D01*
X255159Y137723D01*
X255119Y137782D01*
X254277Y138624D01*
X254288Y138702D01*
X254277Y138781D01*
X255934Y140438D01*
X255974Y140497D01*
X255988Y140567D01*
Y140993D01*
X256044Y141036D01*
X256097Y141106D01*
X256131Y141188D01*
X256143Y141276D01*
X256131Y141364D01*
X256097Y141445D01*
X256044Y141515D01*
X255973Y141569D01*
X255892Y141603D01*
X255804Y141615D01*
X255716Y141603D01*
X255635Y141569D01*
X255564Y141515D01*
X255511Y141445D01*
X255477Y141364D01*
X255465Y141276D01*
X255477Y141188D01*
X255511Y141106D01*
X255564Y141036D01*
X255620Y140993D01*
Y140643D01*
X254018Y139041D01*
X253939Y139051D01*
X253849Y139039D01*
X253765Y139004D01*
X253692Y138949D01*
X253637Y138877D01*
X253611Y138815D01*
X253561Y138825D01*
Y139014D01*
X254026Y139478D01*
X254052Y139518D01*
X254061Y139565D01*
Y144482D01*
X254285D01*
Y145173D01*
X253593D01*
Y144482D01*
X253817D01*
Y139616D01*
X253353Y139151D01*
X253326Y139112D01*
X253317Y139065D01*
Y138825D01*
X253267Y138815D01*
X253241Y138877D01*
X253186Y138949D01*
X253113Y139004D01*
X253029Y139039D01*
X252939Y139051D01*
X252849Y139039D01*
X252765Y139004D01*
X252692Y138949D01*
X252637Y138877D01*
X252611Y138815D01*
X252561Y138825D01*
Y139014D01*
X253026Y139478D01*
X253052Y139518D01*
X253061Y139565D01*
Y144504D01*
X253113Y144525D01*
X253186Y144581D01*
X253241Y144653D01*
X253276Y144737D01*
X253288Y144827D01*
X253276Y144918D01*
X253241Y145002D01*
X253186Y145074D01*
X253113Y145129D01*
X253029Y145164D01*
X252939Y145176D01*
D02*
G37*
G36*
X238889Y137440D02*
X238844Y137434D01*
X238755Y137397D01*
X238678Y137338D01*
X238620Y137262D01*
X238583Y137173D01*
X238577Y137127D01*
X238889D01*
Y137440D01*
D02*
G37*
G36*
Y137027D02*
X238577D01*
X238583Y136982D01*
X238620Y136893D01*
X238678Y136817D01*
X238755Y136758D01*
X238844Y136721D01*
X238889Y136715D01*
Y137027D01*
D02*
G37*
G36*
X264689Y137308D02*
X264600Y137296D01*
X264518Y137262D01*
X264447Y137207D01*
X264392Y137136D01*
X264358Y137054D01*
X264346Y136965D01*
X264358Y136876D01*
X264392Y136793D01*
X264447Y136722D01*
X264518Y136668D01*
X264600Y136634D01*
X264689Y136622D01*
X264778Y136634D01*
X264861Y136668D01*
X264932Y136722D01*
X264986Y136793D01*
X265020Y136876D01*
X265032Y136965D01*
X265020Y137054D01*
X264986Y137136D01*
X264932Y137207D01*
X264861Y137262D01*
X264778Y137296D01*
X264689Y137308D01*
D02*
G37*
G36*
X263689D02*
X263600Y137296D01*
X263518Y137262D01*
X263447Y137207D01*
X263392Y137136D01*
X263358Y137054D01*
X263346Y136965D01*
X263358Y136876D01*
X263392Y136793D01*
X263447Y136722D01*
X263518Y136668D01*
X263600Y136634D01*
X263689Y136622D01*
X263778Y136634D01*
X263861Y136668D01*
X263932Y136722D01*
X263986Y136793D01*
X264020Y136876D01*
X264032Y136965D01*
X264020Y137054D01*
X263986Y137136D01*
X263932Y137207D01*
X263861Y137262D01*
X263778Y137296D01*
X263689Y137308D01*
D02*
G37*
G36*
X262689D02*
X262600Y137296D01*
X262518Y137262D01*
X262447Y137207D01*
X262392Y137136D01*
X262358Y137054D01*
X262346Y136965D01*
X262358Y136876D01*
X262392Y136793D01*
X262447Y136722D01*
X262518Y136668D01*
X262600Y136634D01*
X262689Y136622D01*
X262778Y136634D01*
X262861Y136668D01*
X262932Y136722D01*
X262986Y136793D01*
X263020Y136876D01*
X263032Y136965D01*
X263020Y137054D01*
X262986Y137136D01*
X262932Y137207D01*
X262861Y137262D01*
X262778Y137296D01*
X262689Y137308D01*
D02*
G37*
G36*
X261689D02*
X261600Y137296D01*
X261518Y137262D01*
X261447Y137207D01*
X261392Y137136D01*
X261358Y137054D01*
X261346Y136965D01*
X261358Y136876D01*
X261392Y136793D01*
X261447Y136722D01*
X261518Y136668D01*
X261600Y136634D01*
X261689Y136622D01*
X261778Y136634D01*
X261861Y136668D01*
X261932Y136722D01*
X261986Y136793D01*
X262020Y136876D01*
X262032Y136965D01*
X262020Y137054D01*
X261986Y137136D01*
X261932Y137207D01*
X261861Y137262D01*
X261778Y137296D01*
X261689Y137308D01*
D02*
G37*
G36*
X260689D02*
X260600Y137296D01*
X260518Y137262D01*
X260447Y137207D01*
X260392Y137136D01*
X260358Y137054D01*
X260346Y136965D01*
X260358Y136876D01*
X260392Y136793D01*
X260447Y136722D01*
X260518Y136668D01*
X260600Y136634D01*
X260689Y136622D01*
X260778Y136634D01*
X260861Y136668D01*
X260932Y136722D01*
X260986Y136793D01*
X261020Y136876D01*
X261032Y136965D01*
X261020Y137054D01*
X260986Y137136D01*
X260932Y137207D01*
X260861Y137262D01*
X260778Y137296D01*
X260689Y137308D01*
D02*
G37*
G36*
X256160Y134882D02*
X255854D01*
Y134576D01*
X256160D01*
Y134882D01*
D02*
G37*
G36*
X255754D02*
X255448D01*
Y134576D01*
X255754D01*
Y134882D01*
D02*
G37*
G36*
X256160Y134476D02*
X255854D01*
Y134170D01*
X256160D01*
Y134476D01*
D02*
G37*
G36*
X260883Y134345D02*
Y134002D01*
X261225D01*
X261218Y134056D01*
X261179Y134152D01*
X261115Y134234D01*
X261033Y134298D01*
X260937Y134338D01*
X260883Y134345D01*
D02*
G37*
G36*
X260783Y134345D02*
X260730Y134338D01*
X260634Y134298D01*
X260551Y134234D01*
X260488Y134152D01*
X260448Y134056D01*
X260441Y134002D01*
X260783D01*
Y134345D01*
D02*
G37*
G36*
X266833Y134331D02*
X266735Y134318D01*
X266644Y134280D01*
X266566Y134220D01*
X266506Y134142D01*
X266468Y134050D01*
X266455Y133952D01*
X266468Y133855D01*
X266506Y133763D01*
X266566Y133685D01*
X266644Y133625D01*
X266735Y133587D01*
X266833Y133574D01*
X266931Y133587D01*
X267023Y133625D01*
X267101Y133685D01*
X267161Y133763D01*
X267199Y133855D01*
X267212Y133952D01*
X267199Y134050D01*
X267161Y134142D01*
X267101Y134220D01*
X267023Y134280D01*
X266931Y134318D01*
X266833Y134331D01*
D02*
G37*
G36*
X265833D02*
X265735Y134318D01*
X265644Y134280D01*
X265566Y134220D01*
X265506Y134142D01*
X265468Y134050D01*
X265455Y133952D01*
X265468Y133855D01*
X265506Y133763D01*
X265566Y133685D01*
X265644Y133625D01*
X265735Y133587D01*
X265833Y133574D01*
X265931Y133587D01*
X266023Y133625D01*
X266101Y133685D01*
X266161Y133763D01*
X266199Y133855D01*
X266212Y133952D01*
X266199Y134050D01*
X266161Y134142D01*
X266101Y134220D01*
X266023Y134280D01*
X265931Y134318D01*
X265833Y134331D01*
D02*
G37*
G36*
X264833D02*
X264735Y134318D01*
X264644Y134280D01*
X264566Y134220D01*
X264506Y134142D01*
X264468Y134050D01*
X264455Y133952D01*
X264468Y133855D01*
X264506Y133763D01*
X264566Y133685D01*
X264644Y133625D01*
X264735Y133587D01*
X264833Y133574D01*
X264931Y133587D01*
X265023Y133625D01*
X265101Y133685D01*
X265161Y133763D01*
X265199Y133855D01*
X265212Y133952D01*
X265199Y134050D01*
X265161Y134142D01*
X265101Y134220D01*
X265023Y134280D01*
X264931Y134318D01*
X264833Y134331D01*
D02*
G37*
G36*
X263833D02*
X263735Y134318D01*
X263644Y134280D01*
X263566Y134220D01*
X263506Y134142D01*
X263468Y134050D01*
X263455Y133952D01*
X263468Y133855D01*
X263506Y133763D01*
X263566Y133685D01*
X263644Y133625D01*
X263735Y133587D01*
X263833Y133574D01*
X263931Y133587D01*
X264023Y133625D01*
X264101Y133685D01*
X264161Y133763D01*
X264199Y133855D01*
X264212Y133952D01*
X264199Y134050D01*
X264161Y134142D01*
X264101Y134220D01*
X264023Y134280D01*
X263931Y134318D01*
X263833Y134331D01*
D02*
G37*
G36*
X262833D02*
X262735Y134318D01*
X262644Y134280D01*
X262566Y134220D01*
X262506Y134142D01*
X262468Y134050D01*
X262455Y133952D01*
X262468Y133855D01*
X262506Y133763D01*
X262566Y133685D01*
X262644Y133625D01*
X262735Y133587D01*
X262833Y133574D01*
X262931Y133587D01*
X263023Y133625D01*
X263101Y133685D01*
X263161Y133763D01*
X263199Y133855D01*
X263212Y133952D01*
X263199Y134050D01*
X263161Y134142D01*
X263101Y134220D01*
X263023Y134280D01*
X262931Y134318D01*
X262833Y134331D01*
D02*
G37*
G36*
X261833D02*
X261735Y134318D01*
X261644Y134280D01*
X261566Y134220D01*
X261506Y134142D01*
X261468Y134050D01*
X261455Y133952D01*
X261468Y133855D01*
X261506Y133763D01*
X261566Y133685D01*
X261644Y133625D01*
X261735Y133587D01*
X261833Y133574D01*
X261931Y133587D01*
X262023Y133625D01*
X262101Y133685D01*
X262161Y133763D01*
X262199Y133855D01*
X262212Y133952D01*
X262199Y134050D01*
X262161Y134142D01*
X262101Y134220D01*
X262023Y134280D01*
X261931Y134318D01*
X261833Y134331D01*
D02*
G37*
G36*
X260783Y133902D02*
X260441D01*
X260448Y133849D01*
X260488Y133753D01*
X260551Y133671D01*
X260634Y133607D01*
X260730Y133567D01*
X260783Y133560D01*
Y133902D01*
D02*
G37*
G36*
X261225D02*
X260883D01*
Y133560D01*
X260937Y133567D01*
X261033Y133607D01*
X261115Y133671D01*
X261179Y133753D01*
X261218Y133849D01*
X261225Y133902D01*
D02*
G37*
G36*
X278689Y131961D02*
Y131665D01*
X278985D01*
X278980Y131706D01*
X278945Y131791D01*
X278889Y131865D01*
X278816Y131921D01*
X278730Y131956D01*
X278689Y131961D01*
D02*
G37*
G36*
X278589D02*
X278548Y131956D01*
X278463Y131921D01*
X278389Y131865D01*
X278333Y131791D01*
X278298Y131706D01*
X278293Y131665D01*
X278589D01*
Y131961D01*
D02*
G37*
G36*
X278985Y131565D02*
X278689D01*
Y131269D01*
X278730Y131274D01*
X278816Y131309D01*
X278889Y131365D01*
X278945Y131438D01*
X278980Y131524D01*
X278985Y131565D01*
D02*
G37*
G36*
X278589D02*
X278293D01*
X278298Y131524D01*
X278333Y131438D01*
X278389Y131365D01*
X278463Y131309D01*
X278548Y131274D01*
X278589Y131269D01*
Y131565D01*
D02*
G37*
G36*
X260833Y131452D02*
X260704Y131435D01*
X260584Y131385D01*
X260480Y131306D01*
X260401Y131202D01*
X260351Y131082D01*
X260334Y130952D01*
X260351Y130823D01*
X260401Y130703D01*
X260480Y130599D01*
X260584Y130520D01*
X260704Y130470D01*
X260833Y130453D01*
X260963Y130470D01*
X261083Y130520D01*
X261187Y130599D01*
X261266Y130703D01*
X261316Y130823D01*
X261333Y130952D01*
X261316Y131082D01*
X261266Y131202D01*
X261187Y131306D01*
X261083Y131385D01*
X260963Y131435D01*
X260833Y131452D01*
D02*
G37*
G36*
X255689Y129285D02*
Y128915D01*
X256059D01*
X256051Y128975D01*
X256008Y129078D01*
X255940Y129166D01*
X255852Y129234D01*
X255749Y129277D01*
X255689Y129285D01*
D02*
G37*
G36*
X243689D02*
Y128915D01*
X244059D01*
X244051Y128975D01*
X244008Y129078D01*
X243940Y129166D01*
X243852Y129234D01*
X243749Y129277D01*
X243689Y129285D01*
D02*
G37*
G36*
X237689D02*
Y128915D01*
X238059D01*
X238051Y128975D01*
X238008Y129078D01*
X237940Y129166D01*
X237852Y129234D01*
X237749Y129277D01*
X237689Y129285D01*
D02*
G37*
G36*
X267689D02*
Y128915D01*
X268059D01*
X268051Y128975D01*
X268008Y129078D01*
X267940Y129166D01*
X267852Y129234D01*
X267749Y129277D01*
X267689Y129285D01*
D02*
G37*
G36*
X280062Y129287D02*
X279689D01*
Y128915D01*
X280062D01*
Y129287D01*
D02*
G37*
G36*
X278689Y129285D02*
Y128915D01*
X279059D01*
X279051Y128975D01*
X279008Y129078D01*
X278940Y129166D01*
X278852Y129234D01*
X278749Y129277D01*
X278689Y129285D01*
D02*
G37*
G36*
X273689D02*
Y128915D01*
X274059D01*
X274051Y128975D01*
X274008Y129078D01*
X273940Y129166D01*
X273852Y129234D01*
X273749Y129277D01*
X273689Y129285D01*
D02*
G37*
G36*
X278589Y129285D02*
X278529Y129277D01*
X278426Y129234D01*
X278338Y129166D01*
X278270Y129078D01*
X278227Y128975D01*
X278219Y128915D01*
X278589D01*
Y129285D01*
D02*
G37*
G36*
X273589D02*
X273529Y129277D01*
X273426Y129234D01*
X273338Y129166D01*
X273270Y129078D01*
X273227Y128975D01*
X273219Y128915D01*
X273589D01*
Y129285D01*
D02*
G37*
G36*
X267589Y129285D02*
X267529Y129277D01*
X267426Y129234D01*
X267338Y129166D01*
X267270Y129078D01*
X267227Y128975D01*
X267219Y128915D01*
X267589D01*
Y129285D01*
D02*
G37*
G36*
X255589D02*
X255529Y129277D01*
X255426Y129234D01*
X255338Y129166D01*
X255270Y129078D01*
X255227Y128975D01*
X255219Y128915D01*
X255589D01*
Y129285D01*
D02*
G37*
G36*
X243589D02*
X243529Y129277D01*
X243426Y129234D01*
X243338Y129166D01*
X243270Y129078D01*
X243227Y128975D01*
X243219Y128915D01*
X243589D01*
Y129285D01*
D02*
G37*
G36*
X237589D02*
X237529Y129277D01*
X237426Y129234D01*
X237338Y129166D01*
X237270Y129078D01*
X237227Y128975D01*
X237219Y128915D01*
X237589D01*
Y129285D01*
D02*
G37*
G36*
X279589Y129287D02*
X279217D01*
Y128915D01*
X279589D01*
Y129287D01*
D02*
G37*
G36*
X276639Y129271D02*
X276534Y129257D01*
X276436Y129217D01*
X276352Y129152D01*
X276287Y129068D01*
X276247Y128970D01*
X276233Y128865D01*
X276247Y128760D01*
X276287Y128662D01*
X276352Y128578D01*
X276436Y128513D01*
X276534Y128473D01*
X276639Y128459D01*
X276744Y128473D01*
X276842Y128513D01*
X276926Y128578D01*
X276991Y128662D01*
X277031Y128760D01*
X277045Y128865D01*
X277031Y128970D01*
X276991Y129068D01*
X276926Y129152D01*
X276842Y129217D01*
X276744Y129257D01*
X276639Y129271D01*
D02*
G37*
G36*
X275639D02*
X275534Y129257D01*
X275436Y129217D01*
X275352Y129152D01*
X275287Y129068D01*
X275247Y128970D01*
X275233Y128865D01*
X275247Y128760D01*
X275287Y128662D01*
X275352Y128578D01*
X275436Y128513D01*
X275534Y128473D01*
X275639Y128459D01*
X275744Y128473D01*
X275842Y128513D01*
X275926Y128578D01*
X275991Y128662D01*
X276031Y128760D01*
X276045Y128865D01*
X276031Y128970D01*
X275991Y129068D01*
X275926Y129152D01*
X275842Y129217D01*
X275744Y129257D01*
X275639Y129271D01*
D02*
G37*
G36*
X274639D02*
X274534Y129257D01*
X274436Y129217D01*
X274352Y129152D01*
X274287Y129068D01*
X274247Y128970D01*
X274233Y128865D01*
X274247Y128760D01*
X274287Y128662D01*
X274352Y128578D01*
X274436Y128513D01*
X274534Y128473D01*
X274639Y128459D01*
X274744Y128473D01*
X274842Y128513D01*
X274926Y128578D01*
X274991Y128662D01*
X275031Y128760D01*
X275045Y128865D01*
X275031Y128970D01*
X274991Y129068D01*
X274926Y129152D01*
X274842Y129217D01*
X274744Y129257D01*
X274639Y129271D01*
D02*
G37*
G36*
X272639D02*
X272534Y129257D01*
X272436Y129217D01*
X272352Y129152D01*
X272287Y129068D01*
X272247Y128970D01*
X272233Y128865D01*
X272247Y128760D01*
X272287Y128662D01*
X272352Y128578D01*
X272436Y128513D01*
X272534Y128473D01*
X272639Y128459D01*
X272744Y128473D01*
X272842Y128513D01*
X272926Y128578D01*
X272991Y128662D01*
X273031Y128760D01*
X273045Y128865D01*
X273031Y128970D01*
X272991Y129068D01*
X272926Y129152D01*
X272842Y129217D01*
X272744Y129257D01*
X272639Y129271D01*
D02*
G37*
G36*
X271639D02*
X271534Y129257D01*
X271436Y129217D01*
X271352Y129152D01*
X271287Y129068D01*
X271247Y128970D01*
X271233Y128865D01*
X271247Y128760D01*
X271287Y128662D01*
X271352Y128578D01*
X271436Y128513D01*
X271534Y128473D01*
X271639Y128459D01*
X271744Y128473D01*
X271842Y128513D01*
X271926Y128578D01*
X271991Y128662D01*
X272031Y128760D01*
X272045Y128865D01*
X272031Y128970D01*
X271991Y129068D01*
X271926Y129152D01*
X271842Y129217D01*
X271744Y129257D01*
X271639Y129271D01*
D02*
G37*
G36*
X270639D02*
X270534Y129257D01*
X270436Y129217D01*
X270352Y129152D01*
X270287Y129068D01*
X270247Y128970D01*
X270233Y128865D01*
X270247Y128760D01*
X270287Y128662D01*
X270352Y128578D01*
X270436Y128513D01*
X270534Y128473D01*
X270639Y128459D01*
X270744Y128473D01*
X270842Y128513D01*
X270926Y128578D01*
X270991Y128662D01*
X271031Y128760D01*
X271045Y128865D01*
X271031Y128970D01*
X270991Y129068D01*
X270926Y129152D01*
X270842Y129217D01*
X270744Y129257D01*
X270639Y129271D01*
D02*
G37*
G36*
X269639D02*
X269534Y129257D01*
X269436Y129217D01*
X269352Y129152D01*
X269287Y129068D01*
X269247Y128970D01*
X269233Y128865D01*
X269247Y128760D01*
X269287Y128662D01*
X269352Y128578D01*
X269436Y128513D01*
X269534Y128473D01*
X269639Y128459D01*
X269744Y128473D01*
X269842Y128513D01*
X269926Y128578D01*
X269991Y128662D01*
X270031Y128760D01*
X270045Y128865D01*
X270031Y128970D01*
X269991Y129068D01*
X269926Y129152D01*
X269842Y129217D01*
X269744Y129257D01*
X269639Y129271D01*
D02*
G37*
G36*
X268639D02*
X268534Y129257D01*
X268436Y129217D01*
X268352Y129152D01*
X268287Y129068D01*
X268247Y128970D01*
X268233Y128865D01*
X268247Y128760D01*
X268287Y128662D01*
X268352Y128578D01*
X268436Y128513D01*
X268534Y128473D01*
X268639Y128459D01*
X268744Y128473D01*
X268842Y128513D01*
X268926Y128578D01*
X268991Y128662D01*
X269031Y128760D01*
X269045Y128865D01*
X269031Y128970D01*
X268991Y129068D01*
X268926Y129152D01*
X268842Y129217D01*
X268744Y129257D01*
X268639Y129271D01*
D02*
G37*
G36*
X259639D02*
X259534Y129257D01*
X259436Y129217D01*
X259352Y129152D01*
X259287Y129068D01*
X259247Y128970D01*
X259233Y128865D01*
X259247Y128760D01*
X259287Y128662D01*
X259352Y128578D01*
X259436Y128513D01*
X259534Y128473D01*
X259639Y128459D01*
X259744Y128473D01*
X259842Y128513D01*
X259926Y128578D01*
X259991Y128662D01*
X260031Y128760D01*
X260045Y128865D01*
X260031Y128970D01*
X259991Y129068D01*
X259926Y129152D01*
X259842Y129217D01*
X259744Y129257D01*
X259639Y129271D01*
D02*
G37*
G36*
X258639D02*
X258534Y129257D01*
X258436Y129217D01*
X258352Y129152D01*
X258287Y129068D01*
X258247Y128970D01*
X258233Y128865D01*
X258247Y128760D01*
X258287Y128662D01*
X258352Y128578D01*
X258436Y128513D01*
X258534Y128473D01*
X258639Y128459D01*
X258744Y128473D01*
X258842Y128513D01*
X258926Y128578D01*
X258991Y128662D01*
X259031Y128760D01*
X259045Y128865D01*
X259031Y128970D01*
X258991Y129068D01*
X258926Y129152D01*
X258842Y129217D01*
X258744Y129257D01*
X258639Y129271D01*
D02*
G37*
G36*
X257639D02*
X257534Y129257D01*
X257436Y129217D01*
X257352Y129152D01*
X257287Y129068D01*
X257247Y128970D01*
X257233Y128865D01*
X257247Y128760D01*
X257287Y128662D01*
X257352Y128578D01*
X257436Y128513D01*
X257534Y128473D01*
X257639Y128459D01*
X257744Y128473D01*
X257842Y128513D01*
X257926Y128578D01*
X257991Y128662D01*
X258031Y128760D01*
X258045Y128865D01*
X258031Y128970D01*
X257991Y129068D01*
X257926Y129152D01*
X257842Y129217D01*
X257744Y129257D01*
X257639Y129271D01*
D02*
G37*
G36*
X256639D02*
X256534Y129257D01*
X256436Y129217D01*
X256352Y129152D01*
X256287Y129068D01*
X256247Y128970D01*
X256233Y128865D01*
X256247Y128760D01*
X256287Y128662D01*
X256352Y128578D01*
X256436Y128513D01*
X256534Y128473D01*
X256639Y128459D01*
X256744Y128473D01*
X256842Y128513D01*
X256926Y128578D01*
X256991Y128662D01*
X257031Y128760D01*
X257045Y128865D01*
X257031Y128970D01*
X256991Y129068D01*
X256926Y129152D01*
X256842Y129217D01*
X256744Y129257D01*
X256639Y129271D01*
D02*
G37*
G36*
X247639D02*
X247534Y129257D01*
X247436Y129217D01*
X247352Y129152D01*
X247287Y129068D01*
X247247Y128970D01*
X247233Y128865D01*
X247247Y128760D01*
X247287Y128662D01*
X247352Y128578D01*
X247436Y128513D01*
X247534Y128473D01*
X247639Y128459D01*
X247744Y128473D01*
X247842Y128513D01*
X247926Y128578D01*
X247991Y128662D01*
X248031Y128760D01*
X248045Y128865D01*
X248031Y128970D01*
X247991Y129068D01*
X247926Y129152D01*
X247842Y129217D01*
X247744Y129257D01*
X247639Y129271D01*
D02*
G37*
G36*
X246639D02*
X246534Y129257D01*
X246436Y129217D01*
X246352Y129152D01*
X246287Y129068D01*
X246247Y128970D01*
X246233Y128865D01*
X246247Y128760D01*
X246287Y128662D01*
X246352Y128578D01*
X246436Y128513D01*
X246534Y128473D01*
X246639Y128459D01*
X246744Y128473D01*
X246842Y128513D01*
X246926Y128578D01*
X246991Y128662D01*
X247031Y128760D01*
X247045Y128865D01*
X247031Y128970D01*
X246991Y129068D01*
X246926Y129152D01*
X246842Y129217D01*
X246744Y129257D01*
X246639Y129271D01*
D02*
G37*
G36*
X245639D02*
X245534Y129257D01*
X245436Y129217D01*
X245352Y129152D01*
X245287Y129068D01*
X245247Y128970D01*
X245233Y128865D01*
X245247Y128760D01*
X245287Y128662D01*
X245352Y128578D01*
X245436Y128513D01*
X245534Y128473D01*
X245639Y128459D01*
X245744Y128473D01*
X245842Y128513D01*
X245926Y128578D01*
X245991Y128662D01*
X246031Y128760D01*
X246045Y128865D01*
X246031Y128970D01*
X245991Y129068D01*
X245926Y129152D01*
X245842Y129217D01*
X245744Y129257D01*
X245639Y129271D01*
D02*
G37*
G36*
X244639D02*
X244534Y129257D01*
X244436Y129217D01*
X244352Y129152D01*
X244287Y129068D01*
X244247Y128970D01*
X244233Y128865D01*
X244247Y128760D01*
X244287Y128662D01*
X244352Y128578D01*
X244436Y128513D01*
X244534Y128473D01*
X244639Y128459D01*
X244744Y128473D01*
X244842Y128513D01*
X244926Y128578D01*
X244991Y128662D01*
X245031Y128760D01*
X245045Y128865D01*
X245031Y128970D01*
X244991Y129068D01*
X244926Y129152D01*
X244842Y129217D01*
X244744Y129257D01*
X244639Y129271D01*
D02*
G37*
G36*
X278589Y128815D02*
X278219D01*
X278227Y128755D01*
X278270Y128652D01*
X278338Y128564D01*
X278426Y128496D01*
X278529Y128453D01*
X278589Y128445D01*
Y128815D01*
D02*
G37*
G36*
X273589D02*
X273219D01*
X273227Y128755D01*
X273270Y128652D01*
X273338Y128564D01*
X273426Y128496D01*
X273529Y128453D01*
X273589Y128445D01*
Y128815D01*
D02*
G37*
G36*
X256059D02*
X255689D01*
Y128445D01*
X255749Y128453D01*
X255852Y128496D01*
X255940Y128564D01*
X256008Y128652D01*
X256051Y128755D01*
X256059Y128815D01*
D02*
G37*
G36*
X244059D02*
X243689D01*
Y128445D01*
X243749Y128453D01*
X243852Y128496D01*
X243940Y128564D01*
X244008Y128652D01*
X244051Y128755D01*
X244059Y128815D01*
D02*
G37*
G36*
X238059D02*
X237689D01*
Y128445D01*
X237749Y128453D01*
X237852Y128496D01*
X237940Y128564D01*
X238008Y128652D01*
X238051Y128755D01*
X238059Y128815D01*
D02*
G37*
G36*
X268059D02*
X267689D01*
Y128445D01*
X267749Y128453D01*
X267852Y128496D01*
X267940Y128564D01*
X268008Y128652D01*
X268051Y128755D01*
X268059Y128815D01*
D02*
G37*
G36*
X267589D02*
X267219D01*
X267227Y128755D01*
X267270Y128652D01*
X267338Y128564D01*
X267426Y128496D01*
X267529Y128453D01*
X267589Y128445D01*
Y128815D01*
D02*
G37*
G36*
X255589D02*
X255219D01*
X255227Y128755D01*
X255270Y128652D01*
X255338Y128564D01*
X255426Y128496D01*
X255529Y128453D01*
X255589Y128445D01*
Y128815D01*
D02*
G37*
G36*
X243589D02*
X243219D01*
X243227Y128755D01*
X243270Y128652D01*
X243338Y128564D01*
X243426Y128496D01*
X243529Y128453D01*
X243589Y128445D01*
Y128815D01*
D02*
G37*
G36*
X237589D02*
X237219D01*
X237227Y128755D01*
X237270Y128652D01*
X237338Y128564D01*
X237426Y128496D01*
X237529Y128453D01*
X237589Y128445D01*
Y128815D01*
D02*
G37*
G36*
X279059D02*
X278689D01*
Y128445D01*
X278749Y128453D01*
X278852Y128496D01*
X278940Y128564D01*
X279008Y128652D01*
X279051Y128755D01*
X279059Y128815D01*
D02*
G37*
G36*
X274059D02*
X273689D01*
Y128445D01*
X273749Y128453D01*
X273852Y128496D01*
X273940Y128564D01*
X274008Y128652D01*
X274051Y128755D01*
X274059Y128815D01*
D02*
G37*
G36*
X280062D02*
X279689D01*
Y128442D01*
X280062D01*
Y128815D01*
D02*
G37*
G36*
X279589D02*
X279217D01*
Y128442D01*
X279589D01*
Y128815D01*
D02*
G37*
G36*
X279689Y127375D02*
Y127005D01*
X280059D01*
X280051Y127065D01*
X280008Y127168D01*
X279940Y127256D01*
X279852Y127324D01*
X279749Y127367D01*
X279689Y127375D01*
D02*
G37*
G36*
X274689D02*
Y127005D01*
X275059D01*
X275051Y127065D01*
X275008Y127168D01*
X274940Y127256D01*
X274852Y127324D01*
X274749Y127367D01*
X274689Y127375D01*
D02*
G37*
G36*
X278689D02*
Y127005D01*
X279059D01*
X279051Y127065D01*
X279008Y127168D01*
X278940Y127256D01*
X278852Y127324D01*
X278749Y127367D01*
X278689Y127375D01*
D02*
G37*
G36*
X279589Y127375D02*
X279529Y127367D01*
X279426Y127324D01*
X279338Y127256D01*
X279270Y127168D01*
X279227Y127065D01*
X279219Y127005D01*
X279589D01*
Y127375D01*
D02*
G37*
G36*
X278589D02*
X278529Y127367D01*
X278426Y127324D01*
X278338Y127256D01*
X278270Y127168D01*
X278227Y127065D01*
X278219Y127005D01*
X278589D01*
Y127375D01*
D02*
G37*
G36*
X274589D02*
X274529Y127367D01*
X274426Y127324D01*
X274338Y127256D01*
X274270Y127168D01*
X274227Y127065D01*
X274219Y127005D01*
X274589D01*
Y127375D01*
D02*
G37*
G36*
X272639Y127361D02*
X272534Y127347D01*
X272436Y127307D01*
X272352Y127242D01*
X272287Y127158D01*
X272247Y127060D01*
X272233Y126955D01*
X272247Y126850D01*
X272287Y126752D01*
X272352Y126668D01*
X272436Y126603D01*
X272534Y126563D01*
X272639Y126549D01*
X272744Y126563D01*
X272842Y126603D01*
X272926Y126668D01*
X272991Y126752D01*
X273031Y126850D01*
X273045Y126955D01*
X273031Y127060D01*
X272991Y127158D01*
X272926Y127242D01*
X272842Y127307D01*
X272744Y127347D01*
X272639Y127361D01*
D02*
G37*
G36*
X240639D02*
X240534Y127347D01*
X240436Y127307D01*
X240352Y127242D01*
X240287Y127158D01*
X240247Y127060D01*
X240233Y126955D01*
X240247Y126850D01*
X240287Y126752D01*
X240352Y126668D01*
X240436Y126603D01*
X240534Y126563D01*
X240639Y126549D01*
X240744Y126563D01*
X240842Y126603D01*
X240926Y126668D01*
X240991Y126752D01*
X241031Y126850D01*
X241045Y126955D01*
X241031Y127060D01*
X240991Y127158D01*
X240926Y127242D01*
X240842Y127307D01*
X240744Y127347D01*
X240639Y127361D01*
D02*
G37*
G36*
X276639Y127361D02*
X276534Y127347D01*
X276436Y127307D01*
X276352Y127242D01*
X276287Y127158D01*
X276247Y127060D01*
X276233Y126955D01*
X276247Y126850D01*
X276287Y126752D01*
X276352Y126668D01*
X276436Y126603D01*
X276534Y126563D01*
X276639Y126549D01*
X276744Y126563D01*
X276842Y126603D01*
X276926Y126668D01*
X276991Y126752D01*
X277031Y126850D01*
X277045Y126955D01*
X277031Y127060D01*
X276991Y127158D01*
X276926Y127242D01*
X276842Y127307D01*
X276744Y127347D01*
X276639Y127361D01*
D02*
G37*
G36*
X275639D02*
X275534Y127347D01*
X275436Y127307D01*
X275352Y127242D01*
X275287Y127158D01*
X275247Y127060D01*
X275233Y126955D01*
X275247Y126850D01*
X275287Y126752D01*
X275352Y126668D01*
X275436Y126603D01*
X275534Y126563D01*
X275639Y126549D01*
X275744Y126563D01*
X275842Y126603D01*
X275926Y126668D01*
X275991Y126752D01*
X276031Y126850D01*
X276045Y126955D01*
X276031Y127060D01*
X275991Y127158D01*
X275926Y127242D01*
X275842Y127307D01*
X275744Y127347D01*
X275639Y127361D01*
D02*
G37*
G36*
X273639D02*
X273534Y127347D01*
X273436Y127307D01*
X273352Y127242D01*
X273287Y127158D01*
X273247Y127060D01*
X273233Y126955D01*
X273247Y126850D01*
X273287Y126752D01*
X273352Y126668D01*
X273436Y126603D01*
X273534Y126563D01*
X273639Y126549D01*
X273744Y126563D01*
X273842Y126603D01*
X273926Y126668D01*
X273991Y126752D01*
X274031Y126850D01*
X274045Y126955D01*
X274031Y127060D01*
X273991Y127158D01*
X273926Y127242D01*
X273842Y127307D01*
X273744Y127347D01*
X273639Y127361D01*
D02*
G37*
G36*
X271639D02*
X271534Y127347D01*
X271436Y127307D01*
X271352Y127242D01*
X271287Y127158D01*
X271247Y127060D01*
X271233Y126955D01*
X271247Y126850D01*
X271287Y126752D01*
X271352Y126668D01*
X271436Y126603D01*
X271534Y126563D01*
X271639Y126549D01*
X271744Y126563D01*
X271842Y126603D01*
X271926Y126668D01*
X271991Y126752D01*
X272031Y126850D01*
X272045Y126955D01*
X272031Y127060D01*
X271991Y127158D01*
X271926Y127242D01*
X271842Y127307D01*
X271744Y127347D01*
X271639Y127361D01*
D02*
G37*
G36*
X270639D02*
X270534Y127347D01*
X270436Y127307D01*
X270352Y127242D01*
X270287Y127158D01*
X270247Y127060D01*
X270233Y126955D01*
X270247Y126850D01*
X270287Y126752D01*
X270352Y126668D01*
X270436Y126603D01*
X270534Y126563D01*
X270639Y126549D01*
X270744Y126563D01*
X270842Y126603D01*
X270926Y126668D01*
X270991Y126752D01*
X271031Y126850D01*
X271045Y126955D01*
X271031Y127060D01*
X270991Y127158D01*
X270926Y127242D01*
X270842Y127307D01*
X270744Y127347D01*
X270639Y127361D01*
D02*
G37*
G36*
X269639D02*
X269534Y127347D01*
X269436Y127307D01*
X269352Y127242D01*
X269287Y127158D01*
X269247Y127060D01*
X269233Y126955D01*
X269247Y126850D01*
X269287Y126752D01*
X269352Y126668D01*
X269436Y126603D01*
X269534Y126563D01*
X269639Y126549D01*
X269744Y126563D01*
X269842Y126603D01*
X269926Y126668D01*
X269991Y126752D01*
X270031Y126850D01*
X270045Y126955D01*
X270031Y127060D01*
X269991Y127158D01*
X269926Y127242D01*
X269842Y127307D01*
X269744Y127347D01*
X269639Y127361D01*
D02*
G37*
G36*
X268639D02*
X268534Y127347D01*
X268436Y127307D01*
X268352Y127242D01*
X268287Y127158D01*
X268247Y127060D01*
X268233Y126955D01*
X268247Y126850D01*
X268287Y126752D01*
X268352Y126668D01*
X268436Y126603D01*
X268534Y126563D01*
X268639Y126549D01*
X268744Y126563D01*
X268842Y126603D01*
X268926Y126668D01*
X268991Y126752D01*
X269031Y126850D01*
X269045Y126955D01*
X269031Y127060D01*
X268991Y127158D01*
X268926Y127242D01*
X268842Y127307D01*
X268744Y127347D01*
X268639Y127361D01*
D02*
G37*
G36*
X267639D02*
X267534Y127347D01*
X267436Y127307D01*
X267352Y127242D01*
X267287Y127158D01*
X267247Y127060D01*
X267233Y126955D01*
X267247Y126850D01*
X267287Y126752D01*
X267352Y126668D01*
X267436Y126603D01*
X267534Y126563D01*
X267639Y126549D01*
X267744Y126563D01*
X267842Y126603D01*
X267926Y126668D01*
X267991Y126752D01*
X268031Y126850D01*
X268045Y126955D01*
X268031Y127060D01*
X267991Y127158D01*
X267926Y127242D01*
X267842Y127307D01*
X267744Y127347D01*
X267639Y127361D01*
D02*
G37*
G36*
X266639D02*
X266534Y127347D01*
X266436Y127307D01*
X266352Y127242D01*
X266287Y127158D01*
X266247Y127060D01*
X266233Y126955D01*
X266247Y126850D01*
X266287Y126752D01*
X266352Y126668D01*
X266436Y126603D01*
X266534Y126563D01*
X266639Y126549D01*
X266744Y126563D01*
X266842Y126603D01*
X266926Y126668D01*
X266991Y126752D01*
X267031Y126850D01*
X267045Y126955D01*
X267031Y127060D01*
X266991Y127158D01*
X266926Y127242D01*
X266842Y127307D01*
X266744Y127347D01*
X266639Y127361D01*
D02*
G37*
G36*
X265639D02*
X265534Y127347D01*
X265436Y127307D01*
X265352Y127242D01*
X265287Y127158D01*
X265247Y127060D01*
X265233Y126955D01*
X265247Y126850D01*
X265287Y126752D01*
X265352Y126668D01*
X265436Y126603D01*
X265534Y126563D01*
X265639Y126549D01*
X265744Y126563D01*
X265842Y126603D01*
X265926Y126668D01*
X265991Y126752D01*
X266031Y126850D01*
X266045Y126955D01*
X266031Y127060D01*
X265991Y127158D01*
X265926Y127242D01*
X265842Y127307D01*
X265744Y127347D01*
X265639Y127361D01*
D02*
G37*
G36*
X264639D02*
X264534Y127347D01*
X264436Y127307D01*
X264352Y127242D01*
X264287Y127158D01*
X264247Y127060D01*
X264233Y126955D01*
X264247Y126850D01*
X264287Y126752D01*
X264352Y126668D01*
X264436Y126603D01*
X264534Y126563D01*
X264639Y126549D01*
X264744Y126563D01*
X264842Y126603D01*
X264926Y126668D01*
X264991Y126752D01*
X265031Y126850D01*
X265045Y126955D01*
X265031Y127060D01*
X264991Y127158D01*
X264926Y127242D01*
X264842Y127307D01*
X264744Y127347D01*
X264639Y127361D01*
D02*
G37*
G36*
X249639D02*
X249534Y127347D01*
X249436Y127307D01*
X249352Y127242D01*
X249287Y127158D01*
X249247Y127060D01*
X249233Y126955D01*
X249247Y126850D01*
X249287Y126752D01*
X249352Y126668D01*
X249436Y126603D01*
X249534Y126563D01*
X249639Y126549D01*
X249744Y126563D01*
X249842Y126603D01*
X249926Y126668D01*
X249991Y126752D01*
X250031Y126850D01*
X250045Y126955D01*
X250031Y127060D01*
X249991Y127158D01*
X249926Y127242D01*
X249842Y127307D01*
X249744Y127347D01*
X249639Y127361D01*
D02*
G37*
G36*
X248639D02*
X248534Y127347D01*
X248436Y127307D01*
X248352Y127242D01*
X248287Y127158D01*
X248247Y127060D01*
X248233Y126955D01*
X248247Y126850D01*
X248287Y126752D01*
X248352Y126668D01*
X248436Y126603D01*
X248534Y126563D01*
X248639Y126549D01*
X248744Y126563D01*
X248842Y126603D01*
X248926Y126668D01*
X248991Y126752D01*
X249031Y126850D01*
X249045Y126955D01*
X249031Y127060D01*
X248991Y127158D01*
X248926Y127242D01*
X248842Y127307D01*
X248744Y127347D01*
X248639Y127361D01*
D02*
G37*
G36*
X247639D02*
X247534Y127347D01*
X247436Y127307D01*
X247352Y127242D01*
X247287Y127158D01*
X247247Y127060D01*
X247233Y126955D01*
X247247Y126850D01*
X247287Y126752D01*
X247352Y126668D01*
X247436Y126603D01*
X247534Y126563D01*
X247639Y126549D01*
X247744Y126563D01*
X247842Y126603D01*
X247926Y126668D01*
X247991Y126752D01*
X248031Y126850D01*
X248045Y126955D01*
X248031Y127060D01*
X247991Y127158D01*
X247926Y127242D01*
X247842Y127307D01*
X247744Y127347D01*
X247639Y127361D01*
D02*
G37*
G36*
X245639D02*
X245534Y127347D01*
X245436Y127307D01*
X245352Y127242D01*
X245287Y127158D01*
X245247Y127060D01*
X245233Y126955D01*
X245247Y126850D01*
X245287Y126752D01*
X245352Y126668D01*
X245436Y126603D01*
X245534Y126563D01*
X245639Y126549D01*
X245744Y126563D01*
X245842Y126603D01*
X245926Y126668D01*
X245991Y126752D01*
X246031Y126850D01*
X246045Y126955D01*
X246031Y127060D01*
X245991Y127158D01*
X245926Y127242D01*
X245842Y127307D01*
X245744Y127347D01*
X245639Y127361D01*
D02*
G37*
G36*
X244639D02*
X244534Y127347D01*
X244436Y127307D01*
X244352Y127242D01*
X244287Y127158D01*
X244247Y127060D01*
X244233Y126955D01*
X244247Y126850D01*
X244287Y126752D01*
X244352Y126668D01*
X244436Y126603D01*
X244534Y126563D01*
X244639Y126549D01*
X244744Y126563D01*
X244842Y126603D01*
X244926Y126668D01*
X244991Y126752D01*
X245031Y126850D01*
X245045Y126955D01*
X245031Y127060D01*
X244991Y127158D01*
X244926Y127242D01*
X244842Y127307D01*
X244744Y127347D01*
X244639Y127361D01*
D02*
G37*
G36*
X242639D02*
X242534Y127347D01*
X242436Y127307D01*
X242352Y127242D01*
X242287Y127158D01*
X242247Y127060D01*
X242233Y126955D01*
X242247Y126850D01*
X242287Y126752D01*
X242352Y126668D01*
X242436Y126603D01*
X242534Y126563D01*
X242639Y126549D01*
X242744Y126563D01*
X242842Y126603D01*
X242926Y126668D01*
X242991Y126752D01*
X243031Y126850D01*
X243045Y126955D01*
X243031Y127060D01*
X242991Y127158D01*
X242926Y127242D01*
X242842Y127307D01*
X242744Y127347D01*
X242639Y127361D01*
D02*
G37*
G36*
X241639D02*
X241534Y127347D01*
X241436Y127307D01*
X241352Y127242D01*
X241287Y127158D01*
X241247Y127060D01*
X241233Y126955D01*
X241247Y126850D01*
X241287Y126752D01*
X241352Y126668D01*
X241436Y126603D01*
X241534Y126563D01*
X241639Y126549D01*
X241744Y126563D01*
X241842Y126603D01*
X241926Y126668D01*
X241991Y126752D01*
X242031Y126850D01*
X242045Y126955D01*
X242031Y127060D01*
X241991Y127158D01*
X241926Y127242D01*
X241842Y127307D01*
X241744Y127347D01*
X241639Y127361D01*
D02*
G37*
G36*
X239639D02*
X239534Y127347D01*
X239436Y127307D01*
X239352Y127242D01*
X239287Y127158D01*
X239247Y127060D01*
X239233Y126955D01*
X239247Y126850D01*
X239287Y126752D01*
X239352Y126668D01*
X239436Y126603D01*
X239534Y126563D01*
X239639Y126549D01*
X239744Y126563D01*
X239842Y126603D01*
X239926Y126668D01*
X239991Y126752D01*
X240031Y126850D01*
X240045Y126955D01*
X240031Y127060D01*
X239991Y127158D01*
X239926Y127242D01*
X239842Y127307D01*
X239744Y127347D01*
X239639Y127361D01*
D02*
G37*
G36*
X238639D02*
X238534Y127347D01*
X238436Y127307D01*
X238352Y127242D01*
X238287Y127158D01*
X238247Y127060D01*
X238233Y126955D01*
X238247Y126850D01*
X238287Y126752D01*
X238352Y126668D01*
X238436Y126603D01*
X238534Y126563D01*
X238639Y126549D01*
X238744Y126563D01*
X238842Y126603D01*
X238926Y126668D01*
X238991Y126752D01*
X239031Y126850D01*
X239045Y126955D01*
X239031Y127060D01*
X238991Y127158D01*
X238926Y127242D01*
X238842Y127307D01*
X238744Y127347D01*
X238639Y127361D01*
D02*
G37*
G36*
X237639D02*
X237534Y127347D01*
X237436Y127307D01*
X237352Y127242D01*
X237287Y127158D01*
X237247Y127060D01*
X237233Y126955D01*
X237247Y126850D01*
X237287Y126752D01*
X237352Y126668D01*
X237436Y126603D01*
X237534Y126563D01*
X237639Y126549D01*
X237744Y126563D01*
X237842Y126603D01*
X237926Y126668D01*
X237991Y126752D01*
X238031Y126850D01*
X238045Y126955D01*
X238031Y127060D01*
X237991Y127158D01*
X237926Y127242D01*
X237842Y127307D01*
X237744Y127347D01*
X237639Y127361D01*
D02*
G37*
G36*
X279589Y126905D02*
X279219D01*
X279227Y126845D01*
X279270Y126742D01*
X279338Y126654D01*
X279426Y126586D01*
X279529Y126543D01*
X279589Y126535D01*
Y126905D01*
D02*
G37*
G36*
X278589D02*
X278219D01*
X278227Y126845D01*
X278270Y126742D01*
X278338Y126654D01*
X278426Y126586D01*
X278529Y126543D01*
X278589Y126535D01*
Y126905D01*
D02*
G37*
G36*
X274589D02*
X274219D01*
X274227Y126845D01*
X274270Y126742D01*
X274338Y126654D01*
X274426Y126586D01*
X274529Y126543D01*
X274589Y126535D01*
Y126905D01*
D02*
G37*
G36*
X280059D02*
X279689D01*
Y126535D01*
X279749Y126543D01*
X279852Y126586D01*
X279940Y126654D01*
X280008Y126742D01*
X280051Y126845D01*
X280059Y126905D01*
D02*
G37*
G36*
X279059D02*
X278689D01*
Y126535D01*
X278749Y126543D01*
X278852Y126586D01*
X278940Y126654D01*
X279008Y126742D01*
X279051Y126845D01*
X279059Y126905D01*
D02*
G37*
G36*
X275059D02*
X274689D01*
Y126535D01*
X274749Y126543D01*
X274852Y126586D01*
X274940Y126654D01*
X275008Y126742D01*
X275051Y126845D01*
X275059Y126905D01*
D02*
G37*
%LPD*%
G36*
X277456Y136441D02*
Y131890D01*
X277404Y131850D01*
X277364Y131798D01*
X272063D01*
X271969Y131893D01*
X271978Y131963D01*
X271966Y132051D01*
X271932Y132133D01*
X271879Y132203D01*
X271808Y132257D01*
X271727Y132291D01*
X271639Y132302D01*
X271551Y132291D01*
X271470Y132257D01*
X271399Y132203D01*
X271346Y132133D01*
X271312Y132051D01*
X271300Y131963D01*
X271309Y131893D01*
X270552Y131136D01*
X270163D01*
X270161Y131142D01*
X270101Y131220D01*
X270023Y131280D01*
X269931Y131318D01*
X269833Y131331D01*
X269745Y131319D01*
X269727Y131342D01*
X269719Y131364D01*
X271233Y132878D01*
X271283Y132858D01*
Y132607D01*
X271589D01*
Y132963D01*
Y133319D01*
X271311D01*
Y136864D01*
X271358Y136876D01*
X271392Y136793D01*
X271447Y136722D01*
X271518Y136668D01*
X271600Y136634D01*
X271689Y136622D01*
X271778Y136634D01*
X271861Y136668D01*
X271932Y136722D01*
X271977Y136781D01*
X272169D01*
X272239Y136795D01*
X272299Y136835D01*
X274610Y139146D01*
X274680Y139137D01*
X274750Y139146D01*
X277456Y136441D01*
D02*
G37*
G36*
X252317Y136955D02*
Y136766D01*
X251853Y136301D01*
X251826Y136262D01*
X251817Y136215D01*
Y131276D01*
X251765Y131254D01*
X251692Y131199D01*
X251637Y131127D01*
X251602Y131043D01*
X251590Y130952D01*
X251602Y130862D01*
X251637Y130778D01*
X251692Y130706D01*
X251765Y130650D01*
X251849Y130616D01*
X251939Y130604D01*
X252029Y130616D01*
X252113Y130650D01*
X252186Y130706D01*
X252241Y130778D01*
X252267Y130840D01*
X252317Y130830D01*
Y130760D01*
X252273Y130731D01*
X252222Y130655D01*
X252205Y130565D01*
X252222Y130475D01*
X252273Y130399D01*
X252349Y130348D01*
X252405Y130337D01*
X252400Y130287D01*
X244777D01*
X244254Y130810D01*
X244276Y130862D01*
X244288Y130952D01*
X244276Y131043D01*
X244241Y131127D01*
X244186Y131199D01*
X244113Y131254D01*
X244061Y131276D01*
Y136164D01*
X244526Y136628D01*
X244552Y136668D01*
X244561Y136715D01*
Y136955D01*
X244611Y136965D01*
X244637Y136903D01*
X244692Y136831D01*
X244765Y136775D01*
X244849Y136741D01*
X244939Y136729D01*
X245029Y136741D01*
X245113Y136775D01*
X245186Y136831D01*
X245241Y136903D01*
X245267Y136965D01*
X245317Y136955D01*
Y136766D01*
X244853Y136301D01*
X244826Y136262D01*
X244817Y136215D01*
Y131276D01*
X244765Y131254D01*
X244692Y131199D01*
X244637Y131127D01*
X244602Y131043D01*
X244590Y130952D01*
X244602Y130862D01*
X244637Y130778D01*
X244692Y130706D01*
X244765Y130650D01*
X244849Y130616D01*
X244939Y130604D01*
X245029Y130616D01*
X245113Y130650D01*
X245186Y130706D01*
X245241Y130778D01*
X245276Y130862D01*
X245288Y130952D01*
X245276Y131043D01*
X245241Y131127D01*
X245186Y131199D01*
X245113Y131254D01*
X245061Y131276D01*
Y136164D01*
X245526Y136628D01*
X245552Y136668D01*
X245561Y136715D01*
Y136955D01*
X245611Y136965D01*
X245637Y136903D01*
X245692Y136831D01*
X245765Y136775D01*
X245849Y136741D01*
X245939Y136729D01*
X246029Y136741D01*
X246113Y136775D01*
X246186Y136831D01*
X246241Y136903D01*
X246267Y136965D01*
X246317Y136955D01*
Y136766D01*
X245853Y136301D01*
X245826Y136262D01*
X245817Y136215D01*
Y131276D01*
X245765Y131254D01*
X245692Y131199D01*
X245637Y131127D01*
X245602Y131043D01*
X245590Y130952D01*
X245602Y130862D01*
X245637Y130778D01*
X245692Y130706D01*
X245765Y130650D01*
X245849Y130616D01*
X245939Y130604D01*
X246029Y130616D01*
X246113Y130650D01*
X246186Y130706D01*
X246241Y130778D01*
X246276Y130862D01*
X246288Y130952D01*
X246276Y131043D01*
X246241Y131127D01*
X246186Y131199D01*
X246113Y131254D01*
X246061Y131276D01*
Y136164D01*
X246526Y136628D01*
X246552Y136668D01*
X246561Y136715D01*
Y136955D01*
X246611Y136965D01*
X246637Y136903D01*
X246692Y136831D01*
X246765Y136775D01*
X246849Y136741D01*
X246939Y136729D01*
X247029Y136741D01*
X247113Y136775D01*
X247186Y136831D01*
X247241Y136903D01*
X247267Y136965D01*
X247317Y136955D01*
Y136766D01*
X246853Y136301D01*
X246826Y136262D01*
X246817Y136215D01*
Y131276D01*
X246765Y131254D01*
X246692Y131199D01*
X246637Y131127D01*
X246602Y131043D01*
X246590Y130952D01*
X246602Y130862D01*
X246637Y130778D01*
X246692Y130706D01*
X246765Y130650D01*
X246849Y130616D01*
X246939Y130604D01*
X247029Y130616D01*
X247113Y130650D01*
X247186Y130706D01*
X247241Y130778D01*
X247276Y130862D01*
X247288Y130952D01*
X247276Y131043D01*
X247241Y131127D01*
X247186Y131199D01*
X247113Y131254D01*
X247061Y131276D01*
Y136164D01*
X247526Y136628D01*
X247552Y136668D01*
X247561Y136715D01*
Y136955D01*
X247611Y136965D01*
X247637Y136903D01*
X247692Y136831D01*
X247765Y136775D01*
X247849Y136741D01*
X247939Y136729D01*
X248029Y136741D01*
X248113Y136775D01*
X248186Y136831D01*
X248241Y136903D01*
X248267Y136965D01*
X248317Y136955D01*
Y136766D01*
X247853Y136301D01*
X247826Y136262D01*
X247817Y136215D01*
Y131276D01*
X247765Y131254D01*
X247692Y131199D01*
X247637Y131127D01*
X247602Y131043D01*
X247590Y130952D01*
X247602Y130862D01*
X247637Y130778D01*
X247692Y130706D01*
X247765Y130650D01*
X247849Y130616D01*
X247939Y130604D01*
X248029Y130616D01*
X248113Y130650D01*
X248186Y130706D01*
X248241Y130778D01*
X248276Y130862D01*
X248288Y130952D01*
X248276Y131043D01*
X248241Y131127D01*
X248186Y131199D01*
X248113Y131254D01*
X248061Y131276D01*
Y136164D01*
X248526Y136628D01*
X248552Y136668D01*
X248561Y136715D01*
Y136955D01*
X248611Y136965D01*
X248637Y136903D01*
X248692Y136831D01*
X248765Y136775D01*
X248849Y136741D01*
X248939Y136729D01*
X249029Y136741D01*
X249113Y136775D01*
X249186Y136831D01*
X249241Y136903D01*
X249267Y136965D01*
X249317Y136955D01*
Y136766D01*
X248853Y136301D01*
X248826Y136262D01*
X248817Y136215D01*
Y131276D01*
X248765Y131254D01*
X248692Y131199D01*
X248637Y131127D01*
X248602Y131043D01*
X248590Y130952D01*
X248602Y130862D01*
X248637Y130778D01*
X248692Y130706D01*
X248765Y130650D01*
X248849Y130616D01*
X248939Y130604D01*
X249029Y130616D01*
X249113Y130650D01*
X249186Y130706D01*
X249241Y130778D01*
X249276Y130862D01*
X249288Y130952D01*
X249276Y131043D01*
X249241Y131127D01*
X249186Y131199D01*
X249113Y131254D01*
X249061Y131276D01*
Y136164D01*
X249526Y136628D01*
X249552Y136668D01*
X249561Y136715D01*
Y136955D01*
X249611Y136965D01*
X249637Y136903D01*
X249692Y136831D01*
X249765Y136775D01*
X249849Y136741D01*
X249939Y136729D01*
X250029Y136741D01*
X250113Y136775D01*
X250186Y136831D01*
X250241Y136903D01*
X250267Y136965D01*
X250317Y136955D01*
Y136766D01*
X249853Y136301D01*
X249826Y136262D01*
X249817Y136215D01*
Y131276D01*
X249765Y131254D01*
X249692Y131199D01*
X249637Y131127D01*
X249602Y131043D01*
X249590Y130952D01*
X249602Y130862D01*
X249637Y130778D01*
X249692Y130706D01*
X249765Y130650D01*
X249849Y130616D01*
X249939Y130604D01*
X250029Y130616D01*
X250113Y130650D01*
X250186Y130706D01*
X250241Y130778D01*
X250276Y130862D01*
X250288Y130952D01*
X250276Y131043D01*
X250241Y131127D01*
X250186Y131199D01*
X250113Y131254D01*
X250061Y131276D01*
Y136164D01*
X250526Y136628D01*
X250552Y136668D01*
X250561Y136715D01*
Y136955D01*
X250611Y136965D01*
X250637Y136903D01*
X250692Y136831D01*
X250765Y136775D01*
X250849Y136741D01*
X250939Y136729D01*
X251029Y136741D01*
X251113Y136775D01*
X251186Y136831D01*
X251241Y136903D01*
X251267Y136965D01*
X251317Y136955D01*
Y136766D01*
X250853Y136301D01*
X250826Y136262D01*
X250817Y136215D01*
Y131276D01*
X250765Y131254D01*
X250692Y131199D01*
X250637Y131127D01*
X250602Y131043D01*
X250590Y130952D01*
X250602Y130862D01*
X250637Y130778D01*
X250692Y130706D01*
X250765Y130650D01*
X250849Y130616D01*
X250939Y130604D01*
X251029Y130616D01*
X251113Y130650D01*
X251186Y130706D01*
X251241Y130778D01*
X251276Y130862D01*
X251288Y130952D01*
X251276Y131043D01*
X251241Y131127D01*
X251186Y131199D01*
X251113Y131254D01*
X251061Y131276D01*
Y136164D01*
X251526Y136628D01*
X251552Y136668D01*
X251561Y136715D01*
Y136955D01*
X251611Y136965D01*
X251637Y136903D01*
X251692Y136831D01*
X251765Y136775D01*
X251849Y136741D01*
X251939Y136729D01*
X252029Y136741D01*
X252113Y136775D01*
X252186Y136831D01*
X252241Y136903D01*
X252267Y136965D01*
X252317Y136955D01*
D02*
G37*
G36*
X240317D02*
Y131075D01*
X240267Y131065D01*
X240241Y131127D01*
X240186Y131199D01*
X240113Y131254D01*
X240029Y131289D01*
X239939Y131301D01*
X239849Y131289D01*
X239765Y131254D01*
X239692Y131199D01*
X239637Y131127D01*
X239611Y131065D01*
X239561Y131075D01*
Y136955D01*
X239611Y136965D01*
X239637Y136903D01*
X239692Y136831D01*
X239765Y136775D01*
X239849Y136741D01*
X239939Y136729D01*
X240029Y136741D01*
X240113Y136775D01*
X240186Y136831D01*
X240241Y136903D01*
X240267Y136965D01*
X240317Y136955D01*
D02*
G37*
G36*
X240637Y136903D02*
X240692Y136831D01*
X240765Y136775D01*
X240849Y136741D01*
X240939Y136729D01*
X241029Y136741D01*
X241113Y136775D01*
X241186Y136831D01*
X241241Y136903D01*
X241267Y136965D01*
X241317Y136955D01*
Y131075D01*
X241267Y131065D01*
X241241Y131127D01*
X241186Y131199D01*
X241113Y131254D01*
X241029Y131289D01*
X240939Y131301D01*
X240849Y131289D01*
X240765Y131254D01*
X240692Y131199D01*
X240637Y131127D01*
X240611Y131065D01*
X240561Y131075D01*
Y136955D01*
X240611Y136965D01*
X240637Y136903D01*
D02*
G37*
G36*
X241637D02*
X241692Y136831D01*
X241765Y136775D01*
X241849Y136741D01*
X241939Y136729D01*
X242029Y136741D01*
X242113Y136775D01*
X242186Y136831D01*
X242241Y136903D01*
X242267Y136965D01*
X242317Y136955D01*
Y131075D01*
X242267Y131065D01*
X242241Y131127D01*
X242186Y131199D01*
X242113Y131254D01*
X242029Y131289D01*
X241939Y131301D01*
X241849Y131289D01*
X241765Y131254D01*
X241692Y131199D01*
X241637Y131127D01*
X241611Y131065D01*
X241561Y131075D01*
Y136955D01*
X241611Y136965D01*
X241637Y136903D01*
D02*
G37*
G36*
X253637Y138528D02*
X253692Y138456D01*
X253765Y138400D01*
X253849Y138366D01*
X253939Y138354D01*
X254018Y138364D01*
X254806Y137576D01*
Y134341D01*
X254820Y134271D01*
X254859Y134211D01*
X255474Y133596D01*
X255465Y133526D01*
X255474Y133456D01*
X253809Y131791D01*
X253769Y131731D01*
X253756Y131661D01*
Y131247D01*
X253692Y131199D01*
X253637Y131127D01*
X253611Y131065D01*
X253561Y131075D01*
Y136164D01*
X254026Y136628D01*
X254052Y136668D01*
X254061Y136715D01*
Y136732D01*
X254285D01*
Y137423D01*
X254061D01*
Y137615D01*
X254052Y137662D01*
X254026Y137701D01*
X253561Y138166D01*
Y138580D01*
X253611Y138590D01*
X253637Y138528D01*
D02*
G37*
G36*
X250497Y129796D02*
X250053Y129351D01*
X250026Y129312D01*
X250017Y129265D01*
Y129149D01*
X249967Y129132D01*
X249940Y129166D01*
X249852Y129234D01*
X249749Y129277D01*
X249689Y129285D01*
Y128865D01*
Y128445D01*
X249749Y128453D01*
X249852Y128496D01*
X249933Y128558D01*
X249964Y128553D01*
X249988Y128543D01*
X249989Y128538D01*
X249378Y127927D01*
X248798D01*
X248778Y127977D01*
X249226Y128425D01*
X249252Y128465D01*
X249261Y128512D01*
Y128581D01*
X249311Y128598D01*
X249338Y128564D01*
X249426Y128496D01*
X249529Y128453D01*
X249589Y128445D01*
Y128865D01*
Y129285D01*
X249529Y129277D01*
X249470Y129252D01*
X249442Y129295D01*
X249990Y129843D01*
X250478D01*
X250497Y129796D01*
D02*
G37*
%LPC*%
G36*
X271995Y133319D02*
X271689D01*
Y133013D01*
X271995D01*
Y133319D01*
D02*
G37*
G36*
Y132913D02*
X271689D01*
Y132607D01*
X271995D01*
Y132913D01*
D02*
G37*
%LPD*%
D12*
X260833Y130421D02*
Y130952D01*
Y130421D02*
X260839Y130415D01*
D15*
X256779Y132465D02*
X260321D01*
X261833Y130952D01*
X254348Y130325D02*
X256688Y132665D01*
X261121D02*
X262833Y130952D01*
X261921Y132865D02*
X263833Y130952D01*
X254239Y130515D02*
X256589Y132865D01*
X261921D01*
X254479Y130165D02*
X256779Y132465D01*
X256688Y132665D02*
X261121D01*
X238317Y130337D02*
Y139081D01*
Y130337D02*
X238639Y130015D01*
X238317Y139081D02*
X238623Y139387D01*
X239254D01*
X239939Y138702D01*
X262139Y129465D02*
X262639Y129965D01*
X258039Y130565D02*
X259039Y131565D01*
X257402Y130765D02*
X258502Y131865D01*
X258670Y130365D02*
X259489Y131184D01*
X259239Y130165D02*
X259939Y130865D01*
X270989Y133215D02*
Y136015D01*
X268639Y131415D02*
X269189D01*
X270989Y133215D01*
X268989Y131615D02*
X270789Y133415D01*
X267839Y131615D02*
X268989D01*
X270789Y133415D02*
Y135865D01*
X270189Y136815D02*
X270989Y136015D01*
X270189Y136815D02*
Y137465D01*
X269689Y136965D02*
X270789Y135865D01*
X268689Y136965D02*
X270539Y135115D01*
Y133515D02*
Y135115D01*
X268839Y131815D02*
X270539Y133515D01*
X267689Y131815D02*
X268839D01*
X267196Y133315D02*
X267833Y133952D01*
X266339Y133315D02*
X267196D01*
X264339Y131315D02*
X266339Y133315D01*
X264339Y130565D02*
Y131315D01*
X263139Y129365D02*
X264339Y130565D01*
X263139Y128565D02*
Y129365D01*
X262039Y127465D02*
X263139Y128565D01*
X262139Y128448D02*
Y129465D01*
X261139Y128565D02*
Y129965D01*
X260439Y127865D02*
X261139Y128565D01*
X267689Y136965D02*
X270289Y134365D01*
Y133565D02*
Y134365D01*
X269188Y132464D02*
X270289Y133565D01*
X269339Y133715D02*
Y134315D01*
X266689Y136965D02*
X269339Y134315D01*
X268489Y132865D02*
X269339Y133715D01*
X267039Y132865D02*
X268489D01*
X264833Y130959D02*
X266939Y133065D01*
X267689D02*
X268339Y133715D01*
X266939Y133065D02*
X267689D01*
X265339Y131165D02*
X267039Y132865D01*
X265339Y130515D02*
Y131165D01*
X265689Y136965D02*
X268339Y134315D01*
X267338Y132464D02*
X269188D01*
X268339Y133715D02*
Y134315D01*
X265833Y130959D02*
X267338Y132464D01*
X266833Y130959D02*
X267689Y131815D01*
X267339Y131115D02*
X267839Y131615D01*
X268339Y130665D02*
Y131115D01*
X268639Y131415D01*
X271189Y133007D02*
Y137465D01*
X269339Y131157D02*
X271189Y133007D01*
X269339Y130665D02*
Y131157D01*
X251139Y127348D02*
X252139Y128348D01*
X251139Y126715D02*
Y127348D01*
Y126715D02*
X251439Y126415D01*
X254099D02*
X254639Y126955D01*
X251439Y126415D02*
X254099D01*
X252439Y130565D02*
Y136215D01*
X252939Y136715D02*
Y137077D01*
X252439Y136215D02*
X252939Y136715D01*
X252939Y130952D02*
Y136215D01*
X253439Y136715D01*
Y130765D02*
X253689Y130515D01*
X253439Y130765D02*
Y136215D01*
X253939Y136715D01*
X249939Y129965D02*
X254990D01*
X255790Y130765D01*
X249139Y129165D02*
X249939Y129965D01*
X244727Y130165D02*
X254479D01*
X243939Y130952D02*
X244727Y130165D01*
X255238Y129365D02*
X256038Y130165D01*
X250639Y128865D02*
X251339Y129565D01*
X255073Y129765D02*
X255873Y130565D01*
X252139Y129365D02*
X255238D01*
X251639Y128865D02*
X252139Y129365D01*
X251339Y129565D02*
X255155D01*
X255955Y130365D01*
X250139Y129265D02*
X250639Y129765D01*
X255073D01*
X253939Y136715D02*
Y137077D01*
X253689Y130515D02*
X254239D01*
X256038Y130165D02*
X259239D01*
X255873Y130565D02*
X258039D01*
X255790Y130765D02*
X257402D01*
X255955Y130365D02*
X258670D01*
X253567Y130325D02*
X254348D01*
X252939Y130952D02*
X253567Y130325D01*
X243639Y126955D02*
X244699Y128015D01*
X248642D01*
X249139Y128512D02*
Y129165D01*
X248642Y128015D02*
X249139Y128512D01*
X250139Y128515D02*
Y129265D01*
X249429Y127805D02*
X250139Y128515D01*
X246639Y126955D02*
X247489Y127805D01*
X249429D01*
X261356Y127665D02*
X262139Y128448D01*
X252549Y127865D02*
X260439D01*
X251639Y126955D02*
X252549Y127865D01*
X252639Y126955D02*
X253349Y127665D01*
X261356D01*
X253639Y126955D02*
X254149Y127465D01*
X262039D01*
X269689Y140815D02*
Y142965D01*
X268689Y141515D02*
Y142965D01*
X271689Y139865D02*
Y142965D01*
X270689Y141365D02*
Y142965D01*
X268489Y129815D02*
X269339Y130665D01*
X267589Y129815D02*
X268489D01*
X266639Y128865D02*
X267589Y129815D01*
X267739Y130065D02*
X268339Y130665D01*
X265639Y128865D02*
X266839Y130065D01*
X267739D01*
X265689Y142965D02*
X271189Y137465D01*
X264689Y142965D02*
X270189Y137465D01*
X266139Y130315D02*
X266889D01*
X267339Y130765D02*
Y131115D01*
X266889Y130315D02*
X267339Y130765D01*
X265139Y129315D02*
X266139Y130315D01*
X265139Y128455D02*
Y129315D01*
X263639Y126955D02*
X265139Y128455D01*
X264139Y129315D02*
X265339Y130515D01*
X264139Y128455D02*
Y129315D01*
X262639Y126955D02*
X264139Y128455D01*
X264833Y130952D02*
Y130959D01*
X265833Y130952D02*
Y130959D01*
X266833Y130952D02*
Y130959D01*
X240639Y130015D02*
Y130015D01*
Y128865D02*
Y130015D01*
X241639D02*
Y130015D01*
Y128865D02*
Y130015D01*
X251939Y130880D02*
Y130952D01*
X242339Y137365D02*
Y144427D01*
X242439Y130215D02*
Y137265D01*
X242339Y137365D02*
X242439Y137265D01*
X241939Y144827D02*
X242339Y144427D01*
X242539Y137477D02*
X242939Y137077D01*
X242539Y137477D02*
Y139165D01*
X242939Y139565D01*
Y144827D01*
X242639Y128865D02*
Y130015D01*
X238639Y128865D02*
Y130015D01*
X238939Y138702D02*
X239439Y138202D01*
X239639Y130015D02*
Y130015D01*
Y128865D02*
Y130015D01*
X239439Y130215D02*
Y138202D01*
Y130215D02*
X239639Y130015D01*
X239939Y144827D02*
X240439Y144327D01*
Y130215D02*
X240639Y130015D01*
X240439Y130215D02*
Y144327D01*
X240939Y144827D02*
X241439Y144327D01*
Y130215D02*
X241639Y130015D01*
X241439Y130215D02*
Y144327D01*
X242439Y130215D02*
X242639Y130015D01*
X252939Y138115D02*
X253439Y137615D01*
X252939Y138115D02*
Y138702D01*
X253439Y136715D02*
Y137615D01*
X251939Y138115D02*
X252439Y137615D01*
X251939Y138115D02*
Y138702D01*
X252439Y136715D02*
Y137615D01*
X250939Y138115D02*
X251439Y137615D01*
X250939Y138115D02*
Y138702D01*
X251439Y136715D02*
Y137615D01*
X249939Y138115D02*
X250439Y137615D01*
X249939Y138115D02*
Y138702D01*
X250439Y136715D02*
Y137615D01*
X248939Y138115D02*
X249439Y137615D01*
X248939Y138115D02*
Y138702D01*
X249439Y136715D02*
Y137615D01*
X247939Y138115D02*
X248439Y137615D01*
X247939Y138115D02*
Y138702D01*
X248439Y136715D02*
Y137615D01*
X246939Y138115D02*
X247439Y137615D01*
X246939Y138115D02*
Y138702D01*
X247439Y136715D02*
Y137615D01*
X245939Y138115D02*
X246439Y137615D01*
X245939Y138115D02*
Y138702D01*
X246439Y136715D02*
Y137615D01*
X244939Y138115D02*
X245439Y137615D01*
X244939Y138115D02*
Y138702D01*
X245439Y136715D02*
Y137615D01*
X253439Y139065D02*
X253939Y139565D01*
Y144827D01*
X253439Y138115D02*
Y139065D01*
Y138115D02*
X253939Y137615D01*
Y137077D02*
Y137615D01*
X252439Y139065D02*
X252939Y139565D01*
Y144827D01*
X252439Y138115D02*
X252939Y137615D01*
X252439Y138115D02*
Y139065D01*
X252939Y137077D02*
Y137615D01*
X251439Y139065D02*
X251939Y139565D01*
Y144827D01*
X251439Y138115D02*
X251939Y137615D01*
X251439Y138115D02*
Y139065D01*
X251939Y137077D02*
Y137615D01*
X250439Y139065D02*
X250939Y139565D01*
Y144827D01*
X250439Y138115D02*
X250939Y137615D01*
X250439Y138115D02*
Y139065D01*
X250939Y137077D02*
Y137615D01*
X249439Y139065D02*
X249939Y139565D01*
Y144827D01*
X249439Y138115D02*
X249939Y137615D01*
X249439Y138115D02*
Y139065D01*
X249939Y137077D02*
Y137615D01*
X248439Y139065D02*
X248939Y139565D01*
Y144827D01*
X248439Y138115D02*
X248939Y137615D01*
X248439Y138115D02*
Y139065D01*
X248939Y137077D02*
Y137615D01*
X247439Y139065D02*
X247939Y139565D01*
Y144827D01*
X247439Y138115D02*
X247939Y137615D01*
X247439Y138115D02*
Y139065D01*
X247939Y137077D02*
Y137615D01*
X246439Y139065D02*
X246939Y139565D01*
Y144827D01*
X246439Y138115D02*
X246939Y137615D01*
X246439Y138115D02*
Y139065D01*
X246939Y137077D02*
Y137615D01*
X245439Y139065D02*
X245939Y139565D01*
Y144827D01*
X245439Y138115D02*
X245939Y137615D01*
X245439Y138115D02*
Y139065D01*
X245939Y137077D02*
Y137615D01*
X244439Y136715D02*
Y137615D01*
X243939Y138115D02*
Y138702D01*
Y138115D02*
X244439Y137615D01*
X244939Y137077D02*
Y137615D01*
X244439Y138115D02*
Y139065D01*
Y138115D02*
X244939Y137615D01*
X243939Y136215D02*
X244439Y136715D01*
X244939Y139565D02*
Y144827D01*
X244439Y139065D02*
X244939Y139565D01*
X243939D02*
Y144827D01*
X243439Y137577D02*
Y139065D01*
X243939Y139565D01*
X243439Y137577D02*
X243939Y137077D01*
X251939Y136215D02*
X252439Y136715D01*
X251939Y130952D02*
Y136215D01*
X250939D02*
X251439Y136715D01*
X250939Y130952D02*
Y136215D01*
X249939D02*
X250439Y136715D01*
X249939Y130952D02*
Y136215D01*
X248939D02*
X249439Y136715D01*
X248939Y130952D02*
Y136215D01*
X247939D02*
X248439Y136715D01*
X247939Y130952D02*
Y136215D01*
X246939D02*
X247439Y136715D01*
X246939Y130952D02*
Y136215D01*
X245939D02*
X246439Y136715D01*
X245939Y130952D02*
Y136215D01*
X244939D02*
X245439Y136715D01*
X244939Y130952D02*
Y136215D01*
X243939Y130952D02*
Y136215D01*
D27*
X255804Y133526D02*
X255804Y133526D01*
X253939Y131661D02*
X255804Y133526D01*
X271639Y131963D02*
X271987Y131615D01*
X277639D01*
X255804Y133526D02*
X255804Y133526D01*
X254989Y134341D02*
X255804Y133526D01*
X254989Y134341D02*
Y137652D01*
X253939Y138702D02*
X254989Y137652D01*
X272169Y136965D02*
X274680Y139476D01*
X271689Y136965D02*
X272169D01*
X274680Y139476D02*
X277639Y136517D01*
X269833Y130952D02*
X270628D01*
X271639Y131963D01*
X253939Y138702D02*
X255804Y140567D01*
Y141276D01*
X277639Y131615D02*
Y136517D01*
X277639Y126955D02*
Y128865D01*
X277639Y128865D02*
Y131615D01*
X277639Y128865D02*
X277639Y128865D01*
X253939Y130952D02*
Y131661D01*
D28*
X269833Y133952D02*
D03*
D29*
X268833D02*
D03*
X267833D02*
D03*
X266833D02*
D03*
X265833D02*
D03*
X264833D02*
D03*
X263833D02*
D03*
X262833D02*
D03*
X264833Y130952D02*
D03*
X265833D02*
D03*
X260833D02*
D03*
X261833D02*
D03*
X262833D02*
D03*
X263833D02*
D03*
X266833D02*
D03*
X267833D02*
D03*
X268833D02*
D03*
X269833D02*
D03*
X260833Y133952D02*
D03*
X261833D02*
D03*
D30*
X253939Y144827D02*
D03*
Y137077D02*
D03*
D31*
X252939Y144827D02*
D03*
X251939D02*
D03*
X250939D02*
D03*
X249939D02*
D03*
X248939D02*
D03*
X247939D02*
D03*
X246939D02*
D03*
X245939D02*
D03*
X244939D02*
D03*
X243939D02*
D03*
X242939D02*
D03*
X241939D02*
D03*
X240939D02*
D03*
X239939D02*
D03*
X238939D02*
D03*
Y138702D02*
D03*
X239939D02*
D03*
X240939D02*
D03*
X241939D02*
D03*
X242939D02*
D03*
X243939D02*
D03*
X244939D02*
D03*
X245939D02*
D03*
X246939D02*
D03*
X247939D02*
D03*
X248939D02*
D03*
X249939D02*
D03*
X250939D02*
D03*
X251939D02*
D03*
X252939D02*
D03*
X253939D02*
D03*
X252939Y137077D02*
D03*
X251939D02*
D03*
X250939D02*
D03*
X249939D02*
D03*
X248939D02*
D03*
X247939D02*
D03*
X246939D02*
D03*
X245939D02*
D03*
X244939D02*
D03*
X243939D02*
D03*
X242939D02*
D03*
X241939D02*
D03*
X240939D02*
D03*
X239939D02*
D03*
X238939D02*
D03*
Y130952D02*
D03*
X239939D02*
D03*
X240939D02*
D03*
X241939D02*
D03*
X242939D02*
D03*
X243939D02*
D03*
X244939D02*
D03*
X245939D02*
D03*
X246939D02*
D03*
X247939D02*
D03*
X248939D02*
D03*
X249939D02*
D03*
X250939D02*
D03*
X251939D02*
D03*
X252939D02*
D03*
X253939D02*
D03*
D32*
X255804Y142276D02*
D03*
X271639Y132963D02*
D03*
X255804Y134526D02*
D03*
X274680Y140476D02*
D03*
D33*
X255804Y141276D02*
D03*
X271639Y131963D02*
D03*
X255804Y133526D02*
D03*
X274680Y139476D02*
D03*
D34*
X278639Y131615D02*
D03*
X277639D02*
D03*
D35*
X260689Y136965D02*
D03*
X261689D02*
D03*
X262689D02*
D03*
X263689D02*
D03*
X264689D02*
D03*
X265689D02*
D03*
X266689D02*
D03*
X267689D02*
D03*
X268689D02*
D03*
X269689D02*
D03*
X270689D02*
D03*
X271689D02*
D03*
X260689Y142965D02*
D03*
X261689D02*
D03*
X262689D02*
D03*
X263689D02*
D03*
X264689D02*
D03*
X265689D02*
D03*
X266689D02*
D03*
X267689D02*
D03*
X268689D02*
D03*
X269689D02*
D03*
X270689D02*
D03*
D36*
X271689D02*
D03*
D37*
X279639Y128865D02*
D03*
D38*
Y126955D02*
D03*
X278639Y128865D02*
D03*
Y126955D02*
D03*
X277639Y128865D02*
D03*
Y126955D02*
D03*
X276639Y128865D02*
D03*
Y126955D02*
D03*
X275639Y128865D02*
D03*
Y126955D02*
D03*
X274639Y128865D02*
D03*
Y126955D02*
D03*
X273639Y128865D02*
D03*
Y126955D02*
D03*
X272639Y128865D02*
D03*
X272639Y126955D02*
D03*
X271639Y128865D02*
D03*
Y126955D02*
D03*
X270639Y128865D02*
D03*
Y126955D02*
D03*
X269639Y128865D02*
D03*
Y126955D02*
D03*
X268639Y128865D02*
D03*
Y126955D02*
D03*
X267639Y128865D02*
D03*
Y126955D02*
D03*
X266639Y128865D02*
D03*
Y126955D02*
D03*
X265639Y128865D02*
D03*
Y126955D02*
D03*
X264639Y128865D02*
D03*
Y126955D02*
D03*
X263639Y128865D02*
D03*
X263639Y126955D02*
D03*
X262639Y128865D02*
D03*
Y126955D02*
D03*
X261639Y128865D02*
D03*
Y126955D02*
D03*
X260639Y128865D02*
D03*
Y126955D02*
D03*
X259639Y128865D02*
D03*
Y126955D02*
D03*
X258639Y128865D02*
D03*
Y126955D02*
D03*
X257639Y128865D02*
D03*
Y126955D02*
D03*
X256639Y128865D02*
D03*
Y126955D02*
D03*
X255639Y128865D02*
D03*
Y126955D02*
D03*
X254639Y128865D02*
D03*
X254639Y126955D02*
D03*
X253639Y128865D02*
D03*
Y126955D02*
D03*
X252639Y128865D02*
D03*
Y126955D02*
D03*
X251639Y128865D02*
D03*
Y126955D02*
D03*
X250639Y128865D02*
D03*
Y126955D02*
D03*
X249639Y128865D02*
D03*
Y126955D02*
D03*
X248639Y128865D02*
D03*
Y126955D02*
D03*
X247639Y128865D02*
D03*
Y126955D02*
D03*
X246639Y128865D02*
D03*
Y126955D02*
D03*
X245639Y128865D02*
D03*
Y126955D02*
D03*
X244639Y128865D02*
D03*
Y126955D02*
D03*
X243639Y128865D02*
D03*
Y126955D02*
D03*
X242639Y128865D02*
D03*
Y126955D02*
D03*
X241639Y128865D02*
D03*
Y126955D02*
D03*
X240639Y128865D02*
D03*
X240639Y126955D02*
D03*
X239639Y128865D02*
D03*
Y126955D02*
D03*
X238639Y128865D02*
D03*
Y126955D02*
D03*
X237639Y128865D02*
D03*
Y126955D02*
D03*
D39*
X253139Y128365D02*
D03*
X263339Y134415D02*
D03*
X248139Y128415D02*
D03*
X271589Y131265D02*
D03*
X277089Y131015D02*
D03*
X266989Y129715D02*
D03*
X271189Y140315D02*
D03*
X250489Y130515D02*
D03*
X251489Y135115D02*
D03*
X240039Y143065D02*
D03*
X237089Y143015D02*
D03*
X266939Y144215D02*
D03*
X268089Y141565D02*
D03*
X265839Y140015D02*
D03*
X262839Y142065D02*
D03*
X259039Y139915D02*
D03*
X263889Y139015D02*
D03*
X261139Y137415D02*
D03*
X269189Y137465D02*
D03*
X268989Y139115D02*
D03*
X256589Y140415D02*
D03*
X253789Y135115D02*
D03*
X258289Y133215D02*
D03*
X254439Y131415D02*
D03*
X262839Y127765D02*
D03*
X275139Y128215D02*
D03*
X278239Y142365D02*
D03*
X277139Y137915D02*
D03*
X274439Y134615D02*
D03*
X267339Y134365D02*
D03*
X268639Y134565D02*
D03*
X269989Y135165D02*
D03*
X267339Y135815D02*
D03*
X265039Y136115D02*
D03*
X271139Y142365D02*
D03*
X271939Y137615D02*
D03*
X271589Y136149D02*
D03*
X277233Y136315D02*
D03*
X274639Y138815D02*
D03*
X276991Y132203D02*
D03*
X270436Y130199D02*
D03*
X270150Y128365D02*
D03*
X268825Y129565D02*
D03*
X263534Y130315D02*
D03*
X264511Y132665D02*
D03*
X261450Y131865D02*
D03*
X258002Y130952D02*
D03*
X242637Y127565D02*
D03*
X239489Y139746D02*
D03*
X240939Y141065D02*
D03*
X241889Y142065D02*
D03*
X246489Y143784D02*
D03*
X245439D02*
D03*
X243439Y143815D02*
D03*
X242049Y144165D02*
D03*
X242637Y141065D02*
D03*
X254439D02*
D03*
X253439Y142065D02*
D03*
X252439Y141065D02*
D03*
X251439Y142065D02*
D03*
X250439Y141065D02*
D03*
X249439Y142065D02*
D03*
X248439Y141065D02*
D03*
X247139Y139215D02*
D03*
X246439Y141065D02*
D03*
X245439Y142065D02*
D03*
X244439Y139615D02*
D03*
X243439Y142065D02*
D03*
X281289Y131065D02*
D03*
Y135915D02*
D03*
Y140765D02*
D03*
X235889D02*
D03*
Y135915D02*
D03*
Y131065D02*
D03*
X241127Y129257D02*
D03*
X257139Y129396D02*
D03*
X260139Y128297D02*
D03*
X235939Y145615D02*
D03*
X281339D02*
D03*
X241618D02*
D03*
X247296D02*
D03*
X252975D02*
D03*
X258654D02*
D03*
X264332D02*
D03*
X270011D02*
D03*
X275689D02*
D03*
X275660Y126215D02*
D03*
X269982D02*
D03*
X264303D02*
D03*
X258625D02*
D03*
X247267D02*
D03*
X241589D02*
D03*
X245639Y127615D02*
D03*
X237352Y135815D02*
D03*
X255842Y131065D02*
D03*
X258189Y132165D02*
D03*
X256744Y135365D02*
D03*
X255856Y136741D02*
D03*
X249317Y129843D02*
D03*
X243389Y136165D02*
D03*
Y131865D02*
D03*
X241939D02*
D03*
X240939D02*
D03*
X239939D02*
D03*
X238939D02*
D03*
X241939Y136165D02*
D03*
X240939D02*
D03*
X239939D02*
D03*
X253789Y132031D02*
D03*
X255238Y133560D02*
D03*
X254031Y138015D02*
D03*
X250489Y136165D02*
D03*
X248489D02*
D03*
X246489D02*
D03*
X251439Y131465D02*
D03*
X249439D02*
D03*
X247439D02*
D03*
X245439D02*
D03*
X244489Y136165D02*
D03*
X281339Y126215D02*
D03*
X258502Y131865D02*
D03*
X259039Y131565D02*
D03*
X259489Y131184D02*
D03*
X259939Y130865D02*
D03*
X261139Y129965D02*
D03*
X262639D02*
D03*
X252139Y128348D02*
D03*
X252439Y130565D02*
D03*
X268689Y141515D02*
D03*
X269689Y140815D02*
D03*
X271689Y139865D02*
D03*
X270689Y141365D02*
D03*
X235910Y126215D02*
D03*
M02*
