M48
;Layer_Color=9474304
;FILE_FORMAT=2:4
INCH
;TYPE=PLATED
T1F00S00C0.0150
T2F00S00C0.0280
T3F00S00C0.0315
T4F00S00C0.0320
T5F00S00C0.0335
T6F00S00C0.0354
T7F00S00C0.0430
%
T01
X247267Y126215
X245639Y127615
X242637Y127565
X241589Y126215
X241127Y129257
X240939Y131865
X241939
X243389
X245439Y131465
X247439
X249439
X249317Y129843
X248139Y128415
X248489Y136165
X246489
X244489
X243389
X241939
X240939
X239939
X237352Y135815
X235889Y135915
Y131065
X238939Y131865
X239939
X239489Y139746
X244439Y139615
X247139Y139215
X235910Y126215
X252139Y128348
X253139Y128365
X252439Y130565
X251439Y131465
X250489Y130515
X253789Y132031
X254439Y131415
X255842Y131065
X258002Y130952
X258189Y132165
X258502Y131865
X259039Y131565
X259489Y131184
X259939Y130865
X261139Y129965
X262639
X263534Y130315
X262839Y127765
X264303Y126215
X258625
X260139Y128297
X257139Y129396
X258289Y133215
X255238Y133560
X253789Y135115
X251489
X250489Y136165
X254031Y138015
X255856Y136741
X256744Y135365
X256589Y140415
X259039Y139915
X261139Y137415
X263889Y139015
X265039Y136115
X263339Y134415
X264511Y132665
X261450Y131865
X266989Y129715
X268825Y129565
X270436Y130199
X270150Y128365
X269982Y126215
X275660
X275139Y128215
X277089Y131015
X276991Y132203
X277233Y136315
X277139Y137915
X274639Y138815
X271939Y137615
X271589Y136149
X269989Y135165
X268639Y134565
X267339Y134365
Y135815
X269189Y137465
X268989Y139115
X271189Y140315
X271689Y139865
X265839Y140015
X274439Y134615
X271589Y131265
X281289Y131065
Y135915
X281339Y126215
X281289Y140765
X281339Y145615
X275689
X270011
X271139Y142365
X270689Y141365
X269689Y140815
X268689Y141515
X268089Y141565
X266939Y144215
X278239Y142365
X262839Y142065
X264332Y145615
X258654
X252975
X253439Y142065
X254439Y141065
X252439
X251439Y142065
X250439Y141065
X249439Y142065
X248439Y141065
X246439
X245439Y142065
Y143784
X246489
X247296Y145615
X243439Y143815
X242049Y144165
X241618Y145615
X241889Y142065
X243439
X242637Y141065
X240939
X240039Y143065
X237089Y143015
X235889Y140765
X235939Y145615
T02
X278639Y131615
X277639
T03
X255804Y133526
Y134526
X271639Y132963
Y131963
X274680Y139476
Y140476
X255804Y141276
Y142276
T04
X264689Y136965
X263689
X262689
X261689
X260689
X265689
X266689
X267689
X268689
X269689
X270689
X271689
Y142965
X270689
X269689
X268689
X267689
X266689
X265689
X264689
X263689
X262689
X261689
X260689
T05
X249939Y130952
X248939
X247939
X246939
X245939
X244939
X243939
X242939
X241939
X240939
X239939
X238939
Y137077
X239939
X240939
X241939
X242939
X243939
X244939
X245939
X246939
X247939
X248939
X249939
Y138702
X248939
X247939
X246939
X245939
X244939
X243939
X242939
X241939
X240939
X239939
X238939
X250939
X251939
X252939
X253939
Y137077
X252939
X251939
X250939
Y130952
X251939
X252939
X253939
Y144827
X252939
X251939
X250939
X249939
X248939
X247939
X246939
X245939
X244939
X243939
X242939
X241939
X240939
X239939
X238939
T06
X264833Y130952
X263833
X262833
X261833
X260833
Y133952
X261833
X262833
X263833
X264833
X265833
X266833
X267833
X268833
X269833
Y130952
X268833
X267833
X266833
X265833
T07
X249639Y126955
X248639
X247639
X246639
X245639
X244639
X243639
X242639
X241639
X240639Y126955
X239639Y126955
X238639
X237639
Y128865
X238639
X239639
X240639
X241639
X242639
X243639
X244639
X245639
X246639
X247639
X248639
X249639
X250639
X251639
X252639
X253639
X254639
X255639
X256639
X257639
X258639
X259639
X260639
X261639
X262639
X263639
X264639
Y126955
X263639Y126955
X262639Y126955
X261639
X260639
X259639
X258639
X257639
X256639
X255639
X254639Y126955
X253639Y126955
X252639
X251639
X250639
X265639
X266639
X267639
X268639
X269639
X270639
X271639
X272639Y126955
X273639Y126955
X274639
X275639
X276639
X277639
X278639
X279639
Y128865
X278639
X277639
X276639
X275639
X274639
X273639
X272639
X271639
X270639
X269639
X268639
X267639
X266639
X265639
M30
