G04*
G04 #@! TF.GenerationSoftware,Altium Limited,Altium Designer,20.2.6 (244)*
G04*
G04 Layer_Color=32896*
%FSAX24Y24*%
%MOIN*%
G70*
G04*
G04 #@! TF.SameCoordinates,F670C94F-DB3F-48BB-9EAE-642EF2030223*
G04*
G04*
G04 #@! TF.FilePolarity,Positive*
G04*
G01*
G75*
%ADD15C,0.0080*%
D15*
X280939Y144815D02*
Y145082D01*
X280806Y145215D01*
X280672Y145082D01*
Y144815D01*
Y145015D01*
X280939D01*
X280539Y145082D02*
Y144815D01*
Y144948D01*
X280473Y145015D01*
X280406Y145082D01*
X280339D01*
X279873D02*
X280073D01*
X280139Y145015D01*
Y144882D01*
X280073Y144815D01*
X279873D01*
X279673Y145082D02*
X279540D01*
X279473Y145015D01*
Y144815D01*
X279673D01*
X279739Y144882D01*
X279673Y144948D01*
X279473D01*
X279073Y145215D02*
Y144815D01*
X279273D01*
X279340Y144882D01*
Y145015D01*
X279273Y145082D01*
X279073D01*
X278940Y144815D02*
X278806D01*
X278873D01*
Y145082D01*
X278940D01*
X278540D02*
X278407D01*
X278340Y145015D01*
Y144815D01*
X278540D01*
X278606Y144882D01*
X278540Y144948D01*
X278340D01*
X277540Y144815D02*
X277807D01*
X277540Y145082D01*
Y145148D01*
X277607Y145215D01*
X277740D01*
X277807Y145148D01*
X277407Y144815D02*
Y145215D01*
X277274Y145082D01*
X277140Y145215D01*
Y144815D01*
X277007Y145215D02*
Y144815D01*
X276807D01*
X276740Y144882D01*
Y144948D01*
X276807Y145015D01*
X277007D01*
X276807D01*
X276740Y145082D01*
Y145148D01*
X276807Y145215D01*
X277007D01*
X275941Y145148D02*
X276007Y145215D01*
X276141D01*
X276207Y145148D01*
Y144882D01*
X276141Y144815D01*
X276007D01*
X275941Y144882D01*
X275741Y145082D02*
X275607D01*
X275541Y145015D01*
Y144815D01*
X275741D01*
X275807Y144882D01*
X275741Y144948D01*
X275541D01*
X275408Y145082D02*
Y144815D01*
Y144948D01*
X275341Y145015D01*
X275274Y145082D01*
X275208D01*
X274941Y145148D02*
Y145082D01*
X275008D01*
X274874D01*
X274941D01*
Y144882D01*
X274874Y144815D01*
X274674Y145082D02*
Y144815D01*
Y144948D01*
X274608Y145015D01*
X274541Y145082D01*
X274474D01*
X274275Y144815D02*
X274141D01*
X274208D01*
Y145082D01*
X274275D01*
X273675Y145215D02*
Y144815D01*
X273875D01*
X273941Y144882D01*
Y145015D01*
X273875Y145082D01*
X273675D01*
X273408Y144682D02*
X273342D01*
X273275Y144748D01*
Y145082D01*
X273475D01*
X273541Y145015D01*
Y144882D01*
X273475Y144815D01*
X273275D01*
X272942D02*
X273075D01*
X273142Y144882D01*
Y145015D01*
X273075Y145082D01*
X272942D01*
X272875Y145015D01*
Y144948D01*
X273142D01*
X280939Y144232D02*
Y144032D01*
X280872Y143965D01*
X280806Y144032D01*
X280739Y143965D01*
X280672Y144032D01*
Y144232D01*
X280539D02*
Y144032D01*
X280473Y143965D01*
X280406Y144032D01*
X280339Y143965D01*
X280273Y144032D01*
Y144232D01*
X280139D02*
Y144032D01*
X280073Y143965D01*
X280006Y144032D01*
X279939Y143965D01*
X279873Y144032D01*
Y144232D01*
X279739Y143965D02*
Y144032D01*
X279673D01*
Y143965D01*
X279739D01*
X279406Y143832D02*
Y144232D01*
X279206D01*
X279140Y144165D01*
Y144032D01*
X279206Y143965D01*
X279406D01*
X279006Y144232D02*
Y143965D01*
Y144098D01*
X278940Y144165D01*
X278873Y144232D01*
X278806D01*
X278540Y143965D02*
X278407D01*
X278340Y144032D01*
Y144165D01*
X278407Y144232D01*
X278540D01*
X278606Y144165D01*
Y144032D01*
X278540Y143965D01*
X278207Y143832D02*
X278140D01*
X278073Y143898D01*
Y144232D01*
X277607Y143965D02*
X277740D01*
X277807Y144032D01*
Y144165D01*
X277740Y144232D01*
X277607D01*
X277540Y144165D01*
Y144098D01*
X277807D01*
X277140Y144232D02*
X277340D01*
X277407Y144165D01*
Y144032D01*
X277340Y143965D01*
X277140D01*
X276940Y144298D02*
Y144232D01*
X277007D01*
X276874D01*
X276940D01*
Y144032D01*
X276874Y143965D01*
X276674Y144232D02*
X276540Y143965D01*
X276407Y144232D01*
X276274Y144365D02*
Y143965D01*
X276074D01*
X276007Y144032D01*
Y144098D01*
Y144165D01*
X276074Y144232D01*
X276274D01*
X275874Y143965D02*
Y144032D01*
X275807D01*
Y143965D01*
X275874D01*
X275274Y144232D02*
X275474D01*
X275541Y144165D01*
Y144032D01*
X275474Y143965D01*
X275274D01*
X275074D02*
X274941D01*
X274874Y144032D01*
Y144165D01*
X274941Y144232D01*
X275074D01*
X275141Y144165D01*
Y144032D01*
X275074Y143965D01*
X274741D02*
Y144232D01*
X274674D01*
X274608Y144165D01*
Y143965D01*
Y144165D01*
X274541Y144232D01*
X274474Y144165D01*
Y143965D01*
M02*
