G04*
G04 #@! TF.GenerationSoftware,Altium Limited,Altium Designer,20.2.6 (244)*
G04*
G04 Layer_Color=8388736*
%FSAX24Y24*%
%MOIN*%
G70*
G04*
G04 #@! TF.SameCoordinates,F670C94F-DB3F-48BB-9EAE-642EF2030223*
G04*
G04*
G04 #@! TF.FilePolarity,Negative*
G04*
G01*
G75*
%ADD16R,0.0671X0.0671*%
%ADD17C,0.0671*%
%ADD18R,0.0611X0.0611*%
%ADD19C,0.0611*%
%ADD20R,0.0592X0.0592*%
%ADD21C,0.0592*%
%ADD22C,0.0580*%
%ADD23C,0.0600*%
%ADD24R,0.0600X0.0600*%
%ADD25R,0.0725X0.0725*%
%ADD26C,0.0725*%
D16*
X269833Y133952D02*
D03*
D17*
X268833D02*
D03*
X267833D02*
D03*
X266833D02*
D03*
X265833D02*
D03*
X264833D02*
D03*
X263833D02*
D03*
X262833D02*
D03*
X264833Y130952D02*
D03*
X265833D02*
D03*
X260833D02*
D03*
X261833D02*
D03*
X262833D02*
D03*
X263833D02*
D03*
X266833D02*
D03*
X267833D02*
D03*
X268833D02*
D03*
X269833D02*
D03*
X260833Y133952D02*
D03*
X261833D02*
D03*
D18*
X253939Y144827D02*
D03*
Y137077D02*
D03*
D19*
X252939Y144827D02*
D03*
X251939D02*
D03*
X250939D02*
D03*
X249939D02*
D03*
X248939D02*
D03*
X247939D02*
D03*
X246939D02*
D03*
X245939D02*
D03*
X244939D02*
D03*
X243939D02*
D03*
X242939D02*
D03*
X241939D02*
D03*
X240939D02*
D03*
X239939D02*
D03*
X238939D02*
D03*
Y138702D02*
D03*
X239939D02*
D03*
X240939D02*
D03*
X241939D02*
D03*
X242939D02*
D03*
X243939D02*
D03*
X244939D02*
D03*
X245939D02*
D03*
X246939D02*
D03*
X247939D02*
D03*
X248939D02*
D03*
X249939D02*
D03*
X250939D02*
D03*
X251939D02*
D03*
X252939D02*
D03*
X253939D02*
D03*
X252939Y137077D02*
D03*
X251939D02*
D03*
X250939D02*
D03*
X249939D02*
D03*
X248939D02*
D03*
X247939D02*
D03*
X246939D02*
D03*
X245939D02*
D03*
X244939D02*
D03*
X243939D02*
D03*
X242939D02*
D03*
X241939D02*
D03*
X240939D02*
D03*
X239939D02*
D03*
X238939D02*
D03*
Y130952D02*
D03*
X239939D02*
D03*
X240939D02*
D03*
X241939D02*
D03*
X242939D02*
D03*
X243939D02*
D03*
X244939D02*
D03*
X245939D02*
D03*
X246939D02*
D03*
X247939D02*
D03*
X248939D02*
D03*
X249939D02*
D03*
X250939D02*
D03*
X251939D02*
D03*
X252939D02*
D03*
X253939D02*
D03*
D20*
X255804Y142276D02*
D03*
X271639Y132963D02*
D03*
X255804Y134526D02*
D03*
X274680Y140476D02*
D03*
D21*
X255804Y141276D02*
D03*
X271639Y131963D02*
D03*
X255804Y133526D02*
D03*
X274680Y139476D02*
D03*
D22*
X278639Y131615D02*
D03*
X277639D02*
D03*
D23*
X260689Y136965D02*
D03*
X261689D02*
D03*
X262689D02*
D03*
X263689D02*
D03*
X264689D02*
D03*
X265689D02*
D03*
X266689D02*
D03*
X267689D02*
D03*
X268689D02*
D03*
X269689D02*
D03*
X270689D02*
D03*
X271689D02*
D03*
X260689Y142965D02*
D03*
X261689D02*
D03*
X262689D02*
D03*
X263689D02*
D03*
X264689D02*
D03*
X265689D02*
D03*
X266689D02*
D03*
X267689D02*
D03*
X268689D02*
D03*
X269689D02*
D03*
X270689D02*
D03*
D24*
X271689D02*
D03*
D25*
X279639Y128865D02*
D03*
D26*
Y126955D02*
D03*
X278639Y128865D02*
D03*
Y126955D02*
D03*
X277639Y128865D02*
D03*
Y126955D02*
D03*
X276639Y128865D02*
D03*
Y126955D02*
D03*
X275639Y128865D02*
D03*
Y126955D02*
D03*
X274639Y128865D02*
D03*
Y126955D02*
D03*
X273639Y128865D02*
D03*
Y126955D02*
D03*
X272639Y128865D02*
D03*
X272639Y126955D02*
D03*
X271639Y128865D02*
D03*
Y126955D02*
D03*
X270639Y128865D02*
D03*
Y126955D02*
D03*
X269639Y128865D02*
D03*
Y126955D02*
D03*
X268639Y128865D02*
D03*
Y126955D02*
D03*
X267639Y128865D02*
D03*
Y126955D02*
D03*
X266639Y128865D02*
D03*
Y126955D02*
D03*
X265639Y128865D02*
D03*
Y126955D02*
D03*
X264639Y128865D02*
D03*
Y126955D02*
D03*
X263639Y128865D02*
D03*
X263639Y126955D02*
D03*
X262639Y128865D02*
D03*
Y126955D02*
D03*
X261639Y128865D02*
D03*
Y126955D02*
D03*
X260639Y128865D02*
D03*
Y126955D02*
D03*
X259639Y128865D02*
D03*
Y126955D02*
D03*
X258639Y128865D02*
D03*
Y126955D02*
D03*
X257639Y128865D02*
D03*
Y126955D02*
D03*
X256639Y128865D02*
D03*
Y126955D02*
D03*
X255639Y128865D02*
D03*
Y126955D02*
D03*
X254639Y128865D02*
D03*
X254639Y126955D02*
D03*
X253639Y128865D02*
D03*
Y126955D02*
D03*
X252639Y128865D02*
D03*
Y126955D02*
D03*
X251639Y128865D02*
D03*
Y126955D02*
D03*
X250639Y128865D02*
D03*
Y126955D02*
D03*
X249639Y128865D02*
D03*
Y126955D02*
D03*
X248639Y128865D02*
D03*
Y126955D02*
D03*
X247639Y128865D02*
D03*
Y126955D02*
D03*
X246639Y128865D02*
D03*
Y126955D02*
D03*
X245639Y128865D02*
D03*
Y126955D02*
D03*
X244639Y128865D02*
D03*
Y126955D02*
D03*
X243639Y128865D02*
D03*
Y126955D02*
D03*
X242639Y128865D02*
D03*
Y126955D02*
D03*
X241639Y128865D02*
D03*
Y126955D02*
D03*
X240639Y128865D02*
D03*
X240639Y126955D02*
D03*
X239639Y128865D02*
D03*
Y126955D02*
D03*
X238639Y128865D02*
D03*
Y126955D02*
D03*
X237639Y128865D02*
D03*
Y126955D02*
D03*
M02*
