G04*
G04 #@! TF.GenerationSoftware,Altium Limited,Altium Designer,20.2.6 (244)*
G04*
G04 Layer_Color=65535*
%FSAX24Y24*%
%MOIN*%
G70*
G04*
G04 #@! TF.SameCoordinates,F670C94F-DB3F-48BB-9EAE-642EF2030223*
G04*
G04*
G04 #@! TF.FilePolarity,Positive*
G04*
G01*
G75*
%ADD10C,0.0079*%
%ADD11C,0.0098*%
%ADD12C,0.0100*%
%ADD13C,0.0236*%
%ADD14C,0.0050*%
%ADD15C,0.0080*%
G36*
X276467Y145223D02*
Y145209D01*
X276495D01*
Y145196D01*
Y145182D01*
Y145168D01*
Y145154D01*
X276523D01*
Y145140D01*
Y145126D01*
Y145112D01*
Y145099D01*
Y145085D01*
Y145071D01*
X276551D01*
Y145057D01*
Y145043D01*
Y145029D01*
Y145015D01*
X276578D01*
Y145002D01*
Y144988D01*
Y144974D01*
Y144960D01*
Y144946D01*
Y144932D01*
Y144918D01*
Y144905D01*
X276606D01*
Y144891D01*
Y144877D01*
Y144863D01*
Y144849D01*
Y144835D01*
Y144822D01*
Y144808D01*
Y144794D01*
Y144780D01*
Y144766D01*
Y144752D01*
Y144738D01*
X276634D01*
Y144725D01*
Y144711D01*
Y144697D01*
Y144683D01*
Y144669D01*
Y144655D01*
Y144641D01*
Y144628D01*
X276661D01*
Y144614D01*
Y144600D01*
Y144586D01*
Y144572D01*
X276634D01*
Y144558D01*
Y144544D01*
X276606D01*
Y144531D01*
Y144517D01*
X276523D01*
Y144531D01*
Y144544D01*
Y144558D01*
Y144572D01*
Y144586D01*
Y144600D01*
X276495D01*
Y144614D01*
Y144628D01*
Y144641D01*
Y144655D01*
Y144669D01*
Y144683D01*
Y144697D01*
Y144711D01*
Y144725D01*
Y144738D01*
X276467D01*
Y144752D01*
Y144766D01*
Y144780D01*
Y144794D01*
X276440D01*
Y144808D01*
Y144822D01*
Y144835D01*
Y144849D01*
Y144863D01*
Y144877D01*
Y144891D01*
Y144905D01*
X276412D01*
Y144918D01*
Y144932D01*
Y144946D01*
Y144960D01*
X276301D01*
Y144946D01*
Y144932D01*
Y144918D01*
Y144905D01*
Y144891D01*
Y144877D01*
Y144863D01*
Y144849D01*
Y144835D01*
Y144822D01*
Y144808D01*
Y144794D01*
X276329D01*
Y144780D01*
Y144766D01*
Y144752D01*
Y144738D01*
Y144725D01*
Y144711D01*
Y144697D01*
Y144683D01*
Y144669D01*
Y144655D01*
X276357D01*
Y144641D01*
Y144628D01*
Y144614D01*
Y144600D01*
Y144586D01*
Y144572D01*
X276384D01*
Y144558D01*
Y144544D01*
Y144531D01*
Y144517D01*
Y144503D01*
Y144489D01*
Y144475D01*
Y144461D01*
X276412D01*
Y144448D01*
Y144434D01*
Y144420D01*
Y144406D01*
Y144392D01*
Y144378D01*
Y144364D01*
Y144351D01*
Y144337D01*
Y144323D01*
X276440D01*
Y144309D01*
Y144295D01*
Y144281D01*
Y144267D01*
Y144254D01*
Y144240D01*
Y144226D01*
Y144212D01*
X276467D01*
Y144198D01*
Y144184D01*
Y144171D01*
Y144157D01*
Y144143D01*
Y144129D01*
X276495D01*
Y144115D01*
Y144101D01*
Y144087D01*
Y144074D01*
Y144060D01*
Y144046D01*
Y144032D01*
Y144018D01*
Y144004D01*
Y143990D01*
Y143977D01*
Y143963D01*
X276523D01*
Y143949D01*
Y143935D01*
Y143921D01*
Y143907D01*
Y143893D01*
Y143880D01*
X276551D01*
Y143866D01*
Y143852D01*
Y143838D01*
Y143824D01*
Y143810D01*
Y143797D01*
Y143783D01*
Y143769D01*
Y143755D01*
Y143741D01*
X276578D01*
Y143727D01*
Y143713D01*
Y143700D01*
Y143686D01*
Y143672D01*
Y143658D01*
X276606D01*
Y143644D01*
Y143630D01*
Y143616D01*
Y143603D01*
Y143589D01*
Y143575D01*
Y143561D01*
Y143547D01*
X276634D01*
Y143533D01*
Y143520D01*
X276661D01*
Y143506D01*
Y143492D01*
X276744D01*
Y143506D01*
Y143520D01*
X276772D01*
Y143533D01*
Y143547D01*
Y143561D01*
Y143575D01*
Y143589D01*
Y143603D01*
Y143616D01*
Y143630D01*
X276744D01*
Y143644D01*
Y143658D01*
Y143672D01*
Y143686D01*
Y143700D01*
Y143713D01*
X276717D01*
Y143727D01*
Y143741D01*
Y143755D01*
Y143769D01*
Y143783D01*
Y143797D01*
X276689D01*
Y143810D01*
Y143824D01*
Y143838D01*
Y143852D01*
Y143866D01*
Y143880D01*
Y143893D01*
Y143907D01*
Y143921D01*
Y143935D01*
Y143949D01*
Y143963D01*
Y143977D01*
Y143990D01*
Y144004D01*
Y144018D01*
X276717D01*
Y144032D01*
Y144046D01*
X276772D01*
Y144032D01*
Y144018D01*
X276800D01*
Y144004D01*
Y143990D01*
Y143977D01*
Y143963D01*
X276828D01*
Y143949D01*
Y143935D01*
Y143921D01*
Y143907D01*
Y143893D01*
Y143880D01*
Y143866D01*
Y143852D01*
X276855D01*
Y143838D01*
Y143824D01*
Y143810D01*
Y143797D01*
Y143783D01*
Y143769D01*
X276883D01*
Y143755D01*
Y143741D01*
Y143727D01*
Y143713D01*
Y143700D01*
Y143686D01*
Y143672D01*
Y143658D01*
Y143644D01*
Y143630D01*
X276911D01*
Y143616D01*
Y143603D01*
Y143589D01*
Y143575D01*
Y143561D01*
Y143547D01*
Y143533D01*
Y143520D01*
Y143506D01*
Y143492D01*
Y143478D01*
Y143464D01*
Y143450D01*
Y143436D01*
Y143423D01*
Y143409D01*
Y143395D01*
Y143381D01*
X276883D01*
Y143367D01*
Y143353D01*
X276855D01*
Y143339D01*
Y143326D01*
Y143312D01*
Y143298D01*
X276828D01*
Y143284D01*
Y143270D01*
X276772D01*
Y143256D01*
Y143242D01*
X276606D01*
Y143256D01*
Y143270D01*
X276578D01*
Y143284D01*
Y143298D01*
X276551D01*
Y143312D01*
Y143326D01*
X276523D01*
Y143339D01*
Y143353D01*
X276495D01*
Y143367D01*
Y143381D01*
Y143395D01*
Y143409D01*
X276467D01*
Y143423D01*
Y143436D01*
Y143450D01*
Y143464D01*
X276440D01*
Y143478D01*
Y143492D01*
Y143506D01*
Y143520D01*
Y143533D01*
Y143547D01*
Y143561D01*
Y143575D01*
X276412D01*
Y143589D01*
Y143603D01*
Y143616D01*
Y143630D01*
Y143644D01*
Y143658D01*
Y143672D01*
Y143686D01*
X276384D01*
Y143700D01*
Y143713D01*
Y143727D01*
Y143741D01*
Y143755D01*
Y143769D01*
Y143783D01*
Y143797D01*
X276357D01*
Y143810D01*
Y143824D01*
Y143838D01*
Y143852D01*
X276329D01*
Y143866D01*
Y143880D01*
Y143893D01*
Y143907D01*
Y143921D01*
Y143935D01*
Y143949D01*
Y143963D01*
X276301D01*
Y143977D01*
Y143990D01*
Y144004D01*
Y144018D01*
Y144032D01*
Y144046D01*
Y144060D01*
Y144074D01*
X276274D01*
Y144087D01*
Y144101D01*
Y144115D01*
Y144129D01*
Y144143D01*
Y144157D01*
Y144171D01*
Y144184D01*
X276246D01*
Y144198D01*
Y144212D01*
Y144226D01*
Y144240D01*
Y144254D01*
Y144267D01*
Y144281D01*
Y144295D01*
X276218D01*
Y144309D01*
Y144323D01*
Y144337D01*
Y144351D01*
Y144364D01*
Y144378D01*
Y144392D01*
Y144406D01*
X276190D01*
Y144420D01*
Y144434D01*
Y144448D01*
Y144461D01*
Y144475D01*
Y144489D01*
Y144503D01*
Y144517D01*
X276163D01*
Y144531D01*
Y144544D01*
Y144558D01*
Y144572D01*
Y144586D01*
Y144600D01*
Y144614D01*
Y144628D01*
X276135D01*
Y144641D01*
Y144655D01*
Y144669D01*
Y144683D01*
Y144697D01*
Y144711D01*
Y144725D01*
Y144738D01*
Y144752D01*
Y144766D01*
X276107D01*
Y144780D01*
Y144794D01*
Y144808D01*
Y144822D01*
Y144835D01*
Y144849D01*
Y144863D01*
Y144877D01*
Y144891D01*
Y144905D01*
X276080D01*
Y144918D01*
Y144932D01*
Y144946D01*
Y144960D01*
Y144974D01*
Y144988D01*
Y145002D01*
Y145015D01*
X276107D01*
Y145029D01*
Y145043D01*
Y145057D01*
Y145071D01*
Y145085D01*
Y145099D01*
Y145112D01*
Y145126D01*
X276135D01*
Y145140D01*
Y145154D01*
X276163D01*
Y145168D01*
Y145182D01*
X276218D01*
Y145196D01*
Y145209D01*
X276329D01*
Y145196D01*
Y145182D01*
X276384D01*
Y145196D01*
Y145209D01*
X276412D01*
Y145223D01*
Y145237D01*
X276467D01*
Y145223D01*
D02*
G37*
G36*
X277686Y145334D02*
Y145320D01*
X277714D01*
Y145306D01*
Y145292D01*
Y145279D01*
Y145265D01*
Y145251D01*
Y145237D01*
Y145223D01*
Y145209D01*
Y145196D01*
Y145182D01*
X277742D01*
Y145168D01*
Y145154D01*
Y145140D01*
Y145126D01*
Y145112D01*
Y145099D01*
Y145085D01*
Y145071D01*
Y145057D01*
Y145043D01*
Y145029D01*
Y145015D01*
X277769D01*
Y145002D01*
Y144988D01*
Y144974D01*
Y144960D01*
Y144946D01*
Y144932D01*
Y144918D01*
Y144905D01*
Y144891D01*
Y144877D01*
Y144863D01*
Y144849D01*
Y144835D01*
Y144822D01*
Y144808D01*
Y144794D01*
Y144780D01*
Y144766D01*
X277797D01*
Y144752D01*
Y144738D01*
Y144725D01*
Y144711D01*
Y144697D01*
Y144683D01*
Y144669D01*
Y144655D01*
Y144641D01*
Y144628D01*
Y144614D01*
Y144600D01*
Y144586D01*
Y144572D01*
Y144558D01*
Y144544D01*
Y144531D01*
Y144517D01*
X277825D01*
Y144503D01*
Y144489D01*
Y144475D01*
Y144461D01*
Y144448D01*
Y144434D01*
Y144420D01*
Y144406D01*
Y144392D01*
Y144378D01*
Y144364D01*
Y144351D01*
Y144337D01*
Y144323D01*
Y144309D01*
Y144295D01*
Y144281D01*
Y144267D01*
Y144254D01*
Y144240D01*
Y144226D01*
Y144212D01*
Y144198D01*
Y144184D01*
X277853D01*
Y144171D01*
Y144157D01*
Y144143D01*
Y144129D01*
Y144115D01*
Y144101D01*
Y144087D01*
Y144074D01*
Y144060D01*
Y144046D01*
Y144032D01*
Y144018D01*
Y144004D01*
Y143990D01*
Y143977D01*
Y143963D01*
Y143949D01*
Y143935D01*
X277880D01*
Y143921D01*
Y143907D01*
Y143893D01*
Y143880D01*
Y143866D01*
Y143852D01*
Y143838D01*
Y143824D01*
Y143810D01*
Y143797D01*
Y143783D01*
Y143769D01*
Y143755D01*
Y143741D01*
X277908D01*
Y143727D01*
Y143713D01*
Y143700D01*
Y143686D01*
Y143672D01*
Y143658D01*
Y143644D01*
Y143630D01*
Y143616D01*
Y143603D01*
X277936D01*
Y143589D01*
Y143575D01*
Y143561D01*
Y143547D01*
Y143533D01*
Y143520D01*
Y143506D01*
Y143492D01*
Y143478D01*
Y143464D01*
Y143450D01*
Y143436D01*
Y143423D01*
Y143409D01*
X277825D01*
Y143395D01*
Y143381D01*
X277686D01*
Y143395D01*
Y143409D01*
Y143423D01*
Y143436D01*
Y143450D01*
Y143464D01*
Y143478D01*
Y143492D01*
Y143506D01*
Y143520D01*
Y143533D01*
Y143547D01*
Y143561D01*
Y143575D01*
X277714D01*
Y143589D01*
Y143603D01*
Y143616D01*
Y143630D01*
Y143644D01*
Y143658D01*
Y143672D01*
Y143686D01*
Y143700D01*
Y143713D01*
Y143727D01*
Y143741D01*
Y143755D01*
Y143769D01*
Y143783D01*
Y143797D01*
Y143810D01*
Y143824D01*
X277686D01*
Y143838D01*
Y143852D01*
Y143866D01*
Y143880D01*
X277548D01*
Y143866D01*
Y143852D01*
Y143838D01*
Y143824D01*
Y143810D01*
Y143797D01*
Y143783D01*
Y143769D01*
X277520D01*
Y143755D01*
Y143741D01*
Y143727D01*
Y143713D01*
Y143700D01*
Y143686D01*
Y143672D01*
Y143658D01*
Y143644D01*
Y143630D01*
Y143616D01*
Y143603D01*
X277548D01*
Y143589D01*
Y143575D01*
X277576D01*
Y143561D01*
Y143547D01*
Y143533D01*
Y143520D01*
Y143506D01*
Y143492D01*
Y143478D01*
Y143464D01*
Y143450D01*
Y143436D01*
Y143423D01*
Y143409D01*
X277548D01*
Y143395D01*
Y143381D01*
X277299D01*
Y143395D01*
Y143409D01*
Y143423D01*
Y143436D01*
Y143450D01*
Y143464D01*
Y143478D01*
Y143492D01*
Y143506D01*
Y143520D01*
Y143533D01*
Y143547D01*
Y143561D01*
Y143575D01*
X277326D01*
Y143589D01*
Y143603D01*
X277354D01*
Y143616D01*
Y143630D01*
Y143644D01*
Y143658D01*
Y143672D01*
Y143686D01*
Y143700D01*
Y143713D01*
Y143727D01*
Y143741D01*
Y143755D01*
Y143769D01*
Y143783D01*
Y143797D01*
Y143810D01*
Y143824D01*
Y143838D01*
Y143852D01*
X277382D01*
Y143866D01*
Y143880D01*
Y143893D01*
Y143907D01*
Y143921D01*
Y143935D01*
Y143949D01*
Y143963D01*
Y143977D01*
Y143990D01*
Y144004D01*
Y144018D01*
Y144032D01*
Y144046D01*
Y144060D01*
Y144074D01*
Y144087D01*
Y144101D01*
Y144115D01*
Y144129D01*
Y144143D01*
Y144157D01*
Y144171D01*
Y144184D01*
X277409D01*
Y144198D01*
Y144212D01*
Y144226D01*
Y144240D01*
Y144254D01*
Y144267D01*
Y144281D01*
Y144295D01*
Y144309D01*
Y144323D01*
Y144337D01*
Y144351D01*
Y144364D01*
Y144378D01*
Y144392D01*
Y144406D01*
Y144420D01*
Y144434D01*
Y144448D01*
Y144461D01*
Y144475D01*
Y144489D01*
Y144503D01*
Y144517D01*
X277437D01*
Y144531D01*
Y144544D01*
Y144558D01*
Y144572D01*
Y144586D01*
Y144600D01*
Y144614D01*
Y144628D01*
Y144641D01*
Y144655D01*
Y144669D01*
Y144683D01*
Y144697D01*
Y144711D01*
Y144725D01*
Y144738D01*
Y144752D01*
Y144766D01*
Y144780D01*
Y144794D01*
Y144808D01*
Y144822D01*
X277465D01*
Y144835D01*
Y144849D01*
Y144863D01*
Y144877D01*
Y144891D01*
Y144905D01*
Y144918D01*
Y144932D01*
Y144946D01*
Y144960D01*
Y144974D01*
Y144988D01*
Y145002D01*
Y145015D01*
Y145029D01*
Y145043D01*
Y145057D01*
Y145071D01*
X277492D01*
Y145085D01*
Y145099D01*
Y145112D01*
Y145126D01*
Y145140D01*
Y145154D01*
Y145168D01*
Y145182D01*
Y145196D01*
Y145209D01*
Y145223D01*
Y145237D01*
Y145251D01*
Y145265D01*
Y145279D01*
Y145292D01*
X277520D01*
Y145306D01*
Y145320D01*
Y145334D01*
Y145348D01*
X277686D01*
Y145334D01*
D02*
G37*
G36*
X278822Y145223D02*
Y145209D01*
X278878D01*
Y145196D01*
Y145182D01*
X279016D01*
Y145168D01*
Y145154D01*
X279071D01*
Y145140D01*
Y145126D01*
X279155D01*
Y145112D01*
Y145099D01*
Y145085D01*
Y145071D01*
X279182D01*
Y145057D01*
Y145043D01*
Y145029D01*
Y145015D01*
X279210D01*
Y145002D01*
Y144988D01*
Y144974D01*
Y144960D01*
X279182D01*
Y144946D01*
Y144932D01*
Y144918D01*
Y144905D01*
Y144891D01*
Y144877D01*
Y144863D01*
Y144849D01*
Y144835D01*
Y144822D01*
Y144808D01*
Y144794D01*
Y144780D01*
Y144766D01*
Y144752D01*
Y144738D01*
X279155D01*
Y144725D01*
Y144711D01*
Y144697D01*
Y144683D01*
X279127D01*
Y144669D01*
Y144655D01*
Y144641D01*
Y144628D01*
Y144614D01*
Y144600D01*
Y144586D01*
Y144572D01*
Y144558D01*
Y144544D01*
Y144531D01*
Y144517D01*
X279099D01*
Y144503D01*
Y144489D01*
Y144475D01*
Y144461D01*
Y144448D01*
Y144434D01*
Y144420D01*
Y144406D01*
X279071D01*
Y144392D01*
Y144378D01*
Y144364D01*
Y144351D01*
Y144337D01*
Y144323D01*
Y144309D01*
Y144295D01*
X279044D01*
Y144281D01*
Y144267D01*
Y144254D01*
Y144240D01*
Y144226D01*
Y144212D01*
Y144198D01*
Y144184D01*
Y144171D01*
Y144157D01*
Y144143D01*
Y144129D01*
X279016D01*
Y144115D01*
Y144101D01*
Y144087D01*
Y144074D01*
Y144060D01*
Y144046D01*
Y144032D01*
Y144018D01*
X278988D01*
Y144004D01*
Y143990D01*
Y143977D01*
Y143963D01*
Y143949D01*
Y143935D01*
Y143921D01*
Y143907D01*
X278961D01*
Y143893D01*
Y143880D01*
Y143866D01*
Y143852D01*
Y143838D01*
Y143824D01*
Y143810D01*
Y143797D01*
Y143783D01*
Y143769D01*
Y143755D01*
Y143741D01*
X278933D01*
Y143727D01*
Y143713D01*
Y143700D01*
Y143686D01*
X278905D01*
Y143672D01*
Y143658D01*
Y143644D01*
Y143630D01*
Y143616D01*
Y143603D01*
Y143589D01*
Y143575D01*
X278878D01*
Y143561D01*
Y143547D01*
Y143533D01*
Y143520D01*
X278850D01*
Y143506D01*
Y143492D01*
Y143478D01*
Y143464D01*
Y143450D01*
Y143436D01*
Y143423D01*
Y143409D01*
X278822D01*
Y143395D01*
Y143381D01*
Y143367D01*
Y143353D01*
Y143339D01*
Y143326D01*
X278794D01*
Y143312D01*
Y143298D01*
X278767D01*
Y143284D01*
Y143270D01*
X278490D01*
Y143284D01*
Y143298D01*
X278379D01*
Y143312D01*
Y143326D01*
X278268D01*
Y143339D01*
Y143353D01*
Y143367D01*
Y143381D01*
Y143395D01*
Y143409D01*
Y143423D01*
Y143436D01*
X278296D01*
Y143450D01*
Y143464D01*
Y143478D01*
Y143492D01*
Y143506D01*
Y143520D01*
X278351D01*
Y143533D01*
Y143547D01*
X278379D01*
Y143561D01*
Y143575D01*
Y143589D01*
Y143603D01*
Y143616D01*
Y143630D01*
Y143644D01*
Y143658D01*
Y143672D01*
Y143686D01*
X278407D01*
Y143700D01*
Y143713D01*
Y143727D01*
Y143741D01*
Y143755D01*
Y143769D01*
Y143783D01*
Y143797D01*
X278434D01*
Y143810D01*
Y143824D01*
Y143838D01*
Y143852D01*
Y143866D01*
Y143880D01*
Y143893D01*
Y143907D01*
X278462D01*
Y143921D01*
Y143935D01*
Y143949D01*
Y143963D01*
Y143977D01*
Y143990D01*
Y144004D01*
Y144018D01*
Y144032D01*
Y144046D01*
X278490D01*
Y144060D01*
Y144074D01*
Y144087D01*
Y144101D01*
Y144115D01*
Y144129D01*
Y144143D01*
Y144157D01*
Y144171D01*
Y144184D01*
X278517D01*
Y144198D01*
Y144212D01*
Y144226D01*
Y144240D01*
Y144254D01*
Y144267D01*
Y144281D01*
Y144295D01*
X278545D01*
Y144309D01*
Y144323D01*
Y144337D01*
Y144351D01*
Y144364D01*
Y144378D01*
Y144392D01*
Y144406D01*
X278573D01*
Y144420D01*
Y144434D01*
Y144448D01*
Y144461D01*
Y144475D01*
Y144489D01*
Y144503D01*
Y144517D01*
X278601D01*
Y144531D01*
Y144544D01*
Y144558D01*
Y144572D01*
Y144586D01*
Y144600D01*
Y144614D01*
Y144628D01*
Y144641D01*
Y144655D01*
X278628D01*
Y144669D01*
Y144683D01*
Y144697D01*
Y144711D01*
Y144725D01*
Y144738D01*
X278656D01*
Y144752D01*
Y144766D01*
Y144780D01*
Y144794D01*
Y144808D01*
Y144822D01*
Y144835D01*
Y144849D01*
Y144863D01*
Y144877D01*
X278684D01*
Y144891D01*
Y144905D01*
Y144918D01*
Y144932D01*
Y144946D01*
Y144960D01*
Y144974D01*
Y144988D01*
X278711D01*
Y145002D01*
Y145015D01*
Y145029D01*
Y145043D01*
Y145057D01*
Y145071D01*
X278684D01*
Y145085D01*
Y145099D01*
Y145112D01*
Y145126D01*
Y145140D01*
Y145154D01*
Y145168D01*
Y145182D01*
X278711D01*
Y145196D01*
Y145209D01*
Y145223D01*
Y145237D01*
X278822D01*
Y145223D01*
D02*
G37*
G36*
X275387Y144808D02*
Y144794D01*
X275442D01*
Y144780D01*
Y144766D01*
X275470D01*
Y144752D01*
Y144738D01*
X275498D01*
Y144725D01*
Y144711D01*
Y144697D01*
Y144683D01*
X275526D01*
Y144669D01*
Y144655D01*
Y144641D01*
Y144628D01*
X275553D01*
Y144614D01*
Y144600D01*
X275581D01*
Y144586D01*
Y144572D01*
Y144558D01*
Y144544D01*
X275609D01*
Y144531D01*
Y144517D01*
Y144503D01*
Y144489D01*
X275636D01*
Y144475D01*
Y144461D01*
X275664D01*
Y144448D01*
Y144434D01*
Y144420D01*
Y144406D01*
X275692D01*
Y144392D01*
Y144378D01*
Y144364D01*
Y144351D01*
Y144337D01*
Y144323D01*
X275720D01*
Y144309D01*
Y144295D01*
X275747D01*
Y144281D01*
Y144267D01*
Y144254D01*
Y144240D01*
X275775D01*
Y144226D01*
Y144212D01*
Y144198D01*
Y144184D01*
X275803D01*
Y144171D01*
Y144157D01*
Y144143D01*
Y144129D01*
X275830D01*
Y144115D01*
Y144101D01*
Y144087D01*
Y144074D01*
Y144060D01*
Y144046D01*
Y144032D01*
Y144018D01*
X275803D01*
Y144004D01*
Y143990D01*
Y143977D01*
Y143963D01*
X275886D01*
Y143949D01*
Y143935D01*
Y143921D01*
Y143907D01*
X275941D01*
Y143893D01*
Y143880D01*
Y143866D01*
Y143852D01*
X275969D01*
Y143838D01*
Y143824D01*
X275997D01*
Y143810D01*
Y143797D01*
Y143783D01*
Y143769D01*
X276024D01*
Y143755D01*
Y143741D01*
Y143727D01*
Y143713D01*
Y143700D01*
Y143686D01*
X276052D01*
Y143672D01*
Y143658D01*
X276080D01*
Y143644D01*
Y143630D01*
Y143616D01*
Y143603D01*
X276107D01*
Y143589D01*
Y143575D01*
Y143561D01*
Y143547D01*
X276135D01*
Y143533D01*
Y143520D01*
Y143506D01*
Y143492D01*
Y143478D01*
Y143464D01*
X276163D01*
Y143450D01*
Y143436D01*
Y143423D01*
Y143409D01*
X276190D01*
Y143395D01*
Y143381D01*
X276218D01*
Y143367D01*
Y143353D01*
X276246D01*
Y143339D01*
Y143326D01*
X276274D01*
Y143312D01*
Y143298D01*
Y143284D01*
Y143270D01*
X276301D01*
Y143256D01*
Y143242D01*
Y143229D01*
Y143215D01*
Y143201D01*
Y143187D01*
Y143173D01*
Y143159D01*
X276274D01*
Y143146D01*
Y143132D01*
X276135D01*
Y143146D01*
Y143159D01*
X276107D01*
Y143173D01*
Y143187D01*
Y143201D01*
Y143215D01*
X276080D01*
Y143229D01*
Y143242D01*
Y143256D01*
Y143270D01*
X276052D01*
Y143284D01*
Y143298D01*
Y143312D01*
Y143326D01*
X276024D01*
Y143339D01*
Y143353D01*
Y143367D01*
Y143381D01*
X275997D01*
Y143395D01*
Y143409D01*
X275969D01*
Y143423D01*
Y143436D01*
Y143450D01*
Y143464D01*
Y143478D01*
Y143492D01*
X275941D01*
Y143506D01*
Y143520D01*
Y143533D01*
Y143547D01*
X275913D01*
Y143561D01*
Y143575D01*
X275886D01*
Y143589D01*
Y143603D01*
Y143616D01*
Y143630D01*
X275858D01*
Y143644D01*
Y143658D01*
Y143672D01*
Y143686D01*
X275830D01*
Y143700D01*
Y143713D01*
Y143727D01*
Y143741D01*
X275803D01*
Y143755D01*
Y143769D01*
X275775D01*
Y143783D01*
Y143797D01*
X275664D01*
Y143783D01*
Y143769D01*
Y143755D01*
Y143741D01*
Y143727D01*
Y143713D01*
Y143700D01*
Y143686D01*
X275692D01*
Y143672D01*
Y143658D01*
Y143644D01*
Y143630D01*
X275720D01*
Y143616D01*
Y143603D01*
Y143589D01*
Y143575D01*
X275747D01*
Y143561D01*
Y143547D01*
Y143533D01*
Y143520D01*
X275775D01*
Y143506D01*
Y143492D01*
Y143478D01*
Y143464D01*
Y143450D01*
Y143436D01*
X275803D01*
Y143423D01*
Y143409D01*
X275830D01*
Y143395D01*
Y143381D01*
Y143367D01*
Y143353D01*
X275858D01*
Y143339D01*
Y143326D01*
Y143312D01*
Y143298D01*
X275886D01*
Y143284D01*
Y143270D01*
Y143256D01*
Y143242D01*
X275913D01*
Y143229D01*
Y143215D01*
X275941D01*
Y143201D01*
Y143187D01*
X275997D01*
Y143173D01*
Y143159D01*
X276024D01*
Y143146D01*
Y143132D01*
X276052D01*
Y143118D01*
Y143104D01*
Y143090D01*
Y143076D01*
Y143062D01*
Y143049D01*
X276024D01*
Y143035D01*
Y143021D01*
X275997D01*
Y143007D01*
Y142993D01*
X275969D01*
Y142979D01*
Y142965D01*
X275941D01*
Y142952D01*
Y142938D01*
X275886D01*
Y142924D01*
Y142910D01*
X275775D01*
Y142924D01*
Y142938D01*
Y142952D01*
Y142965D01*
X275747D01*
Y142979D01*
Y142993D01*
Y143007D01*
Y143021D01*
X275720D01*
Y143035D01*
Y143049D01*
Y143062D01*
Y143076D01*
Y143090D01*
Y143104D01*
X275747D01*
Y143118D01*
Y143132D01*
Y143146D01*
Y143159D01*
X275720D01*
Y143173D01*
Y143187D01*
X275692D01*
Y143201D01*
Y143215D01*
Y143229D01*
Y143242D01*
X275664D01*
Y143256D01*
Y143270D01*
Y143284D01*
Y143298D01*
X275636D01*
Y143312D01*
Y143326D01*
Y143339D01*
Y143353D01*
X275609D01*
Y143367D01*
Y143381D01*
Y143395D01*
Y143409D01*
X275581D01*
Y143423D01*
Y143436D01*
Y143450D01*
Y143464D01*
X275553D01*
Y143478D01*
Y143492D01*
Y143506D01*
Y143520D01*
X275526D01*
Y143533D01*
Y143547D01*
Y143561D01*
Y143575D01*
X275498D01*
Y143589D01*
Y143603D01*
Y143616D01*
Y143630D01*
X275470D01*
Y143644D01*
Y143658D01*
Y143672D01*
Y143686D01*
X275442D01*
Y143700D01*
Y143713D01*
X275415D01*
Y143727D01*
Y143741D01*
Y143755D01*
Y143769D01*
X275387D01*
Y143783D01*
Y143797D01*
Y143810D01*
Y143824D01*
Y143838D01*
Y143852D01*
X275359D01*
Y143866D01*
Y143880D01*
X275332D01*
Y143893D01*
Y143907D01*
Y143921D01*
Y143935D01*
X275304D01*
Y143949D01*
Y143963D01*
X275276D01*
Y143977D01*
Y143990D01*
Y144004D01*
Y144018D01*
X275249D01*
Y144032D01*
Y144046D01*
Y144060D01*
Y144074D01*
Y144087D01*
Y144101D01*
X275221D01*
Y144115D01*
Y144129D01*
Y144143D01*
Y144157D01*
X275193D01*
Y144171D01*
Y144184D01*
X275165D01*
Y144198D01*
Y144212D01*
Y144226D01*
Y144240D01*
Y144254D01*
Y144267D01*
X275138D01*
Y144281D01*
Y144295D01*
Y144309D01*
Y144323D01*
Y144337D01*
Y144351D01*
X275082D01*
Y144364D01*
Y144378D01*
Y144392D01*
Y144406D01*
X275055D01*
Y144420D01*
Y144434D01*
Y144448D01*
Y144461D01*
X274999D01*
Y144475D01*
Y144489D01*
X274972D01*
Y144503D01*
Y144517D01*
Y144531D01*
Y144544D01*
X274944D01*
Y144558D01*
Y144572D01*
Y144586D01*
Y144600D01*
Y144614D01*
Y144628D01*
X274972D01*
Y144641D01*
Y144655D01*
Y144669D01*
Y144683D01*
X275027D01*
Y144697D01*
Y144711D01*
X275082D01*
Y144725D01*
Y144738D01*
X275165D01*
Y144752D01*
Y144766D01*
X275193D01*
Y144780D01*
Y144794D01*
X275304D01*
Y144808D01*
Y144822D01*
X275387D01*
Y144808D01*
D02*
G37*
G36*
X280013D02*
Y144794D01*
X280096D01*
Y144780D01*
Y144766D01*
X280124D01*
Y144752D01*
Y144738D01*
X280180D01*
Y144725D01*
Y144711D01*
X280207D01*
Y144697D01*
Y144683D01*
Y144669D01*
Y144655D01*
X280180D01*
Y144641D01*
Y144628D01*
X280152D01*
Y144614D01*
Y144600D01*
Y144586D01*
Y144572D01*
X280124D01*
Y144558D01*
Y144544D01*
Y144531D01*
Y144517D01*
X280069D01*
Y144503D01*
Y144489D01*
Y144475D01*
Y144461D01*
X280041D01*
Y144448D01*
Y144434D01*
Y144420D01*
Y144406D01*
X280013D01*
Y144392D01*
Y144378D01*
Y144364D01*
Y144351D01*
Y144337D01*
Y144323D01*
X279986D01*
Y144309D01*
Y144295D01*
X279958D01*
Y144281D01*
Y144267D01*
Y144254D01*
Y144240D01*
X279930D01*
Y144226D01*
Y144212D01*
Y144198D01*
Y144184D01*
Y144171D01*
Y144157D01*
X279903D01*
Y144143D01*
Y144129D01*
X279875D01*
Y144115D01*
Y144101D01*
Y144087D01*
Y144074D01*
Y144060D01*
Y144046D01*
X279847D01*
Y144032D01*
Y144018D01*
Y144004D01*
Y143990D01*
X279819D01*
Y143977D01*
Y143963D01*
Y143949D01*
Y143935D01*
X279792D01*
Y143921D01*
Y143907D01*
Y143893D01*
Y143880D01*
X279764D01*
Y143866D01*
Y143852D01*
Y143838D01*
Y143824D01*
Y143810D01*
Y143797D01*
X279736D01*
Y143783D01*
Y143769D01*
Y143755D01*
Y143741D01*
X279709D01*
Y143727D01*
Y143713D01*
X279681D01*
Y143700D01*
Y143686D01*
Y143672D01*
Y143658D01*
X279653D01*
Y143644D01*
Y143630D01*
Y143616D01*
Y143603D01*
Y143589D01*
Y143575D01*
X279626D01*
Y143561D01*
Y143547D01*
Y143533D01*
Y143520D01*
X279598D01*
Y143506D01*
Y143492D01*
X279570D01*
Y143478D01*
Y143464D01*
Y143450D01*
Y143436D01*
Y143423D01*
Y143409D01*
X279542D01*
Y143395D01*
Y143381D01*
X279515D01*
Y143367D01*
Y143353D01*
Y143339D01*
Y143326D01*
X279487D01*
Y143312D01*
Y143298D01*
Y143284D01*
Y143270D01*
X279459D01*
Y143256D01*
Y143242D01*
Y143229D01*
Y143215D01*
Y143201D01*
Y143187D01*
X279432D01*
Y143173D01*
Y143159D01*
Y143146D01*
Y143132D01*
Y143118D01*
Y143104D01*
Y143090D01*
Y143076D01*
X279404D01*
Y143062D01*
Y143049D01*
Y143035D01*
Y143021D01*
X279376D01*
Y143007D01*
Y142993D01*
Y142979D01*
Y142965D01*
X279321D01*
Y142979D01*
Y142993D01*
X279238D01*
Y143007D01*
Y143021D01*
X279182D01*
Y143035D01*
Y143049D01*
X279155D01*
Y143062D01*
Y143076D01*
X279099D01*
Y143090D01*
Y143104D01*
Y143118D01*
Y143132D01*
X279127D01*
Y143146D01*
Y143159D01*
Y143173D01*
Y143187D01*
X279155D01*
Y143201D01*
Y143215D01*
Y143229D01*
Y143242D01*
X279182D01*
Y143256D01*
Y143270D01*
Y143284D01*
Y143298D01*
X279238D01*
Y143312D01*
Y143326D01*
X279265D01*
Y143339D01*
Y143353D01*
Y143367D01*
Y143381D01*
X279293D01*
Y143395D01*
Y143409D01*
Y143423D01*
Y143436D01*
X279321D01*
Y143450D01*
Y143464D01*
Y143478D01*
Y143492D01*
Y143506D01*
Y143520D01*
X279349D01*
Y143533D01*
Y143547D01*
Y143561D01*
Y143575D01*
X279376D01*
Y143589D01*
Y143603D01*
Y143616D01*
Y143630D01*
X279404D01*
Y143644D01*
Y143658D01*
Y143672D01*
Y143686D01*
X279432D01*
Y143700D01*
Y143713D01*
Y143727D01*
Y143741D01*
X279459D01*
Y143755D01*
Y143769D01*
Y143783D01*
Y143797D01*
X279487D01*
Y143810D01*
Y143824D01*
Y143838D01*
Y143852D01*
Y143866D01*
Y143880D01*
X279515D01*
Y143893D01*
Y143907D01*
Y143921D01*
Y143935D01*
X279542D01*
Y143949D01*
Y143963D01*
Y143977D01*
Y143990D01*
X279570D01*
Y144004D01*
Y144018D01*
X279598D01*
Y144032D01*
Y144046D01*
Y144060D01*
Y144074D01*
X279626D01*
Y144087D01*
Y144101D01*
Y144115D01*
Y144129D01*
X279653D01*
Y144143D01*
Y144157D01*
Y144171D01*
Y144184D01*
X279681D01*
Y144198D01*
Y144212D01*
Y144226D01*
Y144240D01*
X279709D01*
Y144254D01*
Y144267D01*
Y144281D01*
Y144295D01*
X279736D01*
Y144309D01*
Y144323D01*
Y144337D01*
Y144351D01*
Y144364D01*
Y144378D01*
X279764D01*
Y144392D01*
Y144406D01*
Y144420D01*
Y144434D01*
X279792D01*
Y144448D01*
Y144461D01*
Y144475D01*
Y144489D01*
X279819D01*
Y144503D01*
Y144517D01*
Y144531D01*
Y144544D01*
X279847D01*
Y144558D01*
Y144572D01*
Y144586D01*
Y144600D01*
X279875D01*
Y144614D01*
Y144628D01*
Y144641D01*
Y144655D01*
X279847D01*
Y144669D01*
Y144683D01*
X279875D01*
Y144697D01*
Y144711D01*
Y144725D01*
Y144738D01*
X279903D01*
Y144752D01*
Y144766D01*
X279930D01*
Y144780D01*
Y144794D01*
Y144808D01*
Y144822D01*
X280013D01*
Y144808D01*
D02*
G37*
G36*
X278517Y142896D02*
Y142882D01*
X278490D01*
Y142869D01*
Y142855D01*
Y142841D01*
Y142827D01*
Y142813D01*
Y142799D01*
Y142785D01*
Y142772D01*
Y142758D01*
Y142744D01*
X278517D01*
Y142730D01*
Y142716D01*
Y142702D01*
Y142688D01*
X278462D01*
Y142675D01*
Y142661D01*
X278434D01*
Y142675D01*
Y142688D01*
X278407D01*
Y142702D01*
Y142716D01*
Y142730D01*
Y142744D01*
Y142758D01*
Y142772D01*
Y142785D01*
Y142799D01*
Y142813D01*
Y142827D01*
X278351D01*
Y142813D01*
Y142799D01*
Y142785D01*
Y142772D01*
X278324D01*
Y142758D01*
Y142744D01*
X278296D01*
Y142730D01*
Y142716D01*
Y142702D01*
Y142688D01*
X278268D01*
Y142675D01*
Y142661D01*
X278240D01*
Y142675D01*
Y142688D01*
Y142702D01*
Y142716D01*
Y142730D01*
Y142744D01*
Y142758D01*
Y142772D01*
Y142785D01*
Y142799D01*
X278185D01*
Y142785D01*
Y142772D01*
X278157D01*
Y142758D01*
Y142744D01*
X278130D01*
Y142730D01*
Y142716D01*
Y142702D01*
Y142688D01*
X278102D01*
Y142675D01*
Y142661D01*
Y142647D01*
Y142633D01*
X278046D01*
Y142647D01*
Y142661D01*
Y142675D01*
Y142688D01*
Y142702D01*
Y142716D01*
X278074D01*
Y142730D01*
Y142744D01*
Y142758D01*
Y142772D01*
Y142785D01*
Y142799D01*
X278102D01*
Y142813D01*
Y142827D01*
Y142841D01*
Y142855D01*
X278130D01*
Y142869D01*
Y142882D01*
Y142896D01*
Y142910D01*
X278157D01*
Y142896D01*
Y142882D01*
X278185D01*
Y142869D01*
Y142855D01*
X278240D01*
Y142869D01*
Y142882D01*
X278268D01*
Y142896D01*
Y142910D01*
X278351D01*
Y142896D01*
Y142882D01*
Y142869D01*
Y142855D01*
X278379D01*
Y142869D01*
Y142882D01*
X278407D01*
Y142896D01*
Y142910D01*
X278517D01*
Y142896D01*
D02*
G37*
G36*
X277022Y143062D02*
Y143049D01*
X277049D01*
Y143035D01*
Y143021D01*
X277022D01*
Y143007D01*
Y142993D01*
Y142979D01*
Y142965D01*
X276994D01*
Y142952D01*
Y142938D01*
Y142924D01*
Y142910D01*
X276966D01*
Y142896D01*
Y142882D01*
Y142869D01*
Y142855D01*
X276938D01*
Y142841D01*
Y142827D01*
X276855D01*
Y142841D01*
Y142855D01*
X276883D01*
Y142869D01*
Y142882D01*
Y142896D01*
Y142910D01*
X276911D01*
Y142924D01*
Y142938D01*
Y142952D01*
Y142965D01*
Y142979D01*
Y142993D01*
X276855D01*
Y142979D01*
Y142965D01*
X276800D01*
Y142952D01*
Y142938D01*
X276772D01*
Y142924D01*
Y142910D01*
X276744D01*
Y142896D01*
Y142882D01*
X276717D01*
Y142869D01*
Y142855D01*
Y142841D01*
Y142827D01*
Y142813D01*
Y142799D01*
Y142785D01*
Y142772D01*
X276744D01*
Y142758D01*
Y142744D01*
Y142730D01*
Y142716D01*
X276772D01*
Y142702D01*
Y142688D01*
X276800D01*
Y142675D01*
Y142661D01*
X276828D01*
Y142647D01*
Y142633D01*
Y142619D01*
Y142605D01*
X276855D01*
Y142591D01*
Y142578D01*
Y142564D01*
Y142550D01*
Y142536D01*
Y142522D01*
X276828D01*
Y142508D01*
Y142495D01*
X276800D01*
Y142481D01*
Y142467D01*
X276661D01*
Y142453D01*
Y142439D01*
X276412D01*
Y142453D01*
Y142467D01*
Y142481D01*
Y142495D01*
X276440D01*
Y142508D01*
Y142522D01*
X276661D01*
Y142536D01*
Y142550D01*
X276744D01*
Y142564D01*
Y142578D01*
X276772D01*
Y142591D01*
Y142605D01*
X276744D01*
Y142619D01*
Y142633D01*
X276717D01*
Y142647D01*
Y142661D01*
X276689D01*
Y142675D01*
Y142688D01*
Y142702D01*
Y142716D01*
X276661D01*
Y142730D01*
Y142744D01*
X276634D01*
Y142758D01*
Y142772D01*
Y142785D01*
Y142799D01*
X276606D01*
Y142813D01*
Y142827D01*
Y142841D01*
Y142855D01*
X276634D01*
Y142869D01*
Y142882D01*
Y142896D01*
Y142910D01*
X276661D01*
Y142924D01*
Y142938D01*
Y142952D01*
Y142965D01*
X276689D01*
Y142979D01*
Y142993D01*
X276744D01*
Y143007D01*
Y143021D01*
X276772D01*
Y143035D01*
Y143049D01*
X276828D01*
Y143062D01*
Y143076D01*
X277022D01*
Y143062D01*
D02*
G37*
G36*
X278767Y143007D02*
Y142993D01*
Y142979D01*
Y142965D01*
Y142952D01*
Y142938D01*
Y142924D01*
Y142910D01*
X278794D01*
Y142896D01*
Y142882D01*
Y142869D01*
Y142855D01*
Y142841D01*
Y142827D01*
Y142813D01*
Y142799D01*
Y142785D01*
Y142772D01*
X278767D01*
Y142758D01*
Y142744D01*
X278739D01*
Y142730D01*
Y142716D01*
X278601D01*
Y142730D01*
Y142744D01*
Y142758D01*
Y142772D01*
X278739D01*
Y142785D01*
Y142799D01*
Y142813D01*
Y142827D01*
Y142841D01*
Y142855D01*
Y142869D01*
Y142882D01*
Y142896D01*
Y142910D01*
X278711D01*
Y142896D01*
Y142882D01*
X278684D01*
Y142869D01*
Y142855D01*
X278628D01*
Y142869D01*
Y142882D01*
Y142896D01*
Y142910D01*
X278656D01*
Y142924D01*
Y142938D01*
X278684D01*
Y142952D01*
Y142965D01*
Y142979D01*
Y142993D01*
X278739D01*
Y143007D01*
Y143021D01*
X278767D01*
Y143007D01*
D02*
G37*
G36*
X277936Y142869D02*
Y142855D01*
X277991D01*
Y142841D01*
Y142827D01*
Y142813D01*
Y142799D01*
Y142785D01*
Y142772D01*
X277963D01*
Y142758D01*
Y142744D01*
Y142730D01*
Y142716D01*
X277908D01*
Y142702D01*
Y142688D01*
Y142675D01*
Y142661D01*
X277963D01*
Y142647D01*
Y142633D01*
X277936D01*
Y142619D01*
Y142605D01*
X277797D01*
Y142619D01*
Y142633D01*
X277769D01*
Y142647D01*
Y142661D01*
Y142675D01*
Y142688D01*
Y142702D01*
Y142716D01*
Y142730D01*
Y142744D01*
Y142758D01*
Y142772D01*
X277797D01*
Y142785D01*
Y142799D01*
Y142813D01*
Y142827D01*
X277825D01*
Y142841D01*
Y142855D01*
X277880D01*
Y142869D01*
Y142882D01*
X277936D01*
Y142869D01*
D02*
G37*
G36*
X277659Y142952D02*
Y142938D01*
Y142924D01*
Y142910D01*
Y142896D01*
Y142882D01*
X277686D01*
Y142869D01*
Y142855D01*
X277714D01*
Y142841D01*
Y142827D01*
Y142813D01*
Y142799D01*
X277659D01*
Y142785D01*
Y142772D01*
X277631D01*
Y142758D01*
Y142744D01*
Y142730D01*
Y142716D01*
X277603D01*
Y142702D01*
Y142688D01*
Y142675D01*
Y142661D01*
X277631D01*
Y142647D01*
Y142633D01*
X277686D01*
Y142619D01*
Y142605D01*
X277603D01*
Y142591D01*
Y142578D01*
X277548D01*
Y142591D01*
Y142605D01*
X277520D01*
Y142619D01*
Y142633D01*
X277548D01*
Y142647D01*
Y142661D01*
Y142675D01*
Y142688D01*
Y142702D01*
Y142716D01*
Y142730D01*
Y142744D01*
X277576D01*
Y142758D01*
Y142772D01*
X277548D01*
Y142785D01*
Y142799D01*
Y142813D01*
Y142827D01*
X277576D01*
Y142841D01*
Y142855D01*
X277603D01*
Y142869D01*
Y142882D01*
Y142896D01*
Y142910D01*
Y142924D01*
Y142938D01*
X277631D01*
Y142952D01*
Y142965D01*
X277659D01*
Y142952D01*
D02*
G37*
G36*
X277215Y142730D02*
Y142716D01*
Y142702D01*
Y142688D01*
X277188D01*
Y142675D01*
Y142661D01*
Y142647D01*
Y142633D01*
Y142619D01*
Y142605D01*
Y142591D01*
Y142578D01*
Y142564D01*
Y142550D01*
X277160D01*
Y142536D01*
Y142522D01*
X277188D01*
Y142508D01*
Y142495D01*
X277160D01*
Y142481D01*
Y142467D01*
Y142453D01*
Y142439D01*
Y142425D01*
Y142411D01*
X277132D01*
Y142398D01*
Y142384D01*
Y142370D01*
Y142356D01*
X277105D01*
Y142342D01*
Y142328D01*
X277077D01*
Y142314D01*
Y142301D01*
X277022D01*
Y142314D01*
Y142328D01*
Y142342D01*
Y142356D01*
X277049D01*
Y142370D01*
Y142384D01*
X277077D01*
Y142398D01*
Y142411D01*
Y142425D01*
Y142439D01*
X277105D01*
Y142453D01*
Y142467D01*
Y142481D01*
Y142495D01*
Y142508D01*
Y142522D01*
Y142536D01*
Y142550D01*
X277077D01*
Y142536D01*
Y142522D01*
X276994D01*
Y142536D01*
Y142550D01*
Y142564D01*
Y142578D01*
Y142591D01*
Y142605D01*
Y142619D01*
Y142633D01*
Y142647D01*
Y142661D01*
Y142675D01*
Y142688D01*
Y142702D01*
Y142716D01*
X277022D01*
Y142730D01*
Y142744D01*
X277049D01*
Y142730D01*
Y142716D01*
Y142702D01*
Y142688D01*
Y142675D01*
Y142661D01*
Y142647D01*
Y142633D01*
Y142619D01*
Y142605D01*
Y142591D01*
Y142578D01*
X277077D01*
Y142591D01*
Y142605D01*
X277105D01*
Y142619D01*
Y142633D01*
X277132D01*
Y142647D01*
Y142661D01*
Y142675D01*
Y142688D01*
Y142702D01*
Y142716D01*
Y142730D01*
Y142744D01*
X277215D01*
Y142730D01*
D02*
G37*
G36*
X274224Y144087D02*
Y144074D01*
X274279D01*
Y144060D01*
Y144046D01*
X274307D01*
Y144032D01*
Y144018D01*
X274334D01*
Y144004D01*
Y143990D01*
X274362D01*
Y143977D01*
Y143963D01*
X274390D01*
Y143949D01*
Y143935D01*
Y143921D01*
Y143907D01*
X274418D01*
Y143893D01*
Y143880D01*
X274445D01*
Y143866D01*
Y143852D01*
X274473D01*
Y143838D01*
Y143824D01*
X274501D01*
Y143810D01*
Y143797D01*
X274528D01*
Y143783D01*
Y143769D01*
X274556D01*
Y143755D01*
Y143741D01*
X274584D01*
Y143727D01*
Y143713D01*
X274611D01*
Y143700D01*
Y143686D01*
X274639D01*
Y143672D01*
Y143658D01*
X274667D01*
Y143644D01*
Y143630D01*
X274695D01*
Y143616D01*
Y143603D01*
X274722D01*
Y143589D01*
Y143575D01*
X274750D01*
Y143561D01*
Y143547D01*
X274778D01*
Y143533D01*
Y143520D01*
X274805D01*
Y143506D01*
Y143492D01*
X274833D01*
Y143478D01*
Y143464D01*
X274861D01*
Y143450D01*
Y143436D01*
X274888D01*
Y143423D01*
Y143409D01*
X274916D01*
Y143395D01*
Y143381D01*
X274944D01*
Y143367D01*
Y143353D01*
X274972D01*
Y143339D01*
Y143326D01*
X274999D01*
Y143312D01*
Y143298D01*
X275027D01*
Y143284D01*
Y143270D01*
X275055D01*
Y143256D01*
Y143242D01*
X275082D01*
Y143229D01*
Y143215D01*
X275110D01*
Y143201D01*
Y143187D01*
X275138D01*
Y143173D01*
Y143159D01*
X275165D01*
Y143146D01*
Y143132D01*
X275193D01*
Y143118D01*
Y143104D01*
X275221D01*
Y143090D01*
Y143076D01*
X275249D01*
Y143062D01*
Y143049D01*
X275276D01*
Y143035D01*
Y143021D01*
X275304D01*
Y143007D01*
Y142993D01*
X275332D01*
Y142979D01*
Y142965D01*
X275359D01*
Y142952D01*
Y142938D01*
X275387D01*
Y142924D01*
Y142910D01*
X275415D01*
Y142896D01*
Y142882D01*
X275498D01*
Y142869D01*
Y142855D01*
X275526D01*
Y142841D01*
Y142827D01*
X275553D01*
Y142813D01*
Y142799D01*
X275581D01*
Y142785D01*
Y142772D01*
Y142758D01*
Y142744D01*
Y142730D01*
Y142716D01*
X275553D01*
Y142702D01*
Y142688D01*
X275526D01*
Y142675D01*
Y142661D01*
X275498D01*
Y142647D01*
Y142633D01*
X275470D01*
Y142619D01*
Y142605D01*
X275442D01*
Y142591D01*
Y142578D01*
X275387D01*
Y142591D01*
Y142605D01*
X275359D01*
Y142619D01*
Y142633D01*
X275332D01*
Y142647D01*
Y142661D01*
Y142675D01*
Y142688D01*
X275304D01*
Y142702D01*
Y142716D01*
X275276D01*
Y142730D01*
Y142744D01*
Y142758D01*
Y142772D01*
Y142785D01*
Y142799D01*
X275249D01*
Y142813D01*
Y142827D01*
X275221D01*
Y142841D01*
Y142855D01*
X275193D01*
Y142869D01*
Y142882D01*
X275165D01*
Y142896D01*
Y142910D01*
X275138D01*
Y142924D01*
Y142938D01*
X275110D01*
Y142952D01*
Y142965D01*
X275055D01*
Y142952D01*
Y142938D01*
X275027D01*
Y142924D01*
Y142910D01*
X274999D01*
Y142896D01*
Y142882D01*
Y142869D01*
Y142855D01*
Y142841D01*
Y142827D01*
X275027D01*
Y142813D01*
Y142799D01*
Y142785D01*
Y142772D01*
X275055D01*
Y142758D01*
Y142744D01*
X275082D01*
Y142730D01*
Y142716D01*
Y142702D01*
Y142688D01*
X275110D01*
Y142675D01*
Y142661D01*
X275193D01*
Y142647D01*
Y142633D01*
X275221D01*
Y142619D01*
Y142605D01*
Y142591D01*
Y142578D01*
X275249D01*
Y142564D01*
Y142550D01*
X275276D01*
Y142536D01*
Y142522D01*
X275304D01*
Y142508D01*
Y142495D01*
X275276D01*
Y142481D01*
Y142467D01*
X275249D01*
Y142453D01*
Y142439D01*
X275221D01*
Y142425D01*
Y142411D01*
X275193D01*
Y142398D01*
Y142384D01*
X275165D01*
Y142370D01*
Y142356D01*
X275082D01*
Y142370D01*
Y142384D01*
X275055D01*
Y142398D01*
Y142411D01*
X275027D01*
Y142425D01*
Y142439D01*
X274999D01*
Y142453D01*
Y142467D01*
Y142481D01*
Y142495D01*
Y142508D01*
Y142522D01*
Y142536D01*
Y142550D01*
Y142564D01*
Y142578D01*
X274972D01*
Y142591D01*
Y142605D01*
X274944D01*
Y142619D01*
Y142633D01*
X274916D01*
Y142647D01*
Y142661D01*
Y142675D01*
Y142688D01*
X274888D01*
Y142702D01*
Y142716D01*
Y142730D01*
Y142744D01*
X274861D01*
Y142758D01*
Y142772D01*
X274833D01*
Y142785D01*
Y142799D01*
X274805D01*
Y142813D01*
Y142827D01*
Y142841D01*
Y142855D01*
X274778D01*
Y142869D01*
Y142882D01*
X274750D01*
Y142896D01*
Y142910D01*
Y142924D01*
Y142938D01*
X274722D01*
Y142952D01*
Y142965D01*
X274695D01*
Y142979D01*
Y142993D01*
Y143007D01*
Y143021D01*
X274667D01*
Y143035D01*
Y143049D01*
X274639D01*
Y143062D01*
Y143076D01*
X274611D01*
Y143090D01*
Y143104D01*
Y143118D01*
Y143132D01*
X274584D01*
Y143146D01*
Y143159D01*
Y143173D01*
Y143187D01*
X274556D01*
Y143201D01*
Y143215D01*
X274528D01*
Y143229D01*
Y143242D01*
X274501D01*
Y143256D01*
Y143270D01*
Y143284D01*
Y143298D01*
X274473D01*
Y143312D01*
Y143326D01*
Y143339D01*
Y143353D01*
X274445D01*
Y143367D01*
Y143381D01*
Y143395D01*
Y143409D01*
X274390D01*
Y143423D01*
Y143436D01*
Y143450D01*
Y143464D01*
X274362D01*
Y143478D01*
Y143492D01*
Y143506D01*
Y143520D01*
X274334D01*
Y143533D01*
Y143547D01*
X274307D01*
Y143561D01*
Y143575D01*
Y143589D01*
Y143603D01*
X274279D01*
Y143616D01*
Y143630D01*
X274251D01*
Y143644D01*
Y143658D01*
Y143672D01*
Y143686D01*
X274224D01*
Y143700D01*
Y143713D01*
Y143727D01*
Y143741D01*
X274196D01*
Y143755D01*
Y143769D01*
X274168D01*
Y143783D01*
Y143797D01*
Y143810D01*
Y143824D01*
X274140D01*
Y143838D01*
Y143852D01*
X274113D01*
Y143866D01*
Y143880D01*
X274085D01*
Y143893D01*
Y143907D01*
Y143921D01*
Y143935D01*
X274057D01*
Y143949D01*
Y143963D01*
Y143977D01*
Y143990D01*
Y144004D01*
Y144018D01*
Y144032D01*
Y144046D01*
X274085D01*
Y144060D01*
Y144074D01*
X274140D01*
Y144087D01*
Y144101D01*
X274224D01*
Y144087D01*
D02*
G37*
G36*
X277409Y142841D02*
Y142827D01*
Y142813D01*
Y142799D01*
Y142785D01*
Y142772D01*
X277437D01*
Y142758D01*
Y142744D01*
Y142730D01*
Y142716D01*
X277465D01*
Y142702D01*
Y142688D01*
Y142675D01*
Y142661D01*
Y142647D01*
Y142633D01*
X277437D01*
Y142619D01*
Y142605D01*
Y142591D01*
Y142578D01*
X277409D01*
Y142564D01*
Y142550D01*
X277243D01*
Y142564D01*
Y142578D01*
X277271D01*
Y142591D01*
Y142605D01*
X277382D01*
Y142619D01*
Y142633D01*
Y142647D01*
Y142661D01*
Y142675D01*
Y142688D01*
Y142702D01*
Y142716D01*
X277299D01*
Y142730D01*
Y142744D01*
X277326D01*
Y142758D01*
Y142772D01*
Y142785D01*
Y142799D01*
X277354D01*
Y142813D01*
Y142827D01*
Y142841D01*
Y142855D01*
X277409D01*
Y142841D01*
D02*
G37*
G36*
X281149Y144143D02*
Y144129D01*
X281177D01*
Y144115D01*
Y144101D01*
Y144087D01*
Y144074D01*
X281205D01*
Y144060D01*
Y144046D01*
Y144032D01*
Y144018D01*
Y144004D01*
Y143990D01*
Y143977D01*
Y143963D01*
X281177D01*
Y143949D01*
Y143935D01*
Y143921D01*
Y143907D01*
X281149D01*
Y143893D01*
Y143880D01*
X281121D01*
Y143866D01*
Y143852D01*
X281094D01*
Y143838D01*
Y143824D01*
Y143810D01*
Y143797D01*
X281066D01*
Y143783D01*
Y143769D01*
Y143755D01*
Y143741D01*
X281038D01*
Y143727D01*
Y143713D01*
Y143700D01*
Y143686D01*
X281011D01*
Y143672D01*
Y143658D01*
Y143644D01*
Y143630D01*
X280983D01*
Y143616D01*
Y143603D01*
X280955D01*
Y143589D01*
Y143575D01*
X280928D01*
Y143561D01*
Y143547D01*
Y143533D01*
Y143520D01*
X280900D01*
Y143506D01*
Y143492D01*
X280872D01*
Y143478D01*
Y143464D01*
Y143450D01*
Y143436D01*
X280844D01*
Y143423D01*
Y143409D01*
X280817D01*
Y143395D01*
Y143381D01*
Y143367D01*
Y143353D01*
X280789D01*
Y143339D01*
Y143326D01*
X280761D01*
Y143312D01*
Y143298D01*
X280734D01*
Y143284D01*
Y143270D01*
Y143256D01*
Y143242D01*
X280706D01*
Y143229D01*
Y143215D01*
Y143201D01*
Y143187D01*
X280678D01*
Y143173D01*
Y143159D01*
X280651D01*
Y143146D01*
Y143132D01*
X280623D01*
Y143118D01*
Y143104D01*
Y143090D01*
Y143076D01*
X280595D01*
Y143062D01*
Y143049D01*
Y143035D01*
Y143021D01*
X280567D01*
Y143007D01*
Y142993D01*
X280540D01*
Y142979D01*
Y142965D01*
Y142952D01*
Y142938D01*
X280512D01*
Y142924D01*
Y142910D01*
X280484D01*
Y142896D01*
Y142882D01*
Y142869D01*
Y142855D01*
X280457D01*
Y142841D01*
Y142827D01*
X280429D01*
Y142813D01*
Y142799D01*
X280401D01*
Y142785D01*
Y142772D01*
Y142758D01*
Y142744D01*
X280373D01*
Y142730D01*
Y142716D01*
Y142702D01*
Y142688D01*
X280346D01*
Y142675D01*
Y142661D01*
X280318D01*
Y142647D01*
Y142633D01*
X280290D01*
Y142619D01*
Y142605D01*
Y142591D01*
Y142578D01*
Y142564D01*
Y142550D01*
Y142536D01*
Y142522D01*
X280263D01*
Y142508D01*
Y142495D01*
Y142481D01*
Y142467D01*
X280235D01*
Y142453D01*
Y142439D01*
X280207D01*
Y142425D01*
Y142411D01*
X280124D01*
Y142425D01*
Y142439D01*
X280069D01*
Y142453D01*
Y142467D01*
X280041D01*
Y142481D01*
Y142495D01*
X280013D01*
Y142508D01*
Y142522D01*
X279986D01*
Y142536D01*
Y142550D01*
Y142564D01*
Y142578D01*
X280013D01*
Y142591D01*
Y142605D01*
Y142619D01*
Y142633D01*
X280041D01*
Y142647D01*
Y142661D01*
X280069D01*
Y142675D01*
Y142688D01*
X280124D01*
Y142702D01*
Y142716D01*
X280180D01*
Y142730D01*
Y142744D01*
X280207D01*
Y142758D01*
Y142772D01*
Y142785D01*
Y142799D01*
X280235D01*
Y142813D01*
Y142827D01*
Y142841D01*
Y142855D01*
X280263D01*
Y142869D01*
Y142882D01*
Y142896D01*
Y142910D01*
X280290D01*
Y142924D01*
Y142938D01*
Y142952D01*
Y142965D01*
X280235D01*
Y142979D01*
Y142993D01*
X280207D01*
Y143007D01*
Y143021D01*
X280152D01*
Y143007D01*
Y142993D01*
X280124D01*
Y142979D01*
Y142965D01*
X280096D01*
Y142952D01*
Y142938D01*
X280069D01*
Y142924D01*
Y142910D01*
X280041D01*
Y142896D01*
Y142882D01*
X280013D01*
Y142869D01*
Y142855D01*
Y142841D01*
Y142827D01*
Y142813D01*
Y142799D01*
Y142785D01*
Y142772D01*
X279986D01*
Y142758D01*
Y142744D01*
X279958D01*
Y142730D01*
Y142716D01*
Y142702D01*
Y142688D01*
X279930D01*
Y142675D01*
Y142661D01*
X279903D01*
Y142647D01*
Y142633D01*
X279847D01*
Y142647D01*
Y142661D01*
X279819D01*
Y142675D01*
Y142688D01*
X279792D01*
Y142702D01*
Y142716D01*
X279764D01*
Y142730D01*
Y142744D01*
X279709D01*
Y142758D01*
Y142772D01*
X279681D01*
Y142785D01*
Y142799D01*
Y142813D01*
Y142827D01*
X279709D01*
Y142841D01*
Y142855D01*
X279736D01*
Y142869D01*
Y142882D01*
X279764D01*
Y142896D01*
Y142910D01*
X279792D01*
Y142924D01*
Y142938D01*
X279875D01*
Y142952D01*
Y142965D01*
X279903D01*
Y142979D01*
Y142993D01*
X279930D01*
Y143007D01*
Y143021D01*
X279958D01*
Y143035D01*
Y143049D01*
X279986D01*
Y143062D01*
Y143076D01*
X280013D01*
Y143090D01*
Y143104D01*
X280041D01*
Y143118D01*
Y143132D01*
X280069D01*
Y143146D01*
Y143159D01*
X280096D01*
Y143173D01*
Y143187D01*
X280124D01*
Y143201D01*
Y143215D01*
X280152D01*
Y143229D01*
Y143242D01*
X280180D01*
Y143256D01*
Y143270D01*
X280207D01*
Y143284D01*
Y143298D01*
Y143312D01*
Y143326D01*
X280235D01*
Y143339D01*
Y143353D01*
X280263D01*
Y143367D01*
Y143381D01*
X280290D01*
Y143395D01*
Y143409D01*
X280318D01*
Y143423D01*
Y143436D01*
X280346D01*
Y143450D01*
Y143464D01*
X280373D01*
Y143478D01*
Y143492D01*
X280401D01*
Y143506D01*
Y143520D01*
X280429D01*
Y143533D01*
Y143547D01*
X280457D01*
Y143561D01*
Y143575D01*
X280484D01*
Y143589D01*
Y143603D01*
X280512D01*
Y143616D01*
Y143630D01*
X280540D01*
Y143644D01*
Y143658D01*
X280567D01*
Y143672D01*
Y143686D01*
X280595D01*
Y143700D01*
Y143713D01*
X280623D01*
Y143727D01*
Y143741D01*
X280651D01*
Y143755D01*
Y143769D01*
X280678D01*
Y143783D01*
Y143797D01*
X280706D01*
Y143810D01*
Y143824D01*
X280734D01*
Y143838D01*
Y143852D01*
X280789D01*
Y143866D01*
Y143880D01*
X280817D01*
Y143893D01*
Y143907D01*
Y143921D01*
Y143935D01*
X280844D01*
Y143949D01*
Y143963D01*
X280900D01*
Y143977D01*
Y143990D01*
Y144004D01*
Y144018D01*
X280928D01*
Y144032D01*
Y144046D01*
X280955D01*
Y144060D01*
Y144074D01*
X281011D01*
Y144087D01*
Y144101D01*
Y144115D01*
Y144129D01*
X281066D01*
Y144143D01*
Y144157D01*
X281149D01*
Y144143D01*
D02*
G37*
%LPC*%
G36*
X277631Y144461D02*
X277603D01*
Y144448D01*
Y144434D01*
Y144420D01*
Y144406D01*
Y144392D01*
Y144378D01*
X277576D01*
Y144364D01*
Y144351D01*
Y144337D01*
Y144323D01*
Y144309D01*
Y144295D01*
Y144281D01*
Y144267D01*
Y144254D01*
Y144240D01*
Y144226D01*
Y144212D01*
Y144198D01*
Y144184D01*
Y144171D01*
Y144157D01*
Y144143D01*
Y144129D01*
Y144115D01*
Y144101D01*
X277603D01*
Y144087D01*
Y144074D01*
X277659D01*
Y144087D01*
Y144101D01*
Y144115D01*
Y144129D01*
Y144143D01*
Y144157D01*
Y144171D01*
Y144184D01*
Y144198D01*
Y144212D01*
Y144226D01*
Y144240D01*
Y144254D01*
Y144267D01*
Y144281D01*
Y144295D01*
Y144309D01*
Y144323D01*
X277631D01*
Y144337D01*
Y144351D01*
Y144364D01*
Y144378D01*
Y144392D01*
Y144406D01*
Y144420D01*
Y144434D01*
Y144448D01*
Y144461D01*
D02*
G37*
G36*
X278961Y144960D02*
X278850D01*
Y144946D01*
Y144932D01*
Y144918D01*
Y144905D01*
X278822D01*
Y144891D01*
Y144877D01*
Y144863D01*
Y144849D01*
Y144835D01*
Y144822D01*
Y144808D01*
Y144794D01*
X278794D01*
Y144780D01*
Y144766D01*
Y144752D01*
Y144738D01*
Y144725D01*
Y144711D01*
X278767D01*
Y144697D01*
Y144683D01*
Y144669D01*
Y144655D01*
Y144641D01*
Y144628D01*
Y144614D01*
Y144600D01*
Y144586D01*
Y144572D01*
X278739D01*
Y144558D01*
Y144544D01*
Y144531D01*
Y144517D01*
Y144503D01*
Y144489D01*
Y144475D01*
Y144461D01*
Y144448D01*
Y144434D01*
X278711D01*
Y144420D01*
Y144406D01*
Y144392D01*
Y144378D01*
Y144364D01*
Y144351D01*
Y144337D01*
Y144323D01*
Y144309D01*
Y144295D01*
X278684D01*
Y144281D01*
Y144267D01*
Y144254D01*
Y144240D01*
Y144226D01*
Y144212D01*
Y144198D01*
Y144184D01*
X278656D01*
Y144171D01*
Y144157D01*
Y144143D01*
Y144129D01*
Y144115D01*
Y144101D01*
Y144087D01*
Y144074D01*
Y144060D01*
Y144046D01*
X278628D01*
Y144032D01*
Y144018D01*
Y144004D01*
Y143990D01*
Y143977D01*
Y143963D01*
Y143949D01*
Y143935D01*
Y143921D01*
Y143907D01*
X278601D01*
Y143893D01*
Y143880D01*
Y143866D01*
Y143852D01*
Y143838D01*
Y143824D01*
Y143810D01*
Y143797D01*
Y143783D01*
Y143769D01*
X278573D01*
Y143755D01*
Y143741D01*
Y143727D01*
Y143713D01*
Y143700D01*
Y143686D01*
Y143672D01*
Y143658D01*
Y143644D01*
Y143630D01*
X278545D01*
Y143616D01*
Y143603D01*
Y143589D01*
Y143575D01*
Y143561D01*
Y143547D01*
Y143533D01*
Y143520D01*
Y143506D01*
Y143492D01*
Y143478D01*
Y143464D01*
X278656D01*
Y143478D01*
Y143492D01*
X278684D01*
Y143506D01*
Y143520D01*
X278711D01*
Y143533D01*
Y143547D01*
Y143561D01*
Y143575D01*
Y143589D01*
Y143603D01*
Y143616D01*
Y143630D01*
X278739D01*
Y143644D01*
Y143658D01*
Y143672D01*
Y143686D01*
Y143700D01*
Y143713D01*
Y143727D01*
Y143741D01*
Y143755D01*
Y143769D01*
X278767D01*
Y143783D01*
Y143797D01*
Y143810D01*
Y143824D01*
Y143838D01*
Y143852D01*
Y143866D01*
Y143880D01*
X278794D01*
Y143893D01*
Y143907D01*
Y143921D01*
Y143935D01*
Y143949D01*
Y143963D01*
Y143977D01*
Y143990D01*
Y144004D01*
Y144018D01*
X278822D01*
Y144032D01*
Y144046D01*
Y144060D01*
Y144074D01*
Y144087D01*
Y144101D01*
Y144115D01*
Y144129D01*
X278850D01*
Y144143D01*
Y144157D01*
Y144171D01*
Y144184D01*
Y144198D01*
Y144212D01*
Y144226D01*
Y144240D01*
Y144254D01*
Y144267D01*
X278878D01*
Y144281D01*
Y144295D01*
Y144309D01*
Y144323D01*
Y144337D01*
Y144351D01*
Y144364D01*
Y144378D01*
Y144392D01*
Y144406D01*
X278905D01*
Y144420D01*
Y144434D01*
Y144448D01*
Y144461D01*
Y144475D01*
Y144489D01*
Y144503D01*
Y144517D01*
X278933D01*
Y144531D01*
Y144544D01*
Y144558D01*
Y144572D01*
Y144586D01*
Y144600D01*
Y144614D01*
Y144628D01*
X278961D01*
Y144641D01*
Y144655D01*
Y144669D01*
Y144683D01*
Y144697D01*
Y144711D01*
Y144725D01*
Y144738D01*
X278988D01*
Y144752D01*
Y144766D01*
Y144780D01*
Y144794D01*
Y144808D01*
Y144822D01*
Y144835D01*
Y144849D01*
Y144863D01*
Y144877D01*
Y144891D01*
Y144905D01*
X278961D01*
Y144918D01*
Y144932D01*
Y144946D01*
Y144960D01*
D02*
G37*
G36*
X275387Y144572D02*
X275276D01*
Y144558D01*
Y144544D01*
X275249D01*
Y144531D01*
Y144517D01*
Y144503D01*
Y144489D01*
X275276D01*
Y144475D01*
Y144461D01*
X275304D01*
Y144448D01*
Y144434D01*
Y144420D01*
Y144406D01*
Y144392D01*
Y144378D01*
X275332D01*
Y144364D01*
Y144351D01*
Y144337D01*
Y144323D01*
Y144309D01*
Y144295D01*
X275359D01*
Y144281D01*
Y144267D01*
X275387D01*
Y144254D01*
Y144240D01*
Y144226D01*
Y144212D01*
Y144198D01*
Y144184D01*
X275415D01*
Y144171D01*
Y144157D01*
Y144143D01*
Y144129D01*
X275442D01*
Y144115D01*
Y144101D01*
Y144087D01*
Y144074D01*
X275470D01*
Y144060D01*
Y144046D01*
X275498D01*
Y144032D01*
Y144018D01*
Y144004D01*
Y143990D01*
X275526D01*
Y143977D01*
Y143963D01*
X275609D01*
Y143977D01*
Y143990D01*
Y144004D01*
Y144018D01*
Y144032D01*
Y144046D01*
Y144060D01*
Y144074D01*
Y144087D01*
Y144101D01*
Y144115D01*
Y144129D01*
Y144143D01*
Y144157D01*
X275581D01*
Y144171D01*
Y144184D01*
X275553D01*
Y144198D01*
Y144212D01*
Y144226D01*
Y144240D01*
X275526D01*
Y144254D01*
Y144267D01*
Y144281D01*
Y144295D01*
X275498D01*
Y144309D01*
Y144323D01*
Y144337D01*
Y144351D01*
X275470D01*
Y144364D01*
Y144378D01*
Y144392D01*
Y144406D01*
Y144420D01*
Y144434D01*
X275442D01*
Y144448D01*
Y144461D01*
Y144475D01*
Y144489D01*
X275415D01*
Y144503D01*
Y144517D01*
X275387D01*
Y144531D01*
Y144544D01*
Y144558D01*
Y144572D01*
D02*
G37*
G36*
X277908Y142827D02*
X277880D01*
Y142813D01*
Y142799D01*
X277853D01*
Y142785D01*
Y142772D01*
X277825D01*
Y142758D01*
Y142744D01*
Y142730D01*
Y142716D01*
X277880D01*
Y142730D01*
Y142744D01*
X277908D01*
Y142758D01*
Y142772D01*
Y142785D01*
Y142799D01*
Y142813D01*
Y142827D01*
D02*
G37*
G36*
X274667Y143409D02*
X274639D01*
Y143395D01*
Y143381D01*
Y143367D01*
Y143353D01*
X274667D01*
Y143339D01*
Y143326D01*
X274695D01*
Y143312D01*
Y143298D01*
Y143284D01*
Y143270D01*
X274722D01*
Y143256D01*
Y143242D01*
Y143229D01*
Y143215D01*
X274750D01*
Y143201D01*
Y143187D01*
X274778D01*
Y143173D01*
Y143159D01*
X274805D01*
Y143146D01*
Y143132D01*
Y143118D01*
Y143104D01*
X274833D01*
Y143090D01*
Y143076D01*
X274916D01*
Y143090D01*
Y143104D01*
Y143118D01*
Y143132D01*
Y143146D01*
Y143159D01*
X274888D01*
Y143173D01*
Y143187D01*
X274833D01*
Y143201D01*
Y143215D01*
X274805D01*
Y143229D01*
Y143242D01*
X274778D01*
Y143256D01*
Y143270D01*
Y143284D01*
Y143298D01*
X274750D01*
Y143312D01*
Y143326D01*
X274722D01*
Y143339D01*
Y143353D01*
X274695D01*
Y143367D01*
Y143381D01*
X274667D01*
Y143395D01*
Y143409D01*
D02*
G37*
G36*
X280651Y143464D02*
X280595D01*
Y143450D01*
Y143436D01*
X280567D01*
Y143423D01*
Y143409D01*
X280540D01*
Y143395D01*
Y143381D01*
X280512D01*
Y143367D01*
Y143353D01*
X280484D01*
Y143339D01*
Y143326D01*
X280457D01*
Y143312D01*
Y143298D01*
X280429D01*
Y143284D01*
Y143270D01*
X280401D01*
Y143256D01*
Y143242D01*
X280373D01*
Y143229D01*
Y143215D01*
Y143201D01*
Y143187D01*
X280346D01*
Y143173D01*
Y143159D01*
Y143146D01*
Y143132D01*
X280373D01*
Y143118D01*
Y143104D01*
X280429D01*
Y143118D01*
Y143132D01*
Y143146D01*
Y143159D01*
X280457D01*
Y143173D01*
Y143187D01*
X280484D01*
Y143201D01*
Y143215D01*
Y143229D01*
Y143242D01*
X280512D01*
Y143256D01*
Y143270D01*
X280540D01*
Y143284D01*
Y143298D01*
X280567D01*
Y143312D01*
Y143326D01*
Y143339D01*
Y143353D01*
X280595D01*
Y143367D01*
Y143381D01*
X280623D01*
Y143395D01*
Y143409D01*
X280651D01*
Y143423D01*
Y143436D01*
Y143450D01*
Y143464D01*
D02*
G37*
%LPD*%
D10*
X254764Y142015D02*
G03*
X254764Y141515I000000J-000250D01*
G01*
Y134265D02*
G03*
X254764Y133765I000000J-000250D01*
G01*
X270648Y132702D02*
G03*
X270648Y132202I000000J-000250D01*
G01*
X273689Y140215D02*
G03*
X273689Y139715I000000J-000250D01*
G01*
X279678Y130010D02*
G03*
X279678Y130010I-000039J000000D01*
G01*
X254764Y139403D02*
Y141515D01*
Y142015D02*
Y144127D01*
X238114Y139403D02*
X254764D01*
X238114D02*
Y144127D01*
X254764D01*
X255178Y140776D02*
X256430D01*
X255178D02*
Y142776D01*
X256430Y140776D02*
Y142776D01*
X255178D02*
X256430D01*
X254764Y131653D02*
Y133765D01*
Y134265D02*
Y136377D01*
X238114Y131653D02*
X254764D01*
X238114D02*
Y136377D01*
X254764D01*
X260018Y131409D02*
Y133496D01*
X270648Y131409D02*
Y132202D01*
Y132702D02*
Y133496D01*
X260018Y131409D02*
X270648D01*
X260018Y133496D02*
X270648D01*
X271013Y131463D02*
X272265D01*
X271013D02*
Y133463D01*
X272265Y131463D02*
Y133463D01*
X271013D02*
X272265D01*
X255178Y133026D02*
X256430D01*
X255178D02*
Y135026D01*
X256430Y133026D02*
Y135026D01*
X255178D02*
X256430D01*
X274054Y138976D02*
X275306D01*
X274054D02*
Y140976D01*
X275306Y138976D02*
Y140976D01*
X274054D02*
X275306D01*
X273689Y136363D02*
Y139715D01*
Y140215D02*
Y143567D01*
X258689Y136363D02*
Y143567D01*
Y136363D02*
X273689D01*
X258689Y143567D02*
X273689D01*
D11*
X253988Y145440D02*
G03*
X253988Y145440I-000049J000000D01*
G01*
Y137690D02*
G03*
X253988Y137690I-000049J000000D01*
G01*
X270394Y133952D02*
G03*
X270394Y133952I-000049J000000D01*
G01*
X271788Y143815D02*
G03*
X271788Y143815I-000049J000000D01*
G01*
D12*
X279139Y131615D02*
G03*
X279139Y131615I-001000J000000D01*
G01*
X277689Y131115D02*
X278089D01*
X277889Y130915D02*
Y131315D01*
X257289Y143515D02*
Y143015D01*
X257389Y142915D01*
X257589D01*
X257689Y143015D01*
Y143515D01*
X258189Y142915D02*
Y143515D01*
X257889Y143215D01*
X258289D01*
X236589Y137365D02*
Y136865D01*
X236689Y136765D01*
X236889D01*
X236989Y136865D01*
Y137365D01*
X237189Y137265D02*
X237289Y137365D01*
X237489D01*
X237589Y137265D01*
Y137165D01*
X237489Y137065D01*
X237389D01*
X237489D01*
X237589Y136965D01*
Y136865D01*
X237489Y136765D01*
X237289D01*
X237189Y136865D01*
X236639Y145115D02*
Y144615D01*
X236739Y144515D01*
X236939D01*
X237039Y144615D01*
Y145115D01*
X237639Y144515D02*
X237239D01*
X237639Y144915D01*
Y145015D01*
X237539Y145115D01*
X237339D01*
X237239Y145015D01*
X258683Y134102D02*
Y133603D01*
X258783Y133503D01*
X258983D01*
X259083Y133603D01*
Y134102D01*
X259283Y133503D02*
X259483D01*
X259383D01*
Y134102D01*
X259283Y134002D01*
X236310Y130990D02*
X236110D01*
X236210D01*
Y130490D01*
X236110Y130390D01*
X236010D01*
X235910Y130490D01*
X236510Y130390D02*
X236710D01*
X236610D01*
Y130990D01*
X236510Y130890D01*
X274580Y138565D02*
X274480Y138665D01*
X274280D01*
X274180Y138565D01*
Y138165D01*
X274280Y138065D01*
X274480D01*
X274580Y138165D01*
X275180Y138665D02*
X274780D01*
Y138365D01*
X274980Y138465D01*
X275080D01*
X275180Y138365D01*
Y138165D01*
X275080Y138065D01*
X274880D01*
X274780Y138165D01*
X255704Y132665D02*
X255604Y132765D01*
X255404D01*
X255304Y132665D01*
Y132265D01*
X255404Y132165D01*
X255604D01*
X255704Y132265D01*
X256204Y132165D02*
Y132765D01*
X255904Y132465D01*
X256304D01*
X255704Y140365D02*
X255604Y140465D01*
X255404D01*
X255304Y140365D01*
Y139965D01*
X255404Y139865D01*
X255604D01*
X255704Y139965D01*
X255904Y140365D02*
X256004Y140465D01*
X256204D01*
X256304Y140365D01*
Y140265D01*
X256204Y140165D01*
X256104D01*
X256204D01*
X256304Y140065D01*
Y139965D01*
X256204Y139865D01*
X256004D01*
X255904Y139965D01*
X271500Y131054D02*
X271400Y131154D01*
X271200D01*
X271100Y131054D01*
Y130655D01*
X271200Y130555D01*
X271400D01*
X271500Y130655D01*
X272100Y130555D02*
X271700D01*
X272100Y130954D01*
Y131054D01*
X272000Y131154D01*
X271800D01*
X271700Y131054D01*
X276534Y130965D02*
X276434Y131065D01*
X276234D01*
X276134Y130965D01*
Y130565D01*
X276234Y130465D01*
X276434D01*
X276534Y130565D01*
X276734Y130465D02*
X276934D01*
X276834D01*
Y131065D01*
X276734Y130965D01*
D13*
X270373Y133102D02*
G03*
X270373Y133102I-000118J000000D01*
G01*
X273413Y143174D02*
G03*
X273413Y143174I-000118J000000D01*
G01*
D14*
X235839Y129750D02*
X281439D01*
X235839Y126070D02*
X281439Y126070D01*
X235839Y129750D02*
X235839Y126070D01*
X281439Y126070D02*
Y129750D01*
D15*
X236652Y136045D02*
X236519Y136178D01*
Y136312D01*
X236652Y136445D01*
X236852D02*
Y136045D01*
Y136245D01*
X237119D01*
Y136445D01*
Y136045D01*
X237252Y136445D02*
X237385D01*
X237319D01*
Y136045D01*
X237252D01*
X237385D01*
X237585D02*
X237719Y136178D01*
Y136312D01*
X237585Y136445D01*
X236652Y143795D02*
X236519Y143928D01*
Y144062D01*
X236652Y144195D01*
X236852D02*
Y143795D01*
X237119D01*
X237452Y144195D02*
X237319D01*
X237252Y144128D01*
Y143862D01*
X237319Y143795D01*
X237452D01*
X237519Y143862D01*
Y144128D01*
X237452Y144195D01*
X237652Y143795D02*
X237785Y143928D01*
Y144062D01*
X237652Y144195D01*
M02*
