G04*
G04 #@! TF.GenerationSoftware,Altium Limited,Altium Designer,20.2.6 (244)*
G04*
G04 Layer_Color=65535*
%FSAX24Y24*%
%MOIN*%
G70*
G04*
G04 #@! TF.SameCoordinates,57D1006C-5FB8-4E46-A0DD-9EF21319E2AC*
G04*
G04*
G04 #@! TF.FilePolarity,Positive*
G04*
G01*
G75*
%ADD10C,0.0236*%
%ADD11C,0.0098*%
%ADD12C,0.0079*%
%ADD13C,0.0150*%
%ADD14C,0.0080*%
D10*
X224608Y136286D02*
G03*
X224608Y136286I-000118J000000D01*
G01*
X228708D02*
G03*
X228708Y136286I-000118J000000D01*
G01*
D11*
X223688Y136377D02*
G03*
X223688Y136377I-000049J000000D01*
G01*
X227788D02*
G03*
X227788Y136377I-000049J000000D01*
G01*
D12*
X224889Y136680D02*
G03*
X225389Y136680I000250J000000D01*
G01*
X228989D02*
G03*
X229489Y136680I000250J000000D01*
G01*
X224096Y126050D02*
X226182D01*
X225389Y136680D02*
X226182D01*
X224096D02*
X224889D01*
X226182Y126050D02*
Y136680D01*
X224096Y126050D02*
Y136680D01*
X228196Y126050D02*
X230282D01*
X229489Y136680D02*
X230282D01*
X228196D02*
X228989D01*
X230282Y126050D02*
Y136680D01*
X228196Y126050D02*
Y136680D01*
D13*
X227039Y137765D02*
G03*
X227339Y137765I000150J000000D01*
G01*
X227039D02*
X227339D01*
D14*
X226106Y137415D02*
Y137082D01*
X226172Y137015D01*
X226306D01*
X226372Y137082D01*
Y137415D01*
X226772Y137015D02*
X226506D01*
X226772Y137282D01*
Y137348D01*
X226706Y137415D01*
X226572D01*
X226506Y137348D01*
X227606Y137415D02*
Y137082D01*
X227672Y137015D01*
X227806D01*
X227872Y137082D01*
Y137415D01*
X228006Y137348D02*
X228072Y137415D01*
X228206D01*
X228272Y137348D01*
Y137282D01*
X228206Y137215D01*
X228139D01*
X228206D01*
X228272Y137148D01*
Y137082D01*
X228206Y137015D01*
X228072D01*
X228006Y137082D01*
M02*
