G04*
G04 #@! TF.GenerationSoftware,Altium Limited,Altium Designer,20.2.6 (244)*
G04*
G04 Layer_Color=32896*
%FSAX24Y24*%
%MOIN*%
G70*
G04*
G04 #@! TF.SameCoordinates,57D1006C-5FB8-4E46-A0DD-9EF21319E2AC*
G04*
G04*
G04 #@! TF.FilePolarity,Positive*
G04*
G01*
G75*
%ADD14C,0.0080*%
%ADD21C,0.0100*%
%ADD28C,0.0060*%
D14*
X229639Y137665D02*
Y137332D01*
X229572Y137265D01*
X229439D01*
X229372Y137332D01*
Y137665D01*
X229239Y137265D02*
X229106D01*
X229173D01*
Y137665D01*
X229239Y137598D01*
D21*
X226939Y137765D02*
G03*
X227439Y137765I000250J000000D01*
G01*
X226239Y125965D02*
X228139D01*
Y137765D01*
X227439D02*
X228139D01*
X226239Y137765D02*
X226939Y137765D01*
X226239Y125965D02*
X226239Y137765D01*
D28*
X229589Y126365D02*
X229889D01*
Y126515D01*
X229839Y126565D01*
X229739D01*
X229689Y126515D01*
Y126365D01*
X229589Y126665D02*
X229789D01*
X229889Y126765D01*
X229789Y126865D01*
X229589D01*
X229739D01*
Y126665D01*
X229889Y126965D02*
X229589D01*
Y127165D01*
X229839Y127265D02*
X229889Y127315D01*
Y127415D01*
X229839Y127465D01*
X229789D01*
X229739Y127415D01*
X229689Y127465D01*
X229639D01*
X229589Y127415D01*
Y127315D01*
X229639Y127265D01*
X229689D01*
X229739Y127315D01*
X229789Y127265D01*
X229839D01*
X229739Y127315D02*
Y127415D01*
X229889Y127565D02*
X229589D01*
Y127765D01*
Y127864D02*
Y127964D01*
Y127914D01*
X229889D01*
X229839Y127864D01*
X229589Y128264D02*
X229889D01*
X229739Y128114D01*
Y128314D01*
X229839Y128914D02*
X229889Y128864D01*
Y128764D01*
X229839Y128714D01*
X229639D01*
X229589Y128764D01*
Y128864D01*
X229639Y128914D01*
X229739D01*
Y128814D01*
X229589Y129014D02*
X229789D01*
X229889Y129114D01*
X229789Y129214D01*
X229589D01*
X229739D01*
Y129014D01*
X229889Y129314D02*
X229589D01*
Y129514D01*
Y129914D02*
X229889D01*
Y130064D01*
X229839Y130114D01*
X229739D01*
X229689Y130064D01*
Y129914D01*
Y130014D02*
X229589Y130114D01*
Y130364D02*
Y130264D01*
X229639Y130214D01*
X229739D01*
X229789Y130264D01*
Y130364D01*
X229739Y130414D01*
X229689D01*
Y130214D01*
X229489Y130514D02*
X229789D01*
Y130664D01*
X229739Y130714D01*
X229639D01*
X229589Y130664D01*
Y130514D01*
Y130814D02*
Y130913D01*
Y130864D01*
X229889D01*
Y130814D01*
X229789Y131113D02*
Y131213D01*
X229739Y131263D01*
X229589D01*
Y131113D01*
X229639Y131063D01*
X229689Y131113D01*
Y131263D01*
X229789Y131563D02*
Y131413D01*
X229739Y131363D01*
X229639D01*
X229589Y131413D01*
Y131563D01*
Y131813D02*
Y131713D01*
X229639Y131663D01*
X229739D01*
X229789Y131713D01*
Y131813D01*
X229739Y131863D01*
X229689D01*
Y131663D01*
X229589Y131963D02*
X229789D01*
Y132013D01*
X229739Y132063D01*
X229589D01*
X229739D01*
X229789Y132113D01*
X229739Y132163D01*
X229589D01*
Y132413D02*
Y132313D01*
X229639Y132263D01*
X229739D01*
X229789Y132313D01*
Y132413D01*
X229739Y132463D01*
X229689D01*
Y132263D01*
X229589Y132563D02*
X229789D01*
Y132713D01*
X229739Y132763D01*
X229589D01*
X229839Y132913D02*
X229789D01*
Y132863D01*
Y132963D01*
Y132913D01*
X229639D01*
X229589Y132963D01*
X224689Y126365D02*
X224539D01*
X224489Y126415D01*
X224539Y126465D01*
X224489Y126515D01*
X224539Y126565D01*
X224689D01*
Y126665D02*
X224539D01*
X224489Y126715D01*
X224539Y126765D01*
X224489Y126815D01*
X224539Y126865D01*
X224689D01*
Y126965D02*
X224539D01*
X224489Y127015D01*
X224539Y127065D01*
X224489Y127115D01*
X224539Y127165D01*
X224689D01*
X224489Y127265D02*
X224539D01*
Y127315D01*
X224489D01*
Y127265D01*
X224389Y127515D02*
X224689D01*
Y127665D01*
X224639Y127715D01*
X224539D01*
X224489Y127665D01*
Y127515D01*
X224689Y127814D02*
X224489D01*
X224589D01*
X224639Y127864D01*
X224689Y127914D01*
Y127964D01*
X224489Y128164D02*
Y128264D01*
X224539Y128314D01*
X224639D01*
X224689Y128264D01*
Y128164D01*
X224639Y128114D01*
X224539D01*
X224489Y128164D01*
X224389Y128414D02*
Y128464D01*
X224439Y128514D01*
X224689D01*
X224489Y128864D02*
Y128764D01*
X224539Y128714D01*
X224639D01*
X224689Y128764D01*
Y128864D01*
X224639Y128914D01*
X224589D01*
Y128714D01*
X224689Y129214D02*
Y129064D01*
X224639Y129014D01*
X224539D01*
X224489Y129064D01*
Y129214D01*
X224739Y129364D02*
X224689D01*
Y129314D01*
Y129414D01*
Y129364D01*
X224539D01*
X224489Y129414D01*
X224689Y129564D02*
X224489Y129664D01*
X224689Y129764D01*
X224789Y129864D02*
X224489D01*
Y130014D01*
X224539Y130064D01*
X224589D01*
X224639D01*
X224689Y130014D01*
Y129864D01*
X224489Y130164D02*
X224539D01*
Y130214D01*
X224489D01*
Y130164D01*
X224689Y130614D02*
Y130464D01*
X224639Y130414D01*
X224539D01*
X224489Y130464D01*
Y130614D01*
Y130764D02*
Y130864D01*
X224539Y130913D01*
X224639D01*
X224689Y130864D01*
Y130764D01*
X224639Y130714D01*
X224539D01*
X224489Y130764D01*
Y131013D02*
X224689D01*
Y131063D01*
X224639Y131113D01*
X224489D01*
X224639D01*
X224689Y131163D01*
X224639Y131213D01*
X224489D01*
M02*
