G04*
G04 #@! TF.GenerationSoftware,Altium Limited,Altium Designer,20.2.6 (244)*
G04*
G04 Layer_Color=16711935*
%FSAX24Y24*%
%MOIN*%
G70*
G04*
G04 #@! TF.SameCoordinates,57D1006C-5FB8-4E46-A0DD-9EF21319E2AC*
G04*
G04*
G04 #@! TF.FilePolarity,Negative*
G04*
G01*
G75*
%ADD17C,0.0600*%
%ADD18C,0.0671*%
%ADD19R,0.0671X0.0671*%
%ADD20R,0.0600X0.0600*%
D17*
X228689Y131365D02*
D03*
Y126365D02*
D03*
Y127365D02*
D03*
Y128365D02*
D03*
Y129365D02*
D03*
Y130365D02*
D03*
Y132365D02*
D03*
Y133365D02*
D03*
Y134365D02*
D03*
Y135365D02*
D03*
Y136365D02*
D03*
Y137365D02*
D03*
X225689Y126365D02*
D03*
Y127365D02*
D03*
Y128365D02*
D03*
Y129365D02*
D03*
Y130365D02*
D03*
Y131365D02*
D03*
Y132365D02*
D03*
Y133365D02*
D03*
Y134365D02*
D03*
Y135365D02*
D03*
Y136365D02*
D03*
D18*
X226639Y126865D02*
D03*
Y127865D02*
D03*
Y128865D02*
D03*
Y129865D02*
D03*
Y130865D02*
D03*
Y131865D02*
D03*
Y132865D02*
D03*
Y133865D02*
D03*
Y134865D02*
D03*
Y135865D02*
D03*
X223639Y126865D02*
D03*
Y127865D02*
D03*
Y128865D02*
D03*
Y129865D02*
D03*
Y130865D02*
D03*
Y131865D02*
D03*
Y132865D02*
D03*
Y133865D02*
D03*
Y134865D02*
D03*
X230739Y126865D02*
D03*
Y127865D02*
D03*
Y128865D02*
D03*
Y129865D02*
D03*
Y130865D02*
D03*
Y131865D02*
D03*
Y132865D02*
D03*
Y133865D02*
D03*
Y134865D02*
D03*
Y135865D02*
D03*
X227739Y126865D02*
D03*
Y127865D02*
D03*
Y128865D02*
D03*
Y129865D02*
D03*
Y130865D02*
D03*
Y131865D02*
D03*
Y132865D02*
D03*
Y133865D02*
D03*
Y134865D02*
D03*
D19*
X223639Y135865D02*
D03*
X227739D02*
D03*
D20*
X225689Y137365D02*
D03*
M02*
