M48
;Layer_Color=9474304
;FILE_FORMAT=2:4
INCH
;TYPE=PLATED
T1F00S00C0.0150
T2F00S00C0.0320
T3F00S00C0.0354
%
T01
X230900Y126165
X230084Y127449
X228689Y126865
X228606Y128865
X228689Y130865
X227189
X227190Y131865
X225689
Y129865
X225089Y128692
X224294Y128865
Y130865
Y132865
Y134865
X224244Y136526
X225089Y136242
X225959Y135865
X225689Y133865
X228689Y132865
Y134865
X230084Y135365
Y134013
Y132013
Y130013
X227188Y126165
X225094Y127316
X223489Y126165
Y137565
X227189Y137277
X228689Y136865
X230889Y137565
T02
X228689Y126365
Y127365
Y128365
Y129365
Y130365
Y131365
Y132365
Y133365
Y134365
Y135365
Y136365
Y137365
X225689
Y136365
Y135365
Y134365
Y133365
Y132365
Y131365
Y130365
Y129365
Y128365
Y127365
Y126365
T03
X230739Y126865
Y127865
Y128865
Y129865
Y130865
Y131865
Y132865
Y133865
Y134865
Y135865
X227739
Y134865
Y133865
Y132865
Y131865
Y130865
Y129865
Y128865
Y127865
Y126865
X226639
Y127865
Y128865
Y129865
Y130865
Y131865
Y132865
Y133865
Y134865
Y135865
X223639
Y134865
Y133865
Y132865
Y131865
Y130865
Y129865
Y128865
Y127865
Y126865
M30
